<?xml version="1.0" encoding="utf-8"?>
<!-- Generator: Adobe Illustrator 27.2.0, SVG Export Plug-In . SVG Version: 6.00 Build 0)  -->
<svg version="1.1" id="Layer_1" xmlns="http://www.w3.org/2000/svg" xmlns:xlink="http://www.w3.org/1999/xlink" x="0px" y="0px"
	 viewBox="0 0 80 120" style="enable-background:new 0 0 80 120;" xml:space="preserve">
<style type="text/css">
	.st0{fill:#FFFFFF;stroke:#0065BD;stroke-width:2;}
	.st1{fill:#0065BD;}
	.st2{fill:#FFFFFF;}
</style>
<path class="st0" d="M1,119V1h58.6L79,20.4V119H1z"/>
<path class="st1" d="M80,20L60,0v20H80z"/>
<rect x="10" y="60" class="st1" width="60" height="5"/>
<rect x="10" y="70" class="st1" width="60" height="5"/>
<rect x="10" y="80" class="st1" width="30" height="5"/>
<rect x="10" y="28" class="st1" width="60" height="27"/>
<path class="st2" d="M23.1,37.7L19.7,48H17l4.6-12.4h1.7L23.1,37.7z M25.9,48l-3.4-10.3l-0.3-2.1H24L28.6,48H25.9z M25.7,43.4v2
	h-6.6v-2H25.7z M31.6,38.8l1.5,2.8l1.6-2.8h2.6l-2.6,4.5l2.7,4.7h-2.6l-1.7-3l-1.7,3h-2.6l2.7-4.7L29,38.8H31.6z M44,45.8v-7h2.5V48
	h-2.3L44,45.8z M44.3,43.9l0.7,0c0,0.6-0.1,1.2-0.2,1.7c-0.1,0.5-0.4,1-0.6,1.4c-0.3,0.4-0.6,0.7-1.1,0.9c-0.4,0.2-0.9,0.3-1.5,0.3
	c-0.5,0-0.9-0.1-1.2-0.2c-0.4-0.1-0.7-0.3-1-0.6c-0.3-0.3-0.5-0.6-0.6-1.1c-0.1-0.4-0.2-1-0.2-1.6v-6h2.5v6c0,0.3,0,0.5,0.1,0.7
	c0.1,0.2,0.2,0.3,0.3,0.5c0.1,0.1,0.3,0.2,0.4,0.3c0.2,0.1,0.3,0.1,0.5,0.1c0.5,0,0.9-0.1,1.2-0.3c0.3-0.2,0.5-0.5,0.6-0.8
	C44.2,44.7,44.3,44.3,44.3,43.9z M50.8,40.8V48h-2.5v-9.2h2.3L50.8,40.8z M53.6,38.7l0,2.3c-0.1,0-0.3,0-0.4,0c-0.2,0-0.3,0-0.5,0
	c-0.3,0-0.6,0-0.9,0.1c-0.3,0.1-0.5,0.2-0.6,0.4c-0.2,0.2-0.3,0.4-0.4,0.6c-0.1,0.2-0.1,0.5-0.1,0.8l-0.5-0.2c0-0.6,0.1-1.1,0.2-1.6
	c0.1-0.5,0.3-0.9,0.5-1.3c0.2-0.4,0.5-0.7,0.9-0.9c0.3-0.2,0.7-0.3,1.2-0.3c0.1,0,0.3,0,0.4,0C53.4,38.6,53.5,38.7,53.6,38.7z
	 M58.8,48.2c-0.7,0-1.4-0.1-1.9-0.3c-0.6-0.2-1.1-0.6-1.5-1c-0.4-0.4-0.7-0.9-0.9-1.4c-0.2-0.5-0.3-1.1-0.3-1.7v-0.3
	c0-0.7,0.1-1.3,0.3-1.9c0.2-0.6,0.5-1.1,0.9-1.5c0.4-0.4,0.8-0.8,1.4-1c0.5-0.2,1.1-0.4,1.8-0.4c0.7,0,1.2,0.1,1.7,0.3
	c0.5,0.2,0.9,0.5,1.3,0.9c0.3,0.4,0.6,0.9,0.8,1.4c0.2,0.6,0.3,1.2,0.3,1.8v1h-7.3v-1.6h4.9v-0.2c0-0.3-0.1-0.6-0.2-0.9
	c-0.1-0.3-0.3-0.5-0.5-0.6c-0.2-0.2-0.6-0.2-0.9-0.2c-0.3,0-0.6,0.1-0.8,0.2c-0.2,0.1-0.4,0.3-0.6,0.6c-0.1,0.3-0.3,0.6-0.3,0.9
	c-0.1,0.3-0.1,0.7-0.1,1.1v0.3c0,0.4,0.1,0.7,0.2,1c0.1,0.3,0.3,0.6,0.5,0.8c0.2,0.2,0.4,0.4,0.7,0.5c0.3,0.1,0.6,0.2,1,0.2
	c0.4,0,0.9-0.1,1.2-0.3c0.4-0.2,0.7-0.4,1-0.8l1.2,1.3c-0.2,0.3-0.5,0.5-0.8,0.8c-0.3,0.3-0.7,0.5-1.2,0.6
	C60,48.1,59.4,48.2,58.8,48.2z"/>
</svg>
