<svg xmlns="http://www.w3.org/2000/svg" xml:space="preserve" viewBox="0 0 104 152">
  <path fill="#fff" fill-rule="evenodd" d="M4 4h76l20 20v124H4V4z" clip-rule="evenodd"/>
  <path fill-opacity=".08" fill-rule="evenodd" d="M81.7 0 104 22.3V152H0V0h81.7zM4 4h76l20 20v124H4V4z" clip-rule="evenodd"/>
  <path fill="#0065bd" fill-rule="evenodd" d="M4 4h76l20 20v124H4V4zm2 142h92V24.8L79.2 6H6v140z" clip-rule="evenodd"/>
  <path fill="#0065bd" d="M100 24 80 4v20h20zM16 63h72v6H16v-6zm0 12h72v6H16v-6zm0 12h36v6H16v-6zm0-57h72v27H16V30z"/>
  <path fill="#fff" d="M35.8 46.5h-6l-1.3 3.7h-1.9L32 36h1.6L39 50.2h-1.9l-1.3-3.7zm-5.4-1.6h4.8l-2.4-6.7-2.4 6.7zm13.9-1.4 2.3-3.9h2.1l-3.5 5.2 3.6 5.3h-2.1l-2.4-4-2.4 4h-2.1l3.6-5.3-3.5-5.2H42l2.3 3.9zm12.9 5.7c-.7.8-1.7 1.2-3.1 1.2-1.1 0-2-.3-2.6-1s-.9-1.6-.9-2.9v-6.9h1.8v6.8c0 1.6.7 2.4 2 2.4 1.4 0 2.3-.5 2.8-1.5v-7.7H59v10.6h-1.7l-.1-1zm9.6-7.9c-.3 0-.6-.1-.9-.1-1.2 0-2 .5-2.4 1.5v7.5h-1.8V39.6h1.8v1.2c.6-.9 1.4-1.4 2.5-1.4.4 0 .6 0 .8.1v1.8zm6 9.1c-1.4 0-2.6-.5-3.5-1.4S68 46.8 68 45.2v-.3c0-1 .2-2 .6-2.8s1-1.5 1.7-1.9 1.5-.7 2.3-.7c1.4 0 2.4.5 3.2 1.4S77 43 77 44.7v.8h-7.2c0 1 .3 1.9.9 2.5s1.3 1 2.2 1c.6 0 1.2-.1 1.6-.4s.8-.6 1.2-1l1.1.9c-.9 1.2-2.2 1.9-4 1.9zm-.2-9.5c-.7 0-1.3.3-1.8.8S70 43 69.9 44h5.3v-.1c-.1-.9-.3-1.6-.7-2.1s-1.1-.9-1.9-.9z"/>
</svg>
