<svg xmlns="http://www.w3.org/2000/svg" xml:space="preserve" viewBox="0 0 104 152">
  <path fill="#fff" fill-rule="evenodd" d="M4 4h76l20 20v124H4V4z" clip-rule="evenodd"/>
  <path fill-opacity=".1" fill-rule="evenodd" d="M81.7 0 104 22.3V152H0V0h81.7zM4 4h76l20 20v124H4V4z" clip-rule="evenodd"/>
  <path fill="#0065bd" fill-rule="evenodd" d="M4 4h76l20 20v124H4V4zm2 142h92V24.8L79.2 6H6v140z" clip-rule="evenodd"/>
  <path fill="#0065bd" d="M100 24 80 4v20h20zM16 63h72v6H16v-6zm0 12h72v6H16v-6zm0 12h36v6H16v-6zm0-57h72v27H16V30z"/>
  <path fill="#fcfcfc" d="M33.7 43.9h-6v6.3h-1.9V36h8.8v1.5h-6.9v4.9h6v1.5zm3-7.1c0-.3.1-.5.3-.7s.4-.3.8-.3.6.1.8.3.3.4.3.7-.1.5-.3.7-.4.3-.8.3-.6-.1-.8-.3-.3-.4-.3-.7zm1.9 13.4h-1.8V39.6h1.8v10.6zm2.5-5.4c0-1.6.4-3 1.1-3.9s1.8-1.5 3-1.5c1.3 0 2.3.5 3 1.4l.1-1.2H50v10.3c0 1.4-.4 2.4-1.2 3.2s-1.9 1.2-3.3 1.2c-.8 0-1.5-.2-2.2-.5s-1.3-.8-1.7-1.3l.9-1.1c.8 1 1.7 1.4 2.8 1.4.9 0 1.6-.2 2.1-.7s.7-1.2.7-2.1v-.9c-.7.8-1.7 1.2-3 1.2-1.2 0-2.2-.5-3-1.5s-1-2.3-1-4zm1.8.2c0 1.2.2 2.1.7 2.8s1.2 1 2.1 1c1.1 0 2-.5 2.5-1.6v-4.8c-.6-1-1.4-1.5-2.5-1.5-.9 0-1.6.3-2.1 1s-.7 1.8-.7 3.1zm11.5-5.4v1.2a4 4 0 0 1 3.1-1.4c1.5 0 2.5.6 3 1.7a4.2 4.2 0 0 1 3.4-1.7c2.3 0 3.5 1.2 3.5 3.7v7.1h-1.8v-7c0-.8-.2-1.3-.5-1.7s-.8-.5-1.6-.5c-.7 0-1.2.2-1.7.6s-.7.9-.8 1.6v7h-1.8v-6.9c0-1.5-.8-2.3-2.3-2.3-1.2 0-2 .5-2.4 1.5v7.7h-1.8V39.6h1.7zm22.4 10.6-.3-1.1c-.8.9-1.8 1.3-3 1.3-1 0-1.9-.3-2.6-.9s-1-1.3-1-2.2c0-1.1.4-2 1.3-2.6s2-.9 3.5-.9h1.8V43c0-.6-.2-1.1-.6-1.5s-.9-.6-1.7-.6c-.6 0-1.2.2-1.6.5s-.6.7-.6 1.2h-1.8c0-.5.2-1 .6-1.5s.9-.9 1.5-1.2 1.3-.4 2.1-.4c1.2 0 2.2.3 2.9.9s1 1.4 1.1 2.5v4.9c0 1 .1 1.7.4 2.3v.2h-2zm-3-1.4c.6 0 1.1-.1 1.6-.4s.9-.7 1.1-1.1v-2.2h-1.4c-2.2 0-3.3.6-3.3 1.9 0 .6.2 1 .6 1.3s.8.5 1.4.5z"/>
</svg>
