<?xml version="1.0" encoding="utf-8"?>
<!-- Generator: Adobe Illustrator 27.2.0, SVG Export Plug-In . SVG Version: 6.00 Build 0)  -->
<svg version="1.1" id="Layer_1" xmlns="http://www.w3.org/2000/svg" xmlns:xlink="http://www.w3.org/1999/xlink" x="0px" y="0px"
	 viewBox="0 0 80 120" style="enable-background:new 0 0 80 120;" xml:space="preserve">
<style type="text/css">
	.st0{fill:#FFFFFF;stroke:#0065BD;stroke-width:2;}
	.st1{fill:#0065BD;}
	.st2{fill:#FFFFFF;}
</style>
<path class="st0" d="M1,119V1h58.6L79,20.4V119H1z"/>
<path class="st1" d="M80,20L60,0v20H80z"/>
<rect x="10" y="60" class="st1" width="60" height="5"/>
<rect x="10" y="70" class="st1" width="60" height="5"/>
<rect x="10" y="80" class="st1" width="30" height="5"/>
<rect x="10" y="28" class="st1" width="60" height="27"/>
<path class="st2" d="M19.3,35.6V48h-2.6V35.6H19.3z M24.3,40.9v2h-5.7v-2H24.3z M24.9,35.6v2h-6.3v-2H24.9z M28.8,38.8V48h-2.5v-9.2
	H28.8z M26.2,36.3c0-0.4,0.1-0.7,0.4-0.9c0.3-0.2,0.6-0.4,1-0.4c0.4,0,0.7,0.1,1,0.4c0.3,0.2,0.4,0.5,0.4,0.9c0,0.4-0.1,0.7-0.4,0.9
	c-0.3,0.2-0.6,0.4-1,0.4c-0.4,0-0.8-0.1-1-0.4C26.3,37,26.2,36.7,26.2,36.3z M36.7,38.8h2.2v8.9c0,0.8-0.2,1.6-0.6,2.1
	c-0.4,0.6-0.9,1-1.6,1.3c-0.7,0.3-1.4,0.5-2.3,0.5c-0.4,0-0.8-0.1-1.2-0.2c-0.4-0.1-0.8-0.3-1.2-0.5c-0.4-0.2-0.7-0.5-1-0.8l1.1-1.5
	c0.3,0.3,0.6,0.6,1,0.8c0.4,0.2,0.8,0.3,1.2,0.3c0.4,0,0.8-0.1,1.1-0.2c0.3-0.2,0.5-0.4,0.7-0.7c0.2-0.3,0.2-0.7,0.2-1.1v-6.8
	L36.7,38.8z M30.4,43.5v-0.2c0-0.7,0.1-1.3,0.3-1.9c0.2-0.6,0.4-1.1,0.7-1.5c0.3-0.4,0.7-0.7,1.2-1c0.5-0.2,1-0.3,1.6-0.3
	c0.6,0,1.1,0.1,1.5,0.3c0.4,0.2,0.8,0.6,1,1c0.3,0.4,0.5,0.9,0.6,1.5c0.2,0.6,0.3,1.2,0.4,1.9v0.4c-0.1,0.6-0.2,1.2-0.4,1.8
	c-0.2,0.6-0.4,1-0.7,1.5c-0.3,0.4-0.6,0.7-1,1c-0.4,0.2-0.9,0.3-1.5,0.3c-0.6,0-1.1-0.1-1.5-0.4c-0.5-0.2-0.8-0.6-1.2-1
	c-0.3-0.4-0.6-0.9-0.8-1.5C30.5,44.8,30.4,44.2,30.4,43.5z M32.9,43.3v0.2c0,0.4,0,0.7,0.1,1.1c0.1,0.3,0.2,0.6,0.3,0.9
	c0.2,0.3,0.4,0.4,0.6,0.6c0.2,0.1,0.5,0.2,0.8,0.2c0.5,0,0.8-0.1,1.1-0.3c0.3-0.2,0.5-0.5,0.6-0.8c0.1-0.3,0.2-0.7,0.2-1.2v-1.1
	c0-0.4-0.1-0.7-0.1-1c-0.1-0.3-0.2-0.5-0.4-0.7c-0.2-0.2-0.4-0.4-0.6-0.5c-0.2-0.1-0.5-0.2-0.9-0.2c-0.3,0-0.6,0.1-0.8,0.2
	c-0.2,0.1-0.4,0.3-0.6,0.6c-0.2,0.3-0.3,0.5-0.4,0.9C32.9,42.6,32.9,42.9,32.9,43.3z M43.3,40.7V48h-2.5v-9.2h2.3L43.3,40.7z
	 M42.9,43.1h-0.7c0-0.6,0.1-1.2,0.2-1.8c0.2-0.5,0.4-1,0.7-1.4c0.3-0.4,0.7-0.7,1.1-0.9c0.5-0.2,1-0.3,1.6-0.3
	c0.4,0,0.8,0.1,1.1,0.2c0.3,0.1,0.6,0.3,0.9,0.6c0.3,0.3,0.4,0.6,0.6,1c0.1,0.4,0.2,0.9,0.2,1.5V48h-2.5v-5.9c0-0.4-0.1-0.7-0.2-1
	c-0.1-0.2-0.3-0.4-0.5-0.5c-0.2-0.1-0.5-0.1-0.7-0.1c-0.3,0-0.6,0.1-0.8,0.2c-0.2,0.1-0.4,0.3-0.6,0.5c-0.2,0.2-0.3,0.5-0.3,0.8
	C43,42.4,42.9,42.7,42.9,43.1z M48.4,42.8l-0.9,0.1c0-0.6,0.1-1.2,0.2-1.7c0.2-0.5,0.4-1,0.7-1.4c0.3-0.4,0.7-0.7,1.1-0.9
	c0.4-0.2,1-0.3,1.5-0.3c0.4,0,0.8,0.1,1.2,0.2c0.4,0.1,0.7,0.3,0.9,0.6c0.3,0.3,0.5,0.6,0.6,1.1c0.1,0.4,0.2,1,0.2,1.6V48h-2.5v-5.9
	c0-0.4-0.1-0.8-0.2-1c-0.1-0.2-0.3-0.4-0.5-0.5c-0.2-0.1-0.5-0.1-0.7-0.1c-0.3,0-0.6,0.1-0.8,0.2c-0.2,0.1-0.4,0.3-0.6,0.5
	c-0.1,0.2-0.3,0.4-0.3,0.7C48.5,42.2,48.4,42.5,48.4,42.8z M61,45.9v-4.1c0-0.3,0-0.5-0.1-0.8c-0.1-0.2-0.2-0.4-0.5-0.5
	c-0.2-0.1-0.5-0.2-0.8-0.2c-0.3,0-0.5,0-0.7,0.1c-0.2,0.1-0.4,0.2-0.5,0.4c-0.1,0.2-0.2,0.4-0.2,0.6h-2.5c0-0.4,0.1-0.8,0.3-1.1
	c0.2-0.4,0.4-0.7,0.8-0.9c0.3-0.3,0.8-0.5,1.2-0.6c0.5-0.2,1-0.2,1.6-0.2c0.7,0,1.4,0.1,1.9,0.4c0.6,0.2,1,0.6,1.3,1.1
	c0.3,0.5,0.5,1.1,0.5,1.8v4c0,0.5,0,0.9,0.1,1.2c0.1,0.3,0.2,0.6,0.3,0.8V48h-2.5c-0.1-0.3-0.2-0.6-0.3-0.9C61,46.7,61,46.3,61,45.9
	z M61.3,42.4l0,1.4h-1.4c-0.3,0-0.6,0-0.8,0.1c-0.2,0.1-0.4,0.2-0.6,0.3c-0.2,0.1-0.3,0.3-0.3,0.5C58.1,44.8,58,45,58,45.2
	c0,0.2,0,0.4,0.1,0.6c0.1,0.2,0.2,0.3,0.4,0.4c0.2,0.1,0.4,0.1,0.6,0.1c0.4,0,0.7-0.1,1-0.2c0.3-0.1,0.5-0.3,0.6-0.5
	c0.2-0.2,0.2-0.4,0.2-0.6l0.6,1c-0.1,0.2-0.2,0.5-0.4,0.7c-0.2,0.3-0.4,0.5-0.6,0.7c-0.2,0.2-0.5,0.4-0.9,0.5
	c-0.3,0.1-0.7,0.2-1.2,0.2c-0.6,0-1.1-0.1-1.6-0.4c-0.5-0.2-0.8-0.6-1.1-1c-0.3-0.4-0.4-0.9-0.4-1.4c0-0.5,0.1-0.9,0.3-1.3
	c0.2-0.4,0.5-0.7,0.8-0.9c0.4-0.3,0.8-0.5,1.3-0.6c0.5-0.1,1.2-0.2,1.9-0.2H61.3z"/>
</svg>
