<svg viewBox="0 0 1920 1080" xmlns="http://www.w3.org/2000/svg"><path d="m-.5-.41h1921v1080.81h-1921z" fill="#fff"/><g fill="#d9effc"><circle cx="1836.57" cy="75.94" r="5.56"/><circle cx="1836.57" cy="179.06" r="5.56"/><circle cx="1836.57" cy="282.19" r="5.56"/><circle cx="1836.57" cy="385.31" r="5.56"/><circle cx="1836.57" cy="488.44" r="5.56"/><circle cx="1836.57" cy="591.56" r="5.56"/><circle cx="1836.57" cy="694.69" r="5.56"/><circle cx="1836.57" cy="797.81" r="5.56"/><circle cx="1836.57" cy="900.94" r="5.56"/><circle cx="1836.57" cy="1004.06" r="5.56"/><circle cx="1733.44" cy="75.94" r="5.56"/><circle cx="1733.44" cy="179.06" r="5.56"/><circle cx="1733.44" cy="282.19" r="5.56"/><circle cx="1733.44" cy="385.31" r="5.56"/><circle cx="1733.44" cy="488.44" r="5.56"/><circle cx="1733.44" cy="591.56" r="5.56"/><circle cx="1733.44" cy="694.69" r="5.56"/><circle cx="1733.44" cy="797.81" r="5.56"/><circle cx="1733.44" cy="900.94" r="5.56"/><circle cx="1733.44" cy="1004.06" r="5.56"/><circle cx="1630.32" cy="75.94" r="5.56"/><circle cx="1630.32" cy="179.06" r="5.56"/><circle cx="1630.32" cy="282.19" r="5.56"/><circle cx="1630.32" cy="385.31" r="5.56"/><circle cx="1630.32" cy="488.44" r="5.56"/><circle cx="1630.32" cy="591.56" r="5.56"/><circle cx="1630.32" cy="694.69" r="5.56"/><circle cx="1630.32" cy="797.81" r="5.56"/><circle cx="1630.32" cy="900.94" r="5.56"/><circle cx="1630.32" cy="1004.06" r="5.56"/><circle cx="1527.19" cy="75.94" r="5.56"/><circle cx="1527.19" cy="179.06" r="5.56"/><circle cx="1527.19" cy="282.19" r="5.56"/><circle cx="1527.19" cy="385.31" r="5.56"/><circle cx="1527.19" cy="488.44" r="5.56"/><circle cx="1527.19" cy="591.56" r="5.56"/><circle cx="1527.19" cy="694.69" r="5.56"/><circle cx="1527.19" cy="797.81" r="5.56"/><circle cx="1527.19" cy="900.94" r="5.56"/><circle cx="1527.19" cy="1004.06" r="5.56"/><circle cx="1424.06" cy="75.94" r="5.56"/><circle cx="1424.06" cy="179.06" r="5.56"/><circle cx="1424.06" cy="282.19" r="5.56"/><circle cx="1424.06" cy="385.31" r="5.56"/><circle cx="1424.06" cy="488.44" r="5.56"/><circle cx="1424.06" cy="591.56" r="5.56"/><circle cx="1424.06" cy="694.69" r="5.56"/><circle cx="1424.06" cy="797.81" r="5.56"/><circle cx="1424.06" cy="900.94" r="5.56"/><circle cx="1424.06" cy="1004.06" r="5.56"/><circle cx="1320.94" cy="75.94" r="5.56"/><circle cx="1320.94" cy="179.06" r="5.56"/><circle cx="1320.94" cy="282.19" r="5.56"/><circle cx="1320.94" cy="385.31" r="5.56"/><circle cx="1320.94" cy="488.44" r="5.56"/><circle cx="1320.94" cy="591.56" r="5.56"/><circle cx="1320.94" cy="694.69" r="5.56"/><circle cx="1320.94" cy="797.81" r="5.56"/><circle cx="1320.94" cy="900.94" r="5.56"/><circle cx="1320.94" cy="1004.06" r="5.56"/><circle cx="1217.81" cy="75.94" r="5.56"/><circle cx="1217.81" cy="179.06" r="5.56"/><circle cx="1217.81" cy="282.19" r="5.56"/><circle cx="1217.81" cy="385.31" r="5.56"/><circle cx="1217.81" cy="488.44" r="5.56"/><circle cx="1217.81" cy="591.56" r="5.56"/><circle cx="1217.81" cy="694.69" r="5.56"/><circle cx="1217.81" cy="797.81" r="5.56"/><circle cx="1217.81" cy="900.94" r="5.56"/><circle cx="1217.81" cy="1004.06" r="5.56"/><circle cx="1114.69" cy="75.94" r="5.56"/><circle cx="1114.69" cy="179.06" r="5.56"/><circle cx="1114.69" cy="282.19" r="5.56"/><circle cx="1114.69" cy="385.31" r="5.56"/><circle cx="1114.69" cy="488.44" r="5.56"/><circle cx="1114.69" cy="591.56" r="5.56"/><circle cx="1114.69" cy="694.69" r="5.56"/><circle cx="1114.69" cy="797.81" r="5.56"/><circle cx="1114.69" cy="900.94" r="5.56"/><circle cx="1114.69" cy="1004.06" r="5.56"/><circle cx="1011.56" cy="75.94" r="5.56"/><circle cx="1011.56" cy="179.06" r="5.56"/><circle cx="1011.56" cy="282.19" r="5.56"/><circle cx="1011.56" cy="385.31" r="5.56"/><circle cx="1011.56" cy="488.44" r="5.56"/><circle cx="1011.56" cy="591.56" r="5.56"/><circle cx="1011.56" cy="694.69" r="5.56"/><circle cx="1011.56" cy="797.81" r="5.56"/><circle cx="1011.56" cy="900.94" r="5.56"/><circle cx="1011.56" cy="1004.06" r="5.56"/><circle cx="908.44" cy="75.94" r="5.56"/><circle cx="908.44" cy="179.06" r="5.56"/><circle cx="908.44" cy="282.19" r="5.56"/><circle cx="908.44" cy="385.31" r="5.56"/><circle cx="908.44" cy="488.44" r="5.56"/><circle cx="908.44" cy="591.56" r="5.56"/><circle cx="908.44" cy="694.69" r="5.56"/><circle cx="908.44" cy="797.81" r="5.56"/><circle cx="908.44" cy="900.94" r="5.56"/><circle cx="908.44" cy="1004.06" r="5.56"/><circle cx="805.31" cy="75.94" r="5.56"/><circle cx="805.31" cy="179.06" r="5.56"/><circle cx="805.31" cy="282.19" r="5.56"/><circle cx="805.31" cy="385.31" r="5.56"/><circle cx="805.31" cy="488.44" r="5.56"/><circle cx="805.31" cy="591.56" r="5.56"/><circle cx="805.31" cy="694.69" r="5.56"/><circle cx="805.31" cy="797.81" r="5.56"/><circle cx="805.31" cy="900.94" r="5.56"/><circle cx="805.31" cy="1004.06" r="5.56"/><circle cx="702.19" cy="75.94" r="5.56"/><circle cx="702.19" cy="179.06" r="5.56"/><circle cx="702.19" cy="282.19" r="5.56"/><circle cx="702.19" cy="385.31" r="5.56"/><circle cx="702.19" cy="488.44" r="5.56"/><circle cx="702.19" cy="591.56" r="5.56"/><circle cx="702.19" cy="694.69" r="5.56"/><circle cx="702.19" cy="797.81" r="5.56"/><circle cx="702.19" cy="900.94" r="5.56"/><circle cx="702.19" cy="1004.06" r="5.56"/><circle cx="599.06" cy="75.94" r="5.56"/><circle cx="599.06" cy="179.06" r="5.56"/><circle cx="599.06" cy="282.19" r="5.56"/><circle cx="599.06" cy="385.31" r="5.56"/><circle cx="599.06" cy="488.44" r="5.56"/><circle cx="599.06" cy="591.56" r="5.56"/><circle cx="599.06" cy="694.69" r="5.56"/><circle cx="599.06" cy="797.81" r="5.56"/><circle cx="599.06" cy="900.94" r="5.56"/><circle cx="599.06" cy="1004.06" r="5.56"/><circle cx="495.94" cy="75.94" r="5.56"/><circle cx="495.94" cy="179.06" r="5.56"/><circle cx="495.94" cy="282.19" r="5.56"/><circle cx="495.94" cy="385.31" r="5.56"/><circle cx="495.94" cy="488.44" r="5.56"/><circle cx="495.94" cy="591.56" r="5.56"/><circle cx="495.94" cy="694.69" r="5.56"/><circle cx="495.94" cy="797.81" r="5.56"/><circle cx="495.94" cy="900.94" r="5.56"/><circle cx="495.94" cy="1004.06" r="5.56"/><circle cx="392.81" cy="75.94" r="5.56"/><circle cx="392.81" cy="179.06" r="5.56"/><circle cx="392.81" cy="282.19" r="5.56"/><circle cx="392.81" cy="385.31" r="5.56"/><circle cx="392.81" cy="488.44" r="5.56"/><circle cx="392.81" cy="591.56" r="5.56"/><circle cx="392.81" cy="694.69" r="5.56"/><circle cx="392.81" cy="797.81" r="5.56"/><circle cx="392.81" cy="900.94" r="5.56"/><circle cx="392.81" cy="1004.06" r="5.56"/><circle cx="289.68" cy="75.94" r="5.56"/><circle cx="289.68" cy="179.06" r="5.56"/><circle cx="289.68" cy="282.19" r="5.56"/><circle cx="289.68" cy="385.31" r="5.56"/><circle cx="289.68" cy="488.44" r="5.56"/><circle cx="289.68" cy="591.56" r="5.56"/><circle cx="289.68" cy="694.69" r="5.56"/><circle cx="289.68" cy="797.81" r="5.56"/><circle cx="289.68" cy="900.94" r="5.56"/><circle cx="289.68" cy="1004.06" r="5.56"/><circle cx="186.56" cy="75.94" r="5.56"/><circle cx="186.56" cy="179.06" r="5.56"/><circle cx="186.56" cy="282.19" r="5.56"/><circle cx="186.56" cy="385.31" r="5.56"/><circle cx="186.56" cy="488.44" r="5.56"/><circle cx="186.56" cy="591.56" r="5.56"/><circle cx="186.56" cy="694.69" r="5.56"/><circle cx="186.56" cy="797.81" r="5.56"/><circle cx="186.56" cy="900.94" r="5.56"/><circle cx="186.56" cy="1004.06" r="5.56"/><circle cx="83.43" cy="75.94" r="5.56"/><circle cx="83.43" cy="179.06" r="5.56"/><circle cx="83.43" cy="282.19" r="5.56"/><circle cx="83.43" cy="385.31" r="5.56"/><circle cx="83.43" cy="488.44" r="5.56"/><circle cx="83.43" cy="591.56" r="5.56"/><circle cx="83.43" cy="694.69" r="5.56"/><circle cx="83.43" cy="797.81" r="5.56"/><circle cx="83.43" cy="900.94" r="5.56"/><circle cx="83.43" cy="1004.06" r="5.56"/></g><path d="m382.85 698.45h36.33a0 0 0 0 1 0 0v368.46a0 0 0 0 1 0 0h-221.86a0 0 0 0 1 0 0v-182.91a185.53 185.53 0 0 1 185.53-185.55z" fill="#ccd6db"/><path d="m127.93 838.52h228.39v228.39h-228.39z" fill="#00a4b4"/><circle cx="577.7" cy="481.16" fill="#ebebeb" r="42.13"/><path d="m634.17 382.6h140.69v140.69h-140.69z" fill="#ccd6db"/><path d="m843.13 169.03h354.26v354.26h-354.26z" fill="#333"/><circle cx="1336.48" cy="394.88" fill="#82368c" r="128.41"/><path d="m1003.44 360.78h-51l-11.57 31.55h-10l42.56-112.33h9l42.57 112.33h-9.87zm-48.06-8h45l-22.48-61.2z" fill="#fff"/><path d="m1092 392.33a43.5 43.5 0 0 1 -1.78-11.65 32.21 32.21 0 0 1 -12.38 9.76 37.93 37.93 0 0 1 -15.93 3.43q-12 0-19.48-6.71a21.84 21.84 0 0 1 -7.45-17q0-12.19 10.15-19.29t28.27-7.1h16.74v-9.48q0-9-5.51-14.08t-16.09-5.13q-9.65 0-16 4.93t-6.32 11.88l-9.26-.07q0-10 9.26-17.25t22.76-7.29q13.95 0 22 7t8.29 19.48v39.5q0 12.11 2.55 18.13v.92zm-29-6.63a30.94 30.94 0 0 0 16.55-4.48 26.29 26.29 0 0 0 10.6-12v-18.32h-16.51q-13.8.17-21.6 5.06t-7.79 13.46a14.94 14.94 0 0 0 5.21 11.65q5.21 4.62 13.54 4.63z" fill="#fff"/><path d="m1584.01 652.26h89.33v204.03h-89.33z" fill="#ebebeb"/><path d="m1584.01 862.88h187.79v204.03h-187.79z" fill="#ccd6db"/><path d="m447.69 528.72h1153.68v538.19h-1153.68z" fill="#0065bd"/><path d="m447.69 528.72h51.72v538.19h-51.72z" fill="#002d54"/><path d="m1549.65 528.72h51.72v538.19h-51.72z" fill="#002d54"/><path d="m686.65 528.72h14.59v538.19h-14.59z" fill="#002d54"/><path d="m907.05 528.72h14.59v538.19h-14.59z" fill="#002d54"/><path d="m1127.44 528.72h14.59v538.19h-14.59z" fill="#002d54"/><path d="m1347.83 528.72h14.59v538.19h-14.59z" fill="#002d54"/><path d="m365.21 672.83h67.24v65.51h-67.24z" fill="#f8f8f8" stroke="#0065bd"/><path d="m432.45 672.83h67.24v65.51h-67.24z" fill="#f8f8f8" stroke="#0065bd"/><path d="m499.69 672.83h67.24v65.51h-67.24z" fill="#f8f8f8" stroke="#0065bd"/><path d="m566.93 672.83h67.24v65.51h-67.24z" fill="#f8f8f8" stroke="#0065bd"/><path d="m634.17 672.83h67.24v65.51h-67.24z" fill="#f8f8f8" stroke="#0065bd"/><path d="m701.41 672.83h67.24v65.51h-67.24z" fill="#f8f8f8" stroke="#0065bd"/><path d="m768.65 672.83h67.24v65.51h-67.24z" fill="#f8f8f8" stroke="#0065bd"/><path d="m835.89 672.83h67.24v65.51h-67.24z" fill="#f8f8f8" stroke="#0065bd"/><path d="m903.13 672.83h67.24v65.51h-67.24z" fill="#f8f8f8" stroke="#0065bd"/><path d="m970.37 672.83h67.24v65.51h-67.24z" fill="#f8f8f8" stroke="#0065bd"/><path d="m365.21 738.34h67.24v65.51h-67.24z" fill="#f8f8f8" stroke="#0065bd"/><path d="m432.45 738.34h67.24v65.51h-67.24z" fill="#f8f8f8" stroke="#0065bd"/><path d="m499.69 738.34h67.24v65.51h-67.24z" fill="#f8f8f8" stroke="#0065bd"/><path d="m566.93 738.34h67.24v65.51h-67.24z" fill="#f8f8f8" stroke="#0065bd"/><path d="m634.17 738.34h67.24v65.51h-67.24z" fill="#f8f8f8" stroke="#0065bd"/><path d="m701.41 738.34h67.24v65.51h-67.24z" fill="#f8f8f8" stroke="#0065bd"/><path d="m768.65 738.34h67.24v65.51h-67.24z" fill="#f8f8f8" stroke="#0065bd"/><path d="m835.89 738.34h67.24v65.51h-67.24z" fill="#f8f8f8" stroke="#0065bd"/><path d="m903.13 738.34h67.24v65.51h-67.24z" fill="#f8f8f8" stroke="#0065bd"/><path d="m970.37 738.34h67.24v65.51h-67.24z" fill="#f8f8f8" stroke="#0065bd"/><path d="m365.21 803.85h67.24v65.51h-67.24z" fill="#f8f8f8" stroke="#0065bd"/><path d="m432.45 803.85h67.24v65.51h-67.24z" fill="#f8f8f8" stroke="#0065bd"/><path d="m499.69 803.85h67.24v65.51h-67.24z" fill="#fff" stroke="#fff"/><path d="m566.93 803.85h67.24v65.51h-67.24z" fill="#fff" stroke="#fff"/><path d="m634.17 803.85h67.24v65.51h-67.24z" fill="#fff" stroke="#fff"/><path d="m701.41 803.85h67.24v65.51h-67.24z" fill="#fff" stroke="#fff"/><path d="m768.65 803.85h67.24v65.51h-67.24z" fill="#fff" stroke="#fff"/><path d="m835.89 803.85h67.24v65.51h-67.24z" fill="#fff" stroke="#fff"/><path d="m903.13 803.85h67.24v65.51h-67.24z" fill="#f8f8f8" stroke="#0065bd"/><path d="m970.37 803.85h67.24v65.51h-67.24z" fill="#f8f8f8" stroke="#0065bd"/><path d="m365.21 869.36h67.24v65.51h-67.24z" fill="#f8f8f8" stroke="#0065bd"/><path d="m432.45 869.36h67.24v65.51h-67.24z" fill="#f8f8f8" stroke="#0065bd"/><path d="m499.69 869.36h67.24v65.51h-67.24z" fill="#fff" stroke="#fff"/><path d="m566.93 869.36h67.24v65.51h-67.24z" fill="#fff" stroke="#fff"/><path d="m634.17 869.36h67.24v65.51h-67.24z" fill="#fff" stroke="#fff"/><path d="m701.41 869.36h67.24v65.51h-67.24z" fill="#fff" stroke="#fff"/><path d="m768.65 869.36h67.24v65.51h-67.24z" fill="#fff" stroke="#fff"/><path d="m835.89 869.36h67.24v65.51h-67.24z" fill="#fff" stroke="#fff"/><path d="m903.13 869.36h67.24v65.51h-67.24z" fill="#f8f8f8" stroke="#0065bd"/><path d="m970.37 869.36h67.24v65.51h-67.24z" fill="#f8f8f8" stroke="#0065bd"/><path d="m365.21 934.88h67.24v65.51h-67.24z" fill="#f8f8f8" stroke="#0065bd"/><path d="m432.45 934.88h67.24v65.51h-67.24z" fill="#f8f8f8" stroke="#0065bd"/><path d="m499.69 934.88h67.24v65.51h-67.24z" fill="#f8f8f8" stroke="#0065bd"/><path d="m566.93 934.88h67.24v65.51h-67.24z" fill="#f8f8f8" stroke="#0065bd"/><path d="m634.17 934.88h67.24v65.51h-67.24z" fill="#f8f8f8" stroke="#0065bd"/><path d="m701.41 934.88h67.24v65.51h-67.24z" fill="#f8f8f8" stroke="#0065bd"/><path d="m768.65 934.88h67.24v65.51h-67.24z" fill="#f8f8f8" stroke="#0065bd"/><path d="m835.89 934.88h67.24v65.51h-67.24z" fill="#f8f8f8" stroke="#0065bd"/><path d="m903.13 934.88h67.24v65.51h-67.24z" fill="#f8f8f8" stroke="#0065bd"/><path d="m970.37 934.88h67.24v65.51h-67.24z" fill="#f8f8f8" stroke="#0065bd"/><path d="m365.21 1000.39h67.24v65.51h-67.24z" fill="#f8f8f8" stroke="#0065bd"/><path d="m432.45 1000.39h67.24v65.51h-67.24z" fill="#f8f8f8" stroke="#0065bd"/><path d="m499.69 1000.39h67.24v65.51h-67.24z" fill="#f8f8f8" stroke="#0065bd"/><path d="m566.93 1000.39h67.24v65.51h-67.24z" fill="#f8f8f8" stroke="#0065bd"/><path d="m634.17 1000.39h67.24v65.51h-67.24z" fill="#f8f8f8" stroke="#0065bd"/><path d="m701.41 1000.39h67.24v65.51h-67.24z" fill="#f8f8f8" stroke="#0065bd"/><path d="m768.65 1000.39h67.24v65.51h-67.24z" fill="#f8f8f8" stroke="#0065bd"/><path d="m835.89 1000.39h67.24v65.51h-67.24z" fill="#f8f8f8" stroke="#0065bd"/><path d="m903.13 1000.39h67.24v65.51h-67.24z" fill="#f8f8f8" stroke="#0065bd"/><path d="m970.37 1000.39h67.24v65.51h-67.24z" fill="#f8f8f8" stroke="#0065bd"/><path d="m499.69 673.85v393.06" fill="none" stroke="#0065bd" stroke-width="4"/><path d="m1037.61 803.85h-672.4" fill="none" stroke="#0065bd" stroke-width="4"/><path d="m1037.61 934.88h-672.4" fill="none" stroke="#0065bd" stroke-width="4"/><path d="m903.13 672.83v393.07" fill="none" stroke="#0065bd" stroke-width="4"/><path d="m499.69 934.88 403.44-131.03" fill="none" stroke="#0065bd" stroke-width="4"/><path d="m903.13 934.88-403.44-131.03" fill="none" stroke="#0065bd" stroke-width="4"/><path d="m1244.01 909.73h157.18v157.18h-157.18z" fill="#fab545"/></svg>