<svg viewBox="0 0 1920 1080" xmlns="http://www.w3.org/2000/svg" xmlns:xlink="http://www.w3.org/1999/xlink"><clipPath id="a"><path d="m85.58 354.52h1154.25v370.96h-1154.25z"/></clipPath><path d="m0 0h1920v1080h-1920z" fill="#f8f8f8"/><g fill="#ebebeb"><path d="m85.58 162.4h113.73v755.2h-113.73z"/><path d="m234.23 162.4h113.73v755.2h-113.73z"/><path d="m382.88 162.4h113.73v755.2h-113.73z"/><path d="m531.52 162.4h113.73v755.2h-113.73z"/><path d="m680.17 162.4h113.73v755.2h-113.73z"/><path d="m828.81 162.4h113.73v755.2h-113.73z"/><path d="m977.46 162.4h113.73v755.2h-113.73z"/><path d="m1126.1 162.4h113.73v755.2h-113.73z"/><path d="m1274.75 162.4h113.73v755.2h-113.73z"/><path d="m1423.4 162.4h113.73v755.2h-113.73z"/><path d="m1572.04 162.4h113.73v755.2h-113.73z"/><path d="m1720.69 162.4h113.73v755.2h-113.73z"/></g><g clip-path="url(#a)"><path d="m85.58 354.52h1154.25v370.96h-1154.25z" fill="#0065bd"/><g stroke="#fff" stroke-width="2"><circle cx="548.72" cy="417.76" fill="#0065bd" r="38.36"/><path d="m598.38 727.22v-82.42h639.29" fill="none"/><path d="m848.81 727.22v-40.6a12 12 0 0 1 12-12h7.92a12 12 0 0 1 12 12v40.6" fill="none"/><path d="m905.34 727.22v-40.6a12 12 0 0 1 12-12h7.92a12 12 0 0 1 12 12v40.6" fill="none"/><path d="m961.87 727.22v-40.6a12 12 0 0 1 12-12h7.92a12 12 0 0 1 12 12v40.6" fill="none"/><path d="m1018.4 727.22v-40.6a12 12 0 0 1 12-12h7.93a12 12 0 0 1 12 12v40.6" fill="none"/><path d="m1074.93 727.22v-40.6a12 12 0 0 1 12-12h7.93a12 12 0 0 1 12 12v40.6" fill="none"/><path d="m1131.47 727.22v-40.6a12 12 0 0 1 12-12h7.92a12 12 0 0 1 12 12v40.6" fill="none"/><path d="m1188 727.22v-40.6a12 12 0 0 1 12-12h7.92a12 12 0 0 1 12 12v40.6" fill="none"/><path d="m622.68 727.22v-40.6a12 12 0 0 1 12-12h7.92a12 12 0 0 1 12 12v40.6" fill="none"/><path d="m679.21 727.22v-40.6a12 12 0 0 1 12-12h7.92a12 12 0 0 1 12 12v40.6" fill="none"/><path d="m735.74 727.22v-40.6a12 12 0 0 1 12-12h7.93a12 12 0 0 1 12 12v40.6" fill="none"/><path d="m792.27 727.22v-40.6a12 12 0 0 1 12-12h7.93a12 12 0 0 1 12 12v40.6" fill="none"/><path d="m608.56 659.52h629.12" fill="none"/><path d="m880.71 465.91a29.82 29.82 0 0 1 -1 8.91 15.18 15.18 0 0 1 -14.72 11h-111.27a15.15 15.15 0 0 1 -14.07-9.23 24.19 24.19 0 0 1 32.81-31 34 34 0 0 1 65.54-5.04 29.35 29.35 0 0 1 15.11-3 29.71 29.71 0 0 1 27.6 28.36z" fill="none"/><path d="m993.78 517.69a17.34 17.34 0 0 1 -.6 5.28 9 9 0 0 1 -8.71 6.52h-65.9a9 9 0 0 1 -8.33-5.46 14.33 14.33 0 0 1 19.43-18.36 20.15 20.15 0 0 1 38.84-3 17.51 17.51 0 0 1 25.27 15z" fill="none"/><path d="m1153.4 489.05a17.42 17.42 0 0 1 -.6 5.28 9 9 0 0 1 -8.71 6.52h-65.9a9 9 0 0 1 -8.33-5.47 14.32 14.32 0 0 1 19.43-18.38 20.15 20.15 0 0 1 38.84-3 17.51 17.51 0 0 1 25.27 15z" fill="none"/><path d="m1139.23 629.11v12.71h14.66z" fill="none"/><path d="m1080.72 599.6h20.57" fill="none" stroke-linecap="square"/><path d="m1080.72 611.07h52.39a10 10 0 0 1 10 10v.47a10 10 0 0 1 -10 10h-52.39a0 0 0 0 1 0 0v-20.47a0 0 0 0 1 0 0z" fill="#0065bd"/><circle cx="1086.9" cy="633.71" fill="#0065bd" r="7.09"/><circle cx="1104.64" cy="633.71" fill="#0065bd" r="7.09"/><circle cx="1119.47" cy="636.62" fill="#0065bd" r="4.18"/><circle cx="1131.56" cy="636.62" fill="#0065bd" r="4.18"/><path d="m1124.07 599.74h3.44a2.23 2.23 0 0 1 2.23 2.23v9.03a0 0 0 0 1 0 0h-7.89a0 0 0 0 1 0 0v-9a2.23 2.23 0 0 1 2.22-2.26z" fill="none"/><path d="m1080.72 599.6v11.42" fill="none" stroke-linecap="square"/><path d="m1096.38 599.6v11.42" fill="none" stroke-linecap="square"/><path d="m247.28 402.51-251.79 335.22h503.58z" fill="#0065bd"/><path d="m188.73 480.69 35.47 44.73 23.08-29.11 23.08 29.11 35.47-44.73" fill="#0065bd"/><path d="m460.7 459.9-251.79 335.23h503.58z" fill="#0065bd"/><path d="m402.15 537.4 35.47 44.73 23.08-29.1 23.08 29.1 35.47-44.73" fill="#0065bd"/><circle cx="884.99" cy="636.62" fill="#0065bd" r="4.18"/><circle cx="897.07" cy="636.62" fill="#0065bd" r="4.18"/><circle cx="852.04" cy="636.62" fill="#0065bd" r="4.18"/><circle cx="864.12" cy="636.62" fill="#0065bd" r="4.18"/><path d="m846.06 599.6h57a6.12 6.12 0 0 1 6.12 6.12v28a0 0 0 0 1 0 0h-69.24a0 0 0 0 1 0 0v-28a6.12 6.12 0 0 1 6.12-6.12z" fill="#0065bd"/><path d="m839.94 622.5h69.08" fill="none"/><path d="m850.68 611.02v5.63" fill="none" stroke-linecap="round"/><path d="m866.6 611.02v5.63" fill="none" stroke-linecap="round"/><path d="m882.52 611.02v5.63" fill="none" stroke-linecap="round"/><path d="m898.43 611.02v5.63" fill="none" stroke-linecap="round"/><circle cx="964.89" cy="636.62" fill="#0065bd" r="4.18"/><circle cx="976.98" cy="636.62" fill="#0065bd" r="4.18"/><circle cx="931.94" cy="636.62" fill="#0065bd" r="4.18"/><circle cx="944.03" cy="636.62" fill="#0065bd" r="4.18"/><path d="m926 599.6h57a6.12 6.12 0 0 1 6.12 6.12v28a0 0 0 0 1 0 0h-69.27a0 0 0 0 1 0 0v-28a6.12 6.12 0 0 1 6.15-6.12z" fill="#0065bd"/><path d="m919.85 622.5h69.08" fill="none"/><path d="m930.58 611.02v5.63" fill="none" stroke-linecap="round"/><path d="m946.5 611.02v5.63" fill="none" stroke-linecap="round"/><path d="m962.42 611.02v5.63" fill="none" stroke-linecap="round"/><path d="m978.34 611.02v5.63" fill="none" stroke-linecap="round"/><circle cx="1044.8" cy="636.62" fill="#0065bd" r="4.18"/><circle cx="1056.88" cy="636.62" fill="#0065bd" r="4.18"/><circle cx="1011.85" cy="636.62" fill="#0065bd" r="4.18"/><circle cx="1023.93" cy="636.62" fill="#0065bd" r="4.18"/><path d="m1005.87 599.6h57a6.12 6.12 0 0 1 6.12 6.12v28a0 0 0 0 1 0 0h-69.24a0 0 0 0 1 0 0v-28a6.12 6.12 0 0 1 6.12-6.12z" fill="#0065bd"/><path d="m999.75 622.5h69.08" fill="none"/><path d="m1010.49 611.02v5.63" fill="none" stroke-linecap="round"/><path d="m1026.4 611.02v5.63" fill="none" stroke-linecap="round"/><path d="m1042.32 611.02v5.63" fill="none" stroke-linecap="round"/><path d="m1058.24 611.02v5.63" fill="none" stroke-linecap="round"/><path d="m1121.54 573.57a8.88 8.88 0 0 0 -3.61.76c0-.21 0-.42 0-.63a12.72 12.72 0 0 0 -8.33-11.94 19.61 19.61 0 1 0 -19.08 15.11 19.31 19.31 0 0 0 2.3-.15 12.72 12.72 0 0 0 19.88 7.26 8.93 8.93 0 1 0 8.81-10.41z" fill="none" stroke-linecap="round"/></g></g></svg>