<svg viewBox="0 0 1920 1080" xmlns="http://www.w3.org/2000/svg" xmlns:xlink="http://www.w3.org/1999/xlink"><clipPath id="a"><path d="m85.58 354.52h1154.25v370.96h-1154.25z"/></clipPath><path d="m0 0h1920v1080h-1920z" fill="#f8f8f8"/><g fill="#ebebeb"><path d="m85.58 162.4h113.73v755.2h-113.73z"/><path d="m234.23 162.4h113.73v755.2h-113.73z"/><path d="m382.88 162.4h113.73v755.2h-113.73z"/><path d="m531.52 162.4h113.73v755.2h-113.73z"/><path d="m680.17 162.4h113.73v755.2h-113.73z"/><path d="m828.81 162.4h113.73v755.2h-113.73z"/><path d="m977.46 162.4h113.73v755.2h-113.73z"/><path d="m1126.1 162.4h113.73v755.2h-113.73z"/><path d="m1274.75 162.4h113.73v755.2h-113.73z"/><path d="m1423.4 162.4h113.73v755.2h-113.73z"/><path d="m1572.04 162.4h113.73v755.2h-113.73z"/><path d="m1720.69 162.4h113.73v755.2h-113.73z"/></g><g clip-path="url(#a)"><path d="m85.58 354.52h1154.25v370.96h-1154.25z" fill="#0065bd"/><circle cx="396.5" cy="482.84" fill="#0065bd" r="78.98" stroke="#fff" stroke-width="2"/><path d="m973.17 636.15h57.85v41.2h-57.85z" fill="#0065bd"/><path d="m848.56 501.2a12.18 12.18 0 0 1 -.43 3.74 6.37 6.37 0 0 1 -6.18 4.63h-46.75a6.38 6.38 0 0 1 -5.91-3.88 10.17 10.17 0 0 1 13.79-13 14.3 14.3 0 0 1 27.55-2.13 12.43 12.43 0 0 1 17.93 10.66z" fill="none" stroke="#fff" stroke-width="2"/><path d="m350.81 471.46a12.46 12.46 0 0 1 -.42 3.74 6.37 6.37 0 0 1 -6.18 4.63h-46.75a6.37 6.37 0 0 1 -5.92-3.88 10.17 10.17 0 0 1 13.79-13 14.3 14.3 0 0 1 27.56-2.13 12.42 12.42 0 0 1 17.92 10.66z" fill="#0065bd" stroke="#fff" stroke-width="2"/><path d="m1193.59 456.53a12.49 12.49 0 0 1 -.42 3.74 6.38 6.38 0 0 1 -6.19 4.63h-46.75a6.38 6.38 0 0 1 -5.91-3.88 10.16 10.16 0 0 1 13.79-13 14.3 14.3 0 0 1 27.55-2.13 12.43 12.43 0 0 1 17.93 10.66z" fill="none" stroke="#fff" stroke-width="2"/><path d="m1115.04 429.37 188.14 250.49h-376.29z" fill="#0065bd" stroke="#fff" stroke-width="2"/><path d="m1158.79 487.79-26.5 33.42-17.25-21.75-17.25 21.75-26.5-33.42" fill="#0065bd" stroke="#fff" stroke-width="2"/><path d="m915.75 479.51 150.49 200.35h-300.97z" fill="#0065bd" stroke="#fff" stroke-width="2"/><path d="m950.75 525.83-21.2 26.73-13.8-17.4-13.79 17.4-21.2-26.73" fill="#0065bd" stroke="#fff" stroke-width="2"/><path d="m476.38 682.71h152.32" fill="none" stroke="#fff" stroke-width="2"/><path d="m1060.17 667.5h5.79v12h-5.79z" fill="#0065bd"/><path d="m844.21 644.49h423.61" fill="#0065bd" stroke="#fff" stroke-width="2"/><path d="m844.21 649.97h423.61" fill="#0065bd" stroke="#fff" stroke-width="2"/><path d="m853.35 660v19.53h-9.14v-19.53a4.57 4.57 0 0 1 9.14 0z" fill="#0065bd" stroke="#fff" stroke-width="2"/><path d="m870.59 660v19.53h-9.14v-19.53a4.59 4.59 0 0 1 4.57-4.58 4.61 4.61 0 0 1 4.57 4.58z" fill="#0065bd" stroke="#fff" stroke-width="2"/><path d="m887.82 660v19.53h-9.14v-19.53a4.57 4.57 0 0 1 9.14 0z" fill="#0065bd" stroke="#fff" stroke-width="2"/><path d="m905.05 660v19.53h-9.13v-19.53a4.57 4.57 0 0 1 9.13 0z" fill="#0065bd" stroke="#fff" stroke-width="2"/><path d="m922.29 660v19.53h-9.14v-19.53a4.57 4.57 0 0 1 9.14 0z" fill="#0065bd" stroke="#fff" stroke-width="2"/><path d="m939.53 660v19.53h-9.14v-19.53a4.57 4.57 0 0 1 9.14 0z" fill="#0065bd" stroke="#fff" stroke-width="2"/><path d="m956.76 660v19.53h-9.14v-19.53a4.57 4.57 0 0 1 9.14 0z" fill="#0065bd" stroke="#fff" stroke-width="2"/><path d="m974 660v19.53h-9.14v-19.53a4.59 4.59 0 0 1 4.56-4.58 4.61 4.61 0 0 1 4.58 4.58z" fill="#0065bd" stroke="#fff" stroke-width="2"/><path d="m991.23 660v19.53h-9.14v-19.53a4.57 4.57 0 0 1 9.14 0z" fill="#0065bd" stroke="#fff" stroke-width="2"/><path d="m1008.47 660v19.53h-9.14v-19.53a4.59 4.59 0 0 1 4.57-4.58 4.61 4.61 0 0 1 4.57 4.58z" fill="#0065bd" stroke="#fff" stroke-width="2"/><path d="m1025.7 660v19.53h-9.14v-19.53a4.57 4.57 0 0 1 9.14 0z" fill="#0065bd" stroke="#fff" stroke-width="2"/><path d="m1042.94 660v19.53h-9.14v-19.53a4.59 4.59 0 0 1 4.57-4.58 4.61 4.61 0 0 1 4.57 4.58z" fill="#0065bd" stroke="#fff" stroke-width="2"/><path d="m1060.17 660v19.53h-9.17v-19.53a4.57 4.57 0 0 1 9.13 0z" fill="#0065bd" stroke="#fff" stroke-width="2"/><path d="m1077.41 660v19.53h-9.14v-19.53a4.57 4.57 0 0 1 9.14 0z" fill="#0065bd" stroke="#fff" stroke-width="2"/><path d="m1094.64 660v19.53h-9.13v-19.53a4.57 4.57 0 0 1 9.13 0z" fill="#0065bd" stroke="#fff" stroke-width="2"/><path d="m1111.88 660v19.53h-9.14v-19.53a4.57 4.57 0 0 1 9.14 0z" fill="#0065bd" stroke="#fff" stroke-width="2"/><path d="m1129.11 660v19.53h-9.11v-19.53a4.57 4.57 0 0 1 9.13 0z" fill="#0065bd" stroke="#fff" stroke-width="2"/><path d="m1146.35 660v19.53h-9.14v-19.53a4.57 4.57 0 0 1 9.14 0z" fill="#0065bd" stroke="#fff" stroke-width="2"/><path d="m1163.58 660v19.53h-9.13v-19.53a4.57 4.57 0 0 1 9.13 0z" fill="#0065bd" stroke="#fff" stroke-width="2"/><path d="m1180.82 660v19.53h-9.14v-19.53a4.57 4.57 0 0 1 9.14 0z" fill="#0065bd" stroke="#fff" stroke-width="2"/><path d="m1198.05 660v19.53h-9.13v-19.53a4.58 4.58 0 0 1 4.57-4.58 4.59 4.59 0 0 1 4.56 4.58z" fill="#0065bd" stroke="#fff" stroke-width="2"/><path d="m1215.29 660v19.53h-9.14v-19.53a4.57 4.57 0 0 1 9.14 0z" fill="#0065bd" stroke="#fff" stroke-width="2"/><path d="m1232.52 660v19.53h-9.13v-19.53a4.58 4.58 0 0 1 4.57-4.58 4.59 4.59 0 0 1 4.56 4.58z" fill="#0065bd" stroke="#fff" stroke-width="2"/><path d="m1249.76 660v19.53h-9.14v-19.53a4.57 4.57 0 0 1 9.14 0z" fill="#0065bd" stroke="#fff" stroke-width="2"/><path d="m1267 660v19.53h-9.13v-19.53a4.58 4.58 0 0 1 4.57-4.58 4.59 4.59 0 0 1 4.56 4.58z" fill="#0065bd" stroke="#fff" stroke-width="2"/><path d="m851.37 685.27h409.74v13.68h-409.74z" fill="#0065bd"/><path d="m-20.67 465.13 201.24 267.93h-402.48z" fill="#0065bd" stroke="#fff" stroke-width="2"/><path d="m26.13 527.07-28.35 35.75-18.45-23.27-18.45 23.27-28.35-35.75" fill="#0065bd" stroke="#fff" stroke-width="2"/><path d="m417.03 592.06h-59.58v-52.23h47l12.58 14.24z" fill="#0065bd"/><path d="m312.67 518.93h32.67v19.47h-32.67z" fill="#0065bd"/><g stroke="#fff" stroke-width="2"><path d="m345.34 538.4v53.65h-133.42v-53.65h7.59v19.94h12.35v-19.94h44.16v19.94h12.34v-19.94h10.45v19.94h12.34v-19.94h10.45v19.94h12.34v-19.94z" fill="#0065bd" stroke-linejoin="round"/><path d="m295.01 501.84h5.22v17.09h-5.22z" fill="#0065bd" stroke-miterlimit="10"/><path d="m300.23 501.84h5.22v17.09h-5.22z" fill="#0065bd" stroke-miterlimit="10"/><path d="m73.28 726.42h434.44v-18l-7.59-16.66-9.03-4.74-.47-13.77-14.25-6.18-80.24-16.38-151.27-3.89h-80.19l-31.1 9.83-1.42 10.44h-13.26l-6.22 11.4-18.04 6.17z" fill="#0065bd" stroke-miterlimit="10"/><path d="m231.86 538.4-6.17-7.6-6.18 7.6h-7.59l11.39-19.47h133.42l-11.39 19.47h-11.4l-6.17-7.6-6.17 7.6h-10.45l-6.17-7.6-6.17 7.6h-10.45l-6.17-7.6-6.17 7.6" fill="none" stroke-linejoin="round"/><path d="m223.31 501.84h3.8v17.09h-3.8z" fill="#0065bd" stroke-miterlimit="10"/><path d="m351.04 501.84h5.7v17.09h-5.7z" fill="#0065bd" stroke-miterlimit="10"/><path d="m227.11 501.84h5.7v17.09h-5.7z" fill="#0065bd" stroke-miterlimit="10"/><path d="m168.71 565.47h43.21v26.59h-43.21z" fill="#0065bd" stroke-miterlimit="10"/><path d="m168.71 551.7h43.21v13.29h-43.21z" fill="#0065bd" stroke-miterlimit="10"/><path d="m195.77 518.93v32.77" fill="#0065bd" stroke-miterlimit="10"/><path d="m175.36 518.93h16.62v10.92h-16.62z" fill="#0065bd" stroke-miterlimit="10"/><path d="m396.62 611.52h-43.68l-13 10.45h-26.41v-29.92h83.09z" fill="#0065bd" stroke-miterlimit="10"/><path d="m333.94 538.4v19.94h-12.34v-19.94l6.17-7.6z" fill="#0065bd" stroke-miterlimit="10"/><path d="m311.15 538.4v19.94h-12.34v-19.94l6.17-7.6z" fill="#0065bd" stroke-miterlimit="10"/><path d="m288.36 538.4v19.94h-12.34v-19.94l6.17-7.6z" fill="#0065bd" stroke-miterlimit="10"/><path d="m231.86 538.4v19.94h-12.35v-19.94l6.18-7.6z" fill="#0065bd" stroke-miterlimit="10"/><path d="m219.52 570.21h12.34v13.77h-12.34z" fill="#0065bd" stroke-miterlimit="10"/><path d="m276.02 570.21h12.34v13.77h-12.34z" fill="#0065bd" stroke-miterlimit="10"/><path d="m299.28 570.21h12.34v13.77h-12.34z" fill="#0065bd" stroke-miterlimit="10"/><path d="m321.6 570.21h12.34v13.77h-12.34z" fill="#0065bd" stroke-miterlimit="10"/><path d="m417.03 592.05h-25.16v-37.98l12.58-14.24 12.58 14.24z" fill="#0065bd" stroke-linejoin="round"/><path d="m404.21 539.83h-27.53" fill="#0065bd" stroke-miterlimit="10"/><path d="m391.87 554.07h-15.19" fill="#0065bd" stroke-miterlimit="10"/><path d="m454.74 573.54h1.5a6.85 6.85 0 0 1 6.85 6.85v11.67a0 0 0 0 1 0 0h-15.19a0 0 0 0 1 0 0v-11.68a6.85 6.85 0 0 1 6.84-6.84z" fill="#0065bd" stroke-miterlimit="10"/><path d="m407.54 559.29h3.8v7.6h-3.8z" fill="#0065bd" stroke-miterlimit="10"/><path d="m398.99 559.29h3.8v7.6h-3.8z" fill="#0065bd" stroke-miterlimit="10"/><path d="m271.27 531.76-6.65 6.64v53.66h-26.59v-60.3l13.3-12.36 13.29 12.36z" fill="#0065bd" stroke-miterlimit="10"/><path d="m457.87 583.98v8.07h-7.36v-8.07h-5.22v8.07h-7.36v-8.07h-5.23v8.07h-36.08v32.77h66.47v-32.77-8.07z" fill="#0065bd" stroke-miterlimit="10"/><path d="m248.95 529.85h4.75v8.55h-4.75z" fill="#0065bd" stroke-miterlimit="10"/><path d="m248.95 546.47h4.75v20.42h-4.75z" fill="#0065bd" stroke-miterlimit="10"/><path d="m360.06 526.53h41.31v13.29h-41.31z" fill="#0065bd" stroke-miterlimit="10"/><path d="m396.14 518.93h5.22v7.6h-5.22z" fill="#0065bd" stroke-miterlimit="10"/><path d="m384.11 518.93h5.22v7.6h-5.22z" fill="#0065bd" stroke-miterlimit="10"/><path d="m372.09 518.93h5.22v7.6h-5.22z" fill="#0065bd" stroke-miterlimit="10"/><path d="m360.06 518.93h5.22v7.6h-5.22z" fill="#0065bd" stroke-miterlimit="10"/><path d="m376.68 538.4v53.65h-31.34v-53.65l11.39-19.47v-17.09h8.55v17.09z" fill="#0065bd" stroke-miterlimit="10"/><path d="m352.94 570.21h6.17v13.77h-6.17z" fill="#0065bd" stroke-miterlimit="10"/><path d="m365.76 570.21h6.17v13.77h-6.17z" fill="#0065bd" stroke-miterlimit="10"/><path d="m352.94 544.1h6.17v13.77h-6.17z" fill="#0065bd" stroke-miterlimit="10"/><path d="m365.76 544.1h6.17v13.77h-6.17z" fill="#0065bd" stroke-miterlimit="10"/><path d="m396.62 624.82-18.99-13.3" fill="#0065bd" stroke-miterlimit="10"/><path d="m158.27 588.49v14.51h-15.67v-14.51a7.84 7.84 0 0 1 15.67 0z" fill="#0065bd" stroke-miterlimit="10"/><path d="m345.34 656.63h-87.81l-10.1 8.54h-36.96l-9.78-8.54h-67.11v-22.32h211.76z" fill="#0065bd" stroke-miterlimit="10"/><path d="m369.55 667.07-24.21-10.44v-22.32l24.21 10.45z" fill="#0065bd" stroke-miterlimit="10"/><path d="m369.55 644.76h106.83v22.32h-106.83z" fill="#0065bd" stroke-miterlimit="10"/><path d="m432.7 624.82 28.02 19.94" fill="#0065bd" stroke-miterlimit="10"/><path d="m444.1 624.82 28.01 19.94" fill="#0065bd" stroke-miterlimit="10"/><path d="m463.09 624.82 6.17 4.38v4.16l7.12 3.8v7.6" fill="#0065bd" stroke-miterlimit="10"/><path d="m432.7 624.82v19.94" fill="#0065bd" stroke-miterlimit="10"/><path d="m281.71 656.63h15.67v15.67h-15.67z" fill="#0065bd" stroke-miterlimit="10"/><path d="m313.53 592.05v29.92h-37.51l-16.1-10.45h-91.68v10.45h-18.05v-18.99h8.07v-10.93z" fill="#0065bd" stroke-miterlimit="10"/><path d="m288.78 619.59h1.55a7.06 7.06 0 0 1 7.06 7.06v15.26a0 0 0 0 1 0 0h-15.68a0 0 0 0 1 0 0v-15.26a7.06 7.06 0 0 1 7.06-7.06z" fill="#0065bd" stroke-miterlimit="10"/><path d="m188.65 616.74v5.23h-6.64v-5.23h-7.13v5.23h-6.64v-5.23h-7.13v5.23h-6.64v-5.23h-7.13v5.23h-6.64v-5.23h-7.13v5.23 12.34h62.21v-12.34-5.23z" fill="#0065bd" stroke-miterlimit="10"/><path d="m289.31 625.29v9.02" fill="#0065bd" stroke-miterlimit="10"/><path d="m148.29 588.26v8.54" fill="#0065bd" stroke-miterlimit="10"/><path d="m365.75 714.08-17.59-10.52-12.32-19.87h-20.84l-17.62-11.39" fill="none" stroke-miterlimit="10"/><path d="m430.43 702.68-9.12-10.17-16.62-.75-10.92-11.39h-13.06l-11.16-13.3" fill="none" stroke-miterlimit="10"/><path d="m148.29 696.75 12.82-3.56 3.57-16.19 17.33-4.7 3.62-7.13 12.04-4.27 3.02-4.27" fill="none" stroke-miterlimit="10"/><path d="m137.01 699.82-15.99 3.02-6.22 12.29" fill="none" stroke-miterlimit="10"/><path d="m603.02 698.96h53.82" fill="none"/><path d="m868.92 635.67c-6.92 12.79-16.33 28.5-24.92 42.33-2 3.26-3.95 6.4-5.82 9.38h-47.79c.57-2.83 1.22-6 1.94-9.38 4.45-21 11.34-49.79 16.49-54.49 0 0 13 1.84 27.64 4.52 11.76 2.18 24.54 4.9 32.46 7.64z" fill="#0065bd"/><path d="m839.65 619.78c-1 2.65-2.08 5.42-3.19 8.27-6.39 16.32-14.22 35.3-20.36 50-1.41 3.39-2.73 6.54-3.93 9.38h-41.47c.18-2.63.39-5.83.66-9.38 1.6-21.44 4.88-56 9.78-61.92 0 0 11.56 0 25.12.63 11.74.48 24.91 1.39 33.39 3.02z" fill="#0065bd"/><path d="m808.94 608.93c-.85 2.51-1.75 5.12-2.68 7.8-7.16 20.66-16.48 45.77-22.26 61.27-1.41 3.76-2.62 7-3.54 9.38h-37.46l-.57-.08s0-1.16.06-3.2c0-1.56.08-3.63.15-6.1.55-19.47 2.34-63.29 7.64-70.23 0 0 8.88-.35 20.22-.44 12.81-.08 28.68.15 38.44 1.6z" fill="#0065bd"/><path d="m714.32 601.58s40-4.2 58.57-2.67c-9.18 33.48-25.68 85.55-25.68 85.55l-40.51-3s1.3-70.46 7.62-79.88z" fill="#0065bd"/><path d="m681.82 687.4h-55.61l-3-3.21-5.7-6.13c-7.48-8.06-15-16.24-21.3-23.39a188.52 188.52 0 0 1 17.79-9.81c7.84-3.9 16.18-7.71 22.8-10.67 7.44-3.3 12.71-5.5 12.71-5.5 4.24 2.32 11.89 16 19.14 30.59q1.22 2.44 2.41 4.91c2.31 4.75 4.53 9.48 6.53 13.83l2.43 5.33c.63 1.43 1.23 2.78 1.8 4.05z" fill="#0065bd"/><path d="m669.36 614.67c0 8-.12 17-.29 26.17-.13 6.17-.28 12.4-.44 18.44-.17 6.61-.36 13-.55 18.74-.1 3.36-.2 6.51-.3 9.38h-43.66l-.92-3.21c-.57-2-1.14-4.08-1.69-6.17-3.25-11.87-6.3-24.38-7.53-33.16-.65-4.68-.79-8.3-.15-10.21 0 0 10.47-4.47 23-9.28 10.56-4 22.61-8.33 31.13-10.38z" fill="#0065bd"/><path d="m696.94 606.29c-4.43 22.51-11.45 53.35-15.71 71.73q-.68 2.88-1.23 5.33c-.36 1.49-.67 2.85-1 4h-38.42c-.27-2.54-.59-5.74-1-9.38-1.2-12.46-2.64-30-2.85-43.83 0-3.17 0-6.15.08-8.82.21-5.49.79-9.68 1.88-11.6 0 0 14.07-2.66 29.39-4.81 10.42-1.4 21.35-2.62 28.86-2.62z" fill="#0065bd"/><path d="m670 598.1s39.59-7.48 58.19-7.48c-6.71 34.13-19.37 87.4-19.37 87.4h-36.32s-8.16-70.02-2.5-79.92z" fill="#0065bd"/><path d="m617.5 678.02h226.62v9.38h-226.62z" fill="#0065bd"/><path d="m647.86 710.58h53.83" fill="none"/><path d="m603.02 710.58h33.86" fill="none"/><path d="m722.98 710.58h88.39" fill="none"/><path d="m846.29 710.58h149.73" fill="none"/><path d="m665.64 698.96h208.2" fill="none"/><path d="m903.31 698.96h38.59" fill="none"/><path d="m982.06 698.96h98.6" fill="none"/><path d="m518.81 698.2h64.72" fill="#0065bd"/><path d="m518.81 559.86h64.18v153.64h-64.18z" fill="#0065bd"/><path d="m559.59 559.86v153.64" fill="#0065bd"/><path d="m518.81 578.46h64.18" fill="#0065bd"/><path d="m559.59 578.46-40.78 40.77" fill="#0065bd"/><path d="m518.81 578.46 40.78 40.77" fill="#0065bd"/><path d="m559.59 616.29-40.78 40.78" fill="#0065bd"/><path d="m518.81 616.29 40.78 40.78" fill="#0065bd"/><path d="m559.59 657.73-40.78 40.77" fill="#0065bd"/><path d="m518.81 657.73 40.78 40.77" fill="#0065bd"/><path d="m693.01 536.19-110.02 23.67h-65.15l-65.58-12.46v-32.63h240.75z" fill="#0065bd"/><path d="m480.32 514.77v37.96l17.41-37.33 15.96 43.86 20.63-44.24 16.43 45.12 21.27-45.62 16.1 44.22 20.44-43.84 13.3 36.56 16.89-36.23 11.02 30.26 14.02-30.07 9.18 25.21" fill="none" stroke-linejoin="bevel"/><path d="m685.65 496.9h7.37v19.07h-7.37z" fill="#0065bd"/><path d="m518.81 618.07h64.18" fill="#0065bd"/><path d="m518.81 657.53h64.18" fill="#0065bd"/><path d="m518.81 698.2h64.18" fill="#0065bd"/><path d="m685.65 514.29v23.48" fill="#0065bd"/><path d="m452.26 493.42h50.89v21.35h-50.89z" fill="#0065bd"/><path d="m494.71 493.42v21.35" fill="#0065bd"/><path d="m463.4 493.42v21.35" fill="none"/><path d="m484 493.42v21.35" fill="none"/><path d="m463.4 504.09h20.6" fill="none"/><path d="m518.81 566.6h64.18" fill="none" stroke-linejoin="bevel"/><path d="m1134.96 653.77v56.81h-143.1v-35.27h100.01v-21.54l21.55-24.87 10.99 12.7v-12.7h7.19v20.98z" fill="#0065bd"/><path d="m999.74 522.05h56.83v136.74h-56.83z" fill="#0065bd"/><path d="m1008.85 522.05v136.74" fill="none"/><path d="m1070.6 687.2h3.82a5.49 5.49 0 0 1 5.49 5.49v17.89a0 0 0 0 1 0 0h-14.8a0 0 0 0 1 0 0v-17.89a5.49 5.49 0 0 1 5.49-5.49z" fill="none"/><path d="m1056.56 675.31h-64.7l7.88-16.52h56.82z" fill="#0065bd" stroke-linejoin="round"/><path d="m1002.05 467.66h52.19v26.63h-52.19z" fill="#0065bd"/><path d="m1024.56 591.6h7.18v17.17h-7.18z" fill="none"/><path d="m1027.22 547.5h1.85a2.66 2.66 0 0 1 2.66 2.66v19.24a0 0 0 0 1 0 0h-7.18a0 0 0 0 1 0 0v-19.23a2.66 2.66 0 0 1 2.67-2.67z" fill="none"/><path d="m1024.33 472.92h7.67a11 11 0 0 1 11 11v5.6a0 0 0 0 1 0 0h-29.6a0 0 0 0 1 0 0v-5.6a11 11 0 0 1 10.93-11z" fill="none"/><path d="m1056.66 494.29h-11.78-15.17-3.12-21.33-5.62l-7.14 6.52v15.69l7.14 5.55h5.62 21.33 3.12 15.17 11.78l7.15-5.55v-15.69z" fill="#0065bd"/><path d="m1008.55 536.54h41.29" fill="none"/><path d="m1018.13 536.54h20.04v39.46h-20.04z" fill="none"/><path d="m1107.78 658.79h10.51v16.52h-10.51z" fill="none"/><path d="m1109.66 684.89h6.76v10.63h-6.76z" fill="none"/><path d="m1004.25 684.89h6.76v10.63h-6.76z" fill="none"/><path d="m1019.59 467.66h-5.98v-22.49l2.99-11.63 2.99 11.63z" fill="#0065bd"/><path d="m1042.7 467.66h-5.98v-22.49l2.99-11.63 2.99 11.63z" fill="#0065bd"/><path d="m1008.03 467.66h-5.98v-7.86l2.99-11.63 2.99 11.63z" fill="#0065bd"/><path d="m1054.26 467.66h-5.98v-7.86l2.99-11.63 2.99 11.63z" fill="#0065bd"/><path d="m996.51 511.68h61.46" fill="none"/><path d="m1028.15 448.17-19.29 19.49h38.59z" fill="#0065bd"/><path d="m1031.15 536.54h-5.98v-106.76l2.99-11.63 2.99 11.63z" fill="#0065bd"/><path d="m1008.03 472.92v21.37" fill="none"/><path d="m1048.28 472.92v21.37" fill="none"/><path d="m1079.46 681.96h-13.5v-14.57l6.75-4.87 6.75 4.87z" fill="#0065bd"/><path d="m999.64 532 9.21-9.22" fill="none"/><path d="m999.64 543.52 9.21-9.21" fill="none"/><path d="m999.64 555.05 9.21-9.21" fill="none"/><path d="m999.64 566.58 9.21-9.22" fill="none"/><path d="m999.64 578.1 9.21-9.21" fill="none"/><path d="m999.64 589.63 9.21-9.22" fill="none"/><path d="m999.64 601.16 9.21-9.22" fill="none"/><path d="m999.64 612.68 9.21-9.21" fill="none"/><path d="m999.64 624.21 9.21-9.22" fill="none"/><path d="m999.64 635.74 9.21-9.22" fill="none"/><path d="m999.64 647.26 9.21-9.21" fill="none"/><path d="m999.64 658.79 9.21-9.22" fill="none"/><path d="m1309.03 464.09 201.24 267.93h-402.49z" fill="#0065bd"/><path d="m1355.82 526.03-28.35 35.75-18.44-23.26-18.45 23.26-28.35-35.75" fill="#0065bd"/></g></g></svg>