<svg viewBox="0 0 1920 1080" xmlns="http://www.w3.org/2000/svg" xmlns:xlink="http://www.w3.org/1999/xlink"><clipPath id="a"><path d="m1126.1 343.65h708.31v392.7h-708.31z"/></clipPath><path d="m0 0h1920v1080h-1920z" fill="#f8f8f8"/><g fill="#ebebeb"><path d="m85.58 162.4h113.73v755.2h-113.73z"/><path d="m234.23 162.4h113.73v755.2h-113.73z"/><path d="m382.88 162.4h113.73v755.2h-113.73z"/><path d="m531.52 162.4h113.73v755.2h-113.73z"/><path d="m680.17 162.4h113.73v755.2h-113.73z"/><path d="m828.81 162.4h113.73v755.2h-113.73z"/><path d="m977.46 162.4h113.73v755.2h-113.73z"/><path d="m1126.1 162.4h113.73v755.2h-113.73z"/><path d="m1274.75 162.4h113.73v755.2h-113.73z"/><path d="m1423.4 162.4h113.73v755.2h-113.73z"/><path d="m1572.04 162.4h113.73v755.2h-113.73z"/><path d="m1720.69 162.4h113.73v755.2h-113.73z"/></g><g clip-path="url(#a)"><path d="m1126.1 343.65h708.31v394.11h-708.31z" fill="#0065bd"/><g stroke="#fff" stroke-width="2"><circle cx="1461.75" cy="434.95" fill="#0065bd" r="38.36"/><path d="m1680 508.19a29.43 29.43 0 0 1 -1 8.91 15.16 15.16 0 0 1 -14.71 11h-111.29a15.14 15.14 0 0 1 -14.07-9.24 24.18 24.18 0 0 1 32.81-31 34 34 0 0 1 65.58-5.07 29.55 29.55 0 0 1 42.68 25.4z" fill="none"/><path d="m1249.08 738.84v-82.41h639.3" fill="none"/><path d="m1499.51 738.84v-40.6a12 12 0 0 1 12-12h7.92a12 12 0 0 1 12 12v40.6" fill="none"/><path d="m1556 738.84v-40.6a12 12 0 0 1 12-12h8a12 12 0 0 1 12 12v40.6" fill="none"/><path d="m1612.57 738.84v-40.6a12 12 0 0 1 12-12h7.93a12 12 0 0 1 12 12v40.6" fill="none"/><path d="m1669.11 738.84v-40.6a12 12 0 0 1 12-12h7.89a12 12 0 0 1 12 12v40.6" fill="none"/><path d="m1725.64 738.84v-40.6a12 12 0 0 1 12-12h7.92a12 12 0 0 1 12 12v40.6" fill="none"/><path d="m1782.17 738.84v-40.6a12 12 0 0 1 12-12h7.92a12 12 0 0 1 12 12v40.6" fill="none"/><path d="m1838.7 738.84v-40.6a12 12 0 0 1 12-12h7.93a12 12 0 0 1 12 12v40.6" fill="none"/><path d="m1273.38 738.84v-40.6a12 12 0 0 1 12-12h7.93a12 12 0 0 1 12 12v40.6" fill="none"/><path d="m1329.91 738.84v-40.6a12 12 0 0 1 12-12h7.93a12 12 0 0 1 12 12v40.6" fill="none"/><path d="m1386.45 738.84v-40.6a12 12 0 0 1 12-12h7.92a12 12 0 0 1 12 12v40.6" fill="none"/><path d="m1443 738.84v-40.6a12 12 0 0 1 12-12h7.92a12 12 0 0 1 12 12v40.6" fill="none"/><path d="m1259.27 671.15h629.11" fill="none"/><path d="m1789.94 640.74v12.71h14.66z" fill="none"/><path d="m1731.42 611.23h20.57" fill="none" stroke-linecap="square"/><path d="m1731.42 622.7h52.39a10 10 0 0 1 10 10v.47a10 10 0 0 1 -10 10h-52.39a0 0 0 0 1 0 0v-20.47a0 0 0 0 1 0 0z" fill="#0065bd"/><circle cx="1737.6" cy="645.34" fill="#0065bd" r="7.09"/><circle cx="1755.34" cy="645.34" fill="#0065bd" r="7.09"/><circle cx="1770.18" cy="648.25" fill="#0065bd" r="4.18"/><circle cx="1782.26" cy="648.25" fill="#0065bd" r="4.18"/><path d="m1774.78 611.37h3.44a2.23 2.23 0 0 1 2.23 2.23v9.05a0 0 0 0 1 0 0h-7.89a0 0 0 0 1 0 0v-9.05a2.23 2.23 0 0 1 2.22-2.23z" fill="none"/><path d="m1731.42 611.23v11.41" fill="none" stroke-linecap="square"/><path d="m1747.09 611.23v11.41" fill="none" stroke-linecap="square"/><circle cx="1535.69" cy="648.25" fill="#0065bd" r="4.18"/><circle cx="1547.77" cy="648.25" fill="#0065bd" r="4.18"/><circle cx="1502.74" cy="648.25" fill="#0065bd" r="4.18"/><circle cx="1514.83" cy="648.25" fill="#0065bd" r="4.18"/><path d="m1496.76 611.23h57a6.12 6.12 0 0 1 6.12 6.12v28a0 0 0 0 1 0 0h-69.23a0 0 0 0 1 0 0v-28a6.12 6.12 0 0 1 6.11-6.12z" fill="#0065bd"/><path d="m1490.65 634.13h69.08" fill="none"/><path d="m1501.38 622.64v5.64" fill="none" stroke-linecap="round"/><path d="m1517.3 622.64v5.64" fill="none" stroke-linecap="round"/><path d="m1533.22 622.64v5.64" fill="none" stroke-linecap="round"/><path d="m1549.14 622.64v5.64" fill="none" stroke-linecap="round"/><circle cx="1615.6" cy="648.25" fill="#0065bd" r="4.18"/><circle cx="1627.68" cy="648.25" fill="#0065bd" r="4.18"/><circle cx="1582.65" cy="648.25" fill="#0065bd" r="4.18"/><circle cx="1594.73" cy="648.25" fill="#0065bd" r="4.18"/><path d="m1576.67 611.23h57a6.12 6.12 0 0 1 6.12 6.12v28a0 0 0 0 1 0 0h-69.23a0 0 0 0 1 0 0v-28a6.12 6.12 0 0 1 6.11-6.12z" fill="#0065bd"/><path d="m1570.55 634.13h69.08" fill="none"/><path d="m1581.29 622.64v5.64" fill="none" stroke-linecap="round"/><path d="m1597.2 622.64v5.64" fill="none" stroke-linecap="round"/><path d="m1613.12 622.64v5.64" fill="none" stroke-linecap="round"/><path d="m1629.04 622.64v5.64" fill="none" stroke-linecap="round"/><circle cx="1695.5" cy="648.25" fill="#0065bd" r="4.18"/><circle cx="1707.58" cy="648.25" fill="#0065bd" r="4.18"/><circle cx="1662.55" cy="648.25" fill="#0065bd" r="4.18"/><circle cx="1674.64" cy="648.25" fill="#0065bd" r="4.18"/><path d="m1656.57 611.23h57a6.12 6.12 0 0 1 6.12 6.12v28a0 0 0 0 1 0 0h-69.23a0 0 0 0 1 0 0v-28a6.12 6.12 0 0 1 6.11-6.12z" fill="#0065bd"/><path d="m1650.45 634.13h69.08" fill="none"/><path d="m1661.19 622.64v5.64" fill="none" stroke-linecap="round"/><path d="m1677.11 622.64v5.64" fill="none" stroke-linecap="round"/><path d="m1693.03 622.64v5.64" fill="none" stroke-linecap="round"/><path d="m1708.95 622.64v5.64" fill="none" stroke-linecap="round"/><path d="m1772.24 585.2a8.83 8.83 0 0 0 -3.6.76c0-.21 0-.42 0-.63a12.75 12.75 0 0 0 -8.34-12 19.75 19.75 0 1 0 -16.77 15 12.71 12.71 0 0 0 19.87 7.26 8.94 8.94 0 1 0 8.81-10.41z" fill="none" stroke-linecap="round"/><path d="m1800.56 456.83a17.63 17.63 0 0 1 -.6 5.27 9 9 0 0 1 -8.71 6.53h-65.9a9 9 0 0 1 -8.34-5.47 14.33 14.33 0 0 1 11.59-19.66 14.34 14.34 0 0 1 7.85 1.31 20.15 20.15 0 0 1 38.84-3 17.51 17.51 0 0 1 25.27 15z" fill="none"/><path d="m1227.74 411.34-247.17 329.07h494.33z" fill="#0065bd"/><path d="m1170.27 488.09 34.81 43.9 22.66-28.57 22.65 28.57 34.82-43.9" fill="#0065bd"/><path d="m1369.86 496.22-213.36 284.06h426.72z" fill="#0065bd"/><path d="m1320.25 561.89 30.05 37.9 19.56-24.66 19.56 24.66 30.05-37.9" fill="#0065bd"/></g></g></svg>