<svg viewBox="0 0 352 272" xmlns="http://www.w3.org/2000/svg"><circle cx="337.47" cy="219.43" fill="#e6e6e6" r="1.7"/><circle cx="337.47" cy="249.99" fill="#e6e6e6" r="1.7"/><circle cx="306.91" cy="219.43" fill="#e6e6e6" r="1.7"/><circle cx="306.91" cy="249.99" fill="#e6e6e6" r="1.7"/><circle cx="276.34" cy="219.43" fill="#e6e6e6" r="1.7"/><circle cx="276.34" cy="249.99" fill="#e6e6e6" r="1.7"/><circle cx="245.78" cy="219.43" fill="#e6e6e6" r="1.7"/><circle cx="245.78" cy="249.99" fill="#e6e6e6" r="1.7"/><circle cx="215.21" cy="219.43" fill="#e6e6e6" r="1.7"/><circle cx="215.21" cy="249.99" fill="#e6e6e6" r="1.7"/><circle cx="196.85" cy="12.62" fill="#fff" r="4.1"/><circle cx="196.85" cy="29.2" fill="#fdd522" r="4.1"/><circle cx="196.85" cy="45.78" fill="#5eb135" r="4.1"/><circle cx="196.85" cy="62.36" fill="#428542" r="4.1"/><circle cx="196.85" cy="78.94" fill="#00437e" r="4.1"/><circle cx="130.28" cy="217.27" fill="#00437e" r="2.71"/><path d="m142.18 214.95h54.6v4.65h-54.6z" fill="#00437e"/><circle cx="130.28" cy="252.71" fill="#00437e" r="2.71"/><path d="m142.18 250.39h54.6v4.65h-54.6z" fill="#00437e"/><circle cx="130.28" cy="234.99" fill="#00437e" r="2.71"/><path d="m142.18 232.67h54.6v4.65h-54.6z" fill="#00437e"/><path d="m133.41 141.32v48.7" fill="none" stroke="#e6e6e6" stroke-miterlimit="10"/><path d="m127.49 190.03h11.84" fill="none" stroke="#e6e6e6" stroke-miterlimit="10"/><path d="m127.49 141.36h11.84" fill="none" stroke="#e6e6e6" stroke-miterlimit="10"/><path d="m144.73 141.13h164.76v48.9h-164.76z" fill="none" stroke="#e6e6e6" stroke-miterlimit="10" transform="matrix(-1 0 0 -1 454.23 331.16)"/><g fill="#00437e"><path d="m151.1 147.24h5.66v36.68h-5.66z"/><path d="m164.47 147.24h5.66v36.68h-5.66z"/><path d="m177.84 147.24h5.66v36.68h-5.66z"/><path d="m191.21 147.24h5.66v36.68h-5.66z"/><path d="m204.58 147.24h5.66v36.68h-5.66z"/><path d="m217.95 147.24h5.66v36.68h-5.66z"/><path d="m231.32 147.24h5.66v36.68h-5.66z"/><path d="m244.7 147.24h5.66v36.68h-5.66z"/><path d="m258.07 147.24h5.66v36.68h-5.66z"/><path d="m271.44 147.24h5.66v36.68h-5.66z"/><path d="m284.81 147.24h5.66v36.68h-5.66z"/><path d="m298.18 147.24h5.66v36.68h-5.66z"/><path d="m231.36 147.24h72.13v36.68h-72.13z" transform="matrix(-1 0 0 -1 534.84 331.16)"/></g><path d="m303.14 92.6h-14.97l-3.36 9.35h-4.86l13.64-35.73h4.12l13.67 35.73h-4.83zm-13.54-3.85h12.15l-6.08-16.71-6.06 16.71z" fill="#fff"/><path d="m331.87 101.95c-.26-.52-.47-1.46-.64-2.8-2.11 2.19-4.63 3.29-7.56 3.29-2.62 0-4.76-.74-6.44-2.22s-2.52-3.36-2.52-5.63c0-2.76 1.05-4.91 3.15-6.44s5.06-2.29 8.87-2.29h4.42v-2.09c0-1.59-.47-2.85-1.42-3.79s-2.35-1.41-4.2-1.41c-1.62 0-2.98.41-4.07 1.23-1.1.82-1.64 1.81-1.64 2.97h-4.56c0-1.32.47-2.6 1.41-3.84s2.22-2.21 3.83-2.93 3.38-1.08 5.31-1.08c3.06 0 5.46.76 7.19 2.29s2.63 3.64 2.7 6.32v12.22c0 2.44.31 4.38.93 5.82v.39h-4.76zm-7.53-3.46c1.42 0 2.77-.37 4.05-1.1 1.28-.74 2.2-1.69 2.77-2.87v-5.45h-3.56c-5.56 0-8.34 1.63-8.34 4.88 0 1.42.47 2.54 1.42 3.34s2.17 1.2 3.66 1.2z" fill="#fff"/><rect fill="#ebebeb" height="128.37" rx="4" width="97.97" x="11.09" y="138.97"/><path d="m19.36 146.32h14.42v5.15h-14.42z" fill="#0065bd"/><path d="m109.06 143.23v-1.13c0-1.73-1.4-3.13-3.13-3.13h-91.71c-1.73 0-3.13 1.4-3.13 3.13v1.13z" fill="#0065bd"/><path d="m11.09 154.01h97.97v1.03h-97.97z" fill="#e6e6e6"/><path d="m11.09 185.95h97.97v-30.91h-97.97zm53.6-26.79h39.15v21.64h-39.15zm-45.33 0h38.12v4.12h-38.12zm0 7.21h38.12v2.06h-38.12zm19.37 5.15v2.06h-19.37v-2.06z" fill="#0065bd"/><path d="m103.84 159.16h-39.15v21.64h39.15zm-19.32 19.1c-4.48 0-8.12-3.64-8.12-8.12s3.64-8.12 8.12-8.12 8.12 3.64 8.12 8.12-3.64 8.12-8.12 8.12z" fill="#ebebeb"/><path d="m19.36 159.16h38.12v4.12h-38.12z" fill="#e6e6e6"/><path d="m19.36 166.38h38.12v2.06h-38.12z" fill="#e6e6e6"/><path d="m19.36 171.53h19.37v2.06h-19.37z" fill="#e6e6e6"/><path d="m19.36 191.1h23.7v25.76h-23.7z" fill="#fff"/><path d="m11.09 226.13v28.85h47.06l28.85-28.85zm30.4 11.33h-20.57c-.86 0-1.56-.7-1.56-1.56v-3.05c0-.86.7-1.56 1.56-1.56h20.57c.86 0 1.56.7 1.56 1.56v3.05c0 .86-.7 1.56-1.56 1.56z" fill="#fff"/><path d="m109.06 228.49-26.49 26.49h13.36l13.13-13.13z" fill="#fff"/><path d="m92.53 226.13-28.85 28.85h13.36l28.84-28.85z" fill="#fff"/><path d="m109.06 247.38-7.6 7.6h7.6z" fill="#fff"/><path d="m87 226.13-28.85 28.85h5.53l28.85-28.85z" fill="#e6e6e6"/><path d="m109.06 226.13h-3.18l-28.84 28.85h5.53l26.49-26.49z" fill="#e6e6e6"/><path d="m109.06 241.85-13.13 13.13h5.53l7.6-7.6z" fill="#e6e6e6"/><rect fill="#e6e6e6" height="6.18" rx="1.56" width="23.7" x="19.36" y="231.29"/><path d="m80.15 191.1h23.7v25.76h-23.7z" fill="#fff"/><path d="m49.75 191.1h23.7v25.76h-23.7z" fill="#fff"/><circle cx="84.27" cy="169.98" fill="none" r="7.43" stroke="#0065bd" stroke-miterlimit="10"/><path d="m82.47 166.04v3.94 3.94l2.58-1.97 2.57-1.97-2.57-1.97z" fill="#0065bd"/><rect fill="none" height="128.37" rx="3.5" stroke="#fff" stroke-miterlimit="10" width="98.15" x="11" y="138.97"/><rect fill="#0065bd" height="46.69" rx="1" stroke="#fff" stroke-miterlimit="10" width="46.69" x="279.95" y="8.78"/><path d="m298.44 36.01-7.12-7.12-4.53 4.53 7.12 7.13 4.53 4.53 4.53-4.53 16.84-16.84-4.53-4.53z" fill="#0065bd" stroke="#fff" stroke-miterlimit="10"/><path d="m263.22 24.84h-43.41v2.35h5.37c-2.29 2.21-4.13 4.89-5.37 7.87v17.82c1.24 2.99 3.08 5.66 5.37 7.87h-5.37v2.03h43.41zm-14.54 35.92h-14.66c-6.46-2.83-11-9.29-11-16.78s4.53-13.95 10.99-16.78h14.66c6.46 2.83 10.99 9.29 10.99 16.78s-4.53 13.95-11 16.78zm14.54 0h-5.71c2.51-2.41 4.48-5.38 5.71-8.7zm-5.71-33.57h5.71v8.7c-1.23-3.32-3.2-6.28-5.71-8.7z" fill="#ebebeb"/><path d="m241.35 31.69c-6.78 0-12.29 5.52-12.29 12.29s5.52 12.29 12.29 12.29 12.29-5.52 12.29-12.29-5.52-12.29-12.29-12.29zm0 19.4c-3.93 0-7.11-3.18-7.11-7.11s3.18-7.11 7.11-7.11 7.11 3.18 7.11 7.11-3.18 7.11-7.11 7.11z" fill="#e6e6e6"/><path d="m219.82 92.3v5.08c0 2.22 1.8 4.02 4.02 4.02h35.36c2.22 0 4.02-1.8 4.02-4.02v-5.08h-43.41z" fill="#ebebeb"/><path d="m263.22 12.53c0-2.22-1.8-4.02-4.02-4.02h-35.36c-2.22 0-4.02 1.8-4.02 4.02v12.31h43.41v-12.31z" fill="#0065bd"/><path d="m249.7 12.97h9.15v1.01h-9.15z" fill="#fff"/><path d="m249.7 15.99h9.15v1.01h-9.15z" fill="#fff"/><path d="m249.7 19h9.15v1.01h-9.15z" fill="#fff"/><path d="m241.35 36.87c-3.93 0-7.11 3.18-7.11 7.11s3.18 7.11 7.11 7.11 7.11-3.18 7.11-7.11-3.18-7.11-7.11-7.11z" fill="#0065bd"/><path d="m248.68 27.2h-14.66c-6.46 2.83-10.99 9.29-10.99 16.78s4.53 13.95 11 16.78h14.66c6.46-2.83 11-9.29 11-16.78s-4.53-13.95-10.99-16.78zm-7.33 29.08c-6.78 0-12.29-5.52-12.29-12.29s5.52-12.29 12.29-12.29 12.29 5.52 12.29 12.29-5.52 12.29-12.29 12.29z" fill="#00437e"/><path d="m263.22 60.77v-8.7c-1.23 3.32-3.2 6.28-5.71 8.7z" fill="#5eb135"/><path d="m219.82 27.2v7.87c1.24-2.99 3.08-5.66 5.37-7.87z" fill="#5eb135"/><path d="m257.51 27.2c2.51 2.41 4.48 5.38 5.71 8.7v-8.7z" fill="#5eb135"/><path d="m219.82 52.89v7.87h5.37c-2.29-2.21-4.13-4.89-5.37-7.87z" fill="#5eb135"/><path d="m263.22 62.8h-43.41v29.5h43.41zm-20.72 24.62h-18.77v-2.65h18.77zm15.64-5.3h-34.4v-2.65h34.4zm0-5.3h-34.4v-2.65h34.4zm-34.4-5.3v-2.65h34.4v2.65z" fill="#fff"/><path d="m223.73 68.89h34.4v2.65h-34.4z" fill="#b3b3b3"/><path d="m223.73 74.18h34.4v2.65h-34.4z" fill="#b3b3b3"/><path d="m223.73 79.48h34.4v2.65h-34.4z" fill="#b3b3b3"/><path d="m223.73 84.77h18.77v2.65h-18.77z" fill="#b3b3b3"/><rect fill="none" height="92.51" rx="4.5" stroke="#fff" stroke-miterlimit="10" width="43.39" x="219.82" y="8.7"/><circle cx="336.37" cy="150.82" fill="#0065bd" r="10.09" stroke="#fff" stroke-miterlimit="10"/><circle cx="336.98" cy="180.34" fill="#0065bd" r="10.09" stroke="#fff" stroke-miterlimit="10"/><circle cx="336.98" cy="180.34" fill="#e6e6e6" r="5.36"/><circle cx="261.49" cy="234.99" fill="#0065bd" r="25.57" stroke="#fff" stroke-miterlimit="10"/><path d="m258.19 250.36-4.52-4.52 10.85-10.85-10.85-10.84 4.52-4.52 15.37 15.36z" fill="none" stroke="#fff" stroke-miterlimit="10"/><path d="m197.3 123.84h138.77" fill="none" stroke="#fff" stroke-miterlimit="10"/><path d="m332.75 127.93-.68-.73 3.61-3.36-3.61-3.36.68-.73 4.4 4.09z" fill="#fff"/><path d="m206.17 120.19h4.17v8.35h-4.17z" fill="#0065bd"/><path d="m219.74 120.19h4.17v8.35h-4.17z" fill="#0065bd"/><rect fill="#ebebeb" height="116.66" rx="4" width="163.78" x="11.04" y="6.43"/><path d="m11.04 16.97h163.48v49.56h-163.48z" fill="#fff"/><path d="m171.24 6.43h-156.62c-1.98 0-3.58 1.6-3.58 3.58v6.97h163.78v-6.97c0-1.98-1.6-3.58-3.58-3.58z" fill="#00437e"/><rect fill="#fff" height="31.81" rx="4" width="98.96" x="63.78" y="73.52"/><path d="m44.2 104.6h-23.28v-7.96h23.28z" fill="#0065bd"/><path d="m90.88 22.86h71.86v4.71h-71.86z" fill="#b3b3b3"/><path d="m20.19 73.52h38.88v2.36h-38.88z" fill="#fff"/><path d="m20.19 78.23h38.88v2.36h-38.88z" fill="#fff"/><path d="m20.19 82.94h38.88v2.36h-38.88z" fill="#fff"/><path d="m20.19 87.66h21.21v2.36h-21.21z" fill="#fff"/><path d="m134.25 80.76h22.3v2.36h-22.3z" fill="#ebebeb"/><path d="m134.25 85.47h22.3v2.36h-22.3z" fill="#ebebeb"/><path d="m134.25 90.19h22.3v2.36h-22.3z" fill="#ebebeb"/><path d="m134.25 94.9h12.16v2.36h-12.16z" fill="#ebebeb"/><path d="m90.88 31.11h71.86v2.36h-71.86z" fill="#b3b3b3"/><path d="m90.88 37h36.52v2.36h-36.52z" fill="#b3b3b3"/><path d="m20.78 23.71h63.62v36.62h-63.62z" fill="#0065bd"/><path d="m83.16 62.97-63.61-36.61 2.47-5.29 63.61 36.61z" fill="#fff"/><path d="m22.02 62.97-2.47-5.29 63.61-36.61 2.47 5.29z" fill="#fff"/><circle cx="21.37" cy="12.26" fill="#0065bd" r="1.18"/><circle cx="27.26" cy="12.26" fill="#fdd522" r="1.18"/><circle cx="33.15" cy="12.26" fill="#5eb135" r="1.18"/><circle cx="79.1" cy="88.83" fill="#0065bd" r="9.42"/><path d="m99.52 87.9h2.72v9.96h-2.72z" fill="#5eb135"/><path d="m107.66 84.28h2.72v13.58h-2.72z" fill="#428542"/><path d="m115.81 80.65h2.72v17.2h-2.72z" fill="#fdd522"/><path d="m123.96 88.8h2.72v9.05h-2.72z" fill="#0065bd"/><rect fill="none" height="116.66" rx="4.5" stroke="#fff" stroke-miterlimit="10" width="163.86" x="11" y="6.42"/></svg>