<?xml version="1.0" encoding="UTF-8"?><svg id="New_large" xmlns="http://www.w3.org/2000/svg" viewBox="0 0 352 272"><defs><style>.cls-1{fill:#00437e;}.cls-2{fill:#0065bd;}.cls-3{fill:#0065bc;}.cls-4{fill:#ebebeb;}.cls-5{fill:#eaeaea;}.cls-6{fill:#fff;}.cls-7{fill:#e5e5e5;}.cls-8{fill:#fdd522;}.cls-9{fill:#428542;}.cls-10{fill:#5eb135;}.cls-11{fill:none;stroke:#fff;stroke-miterlimit:10;}</style></defs><g><path class="cls-6" d="M263,65v54h-54v-54h54m1-1h-56v56h56v-56h0Z"/><g id="Text"><path class="cls-6" d="M231.7,97.76h-11.21l-2.52,7h-3.64l10.22-26.76h3.09l10.24,26.76h-3.62l-2.55-7Zm-10.14-2.89h9.1l-4.56-12.52-4.54,12.52Z"/><path class="cls-6" d="M253.22,104.76c-.2-.39-.36-1.09-.48-2.1-1.58,1.64-3.47,2.46-5.66,2.46-1.96,0-3.57-.55-4.82-1.66-1.26-1.11-1.88-2.51-1.88-4.22,0-2.07,.79-3.68,2.36-4.82,1.57-1.15,3.79-1.72,6.64-1.72h3.31v-1.56c0-1.19-.36-2.13-1.07-2.84-.71-.7-1.76-1.06-3.14-1.06-1.21,0-2.23,.31-3.05,.92-.82,.61-1.23,1.35-1.23,2.22h-3.42c0-.99,.35-1.95,1.06-2.88,.71-.93,1.66-1.66,2.87-2.2,1.21-.54,2.53-.81,3.98-.81,2.29,0,4.09,.57,5.39,1.72,1.3,1.15,1.97,2.72,2.02,4.73v9.15c0,1.83,.23,3.28,.7,4.36v.29h-3.57Zm-5.64-2.59c1.07,0,2.08-.28,3.03-.83,.96-.55,1.65-1.27,2.08-2.15v-4.08h-2.66c-4.17,0-6.25,1.22-6.25,3.66,0,1.07,.36,1.9,1.07,2.5,.71,.6,1.62,.9,2.74,.9Z"/></g></g><g><g><g><circle class="cls-2" cx="220" cy="228" r="11.5"/><path class="cls-6" d="M220,217c6.07,0,11,4.93,11,11s-4.93,11-11,11-11-4.93-11-11,4.93-11,11-11m0-1c-6.63,0-12,5.37-12,12s5.37,12,12,12,12-5.37,12-12-5.37-12-12-12h0Z"/></g><circle class="cls-7" cx="220" cy="228" r="6.38"/></g><g><circle class="cls-2" cx="252" cy="228" r="11.5"/><path class="cls-6" d="M252,217c6.07,0,11,4.93,11,11s-4.93,11-11,11-11-4.93-11-11,4.93-11,11-11m0-1c-6.63,0-12,5.37-12,12s5.37,12,12,12,12-5.37,12-12-5.37-12-12-12h0Z"/></g></g><g id="Page_nav"><path class="cls-6" d="M236,1c14.89,0,27,12.11,27,27s-12.11,27-27,27-27-12.11-27-27S221.11,1,236,1m0-1c-15.46,0-28,12.54-28,28s12.54,28,28,28,28-12.54,28-28S251.46,0,236,0h0Z"/><polygon class="cls-11" points="232.4 44.82 227.45 39.87 239.32 28 227.45 16.13 232.4 11.18 249.22 28 232.4 44.82"/></g><g><circle class="cls-6" cx="148" cy="252" r="2"/><circle class="cls-6" cx="148" cy="268" r="2"/><circle class="cls-6" cx="164" cy="252" r="2"/><circle class="cls-6" cx="164" cy="268" r="2"/><circle class="cls-6" cx="180" cy="252" r="2"/><circle class="cls-6" cx="180" cy="268" r="2"/><circle class="cls-6" cx="196" cy="252" r="2"/><circle class="cls-6" cx="196" cy="268" r="2"/><circle class="cls-6" cx="212" cy="252" r="2"/><circle class="cls-6" cx="212" cy="268" r="2"/><circle class="cls-6" cx="228" cy="252" r="2"/><circle class="cls-6" cx="228" cy="268" r="2"/><circle class="cls-6" cx="244" cy="252" r="2"/><circle class="cls-6" cx="244" cy="268" r="2"/><circle class="cls-6" cx="260" cy="252" r="2"/><circle class="cls-6" cx="260" cy="268" r="2"/></g><g><rect class="cls-6" x="280" width="56" height="56"/><polygon class="cls-3" points="302.81 33.95 293.74 24.88 287.96 30.65 297.04 39.72 302.81 45.5 308.59 39.72 330.04 18.28 324.26 12.5 302.81 33.95"/></g><g><rect class="cls-8" x="288" y="64" width="48" height="48" transform="translate(624 176) rotate(-180)"/><rect class="cls-6" x="296" y="72" width="32" height="32"/><rect class="cls-2" x="304" y="80" width="16" height="16"/></g><g><rect class="cls-2" x="304.5" y="168.5" width="31" height="31"/><path class="cls-6" d="M335,169v30h-30v-30h30m1-1h-32v32h32v-32h0Z"/></g><path class="cls-6" d="M320,178.28h-.05l-2.71,1.46-.41-1.61,3.41-1.82h1.8v15.6h-2.04v-13.63Z"/><g id="Desktop"><rect class="cls-4" x="24" width="168" height="120" rx="4" ry="4"/><rect class="cls-6" x="24" y="11" width="168" height="53"/><rect class="cls-3" x="32" y="96" width="24" height="8"/><rect class="cls-6" x="32" y="72" width="48" height="4"/><rect class="cls-6" x="32" y="80" width="48" height="4"/><rect class="cls-6" x="32" y="88" width="24" height="4"/><g><g><rect class="cls-4" x="104" y="20" width="80" height="8"/><g><rect class="cls-4" x="104" y="32" width="80" height="4"/><rect class="cls-4" x="104" y="40" width="40" height="4"/></g></g><rect class="cls-3" x="32" y="20" width="64" height="36"/></g><polygon class="cls-6" points="94.62 58.98 30.91 22.31 33.38 17.02 97.09 53.69 94.62 58.98"/><path class="cls-1" d="M28,0H188c2.21,0,4,1.79,4,4v7H24V4c0-2.21,1.79-4,4-4Z"/><polygon class="cls-6" points="33.38 58.98 30.91 53.69 94.62 17.02 97.09 22.31 33.38 58.98"/><circle class="cls-2" cx="34" cy="6" r="2"/><path class="cls-6" d="M188,1c1.65,0,3,1.35,3,3V116c0,1.65-1.35,3-3,3H28c-1.65,0-3-1.35-3-3V4c0-1.65,1.35-3,3-3H188m0-1H28c-2.21,0-4,1.79-4,4V116c0,2.21,1.79,4,4,4H188c2.21,0,4-1.79,4-4V4c0-2.21-1.79-4-4-4h0Z"/><circle class="cls-8" cx="41.9" cy="5.8" r="2"/><circle class="cls-10" cx="49.9" cy="5.8" r="2"/><rect class="cls-6" x="88" y="72" width="96" height="32" rx="4" ry="4"/><rect class="cls-4" x="160" y="80" width="18" height="2"/><g id="Pie"><g><path class="cls-10" d="M119.99,87.57c-.04-1.09-.22-2.15-.53-3.14-.32-1.03-.76-2-1.35-2.88-.56-.92-1.26-1.74-2.06-2.46l-4.72,4.72c.38,.32,.71,.66,1,1.05,.28,.39,.51,.81,.68,1.28,.17,.44,.28,.92,.31,1.41,.03,.15,.03,.29,.03,.44,0,.33-.03,.67-.09,.99,0,0,0,0,0,.01l6.44,1.73c.2-.88,.32-1.8,.32-2.74,0-.14,0-.28-.01-.42Z"/><path class="cls-2" d="M108.46,93.31v6.68c-.15,0-.31,0-.47,0-6.62,0-11.99-5.37-11.99-12.01,0-4.42,2.39-8.27,5.95-10.35l3.36,5.76c-1.57,.93-2.64,2.65-2.64,4.6,0,2.95,2.4,5.33,5.33,5.33,.16,0,.31-.01,.46-.02Z"/><path class="cls-8" d="M113.24,89c-.08,.48-.24,.92-.44,1.33-.21,.43-.47,.81-.76,1.16-.31,.35-.65,.65-1.04,.92-.36,.25-.77,.45-1.2,.6-.41,.16-.85,.25-1.31,.29,0,0-.02,0-.03,0v6.68c1.06-.04,2.08-.22,3.04-.52,.99-.29,1.95-.73,2.81-1.27,.89-.55,1.71-1.21,2.42-1.97,.71-.76,1.34-1.62,1.83-2.55,.5-.92,.87-1.9,1.11-2.94l-6.44-1.73Z"/><path class="cls-9" d="M116.04,79.09l-4.72,4.72h0c-.39-.3-.8-.56-1.27-.74-.44-.19-.92-.31-1.43-.36-.2-.03-.4-.04-.61-.04-.29,0-.57,.02-.84,.06-.66,.11-1.29,.33-1.85,.67l-3.36-5.76c1.56-.91,3.34-1.48,5.24-1.61,.27-.02,.54-.03,.8-.03,.82,0,1.62,.08,2.38,.23,1.07,.22,2.09,.57,3.03,1.06,.96,.48,1.85,1.09,2.64,1.8Z"/></g><path class="cls-6" d="M102.67,88c0-2.65,1.96-4.87,4.49-5.27,.27-.04,.55-.07,.84-.07,.21,0,.41,.01,.61,.04,.51,.05,.99,.17,1.43,.36,.47,.19,.88,.44,1.27,.73,.39,.32,.72,.67,1.01,1.07,.28,.39,.51,.81,.68,1.28,.17,.44,.28,.92,.31,1.41,.03,.15,.03,.29,.03,.44,0,.33-.03,.67-.09,.99-.08,.48-.24,.93-.44,1.35-.21,.43-.47,.81-.76,1.16-.31,.35-.65,.65-1.04,.92-.36,.25-.77,.45-1.2,.6-.41,.16-.85,.25-1.31,.29-.16,.01-.32,.03-.49,.03-2.93,0-5.33-2.39-5.33-5.33Z"/></g><g><rect class="cls-9" x="126" y="84" width="4" height="8"/><rect class="cls-10" x="134" y="82" width="4" height="12"/><rect class="cls-8" x="142" y="80" width="4" height="16"/><rect class="cls-2" x="150" y="84" width="4" height="8"/></g><rect class="cls-4" x="160" y="84.67" width="18" height="2"/><rect class="cls-4" x="160" y="89.33" width="18" height="2"/><rect class="cls-4" x="160" y="94" width="12" height="2"/></g><g id="Tablet"><g><rect class="cls-2" x="24.5" y="136.5" width="103" height="135" rx="3.5" ry="3.5"/><path class="cls-6" d="M124,137c1.65,0,3,1.35,3,3v128c0,1.65-1.35,3-3,3H28c-1.65,0-3-1.35-3-3V140c0-1.65,1.35-3,3-3H124m0-1H28c-2.21,0-4,1.79-4,4v128c0,2.21,1.79,4,4,4H124c2.21,0,4-1.79,4-4V140c0-2.21-1.79-4-4-4h0Z"/></g><rect class="cls-4" x="24" y="142" width="104" height="12"/><path class="cls-4" d="M24,192h104v76c0,2.21-1.79,4-4,4H28c-2.21,0-4-1.79-4-4v-76h0Z"/><rect class="cls-6" x="24" y="232" width="104" height="32"/><g><polygon class="cls-4" points="104.98 232 72.97 264 62.96 264 94.97 232 104.98 232"/><polygon class="cls-4" points="125.75 232 93.75 264 83.74 264 115.75 232 125.75 232"/><polygon class="cls-4" points="127.04 241.48 127.04 251.49 114.53 264 104.52 264 127.04 241.48"/></g><rect class="cls-6" x="32.16" y="200" width="23.68" height="24.07"/><rect class="cls-6" x="96.16" y="200" width="23.68" height="24.07"/><rect class="cls-6" x="64.16" y="200" width="23.68" height="24.07"/><rect class="cls-2" x="32" y="145" width="16" height="6"/><rect class="cls-7" x="32" y="160" width="40" height="4"/><rect class="cls-7" x="32" y="168" width="40" height="4"/><rect class="cls-5" x="80" y="160" width="40" height="24"/><g><circle class="cls-3" cx="100" cy="172" r="7"/><polygon class="cls-6" points="98.31 168.29 98.31 172 98.31 175.71 100.74 173.86 103.16 172 100.74 170.14 98.31 168.29"/></g><rect class="cls-4" x="32" y="240" width="32" height="8"/><rect class="cls-7" x="32" y="176" width="20" height="4"/><path class="cls-6" d="M124,137c1.65,0,3,1.35,3,3v128c0,1.65-1.35,3-3,3H28c-1.65,0-3-1.35-3-3V140c0-1.65,1.35-3,3-3H124m0-1H28c-2.21,0-4,1.79-4,4v128c0,2.21,1.79,4,4,4H124c2.21,0,4-1.79,4-4V140c0-2.21-1.79-4-4-4h0Z"/></g><g id="Mobile"><path class="cls-2" d="M192,152h-48v-12c0-2.21,1.79-4,4-4h40c2.21,0,4,1.79,4,4v12Z"/><path class="cls-4" d="M144,152h48v84c0,2.21-1.79,4-4,4h-40c-2.21,0-4-1.79-4-4v-84h0Z"/><g><rect class="cls-10" x="144" y="156" width="48" height="40"/><g><path class="cls-4" d="M192,176c0,8.35-4.27,15.71-10.75,20h-26.5c-6.48-4.29-10.75-11.65-10.75-20s4.27-15.71,10.75-20h26.5c6.48,4.29,10.75,11.65,10.75,20Z"/><circle class="cls-1" cx="168" cy="176" r="20"/><circle class="cls-4" cx="168" cy="176" r="16"/><circle class="cls-4" cx="168" cy="176" r="12"/><circle class="cls-2" cx="168" cy="176" r="8"/></g></g><g id="Outline"><path class="cls-6" d="M188,137c1.65,0,3,1.35,3,3v96c0,1.65-1.35,3-3,3h-40c-1.65,0-3-1.35-3-3v-96c0-1.65,1.35-3,3-3h40m0-1h-40c-2.21,0-4,1.79-4,4v96c0,2.21,1.79,4,4,4h40c2.21,0,4-1.79,4-4v-96c0-2.21-1.79-4-4-4h0Z"/></g><rect class="cls-6" x="144" y="200" width="48" height="29"/><rect class="cls-4" x="148" y="204" width="40" height="4"/><rect class="cls-4" x="148" y="212" width="40" height="4"/><rect class="cls-4" x="148" y="220" width="20" height="4"/><g><rect class="cls-6" x="180" y="140.33" width="8" height="1.33"/><rect class="cls-6" x="180" y="143.33" width="8" height="1.33"/><rect class="cls-6" x="180" y="146.33" width="8" height="1.33"/></g></g><g><g><circle class="cls-6" cx="212" cy="140" r="3"/><rect class="cls-6" x="220" y="139" width="44" height="2"/></g><g><circle class="cls-8" cx="212" cy="154" r="3"/><rect class="cls-8" x="220" y="153" width="44" height="2"/></g><g><circle class="cls-10" cx="212" cy="168" r="3"/><rect class="cls-10" x="220" y="167" width="44" height="2"/></g><g><circle class="cls-9" cx="212.37" cy="182" r="3"/><rect class="cls-9" x="220" y="181" width="44" height="2"/></g><g><circle class="cls-1" cx="212" cy="196" r="3"/><rect class="cls-1" x="220" y="195" width="44" height="2"/></g></g><g><g><rect class="cls-6" x="312" y="248" width="24" height="24" transform="translate(648 520) rotate(-180)"/><polygon class="cls-3" points="332.49 267.07 331.07 268.49 324 261.41 316.93 268.49 315.51 267.07 322.59 260 315.51 252.93 316.93 251.51 324 258.59 331.07 251.51 332.49 252.93 325.41 260 332.49 267.07"/></g><path class="cls-6" d="M303,249v22h-22v-22h22m1-1h-24v24h24v-24h0Z"/></g><rect class="cls-4" x="280" y="216" width="56" height="24" transform="translate(616 456) rotate(180)"/><rect class="cls-2" x="284" y="220" width="48" height="16" transform="translate(616 456) rotate(180)"/><rect class="cls-6" x="289" y="225" width="38" height="6" transform="translate(616 456) rotate(180)"/><g><rect class="cls-10" x="296" y="120" width="40" height="40"/><path class="cls-6" d="M320.17,142.38h-.94l-.33-.32c1.17-1.36,1.87-3.12,1.87-5.04,0-4.27-3.46-7.74-7.74-7.74s-7.74,3.46-7.74,7.74,3.46,7.74,7.74,7.74c1.92,0,3.68-.7,5.04-1.87l.32,.33v.94l5.95,5.94,1.77-1.77-5.94-5.95h0Zm-7.14,0c-2.96,0-5.36-2.39-5.36-5.36s2.39-5.36,5.36-5.36,5.36,2.39,5.36,5.36-2.39,5.36-5.36,5.36Z"/></g></svg>