<svg viewBox="0 0 352 264" xmlns="http://www.w3.org/2000/svg"><circle cx="331.91" cy="213.64" fill="#e6e6e6" r="1.67"/><circle cx="331.91" cy="243.68" fill="#e6e6e6" r="1.67"/><circle cx="301.86" cy="213.64" fill="#e6e6e6" r="1.67"/><circle cx="301.86" cy="243.68" fill="#e6e6e6" r="1.67"/><circle cx="271.82" cy="213.64" fill="#e6e6e6" r="1.67"/><circle cx="271.82" cy="243.68" fill="#e6e6e6" r="1.67"/><circle cx="241.77" cy="213.64" fill="#e6e6e6" r="1.67"/><circle cx="241.77" cy="243.68" fill="#e6e6e6" r="1.67"/><circle cx="211.73" cy="213.64" fill="#e6e6e6" r="1.67"/><circle cx="211.73" cy="243.68" fill="#e6e6e6" r="1.67"/><circle cx="193.68" cy="10.35" fill="#fff" r="4.03"/><circle cx="193.68" cy="26.65" fill="#fdd522" r="4.03"/><circle cx="193.68" cy="42.95" fill="#5eb135" r="4.03"/><circle cx="193.68" cy="59.25" fill="#428542" r="4.03"/><circle cx="193.68" cy="75.54" fill="#00437e" r="4.03"/><circle cx="128.25" cy="211.52" fill="#00437e" r="2.66"/><path d="m139.94 209.24h53.67v4.57h-53.67z" fill="#00437e"/><circle cx="128.25" cy="246.35" fill="#00437e" r="2.66"/><path d="m139.94 244.07h53.67v4.57h-53.67z" fill="#00437e"/><circle cx="128.25" cy="228.94" fill="#00437e" r="2.66"/><path d="m139.94 226.65h53.67v4.57h-53.67z" fill="#00437e"/><path d="m131.32 136.86v47.87" fill="none" stroke="#e6e6e6" stroke-miterlimit="10"/><path d="m125.5 184.74h11.64" fill="none" stroke="#e6e6e6" stroke-miterlimit="10"/><path d="m125.5 136.9h11.64" fill="none" stroke="#e6e6e6" stroke-miterlimit="10"/><path d="m142.45 136.68h161.95v48.07h-161.95z" fill="none" stroke="#e6e6e6" stroke-miterlimit="10" transform="matrix(-1 0 0 -1 446.86 321.42)"/><g fill="#00437e"><path d="m148.71 142.68h5.56v36.05h-5.56z"/><path d="m161.85 142.68h5.56v36.05h-5.56z"/><path d="m174.99 142.68h5.56v36.05h-5.56z"/><path d="m188.14 142.68h5.56v36.05h-5.56z"/><path d="m201.28 142.68h5.56v36.05h-5.56z"/><path d="m214.42 142.68h5.56v36.05h-5.56z"/><path d="m227.57 142.68h5.56v36.05h-5.56z"/><path d="m240.71 142.68h5.56v36.05h-5.56z"/><path d="m253.85 142.68h5.56v36.05h-5.56z"/><path d="m267 142.68h5.56v36.05h-5.56z"/><path d="m280.14 142.68h5.56v36.05h-5.56z"/><path d="m293.28 142.68h5.56v36.05h-5.56z"/><path d="m227.6 142.68h70.9v36.05h-70.9z" transform="matrix(-1 0 0 -1 526.1 321.42)"/></g><path d="m298.16 88.98h-14.71l-3.3 9.19h-4.77l13.41-35.12h4.05l13.43 35.12h-4.75l-3.35-9.19zm-13.31-3.79h11.94l-5.98-16.42z" fill="#fff"/><path d="m326.4 98.17c-.26-.51-.47-1.43-.63-2.75-2.07 2.15-4.55 3.23-7.43 3.23-2.57 0-4.68-.73-6.33-2.18s-2.47-3.3-2.47-5.53c0-2.72 1.03-4.83 3.1-6.33s4.97-2.25 8.72-2.25h4.34v-2.05c0-1.56-.47-2.8-1.4-3.73-.93-.92-2.31-1.39-4.12-1.39-1.59 0-2.93.4-4 1.21-1.08.8-1.62 1.78-1.62 2.92h-4.49c0-1.3.46-2.56 1.39-3.77s2.18-2.17 3.76-2.88 3.32-1.06 5.22-1.06c3.01 0 5.36.75 7.07 2.25 1.7 1.5 2.59 3.57 2.65 6.21v12.01c0 2.4.31 4.3.92 5.72v.39h-4.68zm-7.4-3.4c1.4 0 2.73-.36 3.98-1.09 1.25-.72 2.16-1.66 2.73-2.82v-5.35h-3.5c-5.47 0-8.2 1.6-8.2 4.8 0 1.4.47 2.49 1.4 3.28s2.13 1.18 3.59 1.18z" fill="#fff"/><rect fill="#ebebeb" height="126.18" rx="4" width="96.3" x="11.09" y="134.56"/><path d="m19.21 141.78h14.18v5.06h-14.18z" fill="#0065bd"/><path d="m107.39 138.74v-1.11c0-1.7-1.38-3.08-3.08-3.08h-90.14c-1.7 0-3.08 1.38-3.08 3.08v1.11z" fill="#0065bd"/><path d="m11.09 149.34h96.3v1.01h-96.3z" fill="#e6e6e6"/><path d="m11.09 180.73h96.3v-30.38h-96.3zm52.68-26.33h38.48v21.27h-38.48zm-44.56 0h37.48v4.05h-37.48zm0 7.09h37.48v2.03h-37.48zm19.04 5.06v2.03h-19.04v-2.03z" fill="#0065bd"/><path d="m102.26 154.4h-38.49v21.27h38.48v-21.27zm-18.99 18.78c-4.4 0-7.98-3.58-7.98-7.98s3.58-7.98 7.98-7.98 7.98 3.58 7.98 7.98-3.58 7.98-7.98 7.98z" fill="#ebebeb"/><path d="m19.21 154.4h37.47v4.05h-37.47z" fill="#e6e6e6"/><path d="m19.21 161.49h37.47v2.03h-37.47z" fill="#e6e6e6"/><path d="m19.21 166.56h19.04v2.03h-19.04z" fill="#e6e6e6"/><path d="m19.21 185.8h23.29v25.32h-23.29z" fill="#fff"/><path d="m11.09 220.23v28.36h46.25l28.36-28.36zm29.88 11.14h-20.22c-.85 0-1.54-.69-1.54-1.54v-3c0-.85.69-1.54 1.54-1.54h20.22c.85 0 1.54.69 1.54 1.54v3c0 .85-.69 1.54-1.54 1.54z" fill="#fff"/><path d="m107.39 222.55-26.04 26.04h13.13l12.91-12.91z" fill="#fff"/><path d="m91.14 220.23-28.36 28.36h13.13l28.36-28.36z" fill="#fff"/><path d="m107.39 241.11-7.48 7.48h7.48z" fill="#fff"/><path d="m85.7 220.23-28.36 28.36h5.44l28.36-28.36z" fill="#e6e6e6"/><path d="m107.39 220.23h-3.12l-28.36 28.36h5.44l26.04-26.04z" fill="#e6e6e6"/><path d="m107.39 235.68-12.91 12.91h5.43l7.48-7.48z" fill="#e6e6e6"/><rect fill="#e6e6e6" height="6.08" rx="1.54" width="23.29" x="19.21" y="225.3"/><path d="m78.97 185.8h23.29v25.32h-23.29z" fill="#fff"/><path d="m49.09 185.8h23.29v25.32h-23.29z" fill="#fff"/><circle cx="83.02" cy="165.04" fill="none" r="7.3" stroke="#0065bd" stroke-miterlimit="10"/><path d="m81.25 161.16v3.88 3.87l2.54-1.94 2.53-1.93-2.53-1.94z" fill="#0065bd"/><rect fill="none" height="126.18" rx="3.44" stroke="#fff" stroke-miterlimit="10" width="96.48" x="11" y="134.56"/><rect fill="#0065bd" height="45.9" rx="1" stroke="#fff" stroke-miterlimit="10" width="45.9" x="275.36" y="6.59"/><path d="m293.54 33.35-7-7-4.45 4.46 7 7 4.45 4.45 4.46-4.45 16.54-16.55-4.45-4.45z" fill="#0065bd" stroke="#fff" stroke-miterlimit="10"/><path d="m258.92 22.37h-42.67v2.31h5.28c-2.26 2.17-4.06 4.8-5.28 7.74v17.52c1.22 2.93 3.03 5.56 5.28 7.74h-5.28v2h42.67zm-14.29 35.31h-14.41c-6.35-2.79-10.81-9.13-10.81-16.5s4.45-13.71 10.81-16.5h14.41c6.35 2.79 10.81 9.13 10.81 16.5s-4.45 13.71-10.81 16.5zm14.29 0h-5.61c2.46-2.37 4.4-5.28 5.61-8.55zm-5.61-33h5.61v8.55c-1.21-3.27-3.15-6.18-5.61-8.55z" fill="#ebebeb"/><path d="m237.42 29.1c-6.66 0-12.08 5.42-12.08 12.08s5.42 12.08 12.08 12.08 12.08-5.42 12.08-12.08-5.42-12.08-12.08-12.08zm0 19.07c-3.86 0-6.99-3.13-6.99-6.99s3.13-6.99 6.99-6.99 6.99 3.13 6.99 6.99-3.13 6.99-6.99 6.99z" fill="#e6e6e6"/><path d="m216.26 88.68v4.99c0 2.18 1.77 3.95 3.95 3.95h34.76c2.18 0 3.95-1.77 3.95-3.95v-4.99h-42.67z" fill="#ebebeb"/><path d="m258.92 10.27c0-2.18-1.77-3.95-3.95-3.95h-34.76c-2.18 0-3.95 1.77-3.95 3.95v12.1h42.67v-12.1z" fill="#0065bd"/><path d="m245.63 10.7h9v.99h-9z" fill="#fff"/><path d="m245.63 13.67h9v.99h-9z" fill="#fff"/><path d="m245.63 16.63h9v.99h-9z" fill="#fff"/><path d="m237.42 34.2c-3.86 0-6.99 3.13-6.99 6.99s3.13 6.99 6.99 6.99 6.99-3.13 6.99-6.99-3.13-6.99-6.99-6.99z" fill="#0065bd"/><path d="m244.63 24.69h-14.41c-6.35 2.79-10.81 9.13-10.81 16.5s4.45 13.71 10.81 16.5h14.41c6.35-2.79 10.81-9.13 10.81-16.5s-4.45-13.71-10.81-16.5zm-7.2 28.58c-6.66 0-12.08-5.42-12.08-12.08s5.42-12.08 12.08-12.08 12.08 5.42 12.08 12.08-5.42 12.08-12.08 12.08z" fill="#00437e"/><path d="m258.92 57.68v-8.55c-1.21 3.27-3.15 6.18-5.61 8.55z" fill="#5eb135"/><path d="m216.26 24.69v7.74c1.22-2.93 3.03-5.56 5.28-7.74z" fill="#5eb135"/><path d="m253.31 24.69c2.46 2.37 4.4 5.28 5.61 8.55v-8.55z" fill="#5eb135"/><path d="m216.26 49.95v7.74h5.28c-2.26-2.17-4.06-4.8-5.28-7.74z" fill="#5eb135"/><path d="m258.92 59.68h-42.67v29h42.67zm-20.37 24.2h-18.45v-2.6h18.45zm15.37-5.2h-33.82v-2.6h33.82zm0-5.2h-33.82v-2.6h33.82zm-33.82-5.2v-2.6h33.82v2.6z" fill="#fff"/><path d="m220.1 65.67h33.82v2.6h-33.82z" fill="#b3b3b3"/><path d="m220.1 70.87h33.82v2.6h-33.82z" fill="#b3b3b3"/><path d="m220.1 76.08h33.82v2.6h-33.82z" fill="#b3b3b3"/><path d="m220.1 81.28h18.45v2.6h-18.45z" fill="#b3b3b3"/><rect fill="none" height="90.93" rx="4.5" stroke="#fff" stroke-miterlimit="10" width="42.65" x="216.26" y="6.51"/><circle cx="330.83" cy="146.2" fill="#0065bd" r="9.92" stroke="#fff" stroke-miterlimit="10"/><circle cx="331.42" cy="175.22" fill="#0065bd" r="9.92" stroke="#fff" stroke-miterlimit="10"/><circle cx="331.42" cy="175.22" fill="#e6e6e6" r="5.27"/><circle cx="257.21" cy="228.94" fill="#0065bd" r="25.13" stroke="#fff" stroke-miterlimit="10"/><path d="m253.98 244.04-4.44-4.44 10.65-10.66-10.65-10.66 4.44-4.44 15.1 15.1z" fill="none" stroke="#fff" stroke-miterlimit="10"/><path d="m194.12 119.68h136.39" fill="none" stroke="#fff" stroke-miterlimit="10"/><path d="m327.19 123.77-.68-.73 3.61-3.36-3.61-3.36.68-.73 4.4 4.09z" fill="#fff"/><path d="m202.84 116.09h4.1v8.21h-4.1z" fill="#0065bd"/><path d="m216.18 116.09h4.1v8.21h-4.1z" fill="#0065bd"/><rect fill="#ebebeb" height="114.67" rx="4" width="160.99" x="11.04" y="4.27"/><path d="m11.04 14.64h160.69v48.72h-160.69z" fill="#fff"/><path d="m168.51 4.27h-153.95c-1.94 0-3.52 1.57-3.52 3.52v6.85h160.99v-6.85c0-1.94-1.57-3.52-3.52-3.52z" fill="#00437e"/><rect fill="#fff" height="31.27" rx="4" width="97.27" x="62.88" y="70.22"/><path d="m43.63 100.77h-22.88v-7.83h22.88z" fill="#0065bd"/><path d="m89.51 20.43h70.64v4.63h-70.64z" fill="#b3b3b3"/><path d="m20.03 70.22h38.21v2.32h-38.21z" fill="#fff"/><path d="m20.03 74.85h38.21v2.32h-38.21z" fill="#fff"/><path d="m20.03 79.48h38.21v2.32h-38.21z" fill="#fff"/><path d="m20.03 84.12h20.84v2.32h-20.84z" fill="#fff"/><path d="m132.15 77.34h21.92v2.32h-21.92z" fill="#ebebeb"/><path d="m132.15 81.97h21.92v2.32h-21.92z" fill="#ebebeb"/><path d="m132.15 86.6h21.92v2.32h-21.92z" fill="#ebebeb"/><path d="m132.15 91.23h11.95v2.32h-11.95z" fill="#ebebeb"/><path d="m89.51 28.53h70.64v2.32h-70.64z" fill="#b3b3b3"/><path d="m89.51 34.32h35.9v2.32h-35.9z" fill="#b3b3b3"/><path d="m20.61 21.26h62.53v35.99h-62.53z" fill="#0065bd"/><path d="m81.93 59.85-62.53-35.99 2.43-5.2 62.53 36z" fill="#fff"/><path d="m21.83 59.85-2.43-5.19 62.53-36 2.43 5.2z" fill="#fff"/><circle cx="21.19" cy="10" fill="#0065bd" r="1.16"/><circle cx="26.98" cy="10" fill="#fdd522" r="1.16"/><circle cx="32.77" cy="10" fill="#5eb135" r="1.16"/><circle cx="77.93" cy="85.27" fill="#0065bd" r="9.26"/><path d="m98.01 84.35h2.67v9.79h-2.67z" fill="#5eb135"/><path d="m106.02 80.79h2.67v13.35h-2.67z" fill="#428542"/><path d="m114.02 77.23h2.67v16.91h-2.67z" fill="#fdd522"/><path d="m122.03 85.24h2.67v8.9h-2.67z" fill="#0065bd"/><rect fill="none" height="114.67" rx="4.5" stroke="#fff" stroke-miterlimit="10" width="161.06" x="11" y="4.27"/></svg>