<svg viewBox="0 0 224 384" xmlns="http://www.w3.org/2000/svg"><path d="m174.89 369.73h-15.62l-3.51 9.75h-5.07l14.23-37.28h4.3l14.26 37.28h-5.04l-3.56-9.75zm-14.13-4.02h12.67l-6.35-17.43z" fill="#fff"/><path d="m204.87 379.49c-.27-.55-.5-1.52-.67-2.92-2.2 2.29-4.83 3.43-7.89 3.43-2.73 0-4.97-.77-6.72-2.32-1.75-1.54-2.62-3.5-2.62-5.88 0-2.88 1.1-5.12 3.29-6.72s5.28-2.39 9.25-2.39h4.61v-2.18c0-1.66-.5-2.97-1.49-3.96-.99-.98-2.45-1.47-4.38-1.47-1.69 0-3.11.43-4.25 1.28s-1.72 1.89-1.72 3.1h-4.76c0-1.38.49-2.72 1.47-4.01s2.31-2.31 3.99-3.06 3.53-1.13 5.54-1.13c3.19 0 5.69.8 7.5 2.39 1.81 1.6 2.75 3.79 2.82 6.59v12.75c0 2.54.32 4.57.97 6.07v.41h-4.97zm-7.86-3.61c1.49 0 2.89-.38 4.22-1.15s2.3-1.77 2.89-3v-5.68h-3.71c-5.8 0-8.7 1.7-8.7 5.09 0 1.48.5 2.65 1.49 3.48s2.26 1.25 3.81 1.25z" fill="#fff"/><g fill="#e6e6e6"><circle cx="210.98" cy="35.9" r="1.65"/><circle cx="210.98" cy="65.53" r="1.65"/><circle cx="210.98" cy="95.17" r="1.65"/><circle cx="210.98" cy="124.8" r="1.65"/><circle cx="181.34" cy="35.9" r="1.65"/><circle cx="181.34" cy="65.53" r="1.65"/><circle cx="181.34" cy="95.17" r="1.65"/><circle cx="181.34" cy="124.8" r="1.65"/><circle cx="181.34" cy="243.34" r="1.65"/><circle cx="151.71" cy="35.9" r="1.65"/><circle cx="151.71" cy="65.53" r="1.65"/><circle cx="151.71" cy="95.17" r="1.65"/><circle cx="151.71" cy="124.8" r="1.65"/><circle cx="151.71" cy="243.34" r="1.65"/><circle cx="122.07" cy="35.9" r="1.65"/><circle cx="122.07" cy="65.53" r="1.65"/><circle cx="122.07" cy="95.17" r="1.65"/><circle cx="122.07" cy="124.8" r="1.65"/><circle cx="122.07" cy="154.44" r="1.65"/><circle cx="122.07" cy="184.07" r="1.65"/><circle cx="122.07" cy="213.71" r="1.65"/><circle cx="122.07" cy="243.34" r="1.65"/><circle cx="92.44" cy="35.9" r="1.65"/><circle cx="92.44" cy="65.53" r="1.65"/><circle cx="92.44" cy="95.17" r="1.65"/><circle cx="92.44" cy="124.8" r="1.65"/><circle cx="92.44" cy="154.44" r="1.65"/><circle cx="92.5" cy="184.07" r="1.65"/><circle cx="92.44" cy="213.71" r="1.65"/><circle cx="92.44" cy="243.34" r="1.65"/><circle cx="62.81" cy="35.9" r="1.65"/><circle cx="62.81" cy="65.53" r="1.65"/><circle cx="62.81" cy="95.17" r="1.65"/><circle cx="62.81" cy="124.8" r="1.65"/><circle cx="62.81" cy="154.44" r="1.65"/><circle cx="62.81" cy="184.07" r="1.65"/><circle cx="33.17" cy="35.9" r="1.65"/><circle cx="33.17" cy="65.53" r="1.65"/><circle cx="33.17" cy="95.17" r="1.65"/><circle cx="33.17" cy="124.8" r="1.65"/><circle cx="33.17" cy="154.44" r="1.65"/><circle cx="33.17" cy="184.07" r="1.65"/></g><circle cx="92.44" cy="154.44" fill="#00437e" r="2.5"/><path d="m100 151.94h40v5h-40z" fill="#00437e"/><circle cx="92.44" cy="169.44" fill="#00437e" r="2.5"/><path d="m100 166.94h40v5h-40z" fill="#00437e"/><circle cx="92.5" cy="184.07" fill="#00437e" r="2.5"/><path d="m100 181.57h40v5h-40z" fill="#00437e"/><circle cx="92.5" cy="199.5" fill="#00437e" r="2.5"/><path d="m100 197h40v5h-40z" fill="#00437e"/><circle cx="92.5" cy="214.5" fill="#00437e" r="2.5"/><path d="m100 212h40v5h-40z" fill="#00437e"/><rect fill="#0065bd" height="64.5" rx="1" stroke="#fff" stroke-miterlimit="10" width="64.5" x="150.5" y="151.5"/><path d="m176.04 189.12-9.83-9.84-6.26 6.26 9.83 9.84 6.26 6.26 6.26-6.26 23.25-23.26-6.26-6.26z" fill="#0065bd" stroke="#fff" stroke-miterlimit="10"/><path d="m198 244.11h-47.5v2.58h5.88c-2.51 2.42-4.52 5.35-5.88 8.61v19.51c1.36 3.27 3.37 6.2 5.88 8.61h-5.88v2.23h47.5zm-15.91 39.31h-16.04c-7.07-3.1-12.03-10.16-12.03-18.37s4.96-15.27 12.03-18.37h16.04c7.07 3.1 12.03 10.16 12.03 18.37s-4.96 15.27-12.03 18.37zm15.91 0h-6.25c2.74-2.64 4.9-5.88 6.25-9.52zm-6.25-36.73h6.25v9.52c-1.35-3.64-3.51-6.88-6.25-9.52z" fill="#ebebeb"/><path d="m174.07 251.59c-7.42 0-13.45 6.04-13.45 13.45s6.04 13.45 13.45 13.45 13.45-6.04 13.45-13.45-6.04-13.45-13.45-13.45zm0 21.23c-4.3 0-7.78-3.48-7.78-7.78s3.48-7.78 7.78-7.78 7.78 3.48 7.78 7.78-3.48 7.78-7.78 7.78z" fill="#e6e6e6"/><path d="m150.5 317.92v5.56c0 2.43 1.97 4.4 4.4 4.4h38.7c2.43 0 4.4-1.97 4.4-4.4v-5.56z" fill="#ebebeb"/><path d="m198 230.63c0-2.43-1.97-4.4-4.4-4.4h-38.7c-2.43 0-4.4 1.97-4.4 4.4v13.47h47.5z" fill="#0065bd"/><path d="m183.2 231.11h10.02v1.1h-10.02z" fill="#fff"/><path d="m183.2 234.41h10.02v1.1h-10.02z" fill="#fff"/><path d="m183.2 237.71h10.02v1.1h-10.02z" fill="#fff"/><path d="m174.07 257.27c-4.3 0-7.78 3.48-7.78 7.78s3.48 7.78 7.78 7.78 7.78-3.48 7.78-7.78-3.48-7.78-7.78-7.78z" fill="#0065bd"/><path d="m182.09 246.68h-16.04c-7.07 3.1-12.03 10.16-12.03 18.37s4.96 15.27 12.03 18.37h16.04c7.07-3.1 12.03-10.16 12.03-18.37s-4.96-15.27-12.03-18.37zm-8.02 31.82c-7.42 0-13.45-6.04-13.45-13.45s6.04-13.45 13.45-13.45 13.45 6.04 13.45 13.45-6.04 13.45-13.45 13.45z" fill="#00437e"/><path d="m198 283.42v-9.52c-1.35 3.64-3.51 6.88-6.25 9.52z" fill="#5eb135"/><path d="m150.5 246.68v8.61c1.36-3.27 3.37-6.2 5.88-8.61z" fill="#5eb135"/><path d="m191.75 246.68c2.74 2.64 4.9 5.88 6.25 9.52v-9.52z" fill="#5eb135"/><path d="m150.5 274.8v8.61h5.88c-2.51-2.42-4.52-5.35-5.88-8.61z" fill="#5eb135"/><path d="m198 285.64h-47.5v32.28h47.5zm-22.68 26.94h-20.54v-2.9h20.54zm17.11-5.79h-37.65v-2.9h37.65zm0-5.79h-37.65v-2.9h37.65zm-37.65-5.79v-2.9h37.65v2.9z" fill="#fff"/><path d="m154.79 292.3h37.65v2.9h-37.65z" fill="#b3b3b3"/><path d="m154.79 298.1h37.65v2.9h-37.65z" fill="#b3b3b3"/><path d="m154.79 303.89h37.65v2.9h-37.65z" fill="#b3b3b3"/><path d="m154.79 309.69h20.54v2.9h-20.54z" fill="#b3b3b3"/><rect fill="none" height="101.24" rx="4.5" stroke="#fff" stroke-miterlimit="10" width="47.48" x="150.51" y="226.44"/><rect fill="#ebebeb" height="153.77" rx="4" width="117.35" x="22.54" y="226.23"/><path d="m32.44 235.04h17.28v6.17h-17.28z" fill="#0065bd"/><path d="m139.89 231.34v-1.35c0-2.07-1.68-3.75-3.75-3.75h-109.85c-2.07 0-3.75 1.68-3.75 3.75v1.35z" fill="#0065bd"/><path d="m22.54 244.25h117.35v1.23h-117.35z" fill="#e6e6e6"/><path d="m22.54 282.51h117.35v-37.02h-117.35zm64.2-32.09h46.9v25.92h-46.9zm-54.3 0h45.66v4.94h-45.66zm0 8.64h45.66v2.47h-45.66zm23.21 6.17v2.47h-23.21v-2.47z" fill="#0065bd"/><path d="m133.64 250.42h-46.9v25.92h46.9zm-23.14 22.88c-5.36 0-9.72-4.36-9.72-9.73s4.36-9.72 9.72-9.72 9.72 4.36 9.72 9.72-4.36 9.73-9.72 9.73z" fill="#ebebeb"/><path d="m32.44 250.42h45.66v4.94h-45.66z" fill="#e6e6e6"/><path d="m32.44 259.06h45.66v2.47h-45.66z" fill="#e6e6e6"/><path d="m32.44 265.23h23.21v2.47h-23.21z" fill="#e6e6e6"/><path d="m32.44 288.68h28.38v30.85h-28.38z" fill="#fff"/><path d="m22.54 330.64v34.56h56.36l34.56-34.56zm36.41 13.58h-24.64c-1.03 0-1.87-.84-1.87-1.87v-3.66c0-1.03.84-1.87 1.87-1.87h24.64c1.03 0 1.87.84 1.87 1.87v3.66c0 1.03-.84 1.87-1.87 1.87z" fill="#fff"/><path d="m139.89 333.46-31.74 31.73h16l15.74-15.73z" fill="#fff"/><path d="m120.08 330.64-34.55 34.55h16l34.55-34.55z" fill="#fff"/><path d="m139.89 356.08-9.11 9.11h9.11z" fill="#fff"/><path d="m113.46 330.64-34.56 34.55h6.63l34.55-34.55z" fill="#e6e6e6"/><path d="m139.89 330.64h-3.81l-34.55 34.55h6.62l31.74-31.73z" fill="#e6e6e6"/><path d="m139.89 349.46-15.74 15.73h6.63l9.11-9.11z" fill="#e6e6e6"/><rect fill="#e6e6e6" height="7.4" rx="1.87" width="28.38" x="32.44" y="336.81"/><path d="m105.25 288.68h28.38v30.85h-28.38z" fill="#fff"/><path d="m68.85 288.68h28.38v30.85h-28.38z" fill="#fff"/><circle cx="110.19" cy="263.38" fill="none" r="8.9" stroke="#0065bd" stroke-miterlimit="10"/><path d="m108.04 258.66v4.72 4.72l3.09-2.36 3.08-2.36-3.08-2.36z" fill="#0065bd"/><rect fill="none" height="153.77" rx="4.19" stroke="#fff" stroke-miterlimit="10" width="117.57" x="22.43" y="226.23"/><circle cx="11.43" cy="312.19" fill="#fff" r="3.95"/><circle cx="11.43" cy="328.16" fill="#fdd522" r="3.95"/><circle cx="11.43" cy="344.12" fill="#5eb135" r="3.95"/><circle cx="11.43" cy="360.09" fill="#428542" r="3.95"/><circle cx="11.43" cy="376.05" fill="#00437e" r="3.95"/><path d="m11.21 299.92v-75.42c0-5.52 4.48-10 10-10h40.22" fill="none" stroke="#fff" stroke-miterlimit="10"/><path d="m58.12 218.59-.68-.73 3.61-3.36-3.61-3.36.68-.73 4.4 4.09z" fill="#fff"/><path d="m10 281h3v3h-3z" fill="#0065bd"/><path d="m10 291h3v3h-3z" fill="#0065bd"/><circle cx="210.5" cy="14.5" fill="#0065bd" r="8" stroke="#fff" stroke-miterlimit="10"/><circle cx="210.98" cy="39.9" fill="#0065bd" r="8" stroke="#fff" stroke-miterlimit="10"/><circle cx="210.98" cy="39.9" fill="#e6e6e6" r="4.25"/><rect fill="#ebebeb" height="130.99" rx="4" width="183.91" x="7.06" y="5.5"/><path d="m7.06 17.34h183.57v55.66h-183.57z" fill="#fff"/><path d="m186.95 5.5h-175.88c-2.22 0-4.02 1.8-4.02 4.02v7.82h183.92v-7.82c0-2.22-1.8-4.02-4.02-4.02z" fill="#00437e"/><rect fill="#fff" height="35.72" rx="4" width="111.12" x="66.28" y="80.84"/><path d="m44.29 115.74h-26.14v-8.94h26.14z" fill="#0065bd"/><path d="m96.71 23.96h80.7v5.29h-80.7z" fill="#b3b3b3"/><path d="m17.33 80.84h43.65v2.65h-43.65z" fill="#fff"/><path d="m17.33 86.13h43.65v2.65h-43.65z" fill="#fff"/><path d="m17.33 91.43h43.65v2.65h-43.65z" fill="#fff"/><path d="m17.33 96.72h23.81v2.65h-23.81z" fill="#fff"/><path d="m145.41 88.97h25.04v2.65h-25.04z" fill="#ebebeb"/><path d="m145.41 94.27h25.04v2.65h-25.04z" fill="#ebebeb"/><path d="m145.41 99.56h25.04v2.65h-25.04z" fill="#ebebeb"/><path d="m145.41 104.85h13.66v2.65h-13.66z" fill="#ebebeb"/><path d="m96.71 33.22h80.7v2.65h-80.7z" fill="#b3b3b3"/><path d="m96.71 39.83h41.01v2.65h-41.01z" fill="#b3b3b3"/><path d="m17.99 24.92h71.44v41.12h-71.44z" fill="#0065bd"/><path d="m88.04 69-71.43-41.12 2.77-5.93 71.44 41.11z" fill="#fff"/><path d="m19.38 69-2.77-5.94 71.43-41.11 2.78 5.93z" fill="#fff"/><circle cx="18.66" cy="12.05" fill="#0065bd" r="1.32"/><circle cx="25.27" cy="12.05" fill="#fdd522" r="1.32"/><circle cx="31.88" cy="12.05" fill="#5eb135" r="1.32"/><circle cx="83.48" cy="98.04" fill="#0065bd" r="10.58"/><path d="m106.41 96.99h3.05v11.18h-3.05z" fill="#5eb135"/><path d="m115.56 92.92h3.05v15.25h-3.05z" fill="#428542"/><path d="m124.71 88.86h3.05v19.31h-3.05z" fill="#fdd522"/><path d="m133.85 98h3.05v10.16h-3.05z" fill="#0065bd"/><rect fill="none" height="131" rx="4.5" stroke="#fff" stroke-miterlimit="10" width="184" x="7.01" y="5.5"/></svg>