<svg viewBox="0 0 735 315" xmlns="http://www.w3.org/2000/svg"><rect fill="#00437e" height="121.6" rx="1" width="121.6" x="594.2" y="11.99"/><path d="m592.5 135.29 125-125" fill="none" stroke="#0065bd" stroke-linecap="round" stroke-miterlimit="10"/><path d="m717.5 135.29-125-125" fill="none" stroke="#0065bd" stroke-linecap="round" stroke-miterlimit="10"/><rect fill="#ebebeb" height="147.23" rx="4" width="206.7" x="2.75" y="2.27"/><path d="m2.75 15.58h206.32v62.55h-206.32z" fill="#fff"/><path d="m204.94 2.27h-197.67c-2.49 0-4.52 2.02-4.52 4.52v8.79h206.7v-8.79c0-2.49-2.02-4.52-4.52-4.52z" fill="#00437e"/><rect fill="#fff" height="40.14" rx="4" width="124.89" x="69.31" y="86.95"/><path d="m44.6 126.17h-29.38v-10.05h29.38z" fill="#0065bd"/><path d="m103.51 23.01h90.69v5.95h-90.69z" fill="#b3b3b3"/><path d="m14.3 86.95h49.06v2.97h-49.06z" fill="#fff"/><path d="m14.3 92.89h49.06v2.97h-49.06z" fill="#fff"/><path d="m14.3 98.84h49.06v2.97h-49.06z" fill="#fff"/><path d="m14.3 104.79h26.76v2.97h-26.76z" fill="#fff"/><path d="m158.25 96.09h28.14v2.97h-28.14z" fill="#ebebeb"/><path d="m158.25 102.03h28.14v2.97h-28.14z" fill="#ebebeb"/><path d="m158.25 107.98h28.14v2.97h-28.14z" fill="#ebebeb"/><path d="m158.25 113.93h15.35v2.97h-15.35z" fill="#ebebeb"/><path d="m103.51 33.42h90.69v2.97h-90.69z" fill="#b3b3b3"/><path d="m103.51 40.86h46.09v2.97h-46.09z" fill="#b3b3b3"/><path d="m15.04 24.09h80.29v46.21h-80.29z" fill="#0065bd"/><path d="m93.77 73.64-80.28-46.21 3.11-6.68 80.29 46.21z" fill="#fff"/><path d="m16.6 73.64-3.11-6.68 80.28-46.21 3.12 6.68z" fill="#fff"/><circle cx="15.79" cy="9.63" fill="#0065bd" r="1.49"/><circle cx="23.22" cy="9.63" fill="#fdd522" r="1.49"/><circle cx="30.66" cy="9.63" fill="#5eb135" r="1.49"/><circle cx="88.64" cy="106.27" fill="#0065bd" r="11.89"/><path d="m114.41 105.09h3.43v12.57h-3.43z" fill="#5eb135"/><path d="m124.7 100.52h3.43v17.14h-3.43z" fill="#428542"/><path d="m134.98 95.95h3.43v21.71h-3.43z" fill="#fdd522"/><path d="m145.26 106.23h3.43v11.42h-3.43z" fill="#0065bd"/><rect fill="none" height="147.23" rx="4.5" stroke="#fff" stroke-miterlimit="10" width="206.8" x="2.7" y="2.27"/><path d="m232.67 246.47v65.31" fill="none" stroke="#e6e6e6" stroke-miterlimit="10"/><path d="m224.73 311.8h15.88" fill="none" stroke="#e6e6e6" stroke-miterlimit="10"/><path d="m224.73 246.53h15.88" fill="none" stroke="#e6e6e6" stroke-miterlimit="10"/><path d="m247.86 246.21h220.98v65.59h-220.98z" fill="none" stroke="#e6e6e6" stroke-miterlimit="10" transform="matrix(-1 0 0 -1 716.71 558.02)"/><path d="m256.4 254.41h7.59v49.19h-7.59z" fill="#00437e"/><path d="m274.33 254.41h7.59v49.19h-7.59z" fill="#00437e"/><path d="m292.27 254.41h7.59v49.19h-7.59z" fill="#00437e"/><path d="m310.2 254.41h7.59v49.19h-7.59z" fill="#00437e"/><path d="m328.13 254.41h7.59v49.19h-7.59z" fill="#00437e"/><path d="m346.07 254.41h7.59v49.19h-7.59z" fill="#00437e"/><path d="m364 254.41h7.59v49.19h-7.59z" fill="#00437e"/><path d="m381.94 254.41h7.59v49.19h-7.59z" fill="#00437e"/><path d="m399.87 254.41h7.59v49.19h-7.59z" fill="#00437e"/><path d="m417.8 254.41h7.59v49.19h-7.59z" fill="#00437e"/><path d="m435.74 254.41h7.59v49.19h-7.59z" fill="#00437e"/><path d="m453.67 254.41h7.59v49.19h-7.59z" fill="#00437e"/><path d="m364.05 254.41h96.74v49.19h-96.74z" fill="#00437e" transform="matrix(-1 0 0 -1 824.83 558.02)"/><rect fill="#ebebeb" height="149.1" rx="4" width="113.79" x="95.61" y="162.4"/><path d="m105.21 170.94h16.75v5.98h-16.75z" fill="#0065bd"/><path d="m209.39 167.35v-1.31c0-2.01-1.63-3.63-3.63-3.63h-106.52c-2.01 0-3.63 1.63-3.63 3.63v1.31h113.79z" fill="#0065bd"/><path d="m95.61 179.87h113.79v1.2h-113.79z" fill="#e6e6e6"/><path d="m95.61 216.97h113.79v-35.9h-113.79zm62.25-31.11h45.47v25.13h-45.47zm-52.65 0h44.28v4.79h-44.28zm0 8.38h44.28v2.39h-44.28zm22.5 5.98v2.39h-22.5v-2.39z" fill="#0065bd"/><path d="m203.33 185.85h-45.47v25.13h45.47zm-22.44 22.19c-5.2 0-9.43-4.23-9.43-9.43s4.23-9.43 9.43-9.43 9.43 4.23 9.43 9.43-4.23 9.43-9.43 9.43z" fill="#ebebeb"/><path d="m105.21 185.85h44.28v4.79h-44.28z" fill="#e6e6e6"/><path d="m105.21 194.23h44.28v2.39h-44.28z" fill="#e6e6e6"/><path d="m105.21 200.21h22.5v2.39h-22.5z" fill="#e6e6e6"/><path d="m105.21 222.95h27.52v29.92h-27.52z" fill="#fff"/><path d="m95.61 263.63v33.51h54.65l33.51-33.51zm35.31 13.16h-23.89c-1 0-1.82-.81-1.82-1.82v-3.55c0-1 .81-1.82 1.82-1.82h23.89c1 0 1.82.81 1.82 1.82v3.55c0 1-.81 1.82-1.82 1.82z" fill="#fff"/><path d="m209.39 266.37-30.77 30.77h15.52l15.25-15.26z" fill="#fff"/><path d="m190.19 263.63-33.51 33.51h15.52l33.5-33.51z" fill="#fff"/><path d="m209.39 288.31-8.83 8.83h8.83z" fill="#fff"/><path d="m183.77 263.63-33.51 33.51h6.42l33.51-33.51z" fill="#e6e6e6"/><path d="m209.39 263.63h-3.69l-33.5 33.51h6.42l30.77-30.77z" fill="#e6e6e6"/><path d="m209.39 281.88-15.25 15.26h6.42l8.83-8.83z" fill="#e6e6e6"/><rect fill="#e6e6e6" height="7.18" rx="1.82" width="27.52" x="105.21" y="269.62"/><path d="m175.81 222.95h27.52v29.92h-27.52z" fill="#fff"/><path d="m140.51 222.95h27.52v29.92h-27.52z" fill="#fff"/><circle cx="180.59" cy="198.42" fill="none" r="8.63" stroke="#0065bd" stroke-miterlimit="10"/><path d="m178.51 193.84v4.58 4.58l2.99-2.29 2.99-2.29-2.99-2.29z" fill="#0065bd"/><rect fill="none" height="149.1" rx="4.06" stroke="#fff" stroke-miterlimit="10" width="114" x="95.5" y="162.4"/><circle cx="497.9" cy="257.21" fill="#0065bd" r="13.53" stroke="#fff" stroke-miterlimit="10"/><circle cx="498.7" cy="296.8" fill="#0065bd" r="13.53" stroke="#fff" stroke-miterlimit="10"/><circle cx="498.7" cy="296.8" fill="#e6e6e6" r="7.19"/><circle cx="387.39" cy="52.25" fill="#e6e6e6" r="2.28"/><circle cx="387.39" cy="93.24" fill="#e6e6e6" r="2.28"/><circle cx="387.39" cy="134.24" fill="#e6e6e6" r="2.28"/><circle cx="346.39" cy="52.25" fill="#e6e6e6" r="2.28"/><circle cx="387.39" cy="11.5" fill="#e6e6e6" r="2.28"/><circle cx="346.39" cy="11.5" fill="#e6e6e6" r="2.28"/><circle cx="346.39" cy="93.24" fill="#e6e6e6" r="2.28"/><circle cx="346.39" cy="134.24" fill="#e6e6e6" r="2.28"/><circle cx="232.48" cy="172.21" fill="#00437e" r="3.64"/><path d="m248.44 169.09h73.23v6.23h-73.23z" fill="#00437e"/><circle cx="232.48" cy="219.74" fill="#00437e" r="3.64"/><path d="m248.44 216.62h73.23v6.23h-73.23z" fill="#00437e"/><circle cx="232.48" cy="195.97" fill="#00437e" r="3.64"/><path d="m248.44 192.86h73.23v6.23h-73.23z" fill="#00437e"/><g fill="#e6e6e6"><circle cx="510.37" cy="175.23" r="2.28"/><circle cx="510.37" cy="216.23" r="2.28"/><circle cx="469.38" cy="175.23" r="2.28"/><circle cx="469.38" cy="216.23" r="2.28"/><circle cx="428.38" cy="175.23" r="2.28"/><circle cx="428.38" cy="216.23" r="2.28"/><circle cx="387.39" cy="175.23" r="2.28"/><circle cx="387.39" cy="216.23" r="2.28"/><circle cx="346.39" cy="175.23" r="2.28"/><circle cx="346.39" cy="216.23" r="2.28"/><circle cx="592.36" cy="175.23" r="2.28"/><circle cx="592.36" cy="216.23" r="2.28"/><circle cx="551.37" cy="175.23" r="2.28"/><circle cx="551.37" cy="216.23" r="2.28"/><circle cx="715.75" cy="175.23" r="2.28"/><circle cx="715.75" cy="216.23" r="2.28"/><circle cx="674.76" cy="175.23" r="2.28"/><circle cx="674.76" cy="216.23" r="2.28"/><circle cx="633.76" cy="175.23" r="2.28"/><circle cx="633.76" cy="216.23" r="2.28"/></g><circle cx="367.45" cy="195.97" fill="#0065bd" r="34.3" stroke="#fff" stroke-miterlimit="10"/><path d="m363.04 216.58-6.06-6.06 14.54-14.55-14.54-14.54 6.06-6.06 20.61 20.6z" fill="none" stroke="#fff" stroke-miterlimit="10"/><path d="m566.8 11.5h-155.2" fill="none" stroke="#fff" stroke-miterlimit="10"/><path d="m566.36 52.36h-155.21" fill="none" stroke="#fff" stroke-miterlimit="10"/><path d="m566.36 93.22h-155.21" fill="none" stroke="#fff" stroke-miterlimit="10"/><path d="m566.36 134.07h-155.21" fill="none" stroke="#fff" stroke-miterlimit="10"/><path d="m436.4 28.74-2.75-2.75-6.59 6.59-6.6-6.59-2.75 2.75 9.35 9.34z" fill="none" stroke="#fff" stroke-miterlimit="10"/><path d="m453.7 28.25h112.41v7.56h-112.41z" fill="#00437e"/><path d="m436.4 69.3-2.75-2.75-6.59 6.6-6.6-6.6-2.75 2.75 9.35 9.34z" fill="none" stroke="#fff" stroke-miterlimit="10"/><path d="m453.7 68.82h112.41v7.56h-112.41z" fill="#00437e"/><path d="m436.4 110.75-2.75-2.75-6.59 6.59-6.6-6.59-2.75 2.75 9.35 9.34z" fill="none" stroke="#fff" stroke-miterlimit="10"/><path d="m453.7 110.26h112.41v7.56h-112.41z" fill="#00437e"/><circle cx="233.1" cy="9.46" fill="#fff" r="5.4"/><circle cx="233.1" cy="31.29" fill="#fdd522" r="5.4"/><circle cx="233.1" cy="53.12" fill="#5eb135" r="5.4"/><circle cx="233.1" cy="74.96" fill="#428542" r="5.4"/><circle cx="233.1" cy="96.79" fill="#00437e" r="5.4"/><path d="m37.61 197.47h-19.82l-4.45 12.38h-6.43l18.06-47.29h5.46l18.09 47.29h-6.4l-4.52-12.38zm-17.93-5.1h16.08l-8.06-22.12z" fill="#fff"/><path d="m75.65 209.85c-.35-.69-.63-1.93-.85-3.7-2.79 2.9-6.13 4.35-10 4.35-3.46 0-6.31-.98-8.53-2.94s-3.33-4.44-3.33-7.45c0-3.66 1.39-6.5 4.17-8.53 2.78-2.02 6.7-3.04 11.74-3.04h5.85v-2.76c0-2.1-.63-3.77-1.88-5.02-1.26-1.24-3.11-1.87-5.55-1.87-2.14 0-3.94.54-5.39 1.62s-2.18 2.39-2.18 3.93h-6.04c0-1.75.62-3.45 1.87-5.08 1.25-1.64 2.93-2.93 5.07-3.88 2.13-.95 4.48-1.43 7.03-1.43 4.05 0 7.22 1.01 9.52 3.04s3.49 4.81 3.57 8.36v16.18c0 3.23.41 5.79 1.23 7.7v.52zm-9.97-4.58c1.88 0 3.67-.49 5.36-1.46s2.91-2.24 3.67-3.8v-7.21h-4.71c-7.36 0-11.04 2.15-11.04 6.46 0 1.88.63 3.36 1.88 4.42 1.26 1.06 2.87 1.59 4.84 1.59z" fill="#fff"/><rect fill="#0065bd" height="54.2" rx="1" stroke="#fff" stroke-miterlimit="10" width="54.2" x="27.91" y="227.37"/><path d="m49.38 258.98-8.27-8.27-5.26 5.26 8.27 8.27 5.26 5.26 5.26-5.26 19.53-19.54-5.26-5.26z" fill="#0065bd" stroke="#fff" stroke-miterlimit="10"/><path d="m319.5 26.99h-60.96v3.3h7.55c-3.22 3.1-5.81 6.86-7.55 11.05v25.03c1.74 4.19 4.33 7.95 7.55 11.05h-7.55v2.86h60.96zm-20.42 50.44h-20.58c-9.08-3.98-15.44-13.04-15.44-23.57s6.36-19.59 15.44-23.57h20.59c9.08 3.98 15.44 13.04 15.44 23.57s-6.36 19.59-15.44 23.57zm20.42 0h-8.02c3.52-3.39 6.29-7.55 8.02-12.22zm-8.02-47.14h8.02v12.22c-1.73-4.66-4.5-8.83-8.02-12.22z" fill="#ebebeb"/><path d="m288.79 36.6c-9.52 0-17.26 7.75-17.26 17.26s7.75 17.26 17.26 17.26 17.26-7.75 17.26-17.26-7.75-17.26-17.26-17.26zm0 27.25c-5.51 0-9.98-4.47-9.98-9.98s4.47-9.98 9.98-9.98 9.98 4.47 9.98 9.98-4.47 9.98-9.98 9.98z" fill="#e6e6e6"/><path d="m258.54 121.72v7.14c0 3.12 2.53 5.65 5.65 5.65h49.66c3.12 0 5.65-2.53 5.65-5.65v-7.14z" fill="#ebebeb"/><path d="m319.5 9.7c0-3.12-2.53-5.65-5.65-5.65h-49.66c-3.12 0-5.65 2.53-5.65 5.65v17.29h60.96z" fill="#0065bd"/><path d="m300.51 10.32h12.86v1.41h-12.86z" fill="#fff"/><path d="m300.51 14.55h12.86v1.41h-12.86z" fill="#fff"/><path d="m300.51 18.79h12.86v1.41h-12.86z" fill="#fff"/><path d="m288.79 43.88c-5.51 0-9.98 4.47-9.98 9.98s4.47 9.98 9.98 9.98 9.98-4.47 9.98-9.98-4.47-9.98-9.98-9.98z" fill="#0065bd"/><path d="m299.08 30.3h-20.59c-9.08 3.98-15.44 13.04-15.44 23.57s6.36 19.59 15.44 23.57h20.58c9.08-3.98 15.44-13.04 15.44-23.57s-6.36-19.59-15.44-23.57zm-10.29 40.83c-9.52 0-17.26-7.75-17.26-17.26s7.75-17.26 17.26-17.26 17.26 7.75 17.26 17.26-7.75 17.26-17.26 17.26z" fill="#00437e"/><path d="m319.5 77.44v-12.22c-1.73 4.66-4.5 8.83-8.02 12.22z" fill="#5eb135"/><path d="m258.54 30.3v11.05c1.74-4.19 4.33-7.95 7.55-11.05z" fill="#5eb135"/><path d="m311.48 30.3c3.52 3.39 6.29 7.55 8.02 12.22v-12.22z" fill="#5eb135"/><path d="m258.54 66.38v11.05h7.55c-3.22-3.1-5.8-6.86-7.55-11.05z" fill="#5eb135"/><path d="m319.5 80.29h-60.96v41.43h60.96zm-29.1 34.58h-26.35v-3.72h26.35zm21.96-7.44h-48.31v-3.72h48.31zm0-7.44h-48.31v-3.72h48.31zm-48.31-7.44v-3.72h48.31v3.72z" fill="#fff"/><path d="m264.04 88.84h48.31v3.72h-48.31z" fill="#b3b3b3"/><path d="m264.04 96.28h48.31v3.72h-48.31z" fill="#b3b3b3"/><path d="m264.04 103.72h48.31v3.72h-48.31z" fill="#b3b3b3"/><path d="m264.04 111.15h26.35v3.72h-26.35z" fill="#b3b3b3"/><rect fill="none" height="129.91" rx="4.5" stroke="#fff" stroke-miterlimit="10" width="60.94" x="258.55" y="4.32"/><path d="m530 249.71h188v15h-188z" fill="none" stroke="#fff" stroke-miterlimit="10"/><path d="m530 289.3h188v15h-188z" fill="none" stroke="#fff" stroke-miterlimit="10"/></svg>