<svg viewBox="0 0 288 296" xmlns="http://www.w3.org/2000/svg"><circle cx="7.43" cy="226.33" fill="#fff" r="3.95"/><circle cx="7.43" cy="242.29" fill="#fdd522" r="3.95"/><circle cx="7.43" cy="258.25" fill="#5eb135" r="3.95"/><circle cx="7.43" cy="274.22" fill="#428542" r="3.95"/><circle cx="7.43" cy="290.18" fill="#00437e" r="3.95"/><path d="m7.21 217.05v-65.42c0-6.08 4.93-11 11-11h39.22" fill="none" stroke="#fff" stroke-miterlimit="10"/><path d="m54.12 144.72-.68-.73 3.61-3.36-3.61-3.35.68-.74 4.4 4.09z" fill="#fff"/><g fill="#e6e6e6"><circle cx="244.12" cy="16.19" r="1.73"/><circle cx="244.12" cy="47.29" r="1.73"/><circle cx="244.12" cy="171.69" r="1.73"/><circle cx="244.12" cy="202.79" r="1.73"/><circle cx="244.12" cy="233.89" r="1.73"/><circle cx="213.02" cy="16.19" r="1.73"/><circle cx="213.02" cy="47.29" r="1.73"/><circle cx="213.02" cy="171.69" r="1.73"/><circle cx="213.02" cy="202.79" r="1.73"/><circle cx="213.02" cy="233.89" r="1.73"/><circle cx="181.92" cy="16.19" r="1.73"/><circle cx="181.92" cy="47.29" r="1.73"/><circle cx="181.92" cy="78.39" r="1.73"/><circle cx="181.92" cy="109.49" r="1.73"/><circle cx="181.92" cy="140.59" r="1.73"/><circle cx="181.92" cy="171.69" r="1.73"/><circle cx="181.92" cy="202.79" r="1.73"/><circle cx="181.92" cy="233.89" r="1.73"/><circle cx="150.82" cy="16.19" r="1.73"/><circle cx="150.82" cy="47.29" r="1.73"/><circle cx="150.82" cy="78.39" r="1.73"/><circle cx="150.82" cy="109.49" r="1.73"/><circle cx="150.82" cy="140.59" r="1.73"/><circle cx="150.82" cy="171.69" r="1.73"/><circle cx="150.82" cy="202.79" r="1.73"/><circle cx="150.82" cy="233.89" r="1.73"/><circle cx="119.72" cy="16.19" r="1.73"/><circle cx="119.72" cy="47.29" r="1.73"/><circle cx="119.72" cy="78.39" r="1.73"/><circle cx="119.72" cy="109.49" r="1.73"/><circle cx="119.72" cy="140.59" r="1.73"/><circle cx="119.72" cy="171.69" r="1.73"/><circle cx="119.72" cy="202.79" r="1.73"/><circle cx="119.72" cy="233.89" r="1.73"/><circle cx="88.62" cy="16.19" r="1.73"/><circle cx="88.62" cy="47.29" r="1.73"/><circle cx="88.62" cy="78.39" r="1.73"/><circle cx="88.62" cy="109.49" r="1.73"/><circle cx="88.62" cy="140.59" r="1.73"/><circle cx="88.62" cy="171.69" r="1.73"/><circle cx="88.62" cy="202.79" r="1.73"/><circle cx="88.62" cy="233.89" r="1.73"/><circle cx="57.52" cy="16.19" r="1.73"/><circle cx="57.52" cy="47.29" r="1.73"/><circle cx="57.52" cy="78.39" r="1.73"/><circle cx="57.52" cy="109.49" r="1.73"/><circle cx="57.52" cy="171.69" r="1.73"/><circle cx="57.52" cy="202.79" r="1.73"/><circle cx="57.52" cy="233.89" r="1.73"/></g><rect fill="#ebebeb" height="140.13" rx="4" width="106.94" x="19.22" y="153"/><path d="m28.25 161.02h15.75v5.62h-15.75z" fill="#0065bd"/><path d="m126.17 157.65v-1.23c0-1.89-1.53-3.42-3.42-3.42h-100.11c-1.89 0-3.42 1.53-3.42 3.42v1.23z" fill="#0065bd"/><path d="m19.22 169.42h106.94v1.12h-106.94z" fill="#e6e6e6"/><path d="m19.22 204.28h106.95v-33.74h-106.95zm58.51-29.24h42.74v23.62h-42.74zm-49.49 0h41.61v4.5h-41.6v-4.5zm0 7.87h41.61v2.25h-41.6v-2.25zm21.15 5.62v2.25h-21.14v-2.25h21.15z" fill="#0065bd"/><path d="m120.47 175.04h-42.74v23.62h42.74zm-21.09 20.85c-4.89 0-8.86-3.98-8.86-8.86s3.98-8.86 8.86-8.86 8.86 3.98 8.86 8.86-3.98 8.86-8.86 8.86z" fill="#ebebeb"/><path d="m28.25 175.04h41.61v4.5h-41.61z" fill="#e6e6e6"/><path d="m28.25 182.91h41.61v2.25h-41.61z" fill="#e6e6e6"/><path d="m28.25 188.54h21.15v2.25h-21.15z" fill="#e6e6e6"/><path d="m28.25 209.91h25.87v28.12h-25.87z" fill="#fff"/><path d="m19.22 248.15v31.49h51.37l31.49-31.49zm33.18 12.37h-22.45c-.94 0-1.71-.76-1.71-1.71v-3.33c0-.94.76-1.71 1.71-1.71h22.45c.94 0 1.71.76 1.71 1.71v3.33c0 .94-.76 1.71-1.71 1.71z" fill="#fff"/><path d="m126.17 250.72-28.92 28.92h14.58l14.34-14.34z" fill="#fff"/><path d="m108.12 248.15-31.49 31.49h14.58l31.49-31.49z" fill="#fff"/><path d="m126.17 271.33-8.3 8.31h8.3z" fill="#fff"/><path d="m102.08 248.15-31.49 31.49h6.04l31.49-31.49z" fill="#e6e6e6"/><path d="m126.17 248.15h-3.47l-31.49 31.49h6.04l28.92-28.92z" fill="#e6e6e6"/><path d="m126.17 265.3-14.34 14.34h6.04l8.3-8.31z" fill="#e6e6e6"/><rect fill="#e6e6e6" height="6.75" rx="1.71" width="25.87" x="28.25" y="253.77"/><path d="m94.6 209.91h25.87v28.12h-25.87z" fill="#fff"/><path d="m61.42 209.91h25.87v28.12h-25.87z" fill="#fff"/><circle cx="99.1" cy="186.85" fill="none" r="8.11" stroke="#0065bd" stroke-miterlimit="10"/><path d="m97.14 182.55v4.3 4.3l2.82-2.15 2.81-2.15-2.81-2.15z" fill="#0065bd"/><rect fill="none" height="140.13" rx="3.82" stroke="#fff" stroke-miterlimit="10" width="107.14" x="19.12" y="153"/><path d="m162.29 283.98h-13.16l-2.96 8.22h-4.27l12-31.42h3.63l12.02 31.42h-4.25l-3-8.22zm-11.91-3.39h10.68l-5.35-14.7z" fill="#fff"/><path d="m187.56 292.2c-.23-.46-.42-1.28-.56-2.46-1.86 1.93-4.07 2.89-6.65 2.89-2.3 0-4.19-.65-5.66-1.95s-2.21-2.95-2.21-4.95c0-2.43.92-4.32 2.77-5.66s4.45-2.02 7.8-2.02h3.88v-1.83c0-1.4-.42-2.51-1.25-3.33-.83-.83-2.06-1.24-3.69-1.24-1.42 0-2.62.36-3.58 1.08s-1.45 1.59-1.45 2.61h-4.01c0-1.17.41-2.29 1.24-3.38s1.95-1.95 3.37-2.58 2.97-.95 4.67-.95c2.69 0 4.8.67 6.32 2.02s2.32 3.2 2.37 5.56v10.75c0 2.14.27 3.85.82 5.11v.35h-4.19zm-6.62-3.04c1.25 0 2.44-.32 3.56-.97s1.93-1.49 2.44-2.53v-4.79h-3.13c-4.89 0-7.34 1.43-7.34 4.29 0 1.25.42 2.23 1.25 2.93s1.91 1.06 3.22 1.06z" fill="#fff"/><circle cx="270.76" cy="193.86" fill="#e6e6e6" r="2"/><circle cx="210.48" cy="260.92" fill="#00437e" r="2.47"/><path d="m217.94 258.45h34.06v4.93h-34.06z" fill="#00437e"/><circle cx="210.48" cy="275.72" fill="#00437e" r="2.47"/><path d="m217.94 273.26h34.06v4.93h-34.06z" fill="#00437e"/><circle cx="210.54" cy="290.17" fill="#00437e" r="2.47"/><path d="m217.94 287.7h34.06v4.93h-34.06z" fill="#00437e"/><rect fill="#0065bd" height="50" rx="1" stroke="#fff" stroke-miterlimit="10" width="50" x="142.09" y="193.9"/><path d="m161.89 223.06-7.63-7.63-4.85 4.85 7.63 7.63 4.85 4.85 4.85-4.85 18.03-18.03-4.86-4.85z" fill="#0065bd" stroke="#fff" stroke-miterlimit="10"/><path d="m251.54 168.98h-42.47v2.3h5.26c-2.25 2.16-4.05 4.78-5.26 7.7v17.44c1.21 2.92 3.01 5.54 5.26 7.7h-5.26v1.99h42.47v-37.14zm-14.23 35.15h-14.34c-6.33-2.77-10.76-9.09-10.76-16.42s4.43-13.65 10.76-16.42h14.34c6.33 2.77 10.76 9.09 10.76 16.42s-4.43 13.65-10.76 16.42zm14.23 0h-5.59c2.45-2.36 4.38-5.26 5.59-8.51zm-5.59-32.85h5.59v8.51c-1.21-3.25-3.13-6.15-5.59-8.51z" fill="#ebebeb"/><path d="m230.14 175.68c-6.63 0-12.03 5.4-12.03 12.03s5.4 12.03 12.03 12.03 12.03-5.4 12.03-12.03-5.4-12.03-12.03-12.03zm0 18.99c-3.84 0-6.96-3.11-6.96-6.96s3.11-6.96 6.96-6.96 6.96 3.11 6.96 6.96-3.11 6.96-6.96 6.96z" fill="#e6e6e6"/><path d="m209.06 234.99v4.97c0 2.17 1.76 3.93 3.93 3.93h34.61c2.17 0 3.93-1.76 3.93-3.93v-4.97z" fill="#ebebeb"/><path d="m251.54 156.93c0-2.17-1.76-3.93-3.93-3.93h-34.61c-2.17 0-3.93 1.76-3.93 3.93v12.05h42.47z" fill="#0065bd"/><path d="m238.31 157.36h8.96v.98h-8.96z" fill="#fff"/><path d="m238.31 160.31h8.96v.98h-8.96z" fill="#fff"/><path d="m238.31 163.27h8.96v.98h-8.96z" fill="#fff"/><path d="m230.14 180.75c-3.84 0-6.96 3.11-6.96 6.96s3.11 6.96 6.96 6.96 6.96-3.11 6.96-6.96-3.11-6.96-6.96-6.96z" fill="#0065bd"/><path d="m237.31 171.29h-14.34c-6.33 2.77-10.76 9.09-10.76 16.42s4.43 13.65 10.76 16.42h14.34c6.33-2.77 10.76-9.09 10.76-16.42s-4.43-13.65-10.76-16.42zm-7.17 28.45c-6.63 0-12.03-5.4-12.03-12.03s5.4-12.03 12.03-12.03 12.03 5.4 12.03 12.03-5.4 12.03-12.03 12.03z" fill="#00437e"/><path d="m251.54 204.13v-8.51c-1.21 3.25-3.13 6.15-5.59 8.51z" fill="#5eb135"/><path d="m209.06 171.29v7.7c1.21-2.92 3.01-5.54 5.26-7.7z" fill="#5eb135"/><path d="m245.95 171.29c2.45 2.36 4.38 5.26 5.59 8.51v-8.51z" fill="#5eb135"/><path d="m209.06 196.43v7.7h5.26c-2.25-2.16-4.04-4.78-5.26-7.7z" fill="#5eb135"/><path d="m251.54 206.12h-42.47v28.87h42.47zm-20.28 24.09h-18.36v-2.59h18.36zm15.3-5.18h-33.67v-2.59h33.67zm0-5.18h-33.67v-2.59h33.67zm-33.67-5.18v-2.59h33.67v2.59z" fill="#fff"/><path d="m212.9 212.08h33.67v2.59h-33.67z" fill="#b3b3b3"/><path d="m212.9 217.26h33.67v2.59h-33.67z" fill="#b3b3b3"/><path d="m212.9 222.45h33.67v2.59h-33.67z" fill="#b3b3b3"/><path d="m212.9 227.63h18.36v2.59h-18.36z" fill="#b3b3b3"/><rect fill="none" height="90.53" rx="4.5" stroke="#fff" stroke-miterlimit="10" width="42.46" x="209.07" y="153.19"/><circle cx="271.73" cy="162.7" fill="#0065bd" r="9.7" stroke="#fff" stroke-miterlimit="10"/><circle cx="272.3" cy="191.05" fill="#0065bd" r="9.7" stroke="#fff" stroke-miterlimit="10"/><circle cx="272.3" cy="191.05" fill="#e6e6e6" r="5.15"/><circle cx="233" cy="30.22" fill="#0065bd" r="27.98" stroke="#fff" stroke-miterlimit="10"/><path d="m229.4 47.03-4.94-4.95 11.86-11.86-11.86-11.86 4.94-4.95 16.81 16.81z" fill="none" stroke="#fff" stroke-miterlimit="10"/><rect fill="#ebebeb" height="123.16" rx="4" width="172.92" x="18.71" y="1.93"/><path d="m18.71 13.06h172.6v52.33h-172.6z" fill="#fff"/><path d="m187.85 1.93h-165.36c-2.09 0-3.78 1.69-3.78 3.78v7.36h172.92v-7.37c0-2.09-1.69-3.78-3.78-3.78z" fill="#00437e"/><rect fill="#fff" height="33.58" rx="4" width="104.48" x="74.4" y="72.76"/><path d="m53.72 105.57h-24.57v-8.41h24.58v8.41z" fill="#0065bd"/><path d="m103 19.28h75.87v4.98h-75.87z" fill="#b3b3b3"/><path d="m28.38 72.76h41.05v2.49h-41.05z" fill="#fff"/><path d="m28.38 77.74h41.05v2.49h-41.05z" fill="#fff"/><path d="m28.38 82.71h41.05v2.49h-41.05z" fill="#fff"/><path d="m28.38 87.69h22.39v2.49h-22.39z" fill="#fff"/><path d="m148.8 80.41h23.54v2.49h-23.54z" fill="#ebebeb"/><path d="m148.8 85.38h23.54v2.49h-23.54z" fill="#ebebeb"/><path d="m148.8 90.36h23.54v2.49h-23.54z" fill="#ebebeb"/><path d="m148.8 95.33h12.84v2.49h-12.84z" fill="#ebebeb"/><path d="m103 27.98h75.87v2.49h-75.87z" fill="#b3b3b3"/><path d="m103 34.2h38.56v2.49h-38.56z" fill="#b3b3b3"/><path d="m29 20.18h67.16v38.66h-67.16z" fill="#0065bd"/><path d="m94.86 61.63-67.17-38.66 2.61-5.59 67.17 38.66z" fill="#fff"/><path d="m30.3 61.63-2.61-5.59 67.17-38.66 2.61 5.59z" fill="#fff"/><circle cx="29.62" cy="8.08" fill="#0065bd" r="1.24"/><circle cx="35.84" cy="8.08" fill="#fdd522" r="1.24"/><circle cx="42.06" cy="8.08" fill="#5eb135" r="1.24"/><circle cx="90.56" cy="88.93" fill="#0065bd" r="9.95"/><path d="m112.13 87.94h2.87v10.51h-2.87z" fill="#5eb135"/><path d="m120.73 84.12h2.87v14.34h-2.87z" fill="#428542"/><path d="m129.33 80.29h2.87v18.16h-2.87z" fill="#fdd522"/><path d="m137.93 88.9h2.87v9.56h-2.87z" fill="#0065bd"/><rect fill="none" height="123.17" rx="4.5" stroke="#fff" stroke-miterlimit="10" width="173" x="18.67" y="1.92"/><rect fill="#00437e" height="72.94" rx="1" width="72.94" x="209.06" y="69.56"/><path d="m209.33 142.23 72.4-72.4" fill="none" stroke="#0065bd" stroke-linecap="round" stroke-miterlimit="10"/><path d="m281.73 142.23-72.4-72.4" fill="none" stroke="#0065bd" stroke-linecap="round" stroke-miterlimit="10"/><path d="m6 197h3v3h-3z" fill="#0065bd"/><path d="m6 207h3v3h-3z" fill="#0065bd"/></svg>