<svg viewBox="0 0 288 304" xmlns="http://www.w3.org/2000/svg"><circle cx="8.46" cy="231.88" fill="#fff" r="3.98"/><circle cx="8.46" cy="247.95" fill="#fdd522" r="3.98"/><circle cx="8.46" cy="264.02" fill="#5eb135" r="3.98"/><circle cx="8.46" cy="280.09" fill="#428542" r="3.98"/><circle cx="8.46" cy="296.16" fill="#00437e" r="3.98"/><path d="m8.24 222.55v-65.85c0-6.12 4.96-11.07 11.07-11.07h39.49" fill="none" stroke="#fff" stroke-miterlimit="10"/><path d="m55.48 149.71-.68-.73 3.61-3.36-3.61-3.35.68-.74 4.4 4.09z" fill="#fff"/><g fill="#e6e6e6"><circle cx="246.7" cy="20.36" r="1.74"/><circle cx="246.7" cy="51.66" r="1.74"/><circle cx="246.7" cy="176.88" r="1.74"/><circle cx="246.7" cy="208.18" r="1.74"/><circle cx="246.7" cy="239.49" r="1.74"/><circle cx="215.4" cy="20.36" r="1.74"/><circle cx="215.4" cy="51.66" r="1.74"/><circle cx="215.4" cy="176.88" r="1.74"/><circle cx="215.4" cy="208.18" r="1.74"/><circle cx="215.4" cy="239.49" r="1.74"/><circle cx="184.09" cy="20.36" r="1.74"/><circle cx="184.09" cy="51.66" r="1.74"/><circle cx="184.09" cy="82.97" r="1.74"/><circle cx="184.09" cy="114.27" r="1.74"/><circle cx="184.09" cy="145.58" r="1.74"/><circle cx="184.09" cy="176.88" r="1.74"/><circle cx="184.09" cy="208.18" r="1.74"/><circle cx="184.09" cy="239.49" r="1.74"/><circle cx="152.79" cy="20.36" r="1.74"/><circle cx="152.79" cy="51.66" r="1.74"/><circle cx="152.79" cy="82.97" r="1.74"/><circle cx="152.79" cy="114.27" r="1.74"/><circle cx="152.79" cy="145.58" r="1.74"/><circle cx="152.79" cy="176.88" r="1.74"/><circle cx="152.79" cy="208.18" r="1.74"/><circle cx="152.79" cy="239.49" r="1.74"/><circle cx="121.49" cy="20.36" r="1.74"/><circle cx="121.49" cy="51.66" r="1.74"/><circle cx="121.49" cy="82.97" r="1.74"/><circle cx="121.49" cy="114.27" r="1.74"/><circle cx="121.49" cy="145.58" r="1.74"/><circle cx="121.49" cy="176.88" r="1.74"/><circle cx="121.49" cy="208.18" r="1.74"/><circle cx="121.49" cy="239.49" r="1.74"/><circle cx="90.18" cy="20.36" r="1.74"/><circle cx="90.18" cy="51.66" r="1.74"/><circle cx="90.18" cy="82.97" r="1.74"/><circle cx="90.18" cy="114.27" r="1.74"/><circle cx="90.18" cy="145.58" r="1.74"/><circle cx="90.18" cy="176.88" r="1.74"/><circle cx="90.18" cy="208.18" r="1.74"/><circle cx="90.18" cy="239.49" r="1.74"/><circle cx="58.88" cy="20.36" r="1.74"/><circle cx="58.88" cy="51.66" r="1.74"/><circle cx="58.88" cy="82.97" r="1.74"/><circle cx="58.88" cy="114.27" r="1.74"/><circle cx="58.88" cy="176.88" r="1.74"/><circle cx="58.88" cy="208.18" r="1.74"/><circle cx="58.88" cy="239.49" r="1.74"/></g><rect fill="#ebebeb" height="141.05" rx="4" width="107.65" x="20.33" y="158.07"/><path d="m29.41 166.15h15.85v5.66h-15.85z" fill="#0065bd"/><path d="m127.97 162.75v-1.24c0-1.9-1.54-3.44-3.44-3.44h-100.76c-1.9 0-3.44 1.54-3.44 3.44v1.24z" fill="#0065bd"/><path d="m20.33 174.6h107.65v1.13h-107.65z" fill="#e6e6e6"/><path d="m20.33 209.69h107.64v-33.96h-107.64zm58.89-29.43h43.02v23.77h-43.02zm-49.81 0h41.89v4.53h-41.89zm0 7.92h41.89v2.26h-41.89zm21.29 5.66v2.26h-21.29v-2.26z" fill="#0065bd"/><path d="m122.24 180.26h-43.02v23.77h43.02zm-21.23 20.99c-4.92 0-8.92-4-8.92-8.92s4-8.92 8.92-8.92 8.92 4 8.92 8.92-4 8.92-8.92 8.92z" fill="#ebebeb"/><path d="m29.41 180.26h41.89v4.53h-41.89z" fill="#e6e6e6"/><path d="m29.41 188.18h41.89v2.26h-41.89z" fill="#e6e6e6"/><path d="m29.41 193.84h21.29v2.26h-21.29z" fill="#e6e6e6"/><path d="m29.41 215.35h26.04v28.3h-26.04z" fill="#fff"/><path d="m20.33 253.84v31.7h51.7l31.7-31.7zm33.4 12.45h-22.6c-.95 0-1.72-.77-1.72-1.72v-3.35c0-.95.77-1.72 1.72-1.72h22.6c.95 0 1.72.77 1.72 1.72v3.35c0 .95-.77 1.72-1.72 1.72z" fill="#fff"/><path d="m127.97 256.43-29.11 29.11h14.68l14.43-14.43z" fill="#fff"/><path d="m109.81 253.84-31.7 31.7h14.68l31.69-31.7z" fill="#fff"/><path d="m127.97 277.18-8.35 8.36h8.35z" fill="#fff"/><path d="m103.73 253.84-31.7 31.7h6.08l31.7-31.7z" fill="#e6e6e6"/><path d="m127.97 253.84h-3.49l-31.69 31.7h6.07l29.11-29.11z" fill="#e6e6e6"/><path d="m127.97 271.11-14.43 14.43h6.08l8.35-8.36z" fill="#e6e6e6"/><rect fill="#e6e6e6" height="6.79" rx="1.72" width="26.04" x="29.41" y="259.5"/><path d="m96.2 215.35h26.04v28.3h-26.04z" fill="#fff"/><path d="m62.81 215.35h26.04v28.3h-26.04z" fill="#fff"/><circle cx="100.73" cy="192.14" fill="none" r="8.17" stroke="#0065bd" stroke-miterlimit="10"/><path d="m98.76 187.81v4.33 4.34l2.83-2.17 2.83-2.17-2.83-2.16z" fill="#0065bd"/><rect fill="none" height="141.06" rx="3.84" stroke="#fff" stroke-miterlimit="10" width="107.85" x="20.23" y="158.07"/><path d="m164.34 289.92h-13.25l-2.98 8.28h-4.3l12.08-31.63h3.65l12.1 31.63h-4.28zm-11.99-3.41h10.75l-5.39-14.79z" fill="#fff"/><path d="m189.77 298.19c-.23-.46-.42-1.29-.57-2.48-1.87 1.94-4.1 2.91-6.69 2.91-2.32 0-4.22-.65-5.7-1.97-1.48-1.31-2.23-2.97-2.23-4.98 0-2.45.93-4.35 2.79-5.7s4.48-2.03 7.85-2.03h3.91v-1.85c0-1.4-.42-2.52-1.26-3.36-.84-.83-2.08-1.25-3.71-1.25-1.43 0-2.64.36-3.61 1.09-.97.72-1.46 1.6-1.46 2.63h-4.04c0-1.17.42-2.31 1.25-3.4s1.96-1.96 3.39-2.6 2.99-.96 4.7-.96c2.71 0 4.83.68 6.37 2.03 1.53 1.35 2.33 3.22 2.39 5.59v10.82c0 2.16.27 3.87.83 5.15v.35h-4.21zm-6.67-3.06c1.26 0 2.45-.33 3.58-.98s1.95-1.5 2.45-2.54v-4.82h-3.15c-4.92 0-7.39 1.44-7.39 4.32 0 1.26.42 2.24 1.26 2.95s1.92 1.06 3.24 1.06z" fill="#fff"/><circle cx="273.52" cy="199.2" fill="#e6e6e6" r="2.01"/><circle cx="212.84" cy="266.7" fill="#00437e" r="2.48"/><path d="m220.36 264.22h34.28v4.97h-34.28z" fill="#00437e"/><circle cx="212.84" cy="281.6" fill="#00437e" r="2.48"/><path d="m220.36 279.12h34.28v4.97h-34.28z" fill="#00437e"/><circle cx="212.9" cy="296.14" fill="#00437e" r="2.48"/><path d="m220.36 293.66h34.28v4.97h-34.28z" fill="#00437e"/><rect fill="#0065bd" height="50.33" rx="1" stroke="#fff" stroke-miterlimit="10" width="50.33" x="144" y="199.24"/><path d="m163.93 228.59-7.68-7.68-4.88 4.89 7.68 7.67 4.88 4.89 4.88-4.89 18.15-18.14-4.89-4.88z" fill="#0065bd" stroke="#fff" stroke-miterlimit="10"/><path d="m254.17 174.16h-42.75v2.32h5.29c-2.26 2.18-4.07 4.81-5.29 7.75v17.56c1.22 2.94 3.03 5.58 5.29 7.75h-5.29v2h42.75v-37.39zm-14.32 35.38h-14.44c-6.37-2.79-10.83-9.15-10.83-16.53s4.46-13.74 10.83-16.53h14.44c6.37 2.79 10.83 9.15 10.83 16.53s-4.46 13.74-10.83 16.53zm14.32 0h-5.62c2.47-2.38 4.41-5.3 5.62-8.57zm-5.62-33.06h5.62v8.57c-1.21-3.27-3.16-6.19-5.62-8.57z" fill="#ebebeb"/><path d="m232.63 180.9c-6.68 0-12.11 5.43-12.11 12.11s5.43 12.11 12.11 12.11 12.11-5.43 12.11-12.11-5.43-12.11-12.11-12.11zm0 19.11c-3.87 0-7-3.13-7-7s3.13-7 7-7 7 3.13 7 7-3.13 7-7 7z" fill="#e6e6e6"/><path d="m211.42 240.6v5c0 2.19 1.77 3.96 3.96 3.96h34.83c2.19 0 3.96-1.77 3.96-3.96v-5z" fill="#ebebeb"/><path d="m254.17 162.03c0-2.19-1.77-3.96-3.96-3.96h-34.83c-2.19 0-3.96 1.77-3.96 3.96v12.13h42.75z" fill="#0065bd"/><path d="m240.85 162.46h9.02v.99h-9.02z" fill="#fff"/><path d="m240.85 165.43h9.02v.99h-9.02z" fill="#fff"/><path d="m240.85 168.4h9.02v.99h-9.02z" fill="#fff"/><path d="m232.63 186.01c-3.87 0-7 3.13-7 7s3.13 7 7 7 7-3.13 7-7-3.13-7-7-7z" fill="#0065bd"/><path d="m239.85 176.48h-14.44c-6.37 2.79-10.83 9.15-10.83 16.53s4.46 13.74 10.83 16.53h14.44c6.37-2.79 10.83-9.15 10.83-16.53s-4.46-13.74-10.83-16.53zm-7.22 28.64c-6.68 0-12.11-5.43-12.11-12.11s5.43-12.11 12.11-12.11 12.11 5.43 12.11 12.11-5.43 12.11-12.11 12.11z" fill="#00437e"/><path d="m254.17 209.54v-8.57c-1.21 3.27-3.15 6.19-5.62 8.57z" fill="#5eb135"/><path d="m211.42 176.48v7.75c1.22-2.94 3.03-5.58 5.29-7.75z" fill="#5eb135"/><path d="m248.55 176.48c2.47 2.38 4.41 5.3 5.62 8.57v-8.57z" fill="#5eb135"/><path d="m211.42 201.79v7.75h5.29c-2.26-2.18-4.07-4.81-5.29-7.75z" fill="#5eb135"/><path d="m254.17 211.55h-42.75v29.06h42.75zm-20.41 24.25h-18.48v-2.61h18.48zm15.4-5.22h-33.89v-2.61h33.89zm0-5.22h-33.89v-2.61h33.89zm-33.89-5.22v-2.61h33.89v2.61z" fill="#fff"/><path d="m215.27 217.54h33.89v2.61h-33.89z" fill="#b3b3b3"/><path d="m215.27 222.76h33.89v2.61h-33.89z" fill="#b3b3b3"/><path d="m215.27 227.97h33.89v2.61h-33.89z" fill="#b3b3b3"/><path d="m215.27 233.19h18.48v2.61h-18.48z" fill="#b3b3b3"/><rect fill="none" height="91.12" rx="4.5" stroke="#fff" stroke-miterlimit="10" width="42.74" x="211.42" y="158.26"/><circle cx="274.49" cy="167.83" fill="#0065bd" r="9.76" stroke="#fff" stroke-miterlimit="10"/><circle cx="275.07" cy="196.38" fill="#0065bd" r="9.76" stroke="#fff" stroke-miterlimit="10"/><circle cx="275.07" cy="196.38" fill="#e6e6e6" r="5.18"/><circle cx="235.51" cy="34.48" fill="#0065bd" r="28.16" stroke="#fff" stroke-miterlimit="10"/><path d="m231.89 51.4-4.98-4.97 11.94-11.95-11.94-11.94 4.98-4.97 16.92 16.91z" fill="none" stroke="#fff" stroke-miterlimit="10"/><rect fill="#ebebeb" height="123.97" rx="4" width="174.06" x="19.81" y="6"/><path d="m19.81 17.21h173.73v52.67h-173.73z" fill="#fff"/><path d="m190.07 6h-166.46c-2.1 0-3.8 1.7-3.8 3.8v7.41h174.06v-7.41c0-2.1-1.7-3.8-3.8-3.8z" fill="#00437e"/><rect fill="#fff" height="33.8" rx="4" width="105.17" x="75.86" y="77.3"/><path d="m55.05 110.33h-24.73v-8.46h24.74v8.46z" fill="#0065bd"/><path d="m104.66 23.47h76.37v5.01h-76.37z" fill="#b3b3b3"/><path d="m29.54 77.3h41.32v2.5h-41.32z" fill="#fff"/><path d="m29.54 82.31h41.32v2.5h-41.32z" fill="#fff"/><path d="m29.54 87.32h41.32v2.5h-41.32z" fill="#fff"/><path d="m29.54 92.33h22.54v2.5h-22.54z" fill="#fff"/><path d="m150.75 85h23.69v2.5h-23.69z" fill="#ebebeb"/><path d="m150.75 90.01h23.69v2.5h-23.69z" fill="#ebebeb"/><path d="m150.75 95.02h23.69v2.5h-23.69z" fill="#ebebeb"/><path d="m150.75 100.02h12.92v2.5h-12.92z" fill="#ebebeb"/><path d="m104.66 32.23h76.37v2.5h-76.37z" fill="#b3b3b3"/><path d="m104.66 38.49h38.81v2.5h-38.81z" fill="#b3b3b3"/><path d="m30.17 24.37h67.61v38.91h-67.61z" fill="#0065bd"/><path d="m96.46 66.1-67.61-38.92 2.63-5.62 67.6 38.92z" fill="#fff"/><path d="m31.48 66.1-2.63-5.62 67.61-38.92 2.62 5.62z" fill="#fff"/><circle cx="30.79" cy="12.2" fill="#0065bd" r="1.25"/><circle cx="37.05" cy="12.2" fill="#fdd522" r="1.25"/><circle cx="43.31" cy="12.2" fill="#5eb135" r="1.25"/><circle cx="92.14" cy="93.58" fill="#0065bd" r="10.02"/><path d="m113.84 92.58h2.89v10.58h-2.89z" fill="#5eb135"/><path d="m122.5 88.74h2.89v14.43h-2.89z" fill="#428542"/><path d="m131.16 84.89h2.89v18.28h-2.89z" fill="#fdd522"/><path d="m139.82 93.55h2.89v9.62h-2.89z" fill="#0065bd"/><rect fill="none" height="123.98" rx="4.5" stroke="#fff" stroke-miterlimit="10" width="174.14" x="19.77" y="6"/><rect fill="#00437e" height="73.42" rx="1" width="73.42" x="211.42" y="74.09"/><path d="m211.69 147.23 72.87-72.87" fill="none" stroke="#0065bd" stroke-linecap="round" stroke-miterlimit="10"/><path d="m284.56 147.23-72.87-72.87" fill="none" stroke="#0065bd" stroke-linecap="round" stroke-miterlimit="10"/><path d="m7.02 202.36h3.02v3.02h-3.02z" fill="#0065bd"/><path d="m7.02 212.43h3.02v3.02h-3.02z" fill="#0065bd"/></svg>