<?xml version="1.0" encoding="UTF-8"?><svg id="New_large" xmlns="http://www.w3.org/2000/svg" viewBox="0 0 224 392"><defs><style>.cls-1{fill:#00437e;}.cls-2{fill:#0065bd;}.cls-3{fill:#0065bc;}.cls-4{fill:#ebebeb;}.cls-5{fill:#eaeaea;}.cls-6{fill:#fff;}.cls-7{fill:#e5e5e5;}.cls-8{fill:#fdd522;}.cls-9{fill:#428542;}.cls-10{fill:#5eb135;}.cls-11{fill:none;stroke:#fff;stroke-miterlimit:10;}</style></defs><g><path class="cls-6" d="M71,297v46H25v-46h46m1-1H24v48h48v-48h0Z"/><g id="Text"><path class="cls-6" d="M44.32,324.93h-9.61l-2.16,6h-3.12l8.76-22.94h2.65l8.77,22.94h-3.1l-2.19-6Zm-8.69-2.47h7.8l-3.91-10.73-3.89,10.73Z"/><path class="cls-6" d="M62.76,330.94c-.17-.34-.3-.93-.41-1.8-1.35,1.41-2.97,2.11-4.85,2.11-1.68,0-3.06-.47-4.14-1.43-1.08-.95-1.61-2.16-1.61-3.61,0-1.77,.67-3.15,2.02-4.14,1.35-.98,3.25-1.47,5.69-1.47h2.84v-1.34c0-1.02-.3-1.83-.91-2.43-.61-.6-1.51-.91-2.69-.91-1.04,0-1.91,.26-2.61,.79-.7,.53-1.06,1.16-1.06,1.91h-2.93c0-.85,.3-1.67,.91-2.47,.6-.79,1.42-1.42,2.46-1.88,1.03-.46,2.17-.69,3.41-.69,1.96,0,3.5,.49,4.62,1.47,1.11,.98,1.69,2.33,1.73,4.06v7.84c0,1.56,.2,2.81,.6,3.73v.25h-3.06Zm-4.84-2.22c.91,0,1.78-.24,2.6-.71,.82-.47,1.41-1.09,1.78-1.84v-3.5h-2.28c-3.57,0-5.36,1.05-5.36,3.13,0,.91,.3,1.63,.91,2.14s1.39,.77,2.35,.77Z"/></g></g><g id="Page_nav"><path class="cls-6" d="M168,337c12.68,0,23,10.32,23,23s-10.32,23-23,23-23-10.32-23-23,10.32-23,23-23m0-1c-13.25,0-24,10.75-24,24s10.75,24,24,24,24-10.75,24-24-10.75-24-24-24h0Z"/><polygon class="cls-11" points="164.91 374.42 160.67 370.18 170.85 360 160.67 349.82 164.91 345.58 179.33 360 164.91 374.42"/></g><g><circle class="cls-6" cx="28" cy="364" r="2"/><circle class="cls-6" cx="28" cy="380" r="2"/><circle class="cls-6" cx="44" cy="364" r="2"/><circle class="cls-6" cx="44" cy="380" r="2"/><circle class="cls-6" cx="60" cy="364" r="2"/><circle class="cls-6" cx="60" cy="380" r="2"/><circle class="cls-6" cx="76" cy="364" r="2"/><circle class="cls-6" cx="76" cy="380" r="2"/><circle class="cls-6" cx="92" cy="364" r="2"/><circle class="cls-6" cx="92" cy="380" r="2"/><circle class="cls-6" cx="108" cy="364" r="2"/><circle class="cls-6" cx="108" cy="380" r="2"/><circle class="cls-6" cx="124" cy="364" r="2"/><circle class="cls-6" cx="124" cy="380" r="2"/></g><g id="Desktop"><rect class="cls-4" x="24" y="8" width="168" height="120" rx="4" ry="4"/><rect class="cls-6" x="24" y="19" width="168" height="53"/><rect class="cls-3" x="32" y="104" width="24" height="8"/><rect class="cls-6" x="32" y="80" width="48" height="4"/><rect class="cls-6" x="32" y="88" width="48" height="4"/><rect class="cls-6" x="32" y="96" width="24" height="4"/><g><g><rect class="cls-4" x="104" y="28" width="80" height="8"/><g><rect class="cls-4" x="104" y="40" width="80" height="4"/><rect class="cls-4" x="104" y="48" width="40" height="4"/></g></g><rect class="cls-3" x="32" y="28" width="64" height="36"/></g><polygon class="cls-6" points="94.62 66.98 30.91 30.31 33.38 25.02 97.09 61.69 94.62 66.98"/><path class="cls-1" d="M28,8H188c2.21,0,4,1.79,4,4v7H24v-7c0-2.21,1.79-4,4-4Z"/><polygon class="cls-6" points="33.38 66.98 30.91 61.69 94.62 25.02 97.09 30.31 33.38 66.98"/><circle class="cls-2" cx="34" cy="14" r="2"/><path class="cls-6" d="M188,9c1.65,0,3,1.35,3,3V124c0,1.65-1.35,3-3,3H28c-1.65,0-3-1.35-3-3V12c0-1.65,1.35-3,3-3H188m0-1H28c-2.21,0-4,1.79-4,4V124c0,2.21,1.79,4,4,4H188c2.21,0,4-1.79,4-4V12c0-2.21-1.79-4-4-4h0Z"/><circle class="cls-8" cx="41.9" cy="13.8" r="2"/><circle class="cls-10" cx="49.9" cy="13.8" r="2"/><rect class="cls-6" x="88" y="80" width="96" height="32" rx="4" ry="4"/><rect class="cls-4" x="160" y="88" width="18" height="2"/><g id="Pie"><g><path class="cls-10" d="M119.99,95.57c-.04-1.09-.22-2.15-.53-3.14-.32-1.03-.76-2-1.35-2.88-.56-.92-1.26-1.74-2.06-2.46l-4.72,4.72c.38,.32,.71,.66,1,1.05,.28,.39,.51,.81,.68,1.28,.17,.44,.28,.92,.31,1.41,.03,.15,.03,.29,.03,.44,0,.33-.03,.67-.09,.99,0,0,0,0,0,.01l6.44,1.73c.2-.88,.32-1.8,.32-2.74,0-.14,0-.28-.01-.42Z"/><path class="cls-2" d="M108.46,101.31v6.68c-.15,0-.31,0-.47,0-6.62,0-11.99-5.37-11.99-12.01,0-4.42,2.39-8.27,5.95-10.35l3.36,5.76c-1.57,.93-2.64,2.65-2.64,4.6,0,2.95,2.4,5.33,5.33,5.33,.16,0,.31-.01,.46-.02Z"/><path class="cls-8" d="M113.24,97c-.08,.48-.24,.92-.44,1.33-.21,.43-.47,.81-.76,1.16-.31,.35-.65,.65-1.04,.92-.36,.25-.77,.45-1.2,.6-.41,.16-.85,.25-1.31,.29,0,0-.02,0-.03,0v6.68c1.06-.04,2.08-.22,3.04-.52,.99-.29,1.95-.73,2.81-1.27,.89-.55,1.71-1.21,2.42-1.97,.71-.76,1.34-1.62,1.83-2.55,.5-.92,.87-1.9,1.11-2.94l-6.44-1.73Z"/><path class="cls-9" d="M116.04,87.09l-4.72,4.72h0c-.39-.3-.8-.56-1.27-.74-.44-.19-.92-.31-1.43-.36-.2-.03-.4-.04-.61-.04-.29,0-.57,.02-.84,.06-.66,.11-1.29,.33-1.85,.67l-3.36-5.76c1.56-.91,3.34-1.48,5.24-1.61,.27-.02,.54-.03,.8-.03,.82,0,1.62,.08,2.38,.23,1.07,.22,2.09,.57,3.03,1.06,.96,.48,1.85,1.09,2.64,1.8Z"/></g><path class="cls-6" d="M102.67,96c0-2.65,1.96-4.87,4.49-5.27,.27-.04,.55-.07,.84-.07,.21,0,.41,.01,.61,.04,.51,.05,.99,.17,1.43,.36,.47,.19,.88,.44,1.27,.73,.39,.32,.72,.67,1.01,1.07,.28,.39,.51,.81,.68,1.28,.17,.44,.28,.92,.31,1.41,.03,.15,.03,.29,.03,.44,0,.33-.03,.67-.09,.99-.08,.48-.24,.93-.44,1.35-.21,.43-.47,.81-.76,1.16-.31,.35-.65,.65-1.04,.92-.36,.25-.77,.45-1.2,.6-.41,.16-.85,.25-1.31,.29-.16,.01-.32,.03-.49,.03-2.93,0-5.33-2.39-5.33-5.33Z"/></g><g><rect class="cls-9" x="126" y="92" width="4" height="8"/><rect class="cls-10" x="134" y="90" width="4" height="12"/><rect class="cls-8" x="142" y="88" width="4" height="16"/><rect class="cls-2" x="150" y="92" width="4" height="8"/></g><rect class="cls-4" x="160" y="92.67" width="18" height="2"/><rect class="cls-4" x="160" y="97.33" width="18" height="2"/><rect class="cls-4" x="160" y="102" width="12" height="2"/></g><g id="Tablet"><g><rect class="cls-2" x="24.5" y="144.5" width="103" height="135" rx="3.5" ry="3.5"/><path class="cls-6" d="M124,145c1.65,0,3,1.35,3,3v128c0,1.65-1.35,3-3,3H28c-1.65,0-3-1.35-3-3V148c0-1.65,1.35-3,3-3H124m0-1H28c-2.21,0-4,1.79-4,4v128c0,2.21,1.79,4,4,4H124c2.21,0,4-1.79,4-4V148c0-2.21-1.79-4-4-4h0Z"/></g><rect class="cls-4" x="24" y="150" width="104" height="12"/><path class="cls-4" d="M24,200h104v76c0,2.21-1.79,4-4,4H28c-2.21,0-4-1.79-4-4v-76h0Z"/><rect class="cls-6" x="24" y="240" width="104" height="32"/><g><polygon class="cls-4" points="104.98 240 72.97 272 62.96 272 94.97 240 104.98 240"/><polygon class="cls-4" points="125.75 240 93.75 272 83.74 272 115.75 240 125.75 240"/><polygon class="cls-4" points="127.04 249.48 127.04 259.49 114.53 272 104.52 272 127.04 249.48"/></g><rect class="cls-6" x="32.16" y="208" width="23.68" height="24.07"/><rect class="cls-6" x="96.16" y="208" width="23.68" height="24.07"/><rect class="cls-6" x="64.16" y="208" width="23.68" height="24.07"/><rect class="cls-2" x="32" y="153" width="16" height="6"/><rect class="cls-7" x="32" y="168" width="40" height="4"/><rect class="cls-7" x="32" y="176" width="40" height="4"/><rect class="cls-5" x="80" y="168" width="40" height="24"/><g><circle class="cls-3" cx="100" cy="180" r="7"/><polygon class="cls-6" points="98.31 176.29 98.31 180 98.31 183.71 100.74 181.86 103.16 180 100.74 178.14 98.31 176.29"/></g><rect class="cls-4" x="32" y="248" width="32" height="8"/><rect class="cls-7" x="32" y="184" width="20" height="4"/><path class="cls-6" d="M124,145c1.65,0,3,1.35,3,3v128c0,1.65-1.35,3-3,3H28c-1.65,0-3-1.35-3-3V148c0-1.65,1.35-3,3-3H124m0-1H28c-2.21,0-4,1.79-4,4v128c0,2.21,1.79,4,4,4H124c2.21,0,4-1.79,4-4V148c0-2.21-1.79-4-4-4h0Z"/></g><g id="Mobile"><path class="cls-2" d="M192,160h-48v-12c0-2.21,1.79-4,4-4h40c2.21,0,4,1.79,4,4v12Z"/><path class="cls-4" d="M144,160h48v84c0,2.21-1.79,4-4,4h-40c-2.21,0-4-1.79-4-4v-84h0Z"/><g><rect class="cls-10" x="144" y="164" width="48" height="40"/><g><path class="cls-4" d="M192,184c0,8.35-4.27,15.71-10.75,20h-26.5c-6.48-4.29-10.75-11.65-10.75-20s4.27-15.71,10.75-20h26.5c6.48,4.29,10.75,11.65,10.75,20Z"/><circle class="cls-1" cx="168" cy="184" r="20"/><circle class="cls-4" cx="168" cy="184" r="16"/><circle class="cls-4" cx="168" cy="184" r="12"/><circle class="cls-2" cx="168" cy="184" r="8"/></g></g><g id="Outline"><path class="cls-6" d="M188,145c1.65,0,3,1.35,3,3v96c0,1.65-1.35,3-3,3h-40c-1.65,0-3-1.35-3-3v-96c0-1.65,1.35-3,3-3h40m0-1h-40c-2.21,0-4,1.79-4,4v96c0,2.21,1.79,4,4,4h40c2.21,0,4-1.79,4-4v-96c0-2.21-1.79-4-4-4h0Z"/></g><rect class="cls-6" x="144" y="208" width="48" height="29"/><rect class="cls-4" x="148" y="212" width="40" height="4"/><rect class="cls-4" x="148" y="220" width="40" height="4"/><rect class="cls-4" x="148" y="228" width="20" height="4"/><g><rect class="cls-6" x="180" y="148.33" width="8" height="1.33"/><rect class="cls-6" x="180" y="151.33" width="8" height="1.33"/><rect class="cls-6" x="180" y="154.33" width="8" height="1.33"/></g></g><g><g><circle class="cls-6" cx="148" cy="268" r="3"/><rect class="cls-6" x="156" y="267" width="36" height="2"/></g><g><circle class="cls-8" cx="148" cy="282" r="3"/><rect class="cls-8" x="156" y="281" width="36" height="2"/></g><g><circle class="cls-10" cx="148" cy="296" r="3"/><rect class="cls-10" x="156" y="295" width="36" height="2"/></g><g><circle class="cls-9" cx="148.37" cy="310" r="3"/><rect class="cls-9" x="156" y="309" width="36" height="2"/></g><g><circle class="cls-1" cx="148" cy="324" r="3"/><rect class="cls-1" x="156" y="323" width="36" height="2"/></g></g><g><g><g><rect class="cls-6" x="107.43" y="323.43" width="20.57" height="20.57" transform="translate(235.43 667.43) rotate(-180)"/><polygon class="cls-3" points="124.99 339.78 123.78 340.99 117.71 334.93 111.65 340.99 110.44 339.78 116.5 333.71 110.44 327.65 111.65 326.44 117.71 332.5 123.78 326.44 124.99 327.65 118.93 333.71 124.99 339.78"/></g><path class="cls-6" d="M99.57,324.43v18.57h-18.57v-18.57h18.57m1-1h-20.57v20.57h20.57v-20.57h0Z"/></g><rect class="cls-4" x="80" y="296" width="48" height="20.57" transform="translate(208 612.57) rotate(180)"/><rect class="cls-2" x="83.43" y="299.43" width="41.14" height="13.71" transform="translate(208 612.57) rotate(180)"/><rect class="cls-6" x="87.75" y="303.71" width="32.5" height="5.14" transform="translate(208 612.57) rotate(180)"/></g></svg>