<?xml version="1.0" encoding="UTF-8"?><svg id="New_large" xmlns="http://www.w3.org/2000/svg" viewBox="0 0 736 414"><defs><style>.cls-1{fill:#00437e;}.cls-2,.cls-3{fill:#0065bd;}.cls-4,.cls-5{fill:#0065bc;}.cls-6{fill:#ebebeb;}.cls-7{fill:#eaeaea;}.cls-8{fill:#fff;}.cls-9{fill:#e5e5e5;}.cls-10{fill:#fdd522;}.cls-11{fill:#428542;}.cls-12{fill:#5eb135;}.cls-3,.cls-13{stroke-miterlimit:10;}.cls-3,.cls-13,.cls-5{stroke:#fff;}.cls-13{fill:none;}.cls-5{stroke-linejoin:round;}</style></defs><g><path class="cls-8" d="M344,101v78.5h-78.5V101h78.5m1-1h-80.5v80.5h80.5V100h0Z"/><g id="Text"><path class="cls-8" d="M298.57,148.52h-16.11l-3.62,10.07h-5.23l14.69-38.46h4.44l14.71,38.46h-5.2l-3.67-10.07Zm-14.58-4.15h13.08l-6.55-17.99-6.52,17.99Z"/><path class="cls-8" d="M329.51,158.59c-.28-.56-.51-1.57-.69-3.01-2.27,2.36-4.98,3.54-8.14,3.54-2.82,0-5.13-.8-6.93-2.39-1.81-1.59-2.71-3.61-2.71-6.06,0-2.98,1.13-5.29,3.4-6.93,2.26-1.65,5.45-2.47,9.55-2.47h4.76v-2.25c0-1.71-.51-3.07-1.53-4.08-1.02-1.01-2.53-1.52-4.52-1.52-1.74,0-3.21,.44-4.38,1.32-1.18,.88-1.77,1.95-1.77,3.2h-4.91c0-1.43,.51-2.8,1.52-4.13,1.01-1.33,2.39-2.38,4.12-3.16,1.73-.77,3.64-1.16,5.72-1.16,3.29,0,5.87,.82,7.74,2.47,1.87,1.65,2.84,3.91,2.91,6.8v13.16c0,2.62,.33,4.71,1,6.26v.42h-5.13Zm-8.11-3.72c1.53,0,2.99-.4,4.36-1.19,1.37-.79,2.37-1.82,2.99-3.09v-5.86h-3.83c-5.99,0-8.98,1.75-8.98,5.26,0,1.53,.51,2.73,1.53,3.59,1.02,.86,2.33,1.29,3.94,1.29Z"/></g></g><g><g><g><circle class="cls-2" cx="281.75" cy="335.75" r="16.75"/><path class="cls-8" d="M281.75,319.5c8.96,0,16.25,7.29,16.25,16.25s-7.29,16.25-16.25,16.25-16.25-7.29-16.25-16.25,7.29-16.25,16.25-16.25m0-1c-9.53,0-17.25,7.72-17.25,17.25s7.72,17.25,17.25,17.25,17.25-7.72,17.25-17.25-7.72-17.25-17.25-17.25h0Z"/></g><circle class="cls-9" cx="281.75" cy="335.75" r="9.16"/></g><g><circle class="cls-2" cx="327.75" cy="335.75" r="16.75"/><path class="cls-8" d="M327.75,319.5c8.96,0,16.25,7.29,16.25,16.25s-7.29,16.25-16.25,16.25-16.25-7.29-16.25-16.25,7.29-16.25,16.25-16.25m0-1c-9.53,0-17.25,7.72-17.25,17.25s7.72,17.25,17.25,17.25,17.25-7.72,17.25-17.25-7.72-17.25-17.25-17.25h0Z"/></g></g><g id="Page_nav"><path class="cls-8" d="M304.75,9c21.64,0,39.25,17.61,39.25,39.25s-17.61,39.25-39.25,39.25-39.25-17.61-39.25-39.25,17.61-39.25,39.25-39.25m0-1c-22.23,0-40.25,18.02-40.25,40.25s18.02,40.25,40.25,40.25,40.25-18.02,40.25-40.25-18.02-40.25-40.25-40.25h0Z"/><polygon class="cls-13" points="299.57 72.43 292.46 65.32 309.52 48.25 292.46 31.18 299.57 24.07 323.75 48.25 299.57 72.43"/></g><polygon class="cls-13" points="605.19 55.52 608.15 52.56 615.25 59.66 622.35 52.56 625.31 55.52 615.25 65.59 605.19 55.52"/><polygon class="cls-13" points="605.19 90.02 608.15 87.06 615.25 94.16 622.35 87.06 625.31 90.02 615.25 100.09 605.19 90.02"/><polygon class="cls-13" points="605.19 124.52 608.15 121.56 615.25 128.66 622.35 121.56 625.31 124.52 615.25 134.59 605.19 124.52"/><polygon class="cls-13" points="605.19 159.02 608.15 156.06 615.25 163.16 622.35 156.06 625.31 159.02 615.25 169.09 605.19 159.02"/><g><circle class="cls-8" cx="178.25" cy="370.25" r="2.87"/><circle class="cls-8" cx="178.25" cy="393.25" r="2.87"/><circle class="cls-8" cx="201.25" cy="370.25" r="2.87"/><circle class="cls-8" cx="201.25" cy="393.25" r="2.87"/><circle class="cls-8" cx="224.25" cy="370.25" r="2.87"/><circle class="cls-8" cx="224.25" cy="393.25" r="2.87"/><circle class="cls-8" cx="247.25" cy="370.25" r="2.87"/><circle class="cls-8" cx="247.25" cy="393.25" r="2.87"/><circle class="cls-8" cx="270.25" cy="370.25" r="2.87"/><circle class="cls-8" cx="270.25" cy="393.25" r="2.87"/><circle class="cls-8" cx="293.25" cy="370.25" r="2.87"/><circle class="cls-8" cx="293.25" cy="393.25" r="2.87"/><circle class="cls-8" cx="316.25" cy="370.25" r="2.87"/><circle class="cls-8" cx="316.25" cy="393.25" r="2.87"/><circle class="cls-8" cx="339.25" cy="370.25" r="2.87"/><circle class="cls-8" cx="339.25" cy="393.25" r="2.87"/></g><g id="Desktop"><rect class="cls-6" x="0" y="8" width="241.5" height="172.5" rx="4" ry="4"/><rect class="cls-8" y="23.81" width="241.5" height="76.19"/><rect class="cls-4" x="11.5" y="146" width="34.5" height="11.5"/><rect class="cls-8" x="11.5" y="111.5" width="69" height="5.75"/><rect class="cls-8" x="11.5" y="123" width="69" height="5.75"/><rect class="cls-8" x="11.5" y="134.5" width="34.5" height="5.75"/><g><g><rect class="cls-6" x="115" y="36.75" width="115" height="11.5"/><g><rect class="cls-6" x="115" y="54" width="115" height="5.75"/><rect class="cls-6" x="115" y="65.5" width="57.5" height="5.75"/></g></g><rect class="cls-4" x="11.5" y="36.75" width="92" height="51.75"/></g><polygon class="cls-8" points="101.51 92.79 9.93 40.08 13.49 32.46 105.07 85.17 101.51 92.79"/><path class="cls-1" d="M4,8H237.5c2.21,0,4,1.79,4,4v11.81H0V12c0-2.21,1.79-4,4-4Z"/><polygon class="cls-8" points="13.49 92.79 9.93 85.17 101.51 32.46 105.07 40.08 13.49 92.79"/><circle class="cls-2" cx="14.37" cy="16.63" r="2.87"/><path class="cls-8" d="M237.5,9c1.65,0,3,1.35,3,3V176.5c0,1.65-1.35,3-3,3H4c-1.65,0-3-1.35-3-3V12c0-1.65,1.35-3,3-3H237.5m0-1H4c-2.21,0-4,1.79-4,4V176.5c0,2.21,1.79,4,4,4H237.5c2.21,0,4-1.79,4-4V12c0-2.21-1.79-4-4-4h0Z"/><circle class="cls-10" cx="25.74" cy="16.33" r="2.87"/><circle class="cls-12" cx="37.24" cy="16.33" r="2.87"/><rect class="cls-8" x="92" y="111.5" width="138" height="46" rx="4" ry="4"/><rect class="cls-6" x="195.5" y="123" width="25.87" height="2.87"/><g id="Pie"><g><path class="cls-12" d="M137.98,133.89c-.05-1.57-.31-3.09-.77-4.52-.46-1.48-1.1-2.87-1.94-4.14-.81-1.32-1.81-2.51-2.96-3.53l-6.78,6.78c.55,.45,1.02,.95,1.44,1.51,.4,.56,.73,1.17,.98,1.84,.25,.63,.4,1.32,.44,2.03,.04,.21,.04,.42,.04,.63,0,.48-.04,.96-.13,1.42,0,0,0,.01,0,.02l9.26,2.49c.29-1.26,.46-2.58,.46-3.93,0-.2,0-.4-.02-.6Z"/><path class="cls-2" d="M121.41,142.13v9.6c-.22,.01-.45,.01-.68,.01-9.52,0-17.24-7.72-17.24-17.26,0-6.35,3.44-11.89,8.55-14.88l4.83,8.28c-2.26,1.34-3.8,3.81-3.8,6.61,0,4.24,3.45,7.66,7.66,7.66,.23,0,.45-.01,.66-.03Z"/><path class="cls-10" d="M128.28,135.94c-.12,.68-.34,1.33-.63,1.92-.31,.61-.67,1.17-1.09,1.67-.44,.5-.94,.94-1.5,1.32-.52,.36-1.11,.65-1.72,.86-.59,.23-1.23,.36-1.88,.42-.01,0-.03,0-.04,0v9.6c1.52-.05,2.98-.31,4.37-.75,1.43-.42,2.8-1.04,4.05-1.83,1.28-.79,2.45-1.74,3.48-2.84,1.02-1.1,1.92-2.32,2.63-3.66,.71-1.32,1.25-2.73,1.59-4.23l-9.26-2.49Z"/><path class="cls-11" d="M132.31,121.69l-6.79,6.79h-.01c-.56-.43-1.15-.81-1.83-1.06-.63-.27-1.32-.45-2.06-.52-.29-.04-.57-.06-.88-.06-.42,0-.82,.03-1.21,.09-.95,.16-1.85,.47-2.66,.96l-4.83-8.28c2.24-1.31,4.8-2.13,7.53-2.31,.39-.03,.78-.04,1.15-.04,1.18,0,2.33,.12,3.42,.33,1.54,.32,3,.82,4.36,1.52,1.38,.69,2.66,1.57,3.8,2.59Z"/></g><path class="cls-8" d="M113.08,134.5c0-3.81,2.82-7,6.46-7.57,.38-.06,.79-.1,1.21-.1,.31,0,.59,.02,.88,.06,.73,.08,1.42,.25,2.05,.52,.67,.27,1.26,.63,1.82,1.05,.56,.46,1.04,.96,1.46,1.53,.4,.56,.73,1.17,.98,1.84,.25,.63,.4,1.32,.44,2.03,.04,.21,.04,.42,.04,.63,0,.48-.04,.96-.13,1.42-.12,.69-.35,1.34-.63,1.94-.31,.61-.67,1.17-1.09,1.67-.44,.5-.94,.94-1.5,1.32-.52,.36-1.11,.65-1.72,.86-.59,.23-1.23,.36-1.88,.42-.23,.02-.46,.04-.71,.04-4.22,0-7.67-3.43-7.67-7.67Z"/></g><g><rect class="cls-11" x="146.62" y="128.75" width="5.75" height="11.5"/><rect class="cls-12" x="158.12" y="125.87" width="5.75" height="17.25"/><rect class="cls-10" x="169.62" y="123" width="5.75" height="23"/><rect class="cls-2" x="181.12" y="128.75" width="5.75" height="11.5"/></g><rect class="cls-6" x="195.5" y="129.71" width="25.87" height="2.87"/><rect class="cls-6" x="195.5" y="136.42" width="25.87" height="2.87"/><rect class="cls-6" x="195.5" y="143.12" width="17.25" height="2.87"/></g><g id="Tablet"><g><rect class="cls-2" x=".5" y="204" width="148.5" height="194.5" rx="3.5" ry="3.5"/><path class="cls-8" d="M145.5,204.5c1.65,0,3,1.35,3,3v187.5c0,1.65-1.35,3-3,3H4c-1.65,0-3-1.35-3-3V207.5c0-1.65,1.35-3,3-3H145.5m0-1H4c-2.21,0-4,1.79-4,4v187.5c0,2.21,1.79,4,4,4H145.5c2.21,0,4-1.79,4-4V207.5c0-2.21-1.79-4-4-4h0Z"/></g><rect class="cls-6" y="212.12" width="149.5" height="17.25"/><path class="cls-6" d="M0,284H149.5v111c0,2.21-1.79,4-4,4H4C1.79,399,0,397.21,0,395v-111H0Z"/><rect class="cls-8" y="341.5" width="149.5" height="46"/><g><polygon class="cls-6" points="116.41 341.5 70.39 387.5 56 387.5 102.02 341.5 116.41 341.5"/><polygon class="cls-6" points="146.27 341.5 100.27 387.5 85.88 387.5 131.89 341.5 146.27 341.5"/><polygon class="cls-6" points="148.12 355.13 148.12 369.52 130.14 387.5 115.75 387.5 148.12 355.13"/></g><rect class="cls-8" x="11.73" y="295.5" width="34.04" height="34.61"/><rect class="cls-8" x="103.73" y="295.5" width="34.04" height="34.61"/><rect class="cls-8" x="57.73" y="295.5" width="34.04" height="34.61"/><rect class="cls-2" x="11.5" y="216.44" width="23" height="8.62"/><rect class="cls-9" x="11.5" y="238" width="57.5" height="5.75"/><rect class="cls-9" x="11.5" y="249.5" width="57.5" height="5.75"/><rect class="cls-7" x="80.5" y="238" width="57.5" height="34.5"/><g><circle class="cls-4" cx="109.25" cy="255.25" r="10.06"/><polygon class="cls-8" points="106.82 249.91 106.82 255.25 106.82 260.59 110.31 257.92 113.8 255.25 110.31 252.58 106.82 249.91"/></g><rect class="cls-6" x="11.5" y="353" width="46" height="11.5"/><rect class="cls-9" x="11.5" y="261" width="28.75" height="5.75"/><path class="cls-8" d="M145.5,204.5c1.65,0,3,1.35,3,3v187.5c0,1.65-1.35,3-3,3H4c-1.65,0-3-1.35-3-3V207.5c0-1.65,1.35-3,3-3H145.5m0-1H4c-2.21,0-4,1.79-4,4v187.5c0,2.21,1.79,4,4,4H145.5c2.21,0,4-1.79,4-4V207.5c0-2.21-1.79-4-4-4h0Z"/></g><g id="Mobile"><path class="cls-2" d="M241.5,226.5h-69v-19c0-2.21,1.79-4,4-4h61c2.21,0,4,1.79,4,4v19Z"/><path class="cls-6" d="M172.5,226.5h69v122.5c0,2.21-1.79,4-4,4h-61c-2.21,0-4-1.79-4-4v-122.5h0Z"/><g><rect class="cls-12" x="172.5" y="232.25" width="69" height="57.5"/><g><path class="cls-6" d="M241.5,261c0,12-6.14,22.58-15.45,28.75h-38.09c-9.31-6.17-15.45-16.75-15.45-28.75s6.14-22.58,15.45-28.75h38.09c9.31,6.17,15.45,16.75,15.45,28.75Z"/><circle class="cls-1" cx="207" cy="261" r="28.75"/><circle class="cls-6" cx="207" cy="261" r="23"/><circle class="cls-6" cx="207" cy="261" r="17.25"/><circle class="cls-2" cx="207" cy="261" r="11.5"/></g></g><g id="Outline"><path class="cls-8" d="M237.5,204.5c1.65,0,3,1.35,3,3v141.5c0,1.65-1.35,3-3,3h-61c-1.65,0-3-1.35-3-3V207.5c0-1.65,1.35-3,3-3h61m0-1h-61c-2.21,0-4,1.79-4,4v141.5c0,2.21,1.79,4,4,4h61c2.21,0,4-1.79,4-4V207.5c0-2.21-1.79-4-4-4h0Z"/></g><rect class="cls-8" x="172.5" y="295.5" width="69" height="41.69"/><rect class="cls-6" x="178.25" y="301.25" width="57.5" height="5.75"/><rect class="cls-6" x="178.25" y="312.75" width="57.5" height="5.75"/><rect class="cls-6" x="178.25" y="324.25" width="28.75" height="5.75"/><g><rect class="cls-8" x="224.25" y="209.73" width="11.5" height="1.92"/><rect class="cls-8" x="224.25" y="214.04" width="11.5" height="1.92"/><rect class="cls-8" x="224.25" y="218.35" width="11.5" height="1.92"/></g></g><g><g><circle class="cls-8" cx="270.25" cy="209.25" r="4.31"/><rect class="cls-8" x="281.75" y="207.81" width="63.25" height="2.87"/></g><g><circle class="cls-10" cx="270.25" cy="229.37" r="4.31"/><rect class="cls-10" x="281.75" y="227.94" width="63.25" height="2.87"/></g><g><circle class="cls-12" cx="270.25" cy="249.5" r="4.31"/><rect class="cls-12" x="281.75" y="248.06" width="63.25" height="2.87"/></g><g><circle class="cls-11" cx="270.79" cy="269.62" r="4.31"/><rect class="cls-11" x="281.75" y="268.19" width="63.25" height="2.87"/></g><g><circle class="cls-1" cx="270.25" cy="289.75" r="4.31"/><rect class="cls-1" x="281.75" y="288.31" width="63.25" height="2.87"/></g></g><g><rect class="cls-8" x="655.5" y="8" width="80.5" height="80.5"/><polygon class="cls-4" points="688.29 56.8 675.25 43.76 666.95 52.06 679.99 65.1 688.29 73.41 696.59 65.1 727.43 34.27 719.13 25.97 688.29 56.8"/></g><g><rect class="cls-10" x="667" y="100" width="69" height="69" transform="translate(1403 269) rotate(-180)"/><rect class="cls-8" x="678.5" y="111.5" width="46" height="46"/><rect class="cls-2" x="690" y="123" width="23" height="23"/></g><g><rect class="cls-2" x="690.5" y="250" width="45" height="45"/><path class="cls-8" d="M735,250.5v44h-44v-44h44m1-1h-46v46h46v-46h0Z"/></g><path class="cls-8" d="M713,264.28h-.07l-3.9,2.1-.59-2.31,4.9-2.62h2.59v22.43h-2.93v-19.6Z"/><g><g><rect class="cls-8" x="701.5" y="364.5" width="34.5" height="34.5" transform="translate(1437.5 763.5) rotate(-180)"/><polygon class="cls-4" points="730.95 391.91 728.91 393.95 718.75 383.78 708.59 393.95 706.55 391.91 716.72 381.75 706.55 371.59 708.59 369.55 718.75 379.72 728.91 369.55 730.95 371.59 720.78 381.75 730.95 391.91"/></g><path class="cls-8" d="M689,365.5v32.5h-32.5v-32.5h32.5m1-1h-34.5v34.5h34.5v-34.5h0Z"/></g><rect class="cls-6" x="655.5" y="318.5" width="80.5" height="34.5" transform="translate(1391.5 671.5) rotate(180)"/><rect class="cls-2" x="661.25" y="324.25" width="69" height="23" transform="translate(1391.5 671.5) rotate(180)"/><rect class="cls-8" x="668.44" y="331.44" width="54.62" height="8.62" transform="translate(1391.5 671.5) rotate(180)"/><rect class="cls-3" x="368.72" y="204.22" width="33.06" height="194.06"/><rect class="cls-3" x="414.72" y="204.22" width="33.06" height="194.06"/><rect class="cls-3" x="460.72" y="204.22" width="33.06" height="194.06"/><rect class="cls-3" x="506.72" y="204.22" width="33.06" height="194.06"/><rect class="cls-3" x="552.72" y="204.22" width="33.06" height="194.06"/><rect class="cls-3" x="598.72" y="204.22" width="33.06" height="194.06"/><rect class="cls-13" x="368.72" y="204.22" width="263.06" height="194.06"/><line class="cls-13" x1="368" y1="76.28" x2="632.5" y2="76.28"/><line class="cls-13" x1="368" y1="41.78" x2="632.5" y2="41.78"/><line class="cls-13" x1="368" y1="179.78" x2="632.5" y2="179.78"/><line class="cls-13" x1="368" y1="145.28" x2="632.5" y2="145.28"/><line class="cls-13" x1="368" y1="110.78" x2="632.5" y2="110.78"/><rect class="cls-1" x="586.5" y="8" width="46" height="11.5"/><rect class="cls-1" x="368" y="54" width="184" height="11.5"/><rect class="cls-1" x="368" y="88.5" width="184" height="11.5"/><rect class="cls-1" x="368" y="123" width="184" height="11.5"/><rect class="cls-1" x="368" y="157.5" width="184" height="11.5"/><g><rect class="cls-12" x="678.5" y="180.5" width="57.5" height="57.5"/><path class="cls-8" d="M713.24,212.67h-1.35l-.48-.46c1.68-1.95,2.69-4.48,2.69-7.24,0-6.14-4.98-11.12-11.12-11.12s-11.12,4.98-11.12,11.12,4.98,11.12,11.12,11.12c2.76,0,5.29-1.01,7.24-2.69l.46,.48v1.35l8.56,8.54,2.55-2.55-8.54-8.56h0Zm-10.27,0c-4.26,0-7.7-3.44-7.7-7.7s3.44-7.7,7.7-7.7,7.7,3.44,7.7,7.7-3.44,7.7-7.7,7.7Z"/></g><rect class="cls-8" x="460.25" y="249.5" width="172" height="103.5"/><g><circle class="cls-5" cx="551.14" cy="273.94" r="10.06"/><polygon class="cls-2" points="632.31 351.49 583.15 303.58 559.54 327.47 519.51 286.96 460.21 347.11 460.21 352.92 632.29 352.92 632.31 351.49"/></g><path class="cls-8" d="M631.3,250.53v101.44h-170.1v-101.44h170.1m1-1h-172.1v103.44h172.1v-103.44h0Z"/></svg>