<svg viewBox="0 0 224 392" xmlns="http://www.w3.org/2000/svg"><path d="m175.46 374.64h-15.76l-3.54 9.85h-5.12l14.37-37.62h4.34l14.39 37.62h-5.09zm-14.26-4.06h12.79l-6.41-17.6z" fill="#fff"/><path d="m205.72 384.48c-.28-.55-.5-1.53-.67-2.95-2.22 2.31-4.88 3.46-7.96 3.46-2.76 0-5.02-.78-6.78-2.34-1.77-1.56-2.65-3.54-2.65-5.93 0-2.91 1.11-5.17 3.32-6.78s5.33-2.42 9.34-2.42h4.65v-2.2c0-1.67-.5-3-1.5-3.99s-2.47-1.49-4.42-1.49c-1.71 0-3.14.43-4.29 1.29s-1.73 1.9-1.73 3.13h-4.81c0-1.4.5-2.74 1.49-4.04s2.33-2.33 4.03-3.09 3.56-1.14 5.59-1.14c3.22 0 5.75.81 7.57 2.42 1.83 1.61 2.77 3.83 2.84 6.65v12.87c0 2.57.33 4.61.98 6.12v.41h-5.01zm-7.93-3.64c1.5 0 2.92-.39 4.26-1.16 1.34-.78 2.32-1.78 2.92-3.02v-5.74h-3.75c-5.86 0-8.79 1.71-8.79 5.14 0 1.5.5 2.67 1.5 3.51s2.28 1.27 3.85 1.27z" fill="#fff"/><g fill="#e6e6e6"><circle cx="211.88" cy="37.68" r="1.66"/><circle cx="211.88" cy="67.6" r="1.66"/><circle cx="211.88" cy="97.51" r="1.66"/><circle cx="211.88" cy="127.42" r="1.66"/><circle cx="181.97" cy="37.68" r="1.66"/><circle cx="181.97" cy="67.6" r="1.66"/><circle cx="181.97" cy="97.51" r="1.66"/><circle cx="181.97" cy="127.42" r="1.66"/><circle cx="181.97" cy="247.06" r="1.66"/><circle cx="152.06" cy="37.68" r="1.66"/><circle cx="152.06" cy="67.6" r="1.66"/><circle cx="152.06" cy="97.51" r="1.66"/><circle cx="152.06" cy="127.42" r="1.66"/><circle cx="152.06" cy="247.06" r="1.66"/><circle cx="122.15" cy="37.68" r="1.66"/><circle cx="122.15" cy="67.6" r="1.66"/><circle cx="122.15" cy="97.51" r="1.66"/><circle cx="122.15" cy="127.42" r="1.66"/><circle cx="122.15" cy="157.33" r="1.66"/><circle cx="122.15" cy="187.24" r="1.66"/><circle cx="122.15" cy="217.15" r="1.66"/><circle cx="122.15" cy="247.06" r="1.66"/><circle cx="92.24" cy="37.68" r="1.66"/><circle cx="92.24" cy="67.6" r="1.66"/><circle cx="92.24" cy="97.51" r="1.66"/><circle cx="92.24" cy="127.42" r="1.66"/><circle cx="92.24" cy="157.33" r="1.66"/><circle cx="92.3" cy="187.24" r="1.66"/><circle cx="92.24" cy="217.15" r="1.66"/><circle cx="92.24" cy="247.06" r="1.66"/><circle cx="62.33" cy="37.68" r="1.66"/><circle cx="62.33" cy="67.6" r="1.66"/><circle cx="62.33" cy="97.51" r="1.66"/><circle cx="62.33" cy="127.42" r="1.66"/><circle cx="62.33" cy="157.33" r="1.66"/><circle cx="62.33" cy="187.24" r="1.66"/><circle cx="32.41" cy="37.68" r="1.66"/><circle cx="32.41" cy="67.6" r="1.66"/><circle cx="32.41" cy="97.51" r="1.66"/><circle cx="32.41" cy="127.42" r="1.66"/><circle cx="32.41" cy="157.33" r="1.66"/><circle cx="32.41" cy="187.24" r="1.66"/></g><circle cx="92.24" cy="157.33" fill="#00437e" r="2.52"/><path d="m99.87 154.81h40.37v5.05h-40.37z" fill="#00437e"/><circle cx="92.24" cy="172.47" fill="#00437e" r="2.52"/><path d="m99.87 169.95h40.37v5.05h-40.37z" fill="#00437e"/><circle cx="92.3" cy="187.24" fill="#00437e" r="2.52"/><path d="m99.87 184.72h40.37v5.05h-40.37z" fill="#00437e"/><circle cx="92.3" cy="202.81" fill="#00437e" r="2.52"/><path d="m99.87 200.29h40.37v5.05h-40.37z" fill="#00437e"/><circle cx="92.3" cy="217.95" fill="#00437e" r="2.52"/><path d="m99.87 215.43h40.37v5.05h-40.37z" fill="#00437e"/><rect fill="#0065bd" height="65.1" rx="1" stroke="#fff" stroke-miterlimit="10" width="65.1" x="150.84" y="154.36"/><path d="m176.62 192.33-9.93-9.93-6.31 6.32 9.92 9.93 6.32 6.32 6.32-6.32 23.47-23.47-6.32-6.32z" fill="#0065bd" stroke="#fff" stroke-miterlimit="10"/><path d="m198.78 247.84h-47.94v2.6h5.94c-2.53 2.44-4.57 5.4-5.94 8.69v19.69c1.37 3.3 3.4 6.25 5.94 8.69h-5.94v2.25h47.94zm-16.06 39.68h-16.19c-7.14-3.13-12.14-10.26-12.14-18.54s5-15.41 12.14-18.54h16.19c7.14 3.13 12.14 10.26 12.14 18.54s-5.01 15.41-12.14 18.54zm16.06 0h-6.31c2.77-2.67 4.94-5.94 6.31-9.61zm-6.31-37.08h6.31v9.61c-1.36-3.67-3.54-6.94-6.31-9.61z" fill="#ebebeb"/><path d="m174.63 255.39c-7.49 0-13.58 6.09-13.58 13.58s6.09 13.58 13.58 13.58 13.58-6.09 13.58-13.58-6.09-13.58-13.58-13.58zm0 21.43c-4.34 0-7.85-3.51-7.85-7.85s3.51-7.85 7.85-7.85 7.85 3.52 7.85 7.85-3.51 7.85-7.85 7.85z" fill="#e6e6e6"/><path d="m150.84 322.34v5.61c0 2.45 1.99 4.44 4.44 4.44h39.06c2.45 0 4.44-1.99 4.44-4.44v-5.61z" fill="#ebebeb"/><path d="m198.78 234.24c0-2.45-1.99-4.44-4.44-4.44h-39.06c-2.45 0-4.44 1.99-4.44 4.44v13.6h47.94z" fill="#0065bd"/><path d="m183.85 234.72h10.11v1.11h-10.11z" fill="#fff"/><path d="m183.85 238.05h10.11v1.11h-10.11z" fill="#fff"/><path d="m183.85 241.38h10.11v1.11h-10.11z" fill="#fff"/><path d="m174.63 261.12c-4.34 0-7.85 3.52-7.85 7.85s3.51 7.85 7.85 7.85 7.85-3.51 7.85-7.85-3.51-7.85-7.85-7.85z" fill="#0065bd"/><path d="m182.72 250.44h-16.19c-7.14 3.13-12.14 10.26-12.14 18.54s5.01 15.41 12.14 18.54h16.19c7.14-3.13 12.14-10.26 12.14-18.54s-5-15.41-12.14-18.54zm-8.1 32.12c-7.49 0-13.58-6.09-13.58-13.58s6.09-13.58 13.58-13.58 13.58 6.09 13.58 13.58-6.09 13.58-13.58 13.58z" fill="#00437e"/><path d="m198.78 287.51v-9.61c-1.36 3.67-3.54 6.94-6.31 9.61z" fill="#5eb135"/><path d="m150.84 250.44v8.69c1.37-3.3 3.4-6.25 5.94-8.69z" fill="#5eb135"/><path d="m192.48 250.44c2.77 2.67 4.94 5.94 6.31 9.61v-9.61z" fill="#5eb135"/><path d="m150.84 278.82v8.69h5.94c-2.53-2.44-4.57-5.4-5.94-8.69z" fill="#5eb135"/><path d="m198.78 289.76h-47.94v32.58h47.94zm-22.89 27.2h-20.73v-2.92h20.73zm17.27-5.85h-38v-2.92h38zm0-5.85h-38v-2.92h38zm-38-5.85v-2.92h38v2.92z" fill="#fff"/><path d="m155.17 296.48h38v2.92h-38z" fill="#b3b3b3"/><path d="m155.17 302.33h38v2.92h-38z" fill="#b3b3b3"/><path d="m155.17 308.18h38v2.92h-38z" fill="#b3b3b3"/><path d="m155.17 314.03h20.73v2.92h-20.73z" fill="#b3b3b3"/><rect fill="none" height="102.18" rx="4.5" stroke="#fff" stroke-miterlimit="10" width="47.93" x="150.85" y="230"/><rect fill="#ebebeb" height="155.2" rx="4" width="118.45" x="21.69" y="229.8"/><path d="m31.68 238.68h17.44v6.23h-17.44z" fill="#0065bd"/><path d="m140.13 234.95v-1.37c0-2.09-1.69-3.78-3.78-3.78h-110.88c-2.09 0-3.78 1.69-3.78 3.78v1.37h118.45z" fill="#0065bd"/><path d="m21.69 247.98h118.45v1.25h-118.45z" fill="#e6e6e6"/><path d="m21.69 286.59h118.45v-37.37h-118.45zm64.8-32.39h47.33v26.16h-47.33zm-54.81 0h46.09v4.98h-46.09zm0 8.72h46.09v2.49h-46.09zm23.42 6.23v2.49h-23.42v-2.49z" fill="#0065bd"/><path d="m133.82 254.21h-47.33v26.16h47.33zm-23.36 23.1c-5.41 0-9.81-4.4-9.81-9.82s4.4-9.81 9.81-9.81 9.81 4.4 9.81 9.81-4.4 9.82-9.81 9.82z" fill="#ebebeb"/><path d="m31.68 254.21h46.09v4.98h-46.09z" fill="#e6e6e6"/><path d="m31.68 262.93h46.09v2.49h-46.09z" fill="#e6e6e6"/><path d="m31.68 269.15h23.42v2.49h-23.42z" fill="#e6e6e6"/><path d="m31.68 292.82h28.65v31.14h-28.65z" fill="#fff"/><path d="m21.69 335.17v34.88h56.89l34.88-34.88zm36.75 13.7h-24.87c-1.04 0-1.89-.85-1.89-1.89v-3.69c0-1.04.85-1.89 1.89-1.89h24.87c1.04 0 1.89.85 1.89 1.89v3.69c0 1.04-.85 1.89-1.89 1.89z" fill="#fff"/><path d="m140.13 338.02-32.03 32.03h16.15l15.88-15.88z" fill="#fff"/><path d="m120.14 335.17-34.88 34.88h16.15l34.88-34.88z" fill="#fff"/><path d="m140.13 360.86-9.19 9.19h9.19z" fill="#fff"/><path d="m113.45 335.17-34.87 34.88h6.68l34.88-34.88z" fill="#e6e6e6"/><path d="m140.13 335.17h-3.84l-34.88 34.88h6.69l32.03-32.03z" fill="#e6e6e6"/><path d="m140.13 354.17-15.88 15.88h6.69l9.19-9.19z" fill="#e6e6e6"/><rect fill="#e6e6e6" height="7.47" rx="1.89" width="28.65" x="31.68" y="341.4"/><path d="m105.17 292.82h28.65v31.14h-28.65z" fill="#fff"/><path d="m68.42 292.82h28.65v31.14h-28.65z" fill="#fff"/><circle cx="110.15" cy="267.29" fill="none" r="8.98" stroke="#0065bd" stroke-miterlimit="10"/><path d="m107.99 262.52v4.77 4.76l3.11-2.38 3.11-2.38-3.11-2.39z" fill="#0065bd"/><rect fill="none" height="155.2" rx="4.23" stroke="#fff" stroke-miterlimit="10" width="118.67" x="21.57" y="229.8"/><circle cx="10.47" cy="316.56" fill="#fff" r="3.99"/><circle cx="10.47" cy="332.67" fill="#fdd522" r="3.99"/><circle cx="10.47" cy="348.79" fill="#5eb135" r="3.99"/><circle cx="10.47" cy="364.9" fill="#428542" r="3.99"/><circle cx="10.47" cy="381.01" fill="#00437e" r="3.99"/><path d="m10.25 304.17v-76.12c0-5.57 4.52-10.09 10.09-10.09h40.61" fill="none" stroke="#fff" stroke-miterlimit="10"/><path d="m57.64 222.04-.68-.73 3.61-3.36-3.61-3.35.68-.74 4.4 4.09z" fill="#fff"/><path d="m9.03 285.07h3.03v3.03h-3.03z" fill="#0065bd"/><path d="m9.03 295.17h3.03v3.03h-3.03z" fill="#0065bd"/><circle cx="211.4" cy="16.08" fill="#0065bd" r="8.07" stroke="#fff" stroke-miterlimit="10"/><circle cx="211.88" cy="41.72" fill="#0065bd" r="8.07" stroke="#fff" stroke-miterlimit="10"/><circle cx="211.88" cy="41.72" fill="#e6e6e6" r="4.29"/><rect fill="#ebebeb" height="132.22" rx="4" width="185.63" x="6.06" y="7"/><path d="m6.06 18.96h185.29v56.18h-185.29z" fill="#fff"/><path d="m187.63 7h-177.52c-2.24 0-4.06 1.82-4.06 4.06v7.9h185.64v-7.9c0-2.24-1.82-4.06-4.06-4.06z" fill="#00437e"/><rect fill="#fff" height="36.05" rx="4" width="112.16" x="65.83" y="83.05"/><path d="m43.64 118.27h-26.38v-9.02h26.38z" fill="#0065bd"/><path d="m96.54 25.63h81.45v5.34h-81.45z" fill="#b3b3b3"/><path d="m16.43 83.05h44.06v2.67h-44.06z" fill="#fff"/><path d="m16.43 88.39h44.06v2.67h-44.06z" fill="#fff"/><path d="m16.43 93.73h44.06v2.67h-44.06z" fill="#fff"/><path d="m16.43 99.07h24.03v2.67h-24.03z" fill="#fff"/><path d="m145.7 91.25h25.27v2.67h-25.27z" fill="#ebebeb"/><path d="m145.7 96.6h25.27v2.67h-25.27z" fill="#ebebeb"/><path d="m145.7 101.94h25.27v2.67h-25.27z" fill="#ebebeb"/><path d="m145.7 107.28h13.78v2.67h-13.78z" fill="#ebebeb"/><path d="m96.54 34.98h81.45v2.67h-81.45z" fill="#b3b3b3"/><path d="m96.54 41.65h41.39v2.67h-41.39z" fill="#b3b3b3"/><path d="m17.1 26.6h72.1v41.5h-72.1z" fill="#0065bd"/><path d="m87.8 71.09-72.1-41.5 2.8-5.99 72.1 41.5z" fill="#fff"/><path d="m18.5 71.09-2.8-5.99 72.1-41.5 2.8 5.99z" fill="#fff"/><circle cx="17.76" cy="13.61" fill="#0065bd" r="1.34"/><circle cx="24.44" cy="13.61" fill="#fdd522" r="1.34"/><circle cx="31.12" cy="13.61" fill="#5eb135" r="1.34"/><circle cx="83.19" cy="100.41" fill="#0065bd" r="10.68"/><path d="m106.34 99.34h3.08v11.29h-3.08z" fill="#5eb135"/><path d="m115.57 95.24h3.08v15.39h-3.08z" fill="#428542"/><path d="m124.81 91.13h3.08v19.49h-3.08z" fill="#fdd522"/><path d="m134.04 100.37h3.08v10.26h-3.08z" fill="#0065bd"/><rect fill="none" height="132.22" rx="4.5" stroke="#fff" stroke-miterlimit="10" width="185.72" x="6.01" y="7"/></svg>