<svg enable-background="new 0 0 384 192" viewBox="0 0 384 192" xmlns="http://www.w3.org/2000/svg"><path d="m0 0h64v192h-64z" fill="#333"/><path d="m64 0h64v192h-64z" fill="#0065bd"/><path d="m320 0h64v192h-64z" fill="#d32205"/><path d="m256 0h64v192h-64z" fill="#248542"/><path d="m128 0h64v192h-64z" fill="#ebebeb"/><path d="m192 0h64v192h-64z" fill="#fff"/><path d="m32 64h320v64h-320z" fill="#fdd522"/><path d="m32 120h320v8h-320z" fill="#333"/><g enable-background="new" fill="#033333"><path d="m47.6 104.2h14.4v3.3h-18.5v-30.6h4v27.3z"/><path d="m66 78.8c0-.6.2-1.2.6-1.6s1-.7 1.7-.7c.8 0 1.3.2 1.7.7.4.4.6 1 .6 1.6s-.2 1.2-.6 1.6-1 .6-1.7.6c-.8 0-1.3-.2-1.7-.6s-.6-1-.6-1.6zm4.2 28.6h-3.9v-22.6h3.9z"/><path d="m80.1 84.8.1 2.8c1.7-2.2 4-3.3 6.8-3.3 4.8 0 7.2 2.7 7.2 8.1v15h-3.9v-15c0-1.6-.4-2.8-1.1-3.6s-1.9-1.2-3.4-1.2c-1.3 0-2.4.3-3.3 1s-1.7 1.6-2.2 2.6v16.2h-3.9v-22.6z"/><path d="m106.4 96.9-2.4 2.5v8h-3.9v-32.1h3.9v19.5l2.1-2.5 7.1-7.5h4.7l-8.8 9.5 9.8 13.2h-4.5z"/><path d="m134.4 107.4v-19.6h-3.6v-3h3.6v-2.3c0-2.4.6-4.3 1.9-5.6s3.1-2 5.5-2c.9 0 1.8.1 2.7.4l-.2 3.1c-.7-.1-1.4-.2-2.1-.2-1.3 0-2.2.4-2.9 1.1s-1 1.8-1 3.2v2.4h4.8v3h-4.8v19.7h-3.9z"/><path d="m146.4 95.9c0-2.2.4-4.2 1.3-6s2.1-3.1 3.6-4.1c1.6-1 3.3-1.4 5.3-1.4 3.1 0 5.6 1.1 7.5 3.2s2.9 5 2.9 8.5v.3c0 2.2-.4 4.2-1.3 5.9s-2.1 3.1-3.6 4.1c-1.6 1-3.4 1.5-5.4 1.5-3.1 0-5.6-1.1-7.5-3.2s-2.9-5-2.9-8.5v-.3zm3.8.5c0 2.5.6 4.5 1.7 6.1 1.2 1.5 2.7 2.3 4.7 2.3s3.5-.8 4.7-2.3 1.7-3.7 1.7-6.5c0-2.5-.6-4.5-1.8-6s-2.7-2.3-4.7-2.3c-1.9 0-3.5.8-4.6 2.3-1.1 1.3-1.7 3.5-1.7 6.4z"/><path d="m180.9 104.7c1.4 0 2.6-.4 3.6-1.3 1-.8 1.6-1.9 1.7-3.1h3.7c-.1 1.3-.5 2.5-1.3 3.7s-1.9 2.1-3.3 2.8-2.8 1-4.4 1c-3.1 0-5.5-1-7.4-3.1-1.8-2.1-2.7-4.9-2.7-8.5v-.6c0-2.2.4-4.2 1.2-5.9s2-3.1 3.5-4c1.5-1 3.3-1.4 5.4-1.4 2.5 0 4.7.8 6.3 2.3 1.7 1.5 2.6 3.5 2.7 5.9h-3.7c-.1-1.5-.7-2.7-1.7-3.6s-2.2-1.4-3.7-1.4c-2 0-3.5.7-4.6 2.1s-1.6 3.5-1.6 6.1v.7c0 2.6.5 4.6 1.6 6 1.2 1.6 2.7 2.3 4.7 2.3z"/><path d="m208.3 105.2c-1.5 1.8-3.7 2.7-6.6 2.7-2.4 0-4.3-.7-5.5-2.1-1.3-1.4-1.9-3.5-1.9-6.2v-14.8h3.9v14.6c0 3.4 1.4 5.2 4.2 5.2 3 0 4.9-1.1 5.9-3.3v-16.5h3.9v22.7h-3.7z"/><path d="m231.2 101.4c0-1-.4-1.9-1.2-2.4-.8-.6-2.2-1.1-4.1-1.5-2-.4-3.5-.9-4.7-1.5s-2-1.3-2.6-2.1-.8-1.8-.8-2.9c0-1.9.8-3.4 2.4-4.7s3.6-1.9 6-1.9c2.6 0 4.7.7 6.3 2s2.4 3 2.4 5.1h-3.9c0-1.1-.5-2-1.4-2.7-.9-.8-2-1.2-3.4-1.2s-2.5.3-3.3.9-1.2 1.4-1.2 2.4c0 .9.4 1.6 1.1 2.1s2.1.9 4 1.4c1.9.4 3.5.9 4.7 1.5s2.1 1.3 2.7 2.2.9 1.9.9 3.1c0 2-.8 3.6-2.4 4.9-1.6 1.2-3.7 1.8-6.3 1.8-1.8 0-3.4-.3-4.8-1-1.4-.6-2.5-1.5-3.3-2.7s-1.2-2.4-1.2-3.7h3.9c.1 1.3.6 2.3 1.6 3.1s2.3 1.1 3.8 1.1 2.6-.3 3.5-.9c.8-.6 1.3-1.4 1.3-2.4z"/><path d="m263.9 101.4c0-1-.4-1.9-1.2-2.4-.8-.6-2.2-1.1-4.1-1.5-2-.4-3.5-.9-4.7-1.5s-2-1.3-2.6-2.1-.8-1.8-.8-2.9c0-1.9.8-3.4 2.4-4.7s3.6-1.9 6-1.9c2.6 0 4.7.7 6.3 2s2.4 3 2.4 5.1h-3.9c0-1.1-.5-2-1.4-2.7-.9-.8-2-1.2-3.4-1.2s-2.5.3-3.3.9-1.2 1.4-1.2 2.4c0 .9.4 1.6 1.1 2.1s2.1.9 4 1.4c1.9.4 3.5.9 4.7 1.5s2.1 1.3 2.7 2.2.9 1.9.9 3.1c0 2-.8 3.6-2.4 4.9-1.6 1.2-3.7 1.8-6.3 1.8-1.8 0-3.4-.3-4.8-1-1.4-.6-2.5-1.5-3.3-2.7s-1.2-2.4-1.2-3.7h3.9c.1 1.3.6 2.3 1.6 3.1s2.3 1.1 3.8 1.1 2.6-.3 3.5-.9 1.3-1.4 1.3-2.4z"/><path d="m278.1 79.3v5.5h4.2v3h-4.2v14.1c0 .9.2 1.6.6 2 .4.5 1 .7 1.9.7.4 0 1.1-.1 1.8-.3v3.1c-1 .3-2 .4-3 .4-1.7 0-3-.5-3.9-1.6s-1.3-2.5-1.3-4.5v-13.9h-4.1v-3h4.1v-5.5z"/><path d="m300.9 107.4c-.2-.4-.4-1.2-.5-2.4-1.8 1.9-4 2.8-6.5 2.8-2.2 0-4.1-.6-5.5-1.9s-2.1-2.9-2.1-4.8c0-2.4.9-4.2 2.7-5.5s4.3-2 7.6-2h3.8v-1.8c0-1.4-.4-2.4-1.2-3.2s-2-1.2-3.6-1.2c-1.4 0-2.5.3-3.5 1-.9.7-1.4 1.5-1.4 2.5h-3.9c0-1.1.4-2.2 1.2-3.3s1.9-1.9 3.3-2.5 2.9-.9 4.5-.9c2.6 0 4.7.7 6.1 2 1.5 1.3 2.2 3.1 2.3 5.4v10.4c0 2.1.3 3.7.8 5v.3h-4.1zm-6.5-2.9c1.2 0 2.4-.3 3.5-.9s1.9-1.4 2.4-2.5v-4.7h-3c-4.8 0-7.1 1.4-7.1 4.2 0 1.2.4 2.2 1.2 2.8s1.8 1.1 3 1.1z"/><path d="m315.5 79.3v5.5h4.2v3h-4.2v14.1c0 .9.2 1.6.6 2 .4.5 1 .7 1.9.7.4 0 1.1-.1 1.8-.3v3.1c-1 .3-2 .4-3 .4-1.7 0-3-.5-3.9-1.6-.9-1-1.3-2.5-1.3-4.5v-13.9h-4.1v-3h4.1v-5.5z"/><path d="m333.6 107.9c-3.1 0-5.6-1-7.5-3s-2.9-4.7-2.9-8.1v-.8c0-2.2.4-4.3 1.3-6 .9-1.8 2.1-3.2 3.6-4.1 1.5-1 3.2-1.5 5-1.5 2.9 0 5.2 1 6.9 2.9s2.5 4.7 2.5 8.3v1.6h-15.4c.1 2.2.7 4 2 5.4s2.8 2.1 4.8 2.1c1.4 0 2.5-.3 3.5-.8.9-.6 1.8-1.3 2.5-2.2l2.4 1.8c-2 2.9-4.9 4.4-8.7 4.4zm-.5-20.4c-1.6 0-2.9.6-3.9 1.7-1.1 1.1-1.7 2.7-2 4.8h11.4v-.3c-.1-2-.6-3.5-1.6-4.6-1-1-2.2-1.6-3.9-1.6z"/></g></svg>