<?xml version="1.0" encoding="utf-8"?>
<!-- Generator: Adobe Illustrator 24.2.0, SVG Export Plug-In . SVG Version: 6.00 Build 0)  -->
<svg version="1.1" id="Layer_1" xmlns="http://www.w3.org/2000/svg" xmlns:xlink="http://www.w3.org/1999/xlink" x="0px" y="0px"
	 viewBox="0 0 384 192" style="enable-background:new 0 0 384 192;" xml:space="preserve">
<style type="text/css">
	.st0{fill:#333333;}
	.st1{fill:#0065BD;}
	.st2{fill:#D32205;}
	.st3{fill:#248542;}
	.st4{fill:#EBEBEB;}
	.st5{fill:#FFFFFF;}
	.st6{fill:#FDD522;}
	.st7{enable-background:new    ;}
	.st8{fill:#033333;}
</style>
<rect class="st0" width="64" height="192"/>
<rect x="64" class="st1" width="64" height="192"/>
<rect x="320" class="st2" width="64" height="192"/>
<rect x="256" class="st3" width="64" height="192"/>
<rect x="128" class="st4" width="64" height="192"/>
<rect x="192" class="st5" width="64" height="192"/>
<rect x="32" y="64" class="st6" width="320" height="64"/>
<rect x="32" y="120" class="st0" width="320" height="8"/>
<g class="st7">
	<path class="st8" d="M47.6,104.2H62v3.3H43.5V76.9h4V104.2z"/>
	<path class="st8" d="M66,78.8c0-0.6,0.2-1.2,0.6-1.6c0.4-0.4,1-0.7,1.7-0.7c0.8,0,1.3,0.2,1.7,0.7c0.4,0.4,0.6,1,0.6,1.6
		s-0.2,1.2-0.6,1.6s-1,0.6-1.7,0.6c-0.8,0-1.3-0.2-1.7-0.6S66,79.4,66,78.8z M70.2,107.4h-3.9V84.8h3.9V107.4z"/>
	<path class="st8" d="M80.1,84.8l0.1,2.8c1.7-2.2,4-3.3,6.8-3.3c4.8,0,7.2,2.7,7.2,8.1v15h-3.9v-15c0-1.6-0.4-2.8-1.1-3.6
		s-1.9-1.2-3.4-1.2c-1.3,0-2.4,0.3-3.3,1c-0.9,0.7-1.7,1.6-2.2,2.6v16.2h-3.9V84.8H80.1z"/>
	<path class="st8" d="M106.4,96.9l-2.4,2.5v8h-3.9V75.3h3.9v19.5l2.1-2.5l7.1-7.5h4.7l-8.8,9.5l9.8,13.2h-4.5L106.4,96.9z"/>
	<path class="st8" d="M134.4,107.4V87.8h-3.6v-3h3.6v-2.3c0-2.4,0.6-4.3,1.9-5.6c1.3-1.3,3.1-2,5.5-2c0.9,0,1.8,0.1,2.7,0.4
		l-0.2,3.1c-0.7-0.1-1.4-0.2-2.1-0.2c-1.3,0-2.2,0.4-2.9,1.1c-0.7,0.7-1,1.8-1,3.2v2.4h4.8v3h-4.8v19.7H134.4z"/>
	<path class="st8" d="M146.4,95.9c0-2.2,0.4-4.2,1.3-6c0.9-1.8,2.1-3.1,3.6-4.1c1.6-1,3.3-1.4,5.3-1.4c3.1,0,5.6,1.1,7.5,3.2
		c1.9,2.1,2.9,5,2.9,8.5v0.3c0,2.2-0.4,4.2-1.3,5.9s-2.1,3.1-3.6,4.1c-1.6,1-3.4,1.5-5.4,1.5c-3.1,0-5.6-1.1-7.5-3.2
		c-1.9-2.1-2.9-5-2.9-8.5V95.9z M150.2,96.4c0,2.5,0.6,4.5,1.7,6.1c1.2,1.5,2.7,2.3,4.7,2.3c2,0,3.5-0.8,4.7-2.3
		c1.2-1.5,1.7-3.7,1.7-6.5c0-2.5-0.6-4.5-1.8-6c-1.2-1.5-2.7-2.3-4.7-2.3c-1.9,0-3.5,0.8-4.6,2.3C150.8,91.3,150.2,93.5,150.2,96.4z
		"/>
	<path class="st8" d="M180.9,104.7c1.4,0,2.6-0.4,3.6-1.3c1-0.8,1.6-1.9,1.7-3.1h3.7c-0.1,1.3-0.5,2.5-1.3,3.7
		c-0.8,1.2-1.9,2.1-3.3,2.8c-1.4,0.7-2.8,1-4.4,1c-3.1,0-5.5-1-7.4-3.1c-1.8-2.1-2.7-4.9-2.7-8.5v-0.6c0-2.2,0.4-4.2,1.2-5.9
		c0.8-1.7,2-3.1,3.5-4c1.5-1,3.3-1.4,5.4-1.4c2.5,0,4.7,0.8,6.3,2.3c1.7,1.5,2.6,3.5,2.7,5.9h-3.7c-0.1-1.5-0.7-2.7-1.7-3.6
		c-1-0.9-2.2-1.4-3.7-1.4c-2,0-3.5,0.7-4.6,2.1c-1.1,1.4-1.6,3.5-1.6,6.1v0.7c0,2.6,0.5,4.6,1.6,6
		C177.4,104,178.9,104.7,180.9,104.7z"/>
	<path class="st8" d="M208.3,105.2c-1.5,1.8-3.7,2.7-6.6,2.7c-2.4,0-4.3-0.7-5.5-2.1c-1.3-1.4-1.9-3.5-1.9-6.2V84.8h3.9v14.6
		c0,3.4,1.4,5.2,4.2,5.2c3,0,4.9-1.1,5.9-3.3V84.8h3.9v22.7h-3.7L208.3,105.2z"/>
	<path class="st8" d="M231.2,101.4c0-1-0.4-1.9-1.2-2.4c-0.8-0.6-2.2-1.1-4.1-1.5c-2-0.4-3.5-0.9-4.7-1.5s-2-1.3-2.6-2.1
		c-0.6-0.8-0.8-1.8-0.8-2.9c0-1.9,0.8-3.4,2.4-4.7c1.6-1.3,3.6-1.9,6-1.9c2.6,0,4.7,0.7,6.3,2c1.6,1.3,2.4,3,2.4,5.1h-3.9
		c0-1.1-0.5-2-1.4-2.7c-0.9-0.8-2-1.2-3.4-1.2c-1.4,0-2.5,0.3-3.3,0.9s-1.2,1.4-1.2,2.4c0,0.9,0.4,1.6,1.1,2.1
		c0.7,0.5,2.1,0.9,4,1.4c1.9,0.4,3.5,0.9,4.7,1.5s2.1,1.3,2.7,2.2s0.9,1.9,0.9,3.1c0,2-0.8,3.6-2.4,4.9c-1.6,1.2-3.7,1.8-6.3,1.8
		c-1.8,0-3.4-0.3-4.8-1c-1.4-0.6-2.5-1.5-3.3-2.7c-0.8-1.2-1.2-2.4-1.2-3.7h3.9c0.1,1.3,0.6,2.3,1.6,3.1c1,0.8,2.3,1.1,3.8,1.1
		c1.5,0,2.6-0.3,3.5-0.9C230.7,103.2,231.2,102.4,231.2,101.4z"/>
	<path class="st8" d="M263.9,101.4c0-1-0.4-1.9-1.2-2.4c-0.8-0.6-2.2-1.1-4.1-1.5c-2-0.4-3.5-0.9-4.7-1.5s-2-1.3-2.6-2.1
		c-0.6-0.8-0.8-1.8-0.8-2.9c0-1.9,0.8-3.4,2.4-4.7c1.6-1.3,3.6-1.9,6-1.9c2.6,0,4.7,0.7,6.3,2c1.6,1.3,2.4,3,2.4,5.1h-3.9
		c0-1.1-0.5-2-1.4-2.7c-0.9-0.8-2-1.2-3.4-1.2c-1.4,0-2.5,0.3-3.3,0.9s-1.2,1.4-1.2,2.4c0,0.9,0.4,1.6,1.1,2.1
		c0.7,0.5,2.1,0.9,4,1.4c1.9,0.4,3.5,0.9,4.7,1.5s2.1,1.3,2.7,2.2s0.9,1.9,0.9,3.1c0,2-0.8,3.6-2.4,4.9c-1.6,1.2-3.7,1.8-6.3,1.8
		c-1.8,0-3.4-0.3-4.8-1c-1.4-0.6-2.5-1.5-3.3-2.7c-0.8-1.2-1.2-2.4-1.2-3.7h3.9c0.1,1.3,0.6,2.3,1.6,3.1c1,0.8,2.3,1.1,3.8,1.1
		c1.5,0,2.6-0.3,3.5-0.9C263.5,103.2,263.9,102.4,263.9,101.4z"/>
	<path class="st8" d="M278.1,79.3v5.5h4.2v3h-4.2v14.1c0,0.9,0.2,1.6,0.6,2c0.4,0.5,1,0.7,1.9,0.7c0.4,0,1.1-0.1,1.8-0.3v3.1
		c-1,0.3-2,0.4-3,0.4c-1.7,0-3-0.5-3.9-1.6s-1.3-2.5-1.3-4.5V87.8h-4.1v-3h4.1v-5.5H278.1z"/>
	<path class="st8" d="M300.9,107.4c-0.2-0.4-0.4-1.2-0.5-2.4c-1.8,1.9-4,2.8-6.5,2.8c-2.2,0-4.1-0.6-5.5-1.9
		c-1.4-1.3-2.1-2.9-2.1-4.8c0-2.4,0.9-4.2,2.7-5.5c1.8-1.3,4.3-2,7.6-2h3.8v-1.8c0-1.4-0.4-2.4-1.2-3.2c-0.8-0.8-2-1.2-3.6-1.2
		c-1.4,0-2.5,0.3-3.5,1c-0.9,0.7-1.4,1.5-1.4,2.5h-3.9c0-1.1,0.4-2.2,1.2-3.3c0.8-1.1,1.9-1.9,3.3-2.5c1.4-0.6,2.9-0.9,4.5-0.9
		c2.6,0,4.7,0.7,6.1,2c1.5,1.3,2.2,3.1,2.3,5.4v10.4c0,2.1,0.3,3.7,0.8,5v0.3H300.9z M294.4,104.5c1.2,0,2.4-0.3,3.5-0.9
		c1.1-0.6,1.9-1.4,2.4-2.5v-4.7h-3c-4.8,0-7.1,1.4-7.1,4.2c0,1.2,0.4,2.2,1.2,2.8S293.2,104.5,294.4,104.5z"/>
	<path class="st8" d="M315.5,79.3v5.5h4.2v3h-4.2v14.1c0,0.9,0.2,1.6,0.6,2c0.4,0.5,1,0.7,1.9,0.7c0.4,0,1.1-0.1,1.8-0.3v3.1
		c-1,0.3-2,0.4-3,0.4c-1.7,0-3-0.5-3.9-1.6c-0.9-1-1.3-2.5-1.3-4.5V87.8h-4.1v-3h4.1v-5.5H315.5z"/>
	<path class="st8" d="M333.6,107.9c-3.1,0-5.6-1-7.5-3s-2.9-4.7-2.9-8.1V96c0-2.2,0.4-4.3,1.3-6c0.9-1.8,2.1-3.2,3.6-4.1
		c1.5-1,3.2-1.5,5-1.5c2.9,0,5.2,1,6.9,2.9s2.5,4.7,2.5,8.3v1.6h-15.4c0.1,2.2,0.7,4,2,5.4s2.8,2.1,4.8,2.1c1.4,0,2.5-0.3,3.5-0.8
		c0.9-0.6,1.8-1.3,2.5-2.2l2.4,1.8C340.3,106.4,337.4,107.9,333.6,107.9z M333.1,87.5c-1.6,0-2.9,0.6-3.9,1.7
		c-1.1,1.1-1.7,2.7-2,4.8h11.4v-0.3c-0.1-2-0.6-3.5-1.6-4.6C336,88.1,334.8,87.5,333.1,87.5z"/>
</g>
</svg>
