<svg xmlns="http://www.w3.org/2000/svg" viewBox="0 0 638 279">
  <path fill="#fafafa" d="M0 0h638v279H0z"/>
  <path fill="#333" d="M99.85 213.31h-2.68V203L94 204v-2.18l5.59-2h.29Zm4.63-8.92a1.36 1.36 0 0 1 .43-1 1.67 1.67 0 0 1 2.17 0 1.47 1.47 0 0 1 0 2.07 1.57 1.57 0 0 1-1.1.39 1.52 1.52 0 0 1-1.08-.39 1.34 1.34 0 0 1-.42-1.07Zm0 7.6a1.34 1.34 0 0 1 .43-1 1.67 1.67 0 0 1 2.17 0 1.34 1.34 0 0 1 .43 1 1.36 1.36 0 0 1-.42 1 1.57 1.57 0 0 1-1.1.39 1.52 1.52 0 0 1-1.08-.39 1.34 1.34 0 0 1-.43-.99Zm11.63 1.32h-2.68V203l-3.2 1v-2.18l5.59-2h.29Zm127.16-5.09h1.53v2.17h-1.53v2.92h-2.68v-2.92h-5.54l-.12-1.69 5.63-8.9h2.71Zm-5.67 0h3v-4.76l-.18.3Zm8.88-3.83a1.36 1.36 0 0 1 .43-1 1.67 1.67 0 0 1 2.17 0 1.47 1.47 0 0 1 0 2.07 1.57 1.57 0 0 1-1.1.39 1.52 1.52 0 0 1-1.08-.39 1.34 1.34 0 0 1-.42-1.07Zm0 7.6a1.34 1.34 0 0 1 .43-1 1.67 1.67 0 0 1 2.17 0 1.34 1.34 0 0 1 .43 1 1.36 1.36 0 0 1-.42 1 1.57 1.57 0 0 1-1.1.39 1.52 1.52 0 0 1-1.08-.39 1.34 1.34 0 0 1-.43-.99Zm7.85-6.62h1.43a2 2 0 0 0 1.51-.51 1.88 1.88 0 0 0 .49-1.36 1.64 1.64 0 0 0-.49-1.27 1.89 1.89 0 0 0-1.34-.45 2 2 0 0 0-1.29.42 1.37 1.37 0 0 0-.52 1.1h-2.68a3.3 3.3 0 0 1 .57-1.9 3.73 3.73 0 0 1 1.6-1.31 5.23 5.23 0 0 1 2.26-.48 5.07 5.07 0 0 1 3.36 1 3.49 3.49 0 0 1 1.21 2.82 2.89 2.89 0 0 1-.56 1.71 3.75 3.75 0 0 1-1.49 1.2 3.34 3.34 0 0 1 1.7 1.22 3.3 3.3 0 0 1 .56 1.93 3.56 3.56 0 0 1-1.31 2.89 5.28 5.28 0 0 1-3.47 1.08 5 5 0 0 1-3.31-1.06 3.47 3.47 0 0 1-1.29-2.82H254a1.56 1.56 0 0 0 .57 1.24 2.11 2.11 0 0 0 1.4.48 2.14 2.14 0 0 0 1.5-.5 1.76 1.76 0 0 0 .54-1.34c0-1.35-.74-2-2.22-2h-1.42Zm124.07 7.94h-2.68V203l-3.2 1v-2.18l5.59-2h.29Zm11.66-13.65v2.21h-.26a4.54 4.54 0 0 0-2.93.95 3.83 3.83 0 0 0-1.33 2.55 3.67 3.67 0 0 1 2.72-1.1 3.43 3.43 0 0 1 2.8 1.26 5.09 5.09 0 0 1 1 3.32 5 5 0 0 1-.57 2.39 4.15 4.15 0 0 1-1.61 1.66 4.67 4.67 0 0 1-2.36.59 4.36 4.36 0 0 1-3.45-1.48 5.74 5.74 0 0 1-1.31-4v-1a8.58 8.58 0 0 1 .83-3.88 6.08 6.08 0 0 1 2.38-2.61 7.1 7.1 0 0 1 3.61-.93Zm-2.62 6.77a2.16 2.16 0 0 0-1.17.34 1.94 1.94 0 0 0-.78.9v.81a3.57 3.57 0 0 0 .53 2.1 1.81 1.81 0 0 0 2.88.07 2.79 2.79 0 0 0 .53-1.76 2.76 2.76 0 0 0-.54-1.78 1.76 1.76 0 0 0-1.45-.68Zm6.49-2.04a1.36 1.36 0 0 1 .43-1 1.67 1.67 0 0 1 2.17 0 1.47 1.47 0 0 1 0 2.07 1.57 1.57 0 0 1-1.1.39 1.52 1.52 0 0 1-1.08-.39 1.34 1.34 0 0 1-.42-1.07Zm0 7.6a1.34 1.34 0 0 1 .43-1 1.67 1.67 0 0 1 2.17 0 1.34 1.34 0 0 1 .43 1 1.36 1.36 0 0 1-.42 1 1.57 1.57 0 0 1-1.1.39 1.52 1.52 0 0 1-1.08-.39 1.34 1.34 0 0 1-.43-.99Zm11.39-4.08a3.37 3.37 0 0 1-2.45 1 3.6 3.6 0 0 1-2.86-1.23 4.86 4.86 0 0 1-1.08-3.32 5.13 5.13 0 0 1 .58-2.43 4.29 4.29 0 0 1 1.62-1.73 4.5 4.5 0 0 1 2.34-.62 4.32 4.32 0 0 1 2.37.67 4.52 4.52 0 0 1 1.62 1.92 7 7 0 0 1 .58 2.87v1a7.83 7.83 0 0 1-1.68 5.31 6.36 6.36 0 0 1-4.76 2.06h-.66v-2.21h.6c2.33-.11 3.59-1.2 3.78-3.29Zm-1.79-1a1.84 1.84 0 0 0 1.12-.34 2.25 2.25 0 0 0 .71-.8v-1.11a3.64 3.64 0 0 0-.52-2.11 1.62 1.62 0 0 0-1.39-.75 1.57 1.57 0 0 0-1.33.73 3.13 3.13 0 0 0-.52 1.85 3 3 0 0 0 .51 1.82 1.64 1.64 0 0 0 1.42.69Zm119.61 6.4h-9.25v-1.84l4.37-4.66a10.58 10.58 0 0 0 1.33-1.71 2.73 2.73 0 0 0 .43-1.39 2 2 0 0 0-.46-1.42 1.63 1.63 0 0 0-1.29-.51 1.77 1.77 0 0 0-1.44.62 2.49 2.49 0 0 0-.52 1.65h-2.69a4.41 4.41 0 0 1 .59-2.26 4.13 4.13 0 0 1 1.66-1.6 5.14 5.14 0 0 1 2.44-.58 4.78 4.78 0 0 1 3.24 1 3.54 3.54 0 0 1 1.16 2.83 4.54 4.54 0 0 1-.52 2 11.53 11.53 0 0 1-1.78 2.42l-3.07 3.24h5.8Zm8.16 0h-2.68V203l-3.2 1v-2.18l5.59-2h.29Zm4.63-8.92a1.36 1.36 0 0 1 .43-1 1.67 1.67 0 0 1 2.17 0 1.47 1.47 0 0 1 0 2.07 1.57 1.57 0 0 1-1.1.39 1.52 1.52 0 0 1-1.08-.39 1.34 1.34 0 0 1-.42-1.07Zm0 7.6a1.34 1.34 0 0 1 .43-1 1.67 1.67 0 0 1 2.17 0 1.34 1.34 0 0 1 .43 1 1.36 1.36 0 0 1-.42 1 1.57 1.57 0 0 1-1.1.39 1.52 1.52 0 0 1-1.08-.39 1.34 1.34 0 0 1-.43-.99Zm11.39-4.08a3.37 3.37 0 0 1-2.45 1 3.6 3.6 0 0 1-2.86-1.23 4.86 4.86 0 0 1-1.08-3.32 5.13 5.13 0 0 1 .58-2.43 4.29 4.29 0 0 1 1.62-1.73 4.5 4.5 0 0 1 2.34-.62 4.32 4.32 0 0 1 2.37.67 4.52 4.52 0 0 1 1.62 1.92 7 7 0 0 1 .58 2.87v1a7.83 7.83 0 0 1-1.68 5.31 6.36 6.36 0 0 1-4.76 2.06h-.66v-2.21h.6c2.33-.11 3.59-1.2 3.78-3.29Zm-1.79-1a1.84 1.84 0 0 0 1.12-.34 2.25 2.25 0 0 0 .71-.8v-1.11a3.64 3.64 0 0 0-.52-2.11 1.62 1.62 0 0 0-1.39-.75 1.57 1.57 0 0 0-1.33.73 3.13 3.13 0 0 0-.52 1.85 3 3 0 0 0 .51 1.82 1.64 1.64 0 0 0 1.42.69Z"/>
  <path fill="#ebebeb" stroke="#727272" stroke-miterlimit="10" d="M46.5 60.5h120v120h-120zm142 30h120v90h-120zm142 22h120v68h-120zm142 17h120v51h-120z"/>
</svg>
