<?xml version="1.0" encoding="utf-8"?><svg viewBox="0 0 69.5 70" xmlns="http://www.w3.org/2000/svg" xmlns:xlink="http://www.w3.org/1999/xlink"><style>:root>svg{display:none}:root>svg:target{display:block}</style><svg id="arrow-up" data-name="Layer 1" viewBox="0 0 24 24" xmlns="http://www.w3.org/2000/svg"><defs><style>.acls-2{fill:#0e65bd}</style></defs><path id="aPath_12" data-name="Path 12" class="acls-2" d="M11 8v12h2V8h3l-4-4-4 4z"/></svg><svg data-name="Layer 1" viewBox="0 0 21 21" id="bang-21" xmlns="http://www.w3.org/2000/svg"><path d="M9.31 15.53L8.28 5V.12h4.3V5l-1 10.54zm-.86 5.35v-4h4v4z"/></svg><svg id="calendar" data-name="Layer 1" viewBox="0 0 28 28" xmlns="http://www.w3.org/2000/svg"><defs><style>.ccls-1{fill:#fff}</style></defs><g id="cGroup_557" data-name="Group 557"><path id="cPath_54" data-name="Path 54" class="ccls-1" d="M23 3V0h-2v3H7V0H5v3a4 4 0 00-4 4v17c0 2.21.78 4 3 4h19a4 4 0 004-4V7a3.72 3.72 0 00-4-4zM5.08 5H23a2.45 2.45 0 012 2H3a2.45 2.45 0 012.08-2zM22 26H6c-2.19 0-3-.92-3-3l.12-14h22L25 23a2.65 2.65 0 01-3 3z"/><path id="cRectangle_1124" data-name="Rectangle 1124" class="ccls-1" d="M6 12h4v4.07H6z"/><path id="cRectangle_1125" data-name="Rectangle 1125" class="ccls-1" d="M12 12.05h4v4.02h-4z"/><path id="cRectangle_1126" data-name="Rectangle 1126" class="ccls-1" d="M18 12.05h4v4.02h-4z"/><path id="cRectangle_1127" data-name="Rectangle 1127" class="ccls-1" d="M6 18h4v4H6z"/><path id="cRectangle_1128" data-name="Rectangle 1128" class="ccls-1" d="M12 18h4v4h-4z"/><path id="cRectangle_1129" data-name="Rectangle 1129" class="ccls-1" d="M18 18h4v4h-4z"/></g></svg><svg id="checkbox-40" data-name="Layer 1" viewBox="0 0 40 40" xmlns="http://www.w3.org/2000/svg"><defs><style>.dcls-1{fill:#333}</style></defs><path class="dcls-1" d="M5.33 21.5l10.01 10 19-19-4-4-15 15-6-6-4.01 4z"/></svg><svg id="chevron-down" data-name="Layer 2" viewBox="0 0 28 28" xmlns="http://www.w3.org/2000/svg"><defs><style>.ecls-1{fill:#333}</style></defs><path class="ecls-1" d="M28 8.99L14 23 0 9l3-3 11 11L25 6l3 2.99z"/></svg><svg id="chevron-left" data-name="Layer 2" viewBox="0 0 28 28" xmlns="http://www.w3.org/2000/svg"><defs><style>.fcls-1{fill:#333}</style></defs><path class="fcls-1" d="M19.01 28L5 14 19 0l3 3-11 11 11 11-2.99 3z"/></svg><svg id="chevron-right" data-name="Layer 2" viewBox="0 0 28 28" xmlns="http://www.w3.org/2000/svg"><defs><style>.gcls-1{fill:#333}</style></defs><path class="gcls-1" d="M8.99 0L23 14 9 28l-3-3 11-11L6 3l2.99-3z"/></svg><svg id="chevron-up" data-name="Layer 2" viewBox="0 0 28 28" xmlns="http://www.w3.org/2000/svg"><defs><style>.hcls-1{fill:#333}</style></defs><path class="hcls-1" d="M0 19.01L14 5l14 14-3 3-11-11L3 22l-3-2.99z"/></svg><svg id="close-21" data-name="Layer 1" viewBox="0 0 21 21" xmlns="http://www.w3.org/2000/svg"><defs><style>.icls-1{fill:#231f20}</style></defs><path class="icls-1" d="M2.5.5l-2 2 8 8-8 8 2 2 8-8 8 8 2-2-8-8 8-8-2-2-8 8-8-8z"/></svg><svg version="1.1" id="double-chevron-left" x="0" y="0" viewBox="0 0 28 28" xml:space="preserve" xmlns="http://www.w3.org/2000/svg"><style>.jst0{fill:#333}</style><path class="jst0" d="M14 28L0 14 14 0l3 3L6 14l11 11z"/><path class="jst0" d="M25 28L11 14 25 0l3 3-11 11 11 11z"/></svg><svg version="1.1" id="double-chevron-right" x="0" y="0" viewBox="0 0 28 28" xml:space="preserve" xmlns="http://www.w3.org/2000/svg"><style>.kst0{fill:#333}</style><path class="kst0" d="M14 0l14 14-14 14-3-3 11-11L11 3z"/><path class="kst0" d="M3 0l14 14L3 28l-3-3 11-11L0 3z"/></svg><svg viewBox="0 0 24 24" id="facebook" xmlns="http://www.w3.org/2000/svg"><path d="M24 4c0-2.1-1.9-4-4-4H4C1.9 0 0 1.9 0 4v16c0 2.1 1.9 4 4 4h8v-9.1H9.1v-4H12V9.4c0-2.7 2-5.1 4.5-5.1h3.2v4h-3.2c-.4 0-.8.4-.8 1.1V11h4v4h-4v9H20c2.1 0 4-1.9 4-4V4z"/></svg><svg viewBox="0 0 24 24" id="flickr" xmlns="http://www.w3.org/2000/svg"><path d="M0 12a5.565 5.565 0 005.565 5.564c3.075 0 5.569-2.49 5.569-5.564S8.641 6.436 5.565 6.436A5.566 5.566 0 000 12zm12.866 0a5.565 5.565 0 005.567 5.564C21.496 17.564 24 15.074 24 12s-2.492-5.564-5.564-5.564A5.567 5.567 0 0012.866 12z"/></svg><svg viewBox="0 0 24 24" id="instagram" xmlns="http://www.w3.org/2000/svg"><path d="M12 0C8.74 0 8.333.015 7.053.072 5.775.132 4.905.333 4.14.63c-.789.306-1.459.717-2.126 1.384S.935 3.35.63 4.14C.333 4.905.131 5.775.072 7.053.012 8.333 0 8.74 0 12s.015 3.667.072 4.947c.06 1.277.261 2.148.558 2.913a5.885 5.885 0 001.384 2.126A5.868 5.868 0 004.14 23.37c.766.296 1.636.499 2.913.558C8.333 23.988 8.74 24 12 24s3.667-.015 4.947-.072c1.277-.06 2.148-.262 2.913-.558a5.898 5.898 0 002.126-1.384 5.86 5.86 0 001.384-2.126c.296-.765.499-1.636.558-2.913.06-1.28.072-1.687.072-4.947s-.015-3.667-.072-4.947c-.06-1.277-.262-2.149-.558-2.913a5.89 5.89 0 00-1.384-2.126A5.847 5.847 0 0019.86.63c-.765-.297-1.636-.499-2.913-.558C15.667.012 15.26 0 12 0zm0 2.16c3.203 0 3.585.016 4.85.071 1.17.055 1.805.249 2.227.415.562.217.96.477 1.382.896.419.42.679.819.896 1.381.164.422.36 1.057.413 2.227.057 1.266.07 1.646.07 4.85s-.015 3.585-.074 4.85c-.061 1.17-.256 1.805-.421 2.227a3.81 3.81 0 01-.899 1.382 3.744 3.744 0 01-1.38.896c-.42.164-1.065.36-2.235.413-1.274.057-1.649.07-4.859.07-3.211 0-3.586-.015-4.859-.074-1.171-.061-1.816-.256-2.236-.421a3.716 3.716 0 01-1.379-.899 3.644 3.644 0 01-.9-1.38c-.165-.42-.359-1.065-.42-2.235-.045-1.26-.061-1.649-.061-4.844 0-3.196.016-3.586.061-4.861.061-1.17.255-1.814.42-2.234.21-.57.479-.96.9-1.381.419-.419.81-.689 1.379-.898.42-.166 1.051-.361 2.221-.421 1.275-.045 1.65-.06 4.859-.06l.045.03zm0 3.678a6.162 6.162 0 100 12.324 6.162 6.162 0 100-12.324zM12 16c-2.21 0-4-1.79-4-4s1.79-4 4-4 4 1.79 4 4-1.79 4-4 4zm7.846-10.405a1.441 1.441 0 01-2.88 0 1.44 1.44 0 012.88 0z"/></svg><svg id="menu-21" data-name="Layer 1" viewBox="0 0 21 21" xmlns="http://www.w3.org/2000/svg"><defs><style>.ocls-1{fill:#231f20}</style></defs><path class="ocls-1" d="M-.01 1h21v4h-21zM-.01 15h21v4h-21zM-.01 8h21v4h-21z"/></svg><svg id="radio-40" data-name="Layer 1" viewBox="0 0 40 40" xmlns="http://www.w3.org/2000/svg"><defs><style>.pcls-1{fill:#333}</style></defs><circle class="pcls-1" cx="20" cy="19.57" r="10"/></svg><svg data-name="Layer 1" viewBox="0 0 69.5 70" id="search" xmlns="http://www.w3.org/2000/svg"><path d="M69.5 63.5L52.29 46.29a29.11 29.11 0 10-6.59 6.41L63 70zM7 29a22 22 0 1122 22A22 22 0 017 29z"/></svg><svg data-name="Layer 1" viewBox="0 0 12.96 12.96" id="star" xmlns="http://www.w3.org/2000/svg"><path class="rcls-2" d="M10.51 12.74l-4.01-2.1-4 2.12.75-4.46L0 5.15l4.48-.67L6.47.42l2.01 4.05 4.48.64-3.23 3.17.78 4.46z"/></svg><svg viewBox="0 0 24 24" id="twitter" xmlns="http://www.w3.org/2000/svg"><path d="M23.954 4.569a10 10 0 01-2.825.775 4.958 4.958 0 002.163-2.723c-.951.555-2.005.959-3.127 1.184a4.92 4.92 0 00-8.384 4.482C7.691 8.094 4.066 6.13 1.64 3.161a4.822 4.822 0 00-.666 2.475c0 1.71.87 3.213 2.188 4.096a4.904 4.904 0 01-2.228-.616v.061a4.923 4.923 0 003.946 4.827 4.996 4.996 0 01-2.212.085 4.937 4.937 0 004.604 3.417 9.868 9.868 0 01-6.102 2.105c-.39 0-.779-.023-1.17-.067a13.995 13.995 0 007.557 2.209c9.054 0 13.999-7.496 13.999-13.986 0-.209 0-.42-.015-.63a9.936 9.936 0 002.46-2.548l-.047-.02z"/></svg><svg viewBox="0 0 24 24" id="youtube" xmlns="http://www.w3.org/2000/svg"><path d="M23.495 6.205a3.007 3.007 0 00-2.088-2.088c-1.87-.501-9.396-.501-9.396-.501s-7.507-.01-9.396.501A3.007 3.007 0 00.527 6.205a31.247 31.247 0 00-.522 5.805 31.247 31.247 0 00.522 5.783 3.007 3.007 0 002.088 2.088c1.868.502 9.396.502 9.396.502s7.506 0 9.396-.502a3.007 3.007 0 002.088-2.088 31.247 31.247 0 00.5-5.783 31.247 31.247 0 00-.5-5.805zM9.609 15.601V8.408l6.264 3.602z"/></svg></svg>