<svg xmlns="http://www.w3.org/2000/svg" fill="none" viewBox="0 0 830 524">
  <path fill="#fff" d="M0 0h830v524H0z"/>
  <path stroke="#d32205" stroke-width="2" d="M53 158h30m-30 47h30m-30 47h30M53 393h30m-30-47h30m-30-47h30M54 159v235"/>
  <path fill="#f8f8f8" d="M97 56h680v412H97z"/>
  <path fill="#0065bd" d="M97 56h680v4H97z"/>
  <path fill="#000" d="M132.4 100.7V122h-4.3v-21.3h4.3zm6.6 0v3.4h-17.4v-3.4H139zm8.2 21.6a8.1 8.1 0 0 1-5.8-2.2 7.4 7.4 0 0 1-1.6-2.5c-.4-1-.5-2-.5-3v-.6a8.8 8.8 0 0 1 2-5.9c.6-.7 1.4-1.3 2.3-1.6 1-.4 2-.6 3-.6 1.2 0 2.2.1 3 .5s1.7 1 2.3 1.6c.6.7 1 1.5 1.3 2.5.3.9.5 2 .5 3.1v1.8H141v-2.8h8.4v-.4c0-.5 0-1-.3-1.5a2.5 2.5 0 0 0-1-1.1 3 3 0 0 0-1.6-.4c-.5 0-1 0-1.4.3l-1 1-.5 1.6-.2 2v.5c0 .7 0 1.2.3 1.8.1.5.4 1 .7 1.4a3.5 3.5 0 0 0 1.3.9c.5.2 1 .3 1.6.3a4.6 4.6 0 0 0 3.9-1.8l2 2.2c-.3.5-.8 1-1.3 1.4a8.5 8.5 0 0 1-4.8 1.5zm13-12.8V122H156v-15.8h4l.2 3.3zm-.6 4h-1.2a9.6 9.6 0 0 1 1.8-5.6 5.5 5.5 0 0 1 2-1.5c.7-.4 1.5-.5 2.5-.5.7 0 1.4 0 2 .3s1.1.5 1.6 1c.4.5.8 1 1 1.9.3.7.4 1.7.4 2.8V122h-4.3v-10.1c0-.7 0-1.3-.3-1.7s-.4-.6-.8-.8l-1.4-.2a3 3 0 0 0-1.5.3 3 3 0 0 0-1 1c-.3.3-.5.8-.6 1.3l-.2 1.7zm21.8 5v-7.1c0-.5 0-1-.2-1.3-.2-.4-.4-.7-.8-.9-.3-.2-.8-.3-1.3-.3s-.9 0-1.2.2c-.4.2-.6.4-.8.7a2 2 0 0 0-.3 1h-4.2c0-.6.1-1.2.4-1.9s.8-1 1.4-1.5c.6-.5 1.3-.9 2.1-1.1a9.2 9.2 0 0 1 6.1.2 5 5 0 0 1 2.3 1.8c.5.8.8 1.9.8 3v6.9l.1 2.1.5 1.5v.2h-4.2a6 6 0 0 1-.5-1.6l-.2-2zm.6-6.2v2.4h-2.3l-1.5.2a2 2 0 0 0-1 .6 2 2 0 0 0-.6.8l-.2 1c0 .4.1.6.3 1l.7.6c.3.2.7.2 1.1.2.6 0 1.2 0 1.7-.3s.8-.6 1-1c.3-.3.4-.7.5-1l1 1.8a7.3 7.3 0 0 1-.6 1.2 5.2 5.2 0 0 1-2.5 2.1 4 4 0 0 1-2 .4c-1 0-2-.2-2.8-.6a5 5 0 0 1-1.9-1.7 4 4 0 0 1-.7-2.5c0-.8.2-1.5.5-2.2a4.3 4.3 0 0 1 1.4-1.6c.6-.4 1.3-.8 2.3-1 .9-.2 2-.4 3.1-.4h2.5zm11-2.8V122h-4v-15.8h4l.2 3.3zm-.5 4h-1.2c0-1.2.2-2.2.5-3.1.3-1 .7-1.8 1.2-2.5a5.5 5.5 0 0 1 2-1.5c.8-.4 1.6-.5 2.5-.5.8 0 1.5 0 2 .3s1.2.5 1.7 1c.4.5.7 1 1 1.9.2.7.3 1.7.3 2.8V122h-4.2v-10.1c0-.7-.1-1.3-.3-1.7s-.5-.6-.9-.8l-1.3-.2a3 3 0 0 0-1.5.3 3 3 0 0 0-1 1c-.3.3-.5.8-.6 1.3l-.2 1.7zm21-7.4v3h-9.2v-3h9.2zm-7-3.9h4.3v15c0 .5 0 .8.2 1 .1.3.3.5.5.6l1 .1h1.2v3l-1.2.3a8.6 8.6 0 0 1-1.4 0 6 6 0 0 1-2.4-.4 3.4 3.4 0 0 1-1.6-1.5c-.3-.6-.5-1.5-.5-2.7v-15.4zm26.3 16.3v-19h4.2V122h-3.8l-.4-3.5zm-10-4.2v-.3c0-1.3 0-2.4.3-3.3a9 9 0 0 1 1.2-2.6 5.5 5.5 0 0 1 2-1.7 5.8 5.8 0 0 1 5 0c.8.4 1.4 1 1.8 1.7.5.7 1 1.6 1.2 2.5.4 1 .6 2 .7 3.2v.7c-.1 1.1-.3 2.1-.7 3s-.7 1.9-1.2 2.6c-.4.7-1 1.2-1.7 1.6s-1.6.6-2.5.6c-1 0-1.9-.2-2.6-.6-.8-.4-1.4-1-2-1.7a9.6 9.6 0 0 1-1.6-5.7zm4.2-.3v.3l.1 1.8.5 1.5c.3.4.6.8 1 1 .3.3.8.4 1.4.4a3 3 0 0 0 1.8-.5 3 3 0 0 0 1-1.4c.3-.6.4-1.2.5-2v-1.9a7 7 0 0 0-.3-1.6c-.1-.5-.3-1-.6-1.3a2.7 2.7 0 0 0-1-.8 3 3 0 0 0-1.4-.3c-.5 0-1 0-1.4.3l-1 1-.5 1.6-.1 1.9zm20.6 8.3c-1.2 0-2.3-.2-3.3-.6a7.3 7.3 0 0 1-4.6-7v-.7c0-1.2.2-2.3.5-3.3s.8-1.8 1.5-2.6a6.4 6.4 0 0 1 2.3-1.6c1-.4 2-.6 3.1-.6s2.1.1 3 .5 1.6 1 2.2 1.6c.6.7 1 1.5 1.3 2.5.3.9.5 2 .5 3.1v1.8h-12.6v-2.8h8.4v-.4c0-.5 0-1-.3-1.5a2.5 2.5 0 0 0-1-1.1c-.3-.3-.9-.4-1.5-.4s-1 0-1.5.3-.7.6-1 1l-.5 1.6a9.9 9.9 0 0 0-.2 2v.5c0 .7.1 1.2.3 1.8.2.5.4 1 .8 1.4a3.6 3.6 0 0 0 1.2.9 5.1 5.1 0 0 0 3.8-.1c.6-.3 1.2-.8 1.7-1.4l2 2.2c-.3.5-.7 1-1.3 1.4a7.3 7.3 0 0 1-4.8 1.5zm16.7-16.2v3H255v-3h9.3zm-7-3.9h4.2v15l.2 1c.1.3.3.5.6.6l.9.1h1.2v3a7.9 7.9 0 0 1-5 0 3.4 3.4 0 0 1-1.5-1.6 5 5 0 0 1-.6-2.7v-15.4zm18 16.2v-7c0-.5-.2-1-.3-1.3a1.9 1.9 0 0 0-.8-.9c-.3-.2-.8-.3-1.3-.3s-1 0-1.3.2c-.3.2-.6.4-.7.7a2 2 0 0 0-.3 1h-4.2c0-.6.1-1.2.4-1.9s.8-1 1.4-1.5c.6-.5 1.3-.9 2.1-1.1a9.2 9.2 0 0 1 6 .2 5 5 0 0 1 2.3 1.8c.6.8.9 1.9.9 3v6.9l.1 2.1.5 1.5v.2h-4.3l-.4-1.6a13.4 13.4 0 0 1-.2-2zm.5-6v2.3h-2.4l-1.4.2a2.4 2.4 0 0 0-1.6 1.4l-.2 1c0 .4.1.6.3 1a1.8 1.8 0 0 0 .7.6c.3.2.7.2 1 .2.7 0 1.3 0 1.7-.3s.9-.6 1.1-1c.3-.3.4-.7.4-1l1.2 1.8a7.2 7.2 0 0 1-1.7 2.4c-.4.4-1 .7-1.5 1a6 6 0 0 1-2 .3c-1 0-2-.2-2.8-.6a5 5 0 0 1-2-1.7c-.4-.7-.6-1.5-.6-2.5 0-.8.1-1.5.5-2.2a4.3 4.3 0 0 1 1.3-1.6c.7-.4 1.4-.8 2.3-1 1-.2 2-.4 3.2-.4h2.5zm11.4-6.3V122h-4.3v-15.8h4.3zm-4.5-4c0-.7.2-1.2.6-1.6s1-.6 1.7-.6c.8 0 1.3.2 1.8.6a2 2 0 0 1 .6 1.5 2 2 0 0 1-.6 1.5c-.5.4-1 .6-1.8.6-.7 0-1.3-.2-1.7-.6s-.6-.9-.6-1.5zm12.4-2.6V122H291V99.5h4.2zm12 18.1c0-.3 0-.6-.2-.8s-.5-.5-1-.7l-2-.6a15.8 15.8 0 0 1-2.3-.6l-1.7-1c-.5-.4-1-.8-1.2-1.3a4 4 0 0 1-.4-1.9c0-.6.1-1.2.4-1.8.3-.6.7-1.1 1.2-1.6a7.7 7.7 0 0 1 4.7-1.4c1.4 0 2.5.2 3.5.6 1 .5 1.8 1 2.3 1.8.6.8.8 1.7.8 2.6H307c0-.4 0-.7-.3-1-.1-.4-.4-.6-.7-.8-.4-.2-.9-.3-1.4-.3-.5 0-.9 0-1.2.2-.4.2-.6.4-.8.7-.2.2-.3.5-.3.8a1.5 1.5 0 0 0 .1.7c.2.2.3.4.6.5a4.3 4.3 0 0 0 .9.5 11.4 11.4 0 0 0 1.4.3c1.1.2 2.1.5 3 1 1 .3 1.6.8 2.2 1.5.5.6.8 1.4.8 2.5a4.4 4.4 0 0 1-1.8 3.5 9 9 0 0 1-2.2 1 9.8 9.8 0 0 1-6.4-.5 6 6 0 0 1-2.4-2c-.5-.8-.7-1.7-.7-2.5h4c0 .6.1 1 .4 1.4.3.3.6.6 1 .7l1.5.3c.5 0 1-.1 1.4-.3.3-.1.6-.3.8-.6.2-.2.3-.5.3-.9z"/>
  <path fill="#333" d="M125 148.5V162h-2.8v-13.5h2.8zm5.4 5.8v2.1h-6.2v-2.1h6.2zm.6-5.8v2.2h-6.8v-2.2h6.8zm7.2 11.1V152h2.7v10h-2.5l-.2-2.4zm.3-2h.8a7.2 7.2 0 0 1-.2 1.8l-.7 1.5c-.3.5-.7.7-1.2 1-.5.2-1 .3-1.7.3a4.3 4.3 0 0 1-1.3-.2c-.4-.2-.8-.4-1-.7-.4-.3-.6-.7-.8-1.1l-.2-1.8V152h2.7v7.2l.4.5.4.3h.6c.6 0 1 0 1.3-.3s.6-.5.7-.9l.2-1.3zm7.2-9.9V162h-2.6v-14.3h2.6zm5 0V162h-2.6v-14.3h2.7zm9.6 6.4v7.9h-2.7v-10h2.6l.1 2.1zm-.4 2.5h-.7c0-.7.1-1.4.3-2 .2-.6.5-1 .8-1.5.3-.4.8-.8 1.2-1 .5-.2 1-.3 1.6-.3.5 0 1 0 1.3.2l1 .6c.3.3.5.7.7 1.2l.2 1.8v6.4h-2.7v-6.4c0-.5 0-.8-.2-1a1 1 0 0 0-.5-.6l-.9-.1a2 2 0 0 0-1 .2 1.9 1.9 0 0 0-.6.6c-.1.2-.3.5-.3.9a4.3 4.3 0 0 0-.2 1zm13.9 3.1v-4.4c0-.4 0-.6-.2-.9 0-.2-.3-.4-.5-.5l-.8-.2c-.3 0-.6 0-.8.2a1.1 1.1 0 0 0-.5.4l-.2.6h-2.6a2.6 2.6 0 0 1 .3-1.2c.2-.4.4-.7.8-1l1.4-.7a5.8 5.8 0 0 1 1.7-.2c.8 0 1.5.1 2.1.4s1 .6 1.4 1.1c.4.6.6 1.2.6 2v5.6l.4 1v.1h-2.7c-.2-.3-.3-.6-.3-1l-.1-1.3zm.3-3.8v1.5h-1.5l-.9.1-.6.4-.4.5a1.7 1.7 0 0 0 0 .6v.6a1.1 1.1 0 0 0 .5.4l.7.2c.4 0 .8 0 1-.3a2 2 0 0 0 .7-.5l.3-.7.7 1.1a4.6 4.6 0 0 1-.4.8l-.6.8a3.3 3.3 0 0 1-1 .6l-1.3.2c-.6 0-1.2-.1-1.7-.4-.5-.3-1-.6-1.2-1a3 3 0 0 1-.2-3 2.7 2.7 0 0 1 .9-1 4 4 0 0 1 1.5-.7l2-.2h1.5zm7-1.9v8h-2.6v-10h2.5l.2 2zm-.3 2.6h-.7c0-.7 0-1.3.2-1.9.2-.6.5-1.1.8-1.5a3.5 3.5 0 0 1 1.2-1 3 3 0 0 1 1.7-.4c.5 0 .9 0 1.2.2a2.4 2.4 0 0 1 1 .6c.3.3.5.6.6 1.1.2.4.2 1 .2 1.6v6.7h-2.6v-6.4c0-.5 0-.8-.2-1l-.5-.6a2 2 0 0 0-.8-.1c-.4 0-.7 0-1 .2l-.6.6a2.6 2.6 0 0 0-.4.9 4.6 4.6 0 0 0 0 1zm6-.3-1 .1.3-1.8c.1-.5.4-1 .7-1.5a4 4 0 0 1 1.2-1c.5-.2 1-.3 1.7-.3.5 0 1 0 1.3.2a2.4 2.4 0 0 1 1 .6c.3.3.5.7.7 1.2s.2 1 .2 1.8v6.4h-2.7v-6.4c0-.5 0-.8-.2-1a1 1 0 0 0-.5-.6 2 2 0 0 0-.8-.1c-.3 0-.6 0-.8.2a1.7 1.7 0 0 0-.6.5l-.4.8-.1 1zm12.8 5.9c-.8 0-1.5-.1-2.1-.4l-1.6-1a4.7 4.7 0 0 1-1-1.6c-.2-.6-.3-1.2-.3-1.9v-.3c0-.8.1-1.5.3-2.1s.5-1.2 1-1.7a4 4 0 0 1 1.4-1c.6-.3 1.3-.4 2-.4s1.3 0 1.9.3a4 4 0 0 1 2.2 2.6c.2.6.3 1.3.3 2v1.1h-8V156h5.4v-.2c0-.4 0-.7-.2-1-.1-.3-.3-.5-.6-.7s-.6-.2-1-.2-.7 0-1 .2a1.8 1.8 0 0 0-.6.6l-.3 1a6.2 6.2 0 0 0-.1 1.3v.3a3.6 3.6 0 0 0 .1 1.1l.5 1 .8.5 1 .2c.5 0 1-.1 1.4-.3a3 3 0 0 0 1-.8l1.4 1.4a4.6 4.6 0 0 1-2.2 1.6l-1.7.2z"/>
  <path fill="#fff" stroke="#333" stroke-width="2" d="M122 181h630v46H122z"/>
  <path fill="#333" d="M131.3 255.8v2.2H124v-2.2h7.2zm-6.3-11.3V258h-2.8v-13.5h2.8zm5.3 5.5v2.1h-6.2V250h6.2zm1-5.5v2.2H124v-2.2h7.2zm4.1 5.5v8h-2.7v-10h2.5l.2 2zm-.4 2.6h-.7c0-.7 0-1.3.2-1.9.2-.6.5-1.1.8-1.5a3.5 3.5 0 0 1 1.2-1 3 3 0 0 1 1.7-.4c.5 0 .9 0 1.2.2a2.4 2.4 0 0 1 1 .6c.3.3.5.6.6 1.1.2.4.3 1 .3 1.6v6.7h-2.7v-6.4c0-.5 0-.8-.2-1l-.5-.6a2 2 0 0 0-.8-.1c-.4 0-.7 0-1 .2l-.6.6a2.6 2.6 0 0 0-.4.9 4.6 4.6 0 0 0 0 1zm6-.3-1 .1.3-1.8.7-1.5c.3-.4.8-.7 1.2-1 .5-.2 1-.3 1.7-.3.5 0 1 0 1.3.2a2.4 2.4 0 0 1 1 .6c.3.3.5.7.7 1.2l.2 1.8v6.4h-2.7v-6.4c0-.5 0-.8-.2-1a1 1 0 0 0-.5-.6 2 2 0 0 0-.8-.1c-.3 0-.6 0-.8.2a1.7 1.7 0 0 0-.6.5l-.4.8-.1 1zm13.6 3.4v-4.4c0-.4 0-.6-.2-.9 0-.2-.2-.4-.4-.5l-.9-.2c-.3 0-.5 0-.8.2a1.1 1.1 0 0 0-.5.4l-.1.6H149a2.6 2.6 0 0 1 .3-1.2l.8-1 1.4-.7a5.8 5.8 0 0 1 1.8-.2 4.5 4.5 0 0 1 3.5 1.5c.3.6.5 1.2.5 2v5.6l.4 1v.1H155l-.3-1-.1-1.3zm.4-3.8v1.5h-1.5l-1 .1-.6.4-.4.5a1.7 1.7 0 0 0 0 .6l.1.6a1.1 1.1 0 0 0 .5.4l.6.2c.4 0 .8 0 1-.2a2 2 0 0 0 .8-.6l.2-.7.7 1.1a4.6 4.6 0 0 1-.4.8l-.6.8a3.3 3.3 0 0 1-1 .6l-1.2.2c-.7 0-1.3-.1-1.8-.4a4 4 0 0 1-1.2-1 3 3 0 0 1-.4-1.6c0-.5 0-1 .3-1.4a2.7 2.7 0 0 1 .8-1 4 4 0 0 1 1.5-.7l2-.2h1.6zm7.2-4V258h-2.7v-10h2.7zm-2.9-2.6a1.3 1.3 0 0 1 .4-1 2 2 0 0 1 1.1-.3c.5 0 .8.1 1.1.4.3.2.4.6.4 1a1.3 1.3 0 0 1-.4 1c-.3.2-.6.3-1 .3-.5 0-.9-.1-1.2-.4s-.4-.6-.4-1zm7.9-1.6V258h-2.7v-14.3h2.7z"/>
  <path fill="#fff" stroke="#333" stroke-width="2" d="M122 277h630v46H122z"/>
  <path fill="#333" d="M127.5 349.2H124V347h3.5c.5 0 1 0 1.3-.2l.7-.8c.2-.3.2-.7.2-1 0-.5 0-.8-.2-1.2a1.9 1.9 0 0 0-.7-.8c-.4-.2-.8-.3-1.3-.3H125V354h-2.8v-13.5h5.3a5 5 0 0 1 4.4 2.1c.4.6.6 1.5.6 2.3 0 .9-.2 1.7-.6 2.3s-1 1.1-1.7 1.5-1.7.5-2.7.5zm9.4-9.4V354h-2.7v-14.3h2.7zm-.4 8.8h-.7c0-.7 0-1.3.3-1.9.1-.6.4-1.1.7-1.5a3.4 3.4 0 0 1 2.8-1.4c.5 0 1 0 1.3.2.4.1.8.3 1 .7.4.3.6.7.8 1.2s.2 1 .2 1.8v6.3h-2.7v-6.4c0-.4 0-.8-.2-1l-.5-.6a2 2 0 0 0-.9-.1c-.4 0-.7 0-1 .2-.2.1-.5.3-.6.6a2.6 2.6 0 0 0-.4.9 5 5 0 0 0 0 1zm8 .5v-.2c0-.7.1-1.4.3-2a4.7 4.7 0 0 1 1-1.7 3 3 0 0 1 1.4-1c.6-.3 1.3-.4 2-.4s1.5.1 2 .4c.7.2 1.2.6 1.6 1 .4.5.7 1 .9 1.7s.3 1.3.3 2v.2a6.3 6.3 0 0 1-.3 2c-.2.6-.5 1.2-1 1.6-.3.5-.8.9-1.4 1.1s-1.3.4-2 .4-1.5-.1-2-.4a4.2 4.2 0 0 1-2.5-2.7 6.3 6.3 0 0 1-.3-2zm2.7-.2v.2a6 6 0 0 0 0 1.2 3.2 3.2 0 0 0 .4 1l.7.6c.3.2.6.2 1 .2.3 0 .7 0 1-.2a1.8 1.8 0 0 0 .6-.7 3.2 3.2 0 0 0 .3-1l.1-1.1v-1.4a3 3 0 0 0-.4-1l-.7-.6c-.3-.2-.6-.2-1-.2l-1 .2-.6.7a3.2 3.2 0 0 0-.3 1 5.7 5.7 0 0 0-.1 1zm11-2.8v7.9h-2.6v-10h2.5l.2 2.1zm-.3 2.5h-.7c0-.7 0-1.4.3-2 .1-.6.4-1 .8-1.5a3 3 0 0 1 1.2-1c.5-.2 1-.3 1.6-.3.5 0 1 0 1.3.2l1 .6c.3.3.5.7.6 1.2l.3 1.8v6.4h-2.7v-6.4c0-.5 0-.8-.2-1a1 1 0 0 0-.5-.6l-1-.1a2 2 0 0 0-.9.2 1.9 1.9 0 0 0-.6.6c-.2.2-.3.5-.4.9a4.3 4.3 0 0 0-.1 1zm13 5.6c-.7 0-1.4-.1-2-.4-.7-.2-1.2-.6-1.6-1a4.7 4.7 0 0 1-1-1.6 4 4 0 0 1-.4-1.9v-.3c0-.8.1-1.5.4-2.1s.5-1.2.9-1.7a4 4 0 0 1 1.5-1 4 4 0 0 1 2-.4c.6 0 1.3 0 1.8.3l1.4 1c.4.5.7 1 .9 1.6.2.6.3 1.3.3 2v1.1h-8V348h5.3v-.2c0-.3 0-.7-.2-1-.1-.3-.3-.5-.6-.7s-.6-.2-1-.2c-.3 0-.6 0-.9.2a1.8 1.8 0 0 0-.6.6l-.4 1a6.2 6.2 0 0 0 0 1.3v.3a3.6 3.6 0 0 0 0 1.1l.6 1 .7.5 1.1.2c.5 0 1-.1 1.3-.3a3 3 0 0 0 1.1-.8l1.3 1.4a4.6 4.6 0 0 1-2.2 1.6l-1.7.2zm13-8.1v7.9h-2.7v-10h2.6l.1 2.1zm-.4 2.5h-.7c0-.7.1-1.4.3-2 .2-.6.5-1 .8-1.5.3-.4.8-.8 1.2-1 .5-.2 1-.3 1.6-.3a3.9 3.9 0 0 1 1.3.2c.4.1.8.3 1 .6.3.3.5.7.7 1.2l.2 1.8v6.4h-2.7v-6.4c0-.5 0-.8-.2-1a1 1 0 0 0-.5-.6l-.9-.1a2 2 0 0 0-1 .2 1.9 1.9 0 0 0-.6.6c-.1.2-.3.5-.3.9l-.2 1zm14.4 3V344h2.7v10H198l-.1-2.4zm.3-2h.8l-.3 1.8c-.1.6-.3 1-.7 1.5s-.7.7-1.1 1c-.5.2-1 .3-1.7.3-.5 0-1 0-1.3-.2a2.8 2.8 0 0 1-1-.7c-.4-.3-.6-.7-.8-1.1l-.2-1.8V344h2.7v7.2l.4.5.4.3a2 2 0 0 0 .6 0c.6 0 1 0 1.3-.3.3-.2.6-.5.7-.9l.2-1.3zm7-3.6v8h-2.6v-10h2.5l.2 2zm-.3 2.6h-.7c0-.7 0-1.3.2-1.9.2-.6.4-1.1.8-1.5a3.5 3.5 0 0 1 1.2-1 3 3 0 0 1 1.7-.4c.4 0 .8 0 1.2.2a2.4 2.4 0 0 1 1 .6c.2.3.5.6.6 1.1.2.4.2 1 .2 1.6v6.7h-2.6v-6.4l-.2-1a.9.9 0 0 0-.6-.6 2 2 0 0 0-.8-.1c-.3 0-.6 0-.9.2l-.6.6a2.6 2.6 0 0 0-.4.9 4.6 4.6 0 0 0-.1 1zm6-.3-1 .1.3-1.8c.1-.5.4-1 .7-1.5a4 4 0 0 1 1.2-1c.5-.2 1-.3 1.7-.3.5 0 .9 0 1.3.2a2.4 2.4 0 0 1 1 .6c.3.3.5.7.7 1.2s.2 1 .2 1.8v6.4h-2.7v-6.4c0-.5 0-.8-.2-1a1 1 0 0 0-.5-.6 2 2 0 0 0-.8-.1c-.3 0-.6 0-.8.2a1.7 1.7 0 0 0-.6.5l-.4.8-.1 1zm8.2-8.6h2.6v12l-.2 2.3H219v-14.3zm9 9.2v.2c0 .7 0 1.4-.3 2-.1.7-.3 1.2-.7 1.7a3.5 3.5 0 0 1-1.2 1 3 3 0 0 1-1.7.4c-.6 0-1.2-.1-1.6-.4a3.2 3.2 0 0 1-1.1-1l-.8-1.6-.4-2v-.4l.4-2c.1-.6.5-1.2.8-1.6s.7-.8 1.1-1 1-.4 1.6-.4c.6 0 1.2.1 1.7.4a3.3 3.3 0 0 1 1.2 1c.4.5.6 1 .7 1.6.2.6.3 1.3.3 2zm-2.7.2v-1.4a3 3 0 0 0-.4-1l-.6-.6-.9-.2c-.4 0-.7 0-1 .2l-.6.5a2.4 2.4 0 0 0-.3.8l-.2 1v1.2c0 .5.1 1 .3 1.3.1.4.3.7.6.9.3.2.7.3 1.2.3.4 0 .7 0 1-.2l.5-.7c.2-.2.3-.6.3-1l.1-1.1zm9 5c-.8 0-1.5 0-2.1-.3a4.6 4.6 0 0 1-3-4.5v-.3c0-.8.2-1.5.4-2.1s.5-1.2 1-1.7a4 4 0 0 1 1.4-1c.6-.3 1.2-.4 2-.4a4 4 0 0 1 1.9.3 3.7 3.7 0 0 1 1.3 1c.4.5.7 1 .9 1.6.2.6.3 1.3.3 2v1.1h-8V348h5.4v-.2l-.2-1-.6-.7c-.2-.2-.6-.2-1-.2s-.7 0-1 .2l-.6.6c-.2.2-.3.7-.3 1a6.3 6.3 0 0 0-.1 1.3v.3a3.5 3.5 0 0 0 .1 1.1l.5 1 .8.5 1 .2c.5 0 1 0 1.4-.3a3 3 0 0 0 1-.8l1.4 1.4a4.6 4.6 0 0 1-2.2 1.6l-1.7.2zm8.3-8v7.9H240v-10h2.5l.2 2.2zm3-2.2v2.5h-.5l-.5-.1a3 3 0 0 0-1 .1l-.7.5a1.8 1.8 0 0 0-.4.6l-.1 1-.6-.2c0-.7 0-1.3.2-1.8.2-.6.3-1 .6-1.4a2 2 0 0 1 1-1 2.4 2.4 0 0 1 1.2-.3 3 3 0 0 1 .4 0l.4.1z"/>
  <g fill="#fff">
    <path stroke="#333" stroke-width="2" d="M122 373h348v46H122z"/>
    <circle cx="35.5" cy="35.5" r="14.5"/>
  </g>
  <g clip-path="url(#a)">
    <path fill="#d32205" d="M36 16a20 20 0 1 0 0 40 20 20 0 0 0 0-40zm10 27.2L43.2 46 36 38.8 28.8 46 26 43.2l7.2-7.2-7.2-7.2 2.8-2.8 7.2 7.2 7.2-7.2 2.8 2.8-7.2 7.2 7.2 7.2z"/>
  </g>
  <defs>
    <clipPath id="a">
      <path fill="#fff" d="M0 0h48v48H0z" transform="translate(12 12)"/>
    </clipPath>
  </defs>
</svg>
