<svg xmlns="http://www.w3.org/2000/svg" fill="none" viewBox="0 0 830 992">
  <style>
    .B{fill:#fff}.C{fill:#333}.D{stroke-width:2}.E{stroke:#333}.F{fill:#0065bd}
  </style>
  <path d="M0 0h830v992H0z" class="B"/>
  <path fill="#f8f8f8" d="M96.5 56h680v880h-680z"/>
  <path d="M96.5 56h680v4h-680z" class="F"/>
  <path fill="#000" d="M132 100.7V122h-4.4v-21.3h4.3zm6.5 0v3.4h-17.4v-3.4h17.4zm8.2 21.6a8.1 8.1 0 0 1-5.8-2.2 7.4 7.4 0 0 1-1.6-2.5c-.4-1-.5-2-.5-3v-.6a8.8 8.8 0 0 1 2-5.9c.6-.7 1.4-1.3 2.3-1.6 1-.4 2-.6 3-.6 1.2 0 2.2.1 3 .5s1.7 1 2.3 1.6c.6.7 1 1.5 1.3 2.5.3.9.5 2 .5 3.1v1.8h-12.6v-2.8h8.4v-.4c0-.5 0-1-.3-1.5a2.5 2.5 0 0 0-1-1.1 3 3 0 0 0-1.6-.4c-.5 0-1 0-1.4.3l-1 1-.5 1.6-.2 2v.5c0 .7 0 1.2.3 1.8.1.5.4 1 .7 1.4a3.5 3.5 0 0 0 1.3.9c.5.2 1 .3 1.6.3a4.6 4.6 0 0 0 3.9-1.8l2 2.2c-.3.5-.8 1-1.3 1.4a8.5 8.5 0 0 1-4.8 1.5zm13-12.8V122h-4.2v-15.8h4l.2 3.3zm-.6 4h-1.2a9.6 9.6 0 0 1 1.8-5.6 5.5 5.5 0 0 1 2-1.5c.7-.4 1.5-.5 2.5-.5.7 0 1.4 0 2 .3s1.1.5 1.6 1c.4.5.8 1 1 1.9.3.7.4 1.7.4 2.8V122h-4.3v-10.1c0-.7 0-1.3-.3-1.7s-.4-.6-.8-.8l-1.4-.2a3 3 0 0 0-1.5.3 3 3 0 0 0-1 1c-.3.3-.5.8-.6 1.3l-.2 1.7zm21.8 5v-7.1c0-.5 0-1-.2-1.3-.2-.4-.4-.7-.8-.9-.3-.2-.8-.3-1.3-.3s-.9 0-1.2.2c-.4.2-.6.4-.8.7a2 2 0 0 0-.3 1h-4.2c0-.6.1-1.2.4-1.9s.8-1 1.4-1.5c.6-.5 1.3-.9 2.1-1.1a9.2 9.2 0 0 1 6.1.2 5 5 0 0 1 2.3 1.8c.5.8.8 1.9.8 3v6.9l.1 2.1.5 1.5v.2h-4.2a6 6 0 0 1-.5-1.6l-.2-2zm.6-6.2v2.4h-2.3l-1.5.2a2 2 0 0 0-1 .6 2 2 0 0 0-.6.8l-.2 1c0 .4.1.6.3 1l.7.6c.3.2.7.2 1.1.2.6 0 1.2 0 1.7-.3s.8-.6 1-1c.3-.3.4-.7.5-1l1 1.8a7.3 7.3 0 0 1-.6 1.2 5.2 5.2 0 0 1-2.5 2.1 4 4 0 0 1-2 .4c-1 0-2-.2-2.8-.6a5 5 0 0 1-1.9-1.7 4 4 0 0 1-.7-2.5c0-.8.2-1.5.5-2.2a4.3 4.3 0 0 1 1.4-1.6c.6-.4 1.3-.8 2.3-1 .9-.2 2-.4 3.1-.4h2.5zm11-2.8V122h-4.1v-15.8h4l.2 3.3zm-.5 4h-1.2c0-1.2.2-2.2.5-3.1.3-1 .7-1.8 1.2-2.5a5.5 5.5 0 0 1 2-1.5c.8-.4 1.6-.5 2.5-.5.8 0 1.5 0 2 .3s1.2.5 1.7 1c.4.5.7 1 1 1.9.2.7.3 1.7.3 2.8V122h-4.2v-10.1c0-.7-.1-1.3-.3-1.7s-.5-.6-.9-.8l-1.3-.2a3 3 0 0 0-1.5.3 3 3 0 0 0-1 1c-.3.3-.5.8-.6 1.3l-.2 1.7zm21-7.4v3h-9.2v-3h9.2zm-7-3.9h4.3v15c0 .5 0 .8.2 1 .1.3.3.5.5.6l1 .1h1.2v3l-1.2.3a8.6 8.6 0 0 1-1.4 0 6 6 0 0 1-2.4-.4 3.4 3.4 0 0 1-1.6-1.5c-.3-.6-.5-1.5-.5-2.7v-15.4zm26.3 16.3v-19h4.2V122h-3.8l-.4-3.5zm-10-4.2v-.3c0-1.3 0-2.4.3-3.3a9 9 0 0 1 1.2-2.6 5.5 5.5 0 0 1 2-1.7 5.8 5.8 0 0 1 5 0c.8.4 1.4 1 1.8 1.7.5.7 1 1.6 1.2 2.5.4 1 .6 2 .7 3.2v.7c-.1 1.1-.3 2.1-.7 3s-.7 1.9-1.2 2.6c-.4.7-1 1.2-1.7 1.6s-1.6.6-2.5.6c-1 0-1.9-.2-2.6-.6-.8-.4-1.4-1-2-1.7a9.6 9.6 0 0 1-1.6-5.7zm4.2-.3v.3l.1 1.8.5 1.5c.3.4.6.8 1 1 .3.3.8.4 1.4.4a3 3 0 0 0 1.8-.5 3 3 0 0 0 1-1.4c.3-.6.4-1.2.5-2v-1.9a7 7 0 0 0-.3-1.6c-.1-.5-.3-1-.6-1.3a2.7 2.7 0 0 0-1-.8 3 3 0 0 0-1.4-.3c-.5 0-1 0-1.4.3l-1 1-.5 1.6-.1 1.9zm20.6 8.3c-1.2 0-2.3-.2-3.3-.6a7.3 7.3 0 0 1-4.6-7v-.7c0-1.2.2-2.3.5-3.3s.8-1.8 1.5-2.6a6.4 6.4 0 0 1 2.3-1.6c1-.4 2-.6 3.1-.6s2.1.1 3 .5 1.6 1 2.2 1.6c.6.7 1 1.5 1.3 2.5.3.9.5 2 .5 3.1v1.8H241v-2.8h8.4v-.4c0-.5 0-1-.3-1.5a2.5 2.5 0 0 0-1-1.1c-.3-.3-.9-.4-1.5-.4s-1 0-1.5.3-.7.6-1 1l-.5 1.6a9.9 9.9 0 0 0-.2 2v.5c0 .7.1 1.2.3 1.8.2.5.4 1 .8 1.4a3.6 3.6 0 0 0 1.2.9 5.1 5.1 0 0 0 3.8-.1c.6-.3 1.2-.8 1.7-1.4l2 2.2c-.3.5-.7 1-1.3 1.4a7.3 7.3 0 0 1-4.8 1.5zm16.7-16.2v3h-9.3v-3h9.3zm-7-3.9h4.2v15l.2 1c.1.3.3.5.6.6l.9.1h1.2v3a7.9 7.9 0 0 1-5 0 3.4 3.4 0 0 1-1.5-1.6 5 5 0 0 1-.6-2.7v-15.4zm18 16.2v-7c0-.5-.2-1-.3-1.3a1.9 1.9 0 0 0-.8-.9c-.3-.2-.8-.3-1.3-.3s-1 0-1.3.2c-.3.2-.6.4-.7.7a2 2 0 0 0-.3 1h-4.2c0-.6.1-1.2.4-1.9s.8-1 1.4-1.5c.6-.5 1.3-.9 2.1-1.1a9.2 9.2 0 0 1 6 .2 5 5 0 0 1 2.3 1.8c.6.8.9 1.9.9 3v6.9l.1 2.1.5 1.5v.2h-4.3l-.4-1.6a13.4 13.4 0 0 1-.2-2zm.5-6v2.3h-2.4l-1.4.2a2.4 2.4 0 0 0-1.6 1.4l-.2 1c0 .4.1.6.3 1a1.8 1.8 0 0 0 .7.6c.3.2.7.2 1 .2.7 0 1.3 0 1.7-.3s.9-.6 1.1-1c.3-.3.4-.7.4-1l1.2 1.8a7.2 7.2 0 0 1-1.7 2.4c-.4.4-1 .7-1.5 1a6 6 0 0 1-2 .3c-1 0-2-.2-2.8-.6a5 5 0 0 1-2-1.7c-.4-.7-.6-1.5-.6-2.5 0-.8.1-1.5.5-2.2a4.3 4.3 0 0 1 1.3-1.6c.7-.4 1.4-.8 2.3-1 1-.2 2-.4 3.2-.4h2.5zm11.4-6.3V122h-4.3v-15.8h4.3zm-4.5-4c0-.7.2-1.2.6-1.6s1-.6 1.7-.6c.8 0 1.3.2 1.8.6a2 2 0 0 1 .6 1.5 2 2 0 0 1-.6 1.5c-.5.4-1 .6-1.8.6-.7 0-1.3-.2-1.7-.6s-.6-.9-.6-1.5zm12.4-2.6V122h-4.2V99.5h4.2zm12 18.1c0-.3 0-.6-.2-.8s-.5-.5-1-.7l-2-.6a15.8 15.8 0 0 1-2.3-.6l-1.7-1c-.5-.4-1-.8-1.2-1.3a4 4 0 0 1-.4-1.9c0-.6.1-1.2.4-1.8.3-.6.7-1.1 1.2-1.6a7.7 7.7 0 0 1 4.7-1.4c1.4 0 2.5.2 3.5.6 1 .5 1.8 1 2.3 1.8.6.8.8 1.7.8 2.6h-4.2c0-.4 0-.7-.3-1-.1-.4-.4-.6-.7-.8-.4-.2-.9-.3-1.4-.3-.5 0-.9 0-1.2.2-.4.2-.6.4-.8.7-.2.2-.3.5-.3.8a1.5 1.5 0 0 0 .1.7c.2.2.3.4.6.5a4.3 4.3 0 0 0 .9.5 11.4 11.4 0 0 0 1.4.3c1.1.2 2.1.5 3 1 1 .3 1.6.8 2.2 1.5.5.6.8 1.4.8 2.5a4.4 4.4 0 0 1-1.8 3.5 9 9 0 0 1-2.2 1 9.8 9.8 0 0 1-6.4-.5 6 6 0 0 1-2.4-2c-.5-.8-.7-1.7-.7-2.5h4c0 .6.1 1 .4 1.4.3.3.6.6 1 .7l1.5.3c.5 0 1-.1 1.4-.3.3-.1.6-.3.8-.6.2-.2.3-.5.3-.9z"/>
  <path d="M124.5 148.5V162h-2.8v-13.5h2.8zm5.4 5.8v2.1h-6.2v-2.1h6.2zm.6-5.8v2.2h-6.8v-2.2h6.8zm7.2 11.1V152h2.7v10h-2.5l-.2-2.4zm.3-2h.8a7.2 7.2 0 0 1-.2 1.8l-.7 1.5c-.3.5-.7.7-1.2 1-.5.2-1 .3-1.7.3a4.3 4.3 0 0 1-1.3-.2c-.4-.2-.8-.4-1-.7-.4-.3-.6-.7-.8-1.1l-.2-1.8V152h2.7v7.2l.4.5.4.3h.6c.6 0 1 0 1.3-.3s.6-.5.7-.9l.2-1.3zm7.2-9.9V162h-2.6v-14.3h2.6zm5 0V162h-2.6v-14.3h2.7zm9.6 6.4v7.9h-2.7v-10h2.6l.1 2.1zm-.4 2.5h-.7c0-.7.1-1.4.3-2 .2-.6.5-1 .8-1.5.3-.4.8-.8 1.2-1 .5-.2 1-.3 1.6-.3.5 0 1 0 1.3.2l1 .6c.3.3.5.7.7 1.2l.2 1.8v6.4h-2.7v-6.4c0-.5 0-.8-.2-1a1 1 0 0 0-.5-.6l-.9-.1a2 2 0 0 0-1 .2 1.9 1.9 0 0 0-.6.6c-.1.2-.3.5-.3.9a4.3 4.3 0 0 0-.2 1zm13.9 3.1v-4.4c0-.4 0-.6-.2-.9 0-.2-.3-.4-.5-.5l-.8-.2c-.3 0-.6 0-.8.2a1.1 1.1 0 0 0-.5.4l-.2.6h-2.6a2.6 2.6 0 0 1 .3-1.2c.2-.4.4-.7.8-1l1.4-.7a5.8 5.8 0 0 1 1.7-.2c.8 0 1.5.1 2.1.4s1 .6 1.4 1.1c.4.6.6 1.2.6 2v5.6l.4 1v.1h-2.7c-.2-.3-.3-.6-.3-1l-.1-1.3zm.3-3.8v1.5h-1.5l-.9.1-.6.4-.4.5a1.7 1.7 0 0 0 0 .6v.6a1.1 1.1 0 0 0 .5.4l.7.2c.4 0 .8 0 1-.3a2 2 0 0 0 .7-.5l.3-.7.7 1.1a4.6 4.6 0 0 1-.4.8l-.6.8a3.3 3.3 0 0 1-1 .6l-1.3.2c-.6 0-1.2-.1-1.7-.4-.5-.3-1-.6-1.2-1a3 3 0 0 1-.2-3 2.7 2.7 0 0 1 .9-1 4 4 0 0 1 1.5-.7l2-.2h1.5zm7-1.9v8H178v-10h2.5l.2 2zm-.3 2.6h-.7c0-.7 0-1.3.2-1.9.2-.6.5-1.1.8-1.5a3.5 3.5 0 0 1 1.2-1 3 3 0 0 1 1.7-.4c.5 0 .9 0 1.2.2a2.4 2.4 0 0 1 1 .6c.3.3.5.6.6 1.1.2.4.2 1 .2 1.6v6.7H184v-6.4c0-.5 0-.8-.2-1l-.5-.6a2 2 0 0 0-.8-.1c-.4 0-.7 0-1 .2l-.6.6a2.6 2.6 0 0 0-.4.9 4.6 4.6 0 0 0 0 1zm6-.3-1 .1.3-1.8c.1-.5.4-1 .7-1.5a4 4 0 0 1 1.2-1c.5-.2 1-.3 1.7-.3.5 0 1 0 1.3.2a2.4 2.4 0 0 1 1 .6c.3.3.5.7.7 1.2s.2 1 .2 1.8v6.4h-2.7v-6.4c0-.5 0-.8-.2-1a1 1 0 0 0-.5-.6 2 2 0 0 0-.8-.1c-.3 0-.6 0-.8.2a1.7 1.7 0 0 0-.6.5l-.4.8-.1 1zm12.8 5.9c-.8 0-1.5-.1-2.1-.4l-1.6-1a4.7 4.7 0 0 1-1-1.6c-.2-.6-.3-1.2-.3-1.9v-.3c0-.8.1-1.5.3-2.1s.5-1.2 1-1.7a4 4 0 0 1 1.4-1c.6-.3 1.3-.4 2-.4s1.3 0 1.9.3a4 4 0 0 1 2.2 2.6c.2.6.3 1.3.3 2v1.1h-8V156h5.4v-.2c0-.4 0-.7-.2-1-.1-.3-.3-.5-.6-.7s-.6-.2-1-.2-.7 0-1 .2a1.8 1.8 0 0 0-.6.6l-.3 1a6.2 6.2 0 0 0-.1 1.3v.3a3.6 3.6 0 0 0 .1 1.1l.5 1 .8.5 1 .2c.5 0 1-.1 1.4-.3a3 3 0 0 0 1-.8l1.4 1.4a4.6 4.6 0 0 1-2.2 1.6l-1.7.2z" class="C"/>
  <path d="M121.5 181h630v46h-630z" class="B D E"/>
  <path d="M130.8 263.8v2.2h-7.2v-2.2h7.2zm-6.3-11.3V266h-2.8v-13.5h2.8zm5.3 5.5v2.1h-6.2V258h6.2zm1-5.5v2.2h-7.2v-2.2h7.2zm4.1 5.5v8h-2.7v-10h2.5l.2 2zm-.4 2.6h-.7c0-.7 0-1.3.2-1.9.2-.6.5-1.1.8-1.5a3.5 3.5 0 0 1 1.2-1 3 3 0 0 1 1.7-.4c.5 0 .9 0 1.2.2a2.4 2.4 0 0 1 1 .6c.3.3.5.6.6 1.1.2.4.3 1 .3 1.6v6.7H138v-6.4c0-.5 0-.8-.2-1l-.5-.6a2 2 0 0 0-.8-.1c-.4 0-.7 0-1 .2l-.6.6a2.6 2.6 0 0 0-.4.9 4.6 4.6 0 0 0 0 1zm6-.3-1 .1.3-1.8.7-1.5c.3-.4.8-.7 1.2-1 .5-.2 1-.3 1.7-.3.5 0 1 0 1.3.2a2.4 2.4 0 0 1 1 .6c.3.3.5.7.7 1.2l.2 1.8v6.4H144v-6.4c0-.5 0-.8-.2-1a1 1 0 0 0-.5-.6 2 2 0 0 0-.8-.1c-.3 0-.6 0-.8.2a1.7 1.7 0 0 0-.6.5l-.4.8-.1 1zm13.6 3.4v-4.4c0-.4 0-.6-.2-.9 0-.2-.2-.4-.4-.5l-.9-.2c-.3 0-.5 0-.8.2a1.1 1.1 0 0 0-.5.4l-.1.6h-2.7a2.6 2.6 0 0 1 .3-1.2l.8-1 1.4-.7a5.8 5.8 0 0 1 1.8-.2 4.5 4.5 0 0 1 3.5 1.5c.3.6.5 1.2.5 2v5.6l.4 1v.1h-2.7l-.3-1-.1-1.3zm.4-3.8v1.5H153l-1 .1-.6.4-.4.5a1.7 1.7 0 0 0 0 .6l.1.6a1.1 1.1 0 0 0 .5.4l.6.2c.4 0 .8 0 1-.3a2 2 0 0 0 .8-.5l.2-.7.7 1.1a4.6 4.6 0 0 1-.4.8l-.6.8a3.3 3.3 0 0 1-1 .6l-1.2.2c-.7 0-1.3-.1-1.8-.4a4 4 0 0 1-1.2-1 3 3 0 0 1-.4-1.6c0-.5 0-1 .3-1.4a2.7 2.7 0 0 1 .8-1 4 4 0 0 1 1.5-.7l2-.2h1.6zm7.2-4V266H159v-10h2.7zm-2.9-2.6a1.3 1.3 0 0 1 .4-1 2 2 0 0 1 1.1-.3c.5 0 .8.1 1.1.4.3.2.4.6.4 1a1.3 1.3 0 0 1-.4 1c-.3.2-.6.3-1 .3-.5 0-.9-.1-1.2-.4s-.4-.6-.4-1zm7.9-1.6V266H164v-14.3h2.7z" class="C"/>
  <path d="M121.5 285h630v46h-630z" class="B D E"/>
  <path d="M127 365.2h-3.5V363h3.5c.5 0 1 0 1.3-.2l.7-.8c.2-.3.2-.7.2-1 0-.5 0-.8-.2-1.2a1.9 1.9 0 0 0-.7-.8c-.4-.2-.8-.3-1.3-.3h-2.5V370h-2.8v-13.5h5.3a5 5 0 0 1 4.4 2.1c.4.6.6 1.5.6 2.3 0 .9-.2 1.7-.6 2.3s-1 1.1-1.7 1.5-1.7.5-2.7.5zm9.4-9.4V370h-2.7v-14.3h2.7zm-.4 8.8h-.7c0-.7 0-1.3.3-1.9.1-.6.4-1.1.7-1.5a3.4 3.4 0 0 1 2.8-1.4c.5 0 1 0 1.3.2.4.1.8.3 1 .7.4.3.6.7.8 1.2s.2 1 .2 1.8v6.3h-2.7v-6.4c0-.4 0-.8-.2-1l-.5-.6a2 2 0 0 0-.9-.1c-.4 0-.7 0-1 .2-.2.1-.5.3-.6.6a2.6 2.6 0 0 0-.4.9 5 5 0 0 0 0 1zm8 .5v-.2c0-.7.1-1.4.3-2a4.7 4.7 0 0 1 1-1.7 3 3 0 0 1 1.4-1c.6-.3 1.3-.4 2-.4s1.5.1 2 .4c.7.2 1.2.6 1.6 1 .4.5.7 1 .9 1.7s.3 1.3.3 2v.2a6.3 6.3 0 0 1-.3 2c-.2.6-.5 1.2-1 1.6-.3.5-.8.9-1.4 1.1s-1.3.4-2 .4-1.5-.1-2-.4a4.2 4.2 0 0 1-2.5-2.7 6.3 6.3 0 0 1-.3-2zm2.7-.2v.2a6 6 0 0 0 0 1.2 3.2 3.2 0 0 0 .4 1l.7.6c.3.2.6.2 1 .2.3 0 .7 0 1-.2a1.8 1.8 0 0 0 .6-.7 3.2 3.2 0 0 0 .3-1l.1-1.1v-1.4a3 3 0 0 0-.4-1l-.7-.6c-.3-.2-.6-.2-1-.2l-1 .2-.6.7a3.2 3.2 0 0 0-.3 1 5.7 5.7 0 0 0-.1 1zm11-2.8v7.9h-2.6v-10h2.5l.2 2.1zm-.3 2.5h-.7c0-.7 0-1.4.3-2 .1-.6.4-1 .8-1.5a3 3 0 0 1 1.2-1c.5-.2 1-.3 1.6-.3.5 0 1 0 1.3.2l1 .6c.3.3.5.7.6 1.2l.3 1.8v6.4H161v-6.4c0-.5 0-.8-.2-1a1 1 0 0 0-.5-.6l-1-.1a2 2 0 0 0-.9.2 1.9 1.9 0 0 0-.6.6c-.2.2-.3.5-.4.9a4.3 4.3 0 0 0-.1 1zm13 5.6c-.7 0-1.4-.1-2-.4-.7-.2-1.2-.6-1.6-1a4.7 4.7 0 0 1-1-1.6 4 4 0 0 1-.4-1.9v-.3c0-.8.1-1.5.4-2.1s.5-1.2.9-1.7a4 4 0 0 1 1.5-1 4 4 0 0 1 2-.4c.6 0 1.3 0 1.8.3l1.4 1c.4.5.7 1 .9 1.6.2.6.3 1.3.3 2v1.1h-8V364h5.3v-.2c0-.3 0-.7-.2-1-.1-.3-.3-.5-.6-.7s-.6-.2-1-.2c-.3 0-.6 0-.9.2a1.8 1.8 0 0 0-.6.6l-.4 1a6.2 6.2 0 0 0 0 1.3v.3a3.6 3.6 0 0 0 0 1.1l.6 1 .7.5 1.1.2c.5 0 1-.1 1.3-.3a3 3 0 0 0 1.1-.8l1.3 1.4a4.6 4.6 0 0 1-2.2 1.6l-1.7.2zm13-8.1v7.9h-2.7v-10h2.6l.1 2.1zm-.4 2.5h-.7c0-.7.1-1.4.3-2 .2-.6.5-1 .8-1.5.3-.4.8-.8 1.2-1 .5-.2 1-.3 1.6-.3a3.9 3.9 0 0 1 1.3.2c.4.1.8.3 1 .6.3.3.5.7.7 1.2l.2 1.8v6.4h-2.7v-6.4c0-.5 0-.8-.2-1a1 1 0 0 0-.5-.6l-.9-.1a2 2 0 0 0-1 .2 1.9 1.9 0 0 0-.6.6c-.1.2-.3.5-.3.9l-.2 1zm14.4 3V360h2.7v10h-2.6l-.1-2.4zm.3-2h.8l-.3 1.8c-.1.6-.3 1-.7 1.5s-.7.7-1.1 1c-.5.2-1 .3-1.7.3-.5 0-1 0-1.3-.2a2.8 2.8 0 0 1-1-.7c-.4-.3-.6-.7-.8-1.1l-.2-1.8V360h2.7v7.2l.4.5.4.3a2 2 0 0 0 .6 0c.6 0 1 0 1.3-.3.3-.2.6-.5.7-.9l.2-1.3zm7-3.6v8h-2.6v-10h2.5l.2 2zm-.3 2.6h-.7c0-.7 0-1.3.2-1.9.2-.6.4-1.1.8-1.5a3.5 3.5 0 0 1 1.2-1 3 3 0 0 1 1.7-.4c.4 0 .8 0 1.2.2a2.4 2.4 0 0 1 1 .6c.2.3.5.6.6 1.1.2.4.2 1 .2 1.6v6.7H208v-6.4l-.2-1a.9.9 0 0 0-.6-.6 2 2 0 0 0-.8-.1c-.3 0-.6 0-.9.2l-.6.6a2.6 2.6 0 0 0-.4.9 4.6 4.6 0 0 0-.1 1zm6-.3-1 .1.3-1.8c.1-.5.4-1 .7-1.5a4 4 0 0 1 1.2-1c.5-.2 1-.3 1.7-.3.5 0 .9 0 1.3.2a2.4 2.4 0 0 1 1 .6c.3.3.5.7.7 1.2s.2 1 .2 1.8v6.4h-2.7v-6.4c0-.5 0-.8-.2-1a1 1 0 0 0-.5-.6 2 2 0 0 0-.8-.1c-.3 0-.6 0-.8.2a1.7 1.7 0 0 0-.6.5l-.4.8-.1 1zm8.2-8.6h2.6v12l-.2 2.3h-2.4v-14.3zm9 9.2v.2c0 .7 0 1.4-.3 2-.1.7-.3 1.2-.7 1.7a3.5 3.5 0 0 1-1.2 1 3 3 0 0 1-1.7.4c-.6 0-1.2-.1-1.6-.4a3.2 3.2 0 0 1-1.1-1l-.8-1.6-.4-2v-.4l.4-2c.1-.6.5-1.2.8-1.6s.7-.8 1.1-1 1-.4 1.6-.4c.6 0 1.2.1 1.7.4a3.3 3.3 0 0 1 1.2 1c.4.5.6 1 .7 1.6.2.6.3 1.3.3 2zm-2.7.2v-1.4a3 3 0 0 0-.4-1l-.6-.6-.9-.2c-.4 0-.7 0-1 .2l-.6.5a2.4 2.4 0 0 0-.3.8l-.2 1v1.2c0 .5.1 1 .3 1.3.1.4.3.7.6.9.3.2.7.3 1.2.3.4 0 .7 0 1-.2l.5-.7c.2-.2.3-.6.3-1l.1-1.1zm9 5c-.8 0-1.5 0-2.1-.3a4.6 4.6 0 0 1-3-4.5v-.3c0-.8.2-1.5.4-2.1s.5-1.2 1-1.7a4 4 0 0 1 1.4-1c.6-.3 1.2-.4 2-.4a4 4 0 0 1 1.9.3 3.7 3.7 0 0 1 1.3 1c.4.5.7 1 .9 1.6.2.6.3 1.3.3 2v1.1h-8V364h5.4v-.2l-.2-1-.6-.7c-.2-.2-.6-.2-1-.2s-.7 0-1 .2l-.6.6c-.2.2-.3.7-.3 1a6.3 6.3 0 0 0-.1 1.3v.3a3.5 3.5 0 0 0 .1 1.1l.5 1 .8.5 1 .2c.5 0 1 0 1.4-.3a3 3 0 0 0 1-.8l1.4 1.4a4.6 4.6 0 0 1-2.2 1.6l-1.7.2zm8.3-8v7.9h-2.7v-10h2.5l.2 2.2zm3-2.2v2.5h-.5l-.5-.1a3 3 0 0 0-1 .1l-.7.5a1.8 1.8 0 0 0-.4.6l-.1 1-.6-.2c0-.7 0-1.3.2-1.8.2-.6.3-1 .6-1.4a2 2 0 0 1 1-1 2.4 2.4 0 0 1 1.2-.3 3 3 0 0 1 .4 0l.4.1z" class="C"/>
  <path d="M121.5 389h348v46h-348z" class="B D E"/>
  <path fill="#000" d="M132 468.7V490h-4.4v-21.3h4.3zm6.5 0v3.4h-17.4v-3.4h17.4zm8.2 21.6a8.1 8.1 0 0 1-5.8-2.2 7.4 7.4 0 0 1-1.6-2.5c-.4-1-.5-2-.5-3v-.6a8.8 8.8 0 0 1 2-5.9c.6-.7 1.4-1.3 2.3-1.6 1-.4 2-.6 3-.6 1.2 0 2.2.1 3 .5s1.7 1 2.3 1.6c.6.7 1 1.5 1.3 2.5.3.9.5 2 .5 3.1v1.8h-12.6v-2.8h8.4v-.4c0-.5 0-1-.3-1.5a2.5 2.5 0 0 0-1-1.1 3 3 0 0 0-1.6-.4c-.5 0-1 0-1.4.3l-1 1-.5 1.6-.2 2v.5c0 .7 0 1.2.3 1.8.1.5.4 1 .7 1.4a3.5 3.5 0 0 0 1.3.9c.5.2 1 .3 1.6.3a4.6 4.6 0 0 0 3.9-1.8l2 2.2c-.3.5-.8 1-1.3 1.4a8.5 8.5 0 0 1-4.8 1.5zm13-12.8V490h-4.2v-15.8h4l.2 3.3zm-.6 4h-1.2a9.6 9.6 0 0 1 1.8-5.6 5.5 5.5 0 0 1 2-1.5c.7-.4 1.5-.5 2.5-.5.7 0 1.4 0 2 .3s1.1.5 1.6 1c.4.5.8 1 1 1.9.3.7.4 1.7.4 2.8V490h-4.3v-10.1c0-.7 0-1.3-.3-1.7s-.4-.6-.8-.8l-1.4-.2a3 3 0 0 0-1.5.3 3 3 0 0 0-1 1c-.3.3-.5.8-.6 1.3l-.2 1.7zm21.8 5v-7.1c0-.5 0-1-.2-1.3-.2-.4-.4-.7-.8-.9-.3-.2-.8-.3-1.3-.3s-.9 0-1.2.2c-.4.2-.6.4-.8.7a2 2 0 0 0-.3 1h-4.2c0-.6.1-1.2.4-1.9s.8-1 1.4-1.5c.6-.5 1.3-.9 2.1-1.1a9.2 9.2 0 0 1 6.1.2 5 5 0 0 1 2.3 1.8c.5.8.8 1.9.8 3.1v6.8l.1 2.1.5 1.5v.2h-4.2a6 6 0 0 1-.5-1.6l-.2-2zm.6-6.2v2.4h-2.3l-1.5.2a2 2 0 0 0-1 .6 2 2 0 0 0-.6.8l-.2 1c0 .4.1.6.3 1l.7.6c.3.2.7.2 1.1.2.6 0 1.2 0 1.7-.3s.8-.6 1-1c.3-.3.4-.7.5-1l1 1.8a7.3 7.3 0 0 1-.6 1.2 5.2 5.2 0 0 1-2.5 2.1 4 4 0 0 1-2 .4c-1 0-2-.2-2.8-.6a5 5 0 0 1-1.9-1.7 4 4 0 0 1-.7-2.5c0-.8.2-1.5.5-2.2a4.3 4.3 0 0 1 1.4-1.6c.6-.4 1.3-.8 2.3-1 .9-.2 2-.4 3.1-.4h2.5zm11-2.8V490h-4.1v-15.8h4l.2 3.3zm-.5 4h-1.2c0-1.2.2-2.2.5-3.1.3-1 .7-1.8 1.2-2.5a5.5 5.5 0 0 1 2-1.5c.8-.4 1.6-.5 2.5-.5.8 0 1.5 0 2 .3s1.2.5 1.7 1c.4.5.7 1 1 1.9.2.7.3 1.7.3 2.8V490h-4.2v-10.1c0-.7-.1-1.3-.3-1.7s-.5-.6-.9-.8l-1.3-.2a3 3 0 0 0-1.5.3 3 3 0 0 0-1 1c-.3.3-.5.8-.6 1.3l-.2 1.7zm21-7.3v3h-9.2v-3h9.2zm-7-4h4.3v15c0 .5 0 .8.2 1 .1.3.3.5.5.6l1 .1h1.2v3l-1.2.3a8.6 8.6 0 0 1-1.4 0 6 6 0 0 1-2.4-.4 3.4 3.4 0 0 1-1.6-1.5c-.3-.6-.5-1.5-.5-2.7v-15.4zm25.4 16.2v-7c0-.5 0-1-.2-1.3a1.9 1.9 0 0 0-.8-.9c-.3-.2-.8-.3-1.3-.3s-.9 0-1.2.2a2 2 0 0 0-1.1 1.7h-4.2c0-.6.1-1.2.5-1.9s.7-1 1.3-1.5c.6-.5 1.3-.9 2.1-1.1a9.2 9.2 0 0 1 6.1.2 5 5 0 0 1 2.3 1.8c.5.8.8 1.9.8 3.1v6.8c0 .8 0 1.6.2 2.1 0 .6.2 1 .4 1.5v.2h-4.2a6 6 0 0 1-.5-1.6l-.2-2zm.6-6v2.3h-2.3l-1.5.2a2 2 0 0 0-1 .6 2 2 0 0 0-.6.8l-.1 1c0 .4 0 .6.2 1l.7.6c.3.2.7.2 1.1.2.7 0 1.2 0 1.7-.3s.8-.6 1-1c.3-.3.5-.7.5-1l1 1.8a7.3 7.3 0 0 1-.6 1.2 5.2 5.2 0 0 1-2.5 2.1 4 4 0 0 1-2 .4c-1 0-2-.2-2.7-.6a5 5 0 0 1-2-1.7 5 5 0 0 1-.2-4.7c.3-.6.8-1.2 1.4-1.6.6-.4 1.3-.8 2.3-1 .9-.2 2-.4 3.2-.4h2.4zm16.3 6.1v-19h4.3V490h-3.9l-.4-3.5zm-10-4.2v-.3c0-1.3.1-2.4.4-3.3a9 9 0 0 1 1.2-2.6 5.5 5.5 0 0 1 2-1.7 5.8 5.8 0 0 1 5 0c.7.4 1.3 1 1.8 1.7a9 9 0 0 1 1.2 2.5l.7 3.2v.7l-.7 3a9 9 0 0 1-1.2 2.6 5.1 5.1 0 0 1-4.2 2.2c-1 0-2-.2-2.7-.6a5.6 5.6 0 0 1-2-1.7l-1.1-2.5c-.3-1-.4-2-.4-3.2zm4.2-.3v.3c0 .6 0 1.2.2 1.8 0 .6.2 1 .5 1.5.2.4.5.8.9 1 .4.3.9.4 1.4.4a3 3 0 0 0 1.8-.5c.5-.3.8-.8 1-1.4.3-.6.5-1.2.5-2v-1.9a7 7 0 0 0-.2-1.6 4 4 0 0 0-.7-1.3c-.2-.4-.6-.6-1-.8a3 3 0 0 0-1.3-.3c-.6 0-1 .1-1.5.3l-1 1-.4 1.6-.2 1.9zm22.7 4.5v-19h4.3V490h-3.9l-.4-3.5zm-10-4.2v-.3c0-1.3.1-2.4.4-3.3a9 9 0 0 1 1.2-2.6 5.5 5.5 0 0 1 2-1.7 5.8 5.8 0 0 1 5 0 7.2 7.2 0 0 1 3 4.2l.7 3.2v.7l-.7 3a9 9 0 0 1-1.2 2.6 5.1 5.1 0 0 1-4.2 2.2c-1 0-2-.2-2.7-.6-.7-.4-1.4-1-2-1.7l-1.1-2.5c-.3-1-.4-2-.4-3.2zm4.2-.3v.3c0 .6 0 1.2.2 1.8 0 .6.2 1 .5 1.5.2.4.5.8 1 1 .3.3.8.4 1.3.4a3 3 0 0 0 1.8-.5c.5-.3.8-.8 1-1.4.3-.6.5-1.2.5-2v-1.9a7 7 0 0 0-.2-1.6 4 4 0 0 0-.7-1.3 2.7 2.7 0 0 0-1-.8 3 3 0 0 0-1.3-.3c-.6 0-1 .1-1.4.3-.4.3-.8.6-1 1l-.5 1.6-.2 1.9zm17.6-4.4V490h-4.2v-15.8h4l.2 3.4zm4.7-3.6v4l-.8-.1h-.7c-.6 0-1.2 0-1.6.2-.4.1-.8.3-1 .6-.4.3-.6.7-.7 1.1-.2.4-.2.9-.3 1.4l-.8-.2c0-1 0-2 .3-2.9.2-.8.5-1.6.9-2.2.4-.7.9-1.2 1.5-1.5s1.2-.5 2-.5a4.5 4.5 0 0 1 .6 0l.6.1zm9 16.3c-1.2 0-2.3-.2-3.3-.6a9 9 0 0 1-2.5-1.6 7.4 7.4 0 0 1-1.5-2.5 8 8 0 0 1-.6-3v-.6c0-1.2.2-2.3.6-3.3s.8-1.8 1.4-2.6a7.7 7.7 0 0 1 5.4-2.3 6.9 6.9 0 0 1 5.2 2.1c.6.8 1 1.6 1.4 2.6.3.9.4 2 .4 3.1v1.8h-12.6v-2.8h8.5v-.4l-.3-1.5a2.5 2.5 0 0 0-1-1.1 3 3 0 0 0-1.6-.4c-.5 0-1 0-1.4.3a2.8 2.8 0 0 0-1 1l-.5 1.6c-.2.6-.2 1.2-.2 2v.5c0 .7 0 1.2.2 1.8l.8 1.4a3.5 3.5 0 0 0 1.3.9c.4.2 1 .3 1.6.3.8 0 1.5-.1 2.1-.4a4 4 0 0 0 1.7-1.4l2.1 2.2a7.3 7.3 0 0 1-3.4 2.5c-.8.3-1.7.4-2.8.4zm17.5-4.7c0-.3 0-.6-.2-.8s-.5-.5-1-.7l-2-.6a16 16 0 0 1-2.3-.6c-.7-.3-1.3-.6-1.8-1a4.3 4.3 0 0 1-1.2-1.3c-.2-.6-.4-1.2-.4-1.9a4.3 4.3 0 0 1 1.7-3.4c.5-.4 1.2-.8 2-1a9.7 9.7 0 0 1 6.2.2 6 6 0 0 1 2.3 1.8c.5.8.8 1.7.8 2.6H308c0-.4-.1-.7-.3-1-.2-.4-.4-.6-.8-.8-.3-.2-.8-.3-1.4-.3-.4 0-.8 0-1.2.2l-.8.7a1.6 1.6 0 0 0-.2.8l.1.7.5.5a4.3 4.3 0 0 0 1 .5l1.3.3c1.2.2 2.2.5 3 1a4 4 0 0 1 2.2 1.5c.6.6.8 1.4.8 2.5a4 4 0 0 1-.4 1.9c-.4.6-.8 1-1.4 1.5-.6.5-1.3.8-2.1 1a9.8 9.8 0 0 1-6.5-.4 6 6 0 0 1-2.3-2c-.5-.8-.8-1.7-.8-2.5h4c0 .6.2 1 .5 1.4.2.3.6.6 1 .7a4.2 4.2 0 0 0 1.4.3c.6 0 1-.1 1.4-.3.4-.1.6-.3.8-.6.2-.2.3-.5.3-.9zm15.4 0c0-.3 0-.6-.2-.8s-.5-.5-1-.7l-2-.6c-.9-.1-1.6-.4-2.3-.6-.7-.3-1.3-.6-1.8-1s-.9-.8-1.2-1.3c-.2-.6-.4-1.2-.4-1.9a4.3 4.3 0 0 1 1.7-3.4c.5-.4 1.2-.8 2-1 .8-.3 1.7-.4 2.7-.4 1.3 0 2.5.2 3.5.6 1 .5 1.8 1 2.3 1.8.5.8.8 1.7.8 2.6h-4.2c0-.4-.1-.7-.3-1-.2-.4-.4-.6-.8-.8-.3-.2-.8-.3-1.4-.3-.4 0-.8 0-1.2.2l-.8.7a1.6 1.6 0 0 0-.2.8l.1.7.5.5a4.3 4.3 0 0 0 1 .5 11.4 11.4 0 0 0 1.3.3c1.2.2 2.2.5 3.1 1a4 4 0 0 1 2.1 1.5c.6.6.8 1.4.8 2.5a4 4 0 0 1-.4 1.9c-.4.6-.8 1-1.4 1.5-.6.5-1.3.8-2 1a9.8 9.8 0 0 1-6.6-.4 6 6 0 0 1-2.3-2c-.5-.8-.8-1.7-.8-2.5h4c0 .6.2 1 .5 1.4.2.3.6.6 1 .7a4.2 4.2 0 0 0 1.5.3c.5 0 1-.1 1.3-.3.4-.1.7-.3.8-.6.2-.2.3-.5.3-.9z"/>
  <path d="M127 533.2h-3.5V531h3.5c.5 0 1 0 1.3-.2l.7-.8c.2-.3.2-.7.2-1 0-.5 0-.8-.2-1.2a1.9 1.9 0 0 0-.7-.8c-.4-.2-.8-.3-1.3-.3h-2.5V538h-2.8v-13.5h5.3a5 5 0 0 1 4.4 2.1c.4.6.6 1.5.6 2.3 0 .9-.2 1.7-.6 2.3s-1 1.1-1.7 1.5-1.7.5-2.7.5zm6.2-.1v-.2c0-.7.1-1.4.3-2s.6-1.2 1-1.7.9-.8 1.4-1c.6-.3 1.3-.4 2-.4s1.5.1 2.1.4c.6.2 1 .6 1.5 1l1 1.7c.2.7.2 1.3.2 2v.2c0 .7 0 1.4-.3 2-.2.6-.5 1.2-1 1.6-.3.5-.8.9-1.4 1.1s-1.3.4-2 .4-1.5-.1-2-.4a4.2 4.2 0 0 1-2.5-2.7 6.3 6.3 0 0 1-.3-2zm2.7-.2v.2a6 6 0 0 0 .1 1.2 3.2 3.2 0 0 0 .4 1l.6.6c.3.2.6.2 1 .2s.7 0 1-.2l.6-.7a3.2 3.2 0 0 0 .3-1 5.5 5.5 0 0 0 .2-1.1v-.2c0-.4 0-.8-.2-1.2a3 3 0 0 0-.3-1l-.7-.6c-.3-.2-.6-.2-1-.2l-.9.2a1.9 1.9 0 0 0-.6.7 3.2 3.2 0 0 0-.4 1l-.1 1zm14 2.3c0-.2-.1-.3-.3-.5l-.6-.4a6 6 0 0 0-1.3-.4 10.1 10.1 0 0 1-1.4-.4 5 5 0 0 1-1.1-.6 2.7 2.7 0 0 1-.8-.9l-.2-1.1a2.7 2.7 0 0 1 .2-1.2l.8-1 1.3-.7 1.7-.2a5 5 0 0 1 2.2.4c.6.3 1.1.7 1.5 1.1.3.5.5 1 .5 1.7h-2.7c0-.3 0-.5-.2-.7 0-.2-.2-.4-.5-.5l-.8-.2c-.3 0-.6 0-.8.2-.2 0-.4.2-.5.4a1 1 0 0 0-.2.5 1 1 0 0 0 .1.5l.3.3a2.8 2.8 0 0 0 .6.3l1 .2c.6.1 1.3.3 1.8.6.6.2 1 .5 1.4 1 .3.3.5.9.5 1.5 0 .5 0 .9-.3 1.2l-.8 1a4.3 4.3 0 0 1-1.4.7 6.3 6.3 0 0 1-4-.3c-.7-.3-1.2-.8-1.6-1.3a3 3 0 0 1-.4-1.6h2.5c0 .4 0 .7.3.9l.6.5 1 .1.8-.1a1.2 1.2 0 0 0 .5-.4l.2-.6zm9.2-7.2v1.9h-5.9v-2h5.9zm-4.4-2.5h2.6v9.5l.1.6a.7.7 0 0 0 .4.4h1.4v2a5 5 0 0 1-.8.1 5.5 5.5 0 0 1-.8 0c-.6 0-1.1 0-1.6-.2a2.1 2.1 0 0 1-1-1 4 4 0 0 1-.3-1.7v-9.7zm10 10.6c.4 0 .6 0 .9-.2.3-.1.4-.3.6-.5a1.6 1.6 0 0 0 .2-.9h2.5c0 .8-.2 1.4-.5 2-.4.5-.9 1-1.5 1.2a5 5 0 0 1-4.1 0 4 4 0 0 1-1.5-1 4.7 4.7 0 0 1-.9-1.6c-.2-.6-.2-1.3-.2-2v-.2a6.6 6.6 0 0 1 .2-2c.2-.7.5-1.2.9-1.6s.9-.9 1.4-1.1 1.3-.4 2-.4c.9 0 1.6.1 2.2.4a3.5 3.5 0 0 1 1.5 1.4c.3.6.5 1.3.5 2h-2.5c0-.3 0-.6-.2-.8-.1-.3-.3-.5-.6-.7-.2-.2-.5-.2-.9-.2s-.7 0-1 .2l-.5.7-.3 1v2.3c0 .3.1.7.3 1 .1.3.3.5.6.7s.5.2 1 .2zm5.4-3v-.2c0-.7 0-1.4.3-2s.5-1.2.9-1.7.9-.8 1.5-1c.6-.3 1.2-.4 2-.4s1.4.1 2 .4a4 4 0 0 1 1.5 1l1 1.7c.3.7.3 1.3.3 2v.2c0 .7-.1 1.4-.3 2-.3.6-.6 1.2-1 1.6-.4.5-.9.9-1.5 1.1s-1.2.4-2 .4-1.4-.1-2-.4a4.2 4.2 0 0 1-2.4-2.7 6.3 6.3 0 0 1-.3-2zm2.6-.2v.2a6 6 0 0 0 .1 1.2l.4 1 .6.6c.2.2.6.2 1 .2s.7 0 1-.2l.6-.7.4-1a5.5 5.5 0 0 0 0-1.1v-1.4a3 3 0 0 0-.4-1l-.6-.6c-.2-.2-.6-.2-1-.2l-1 .2a1.9 1.9 0 0 0-.6.7l-.4 1v1zm14.4 3v-12.1h2.7V538h-2.4l-.3-2.2zm-6.3-2.8v-.2c0-.8 0-1.5.3-2a3.7 3.7 0 0 1 2-2.7 3.6 3.6 0 0 1 3.2 0c.4.2.8.5 1 1 .4.5.7 1 .8 1.6l.5 2v.5l-.5 1.9a6 6 0 0 1-.7 1.6c-.3.4-.7.8-1.1 1a3.6 3.6 0 0 1-3.3 0 3 3 0 0 1-1.2-1c-.3-.5-.6-1-.7-1.7l-.3-2zm2.7-.2v1.4l.4 1a1.8 1.8 0 0 0 .6.6l.9.2a2 2 0 0 0 1.1-.3 2 2 0 0 0 .7-.9l.3-1.3v-1.2l-.2-1c0-.3-.2-.6-.4-.8l-.6-.5a2 2 0 0 0-1-.2 1.6 1.6 0 0 0-.8.2l-.6.7a3.5 3.5 0 0 0-.3 1l-.1 1.1zm13 5.3c-.7 0-1.4-.1-2-.4s-1.2-.6-1.6-1a5.2 5.2 0 0 1-1.3-3.4v-.4c0-.8 0-1.5.3-2.1s.5-1.2.9-1.7a4 4 0 0 1 1.5-1c.6-.3 1.2-.4 2-.4.7 0 1.3 0 1.8.3a3.7 3.7 0 0 1 1.4 1c.4.5.7 1 .9 1.6.2.6.3 1.3.3 2v1.1h-8V532h5.3v-.2c0-.4 0-.7-.2-1-.1-.3-.3-.5-.6-.7s-.6-.2-1-.2c-.3 0-.6 0-.9.2l-.6.6-.4 1a6.3 6.3 0 0 0 0 1.3v.3a3.5 3.5 0 0 0 0 1.1l.6 1 .8.5 1 .2c.5 0 1-.1 1.3-.3a3 3 0 0 0 1.1-.8l1.3 1.4a4.6 4.6 0 0 1-2.2 1.6l-1.7.2z" class="C"/>
  <mask id="A" class="B">
    <path d="M120.5 556h167v48h-167v-48z"/>
  </mask>
  <path d="M120.5 556h167v48h-167v-48z" class="B"/>
  <path d="M120.5 556v-2h-2v2h2zm0 48h-2v2h2v-2zm0-46h167v-4h-167v4zm167 44h-167v4h167v-4zm-165 2v-48h-4v48h4z" class="C" mask="url(#A)"/>
  <path d="M287.5 556h117v48h-117z" class="F"/>
  <path d="M302.9 573.6V585h-2.4v-11.4h2.4zm4.5 4.9v1.8h-5.2v-1.8h5.2zm.5-4.9v1.9h-5.7v-1.9h5.7zm3.6 3v8.4h-2.3v-8.5h2.3zm-2.4-2.3a1 1 0 0 1 .3-.8c.3-.2.6-.3 1-.3s.7.1.9.3.3.5.3.8a1 1 0 0 1-.3.9c-.2.2-.6.3-1 .3s-.6-.1-.9-.3-.3-.5-.3-.9zm6.4 4v6.7h-2.2v-8.5h2l.2 1.9zm-.3 2.2h-.6c0-.6 0-1.2.2-1.7l.7-1.3a3 3 0 0 1 1-.8 3.1 3.1 0 0 1 1.4-.3c.4 0 .8 0 1.1.2l.8.5c.3.3.5.6.6 1l.2 1.5v5.4h-2.3v-5.4l-.1-.9-.5-.4-.7-.1-.8.1-.6.5-.3.8-.1.9zm12 2.7V573h2.3v12h-2l-.2-1.8zm-5.3-2.3v-.2c0-.6 0-1.2.2-1.7l.7-1.4a3 3 0 0 1 1-.9 3 3 0 0 1 2.7 0c.4.2.7.5 1 .9a4.8 4.8 0 0 1 .6 1.3l.4 1.7v.4a9 9 0 0 1-.4 1.6 4.9 4.9 0 0 1-.6 1.4l-1 .8c-.4.2-.8.4-1.3.4s-1-.2-1.4-.4-.8-.5-1-.9c-.3-.3-.5-.8-.7-1.3a6.3 6.3 0 0 1-.2-1.7zm2.3-.2v1.2a2.8 2.8 0 0 0 .3.8 1.5 1.5 0 0 0 .5.5l.8.2c.4 0 .7-.1 1-.3s.4-.4.5-.7l.2-1v-1a3.7 3.7 0 0 0-.1-1 2 2 0 0 0-.3-.6 1.4 1.4 0 0 0-.6-.5l-.7-.1c-.3 0-.6 0-.8.2a1.5 1.5 0 0 0-.5.5l-.3.8a5.4 5.4 0 0 0 0 1zm15.6 2.4v-3.8c0-.2 0-.5-.2-.7a1 1 0 0 0-.4-.4l-.7-.2a1.5 1.5 0 0 0-.6.1 1 1 0 0 0-.5.4 1 1 0 0 0-.1.6H335a2.2 2.2 0 0 1 .3-1l.7-1 1.1-.5 1.5-.2c.7 0 1.3.1 1.8.3s.9.6 1.2 1c.3.4.4 1 .4 1.6v3.7l.1 1.1c0 .3.2.5.3.8v.1H340l-.3-.9v-1zm.3-3.2v1.2h-1.3l-.8.1a1.4 1.4 0 0 0-.5.3l-.3.4-.1.6.1.5a1 1 0 0 0 .4.4 1.3 1.3 0 0 0 .6 0l.9-.1c.3-.1.4-.3.6-.5l.2-.6.6 1-.4.6-.5.7-.8.5c-.3.2-.7.2-1 .2-.6 0-1.1-.2-1.6-.4-.4-.2-.7-.5-1-.9a2.4 2.4 0 0 1-.4-1.3l.3-1.2c.2-.4.4-.6.7-.8.4-.3.8-.4 1.3-.6s1-.1 1.7-.1h1.3zm8.6 3.3V573h2.3v12h-2l-.3-1.8zm-5.3-2.3v-.2c0-.6 0-1.2.2-1.7l.6-1.4a3 3 0 0 1 1-.9 3 3 0 0 1 2.8 0c.4.2.7.5 1 .9l.6 1.3a9.4 9.4 0 0 1 .3 1.7v.4a9 9 0 0 1-.3 1.6 5 5 0 0 1-.7 1.4 2 2 0 0 1-1 .8 3.2 3.2 0 0 1-2.6 0 3 3 0 0 1-1-.9c-.3-.3-.6-.8-.7-1.3a6.3 6.3 0 0 1-.2-1.7zm2.2-.2v.2l.1 1a2.8 2.8 0 0 0 .3.8l.5.5.7.2c.4 0 .7-.1 1-.3l.6-.7.2-1v-1l-.1-1a2 2 0 0 0-.4-.6l-.5-.5-.7-.1c-.2 0-.6 0-.8.2l-.5.5-.3.8v1zm12.1 2.5V573h2.3v12h-2l-.3-1.8zm-5.3-2.3v-.2c0-.6 0-1.2.2-1.7l.6-1.4a2.9 2.9 0 0 1 2.5-1.2 2.5 2.5 0 0 1 2.3 1.2l.6 1.3.3 1.7v.4c0 .6-.2 1.1-.3 1.6s-.4 1-.7 1.4l-1 .8c-.3.2-.7.4-1.2.4a3 3 0 0 1-1.5-.4 3 3 0 0 1-1-.9c-.3-.3-.5-.8-.6-1.3a6.3 6.3 0 0 1-.2-1.7zm2.2-.2v1.2a2.8 2.8 0 0 0 .4.8c0 .2.3.4.5.5l.7.2c.4 0 .7-.1 1-.3s.4-.4.5-.7l.3-1v-1c0-.4 0-.7-.2-1a2 2 0 0 0-.3-.6 1.4 1.4 0 0 0-.5-.5l-.8-.1c-.3 0-.5 0-.7.2l-.5.5-.3.8v1zm9.3-2.3v6.6h-2.2v-8.5h2.1l.1 1.9zm2.6-2v2.2h-1.7l-.6.4-.3.6-.1.7-.5-.1c0-.6 0-1 .2-1.5 0-.5.2-.9.5-1.2a1.9 1.9 0 0 1 1.8-1 2.4 2.4 0 0 1 .4 0 1.4 1.4 0 0 1 .3 0zm4.8 8.8c-.7 0-1.3-.1-1.8-.4a3.9 3.9 0 0 1-2.5-3.7v-.3a4.8 4.8 0 0 1 1-3.1 4 4 0 0 1 3-1.2c.6-.1 1.1 0 1.6.2s.9.5 1.2.8.5.8.7 1.3l.2 1.7v1H368V580h4.5v-.2c0-.3 0-.6-.2-.8a1.3 1.3 0 0 0-.5-.6c-.2-.2-.5-.3-.8-.3l-.8.2-.5.6a3 3 0 0 0-.3.8v1.4a3 3 0 0 0 0 .9l.5.7a1.9 1.9 0 0 0 .6.5l.9.2c.4 0 .8 0 1.1-.2.4-.2.7-.4 1-.8l1 1.2c-.1.3-.4.5-.7.8s-.7.4-1 .5l-1.5.3zm9.2-2.5v-.5c0-.2-.4-.2-.6-.3l-1.1-.3a8.5 8.5 0 0 1-1.2-.4 4.2 4.2 0 0 1-1-.5 2.3 2.3 0 0 1-.6-.7 2 2 0 0 1-.2-1 2.3 2.3 0 0 1 .2-1l.7-.8a2 2 0 0 1 1-.6l1.5-.2c.7 0 1.3.1 1.9.3s.9.6 1.2 1c.3.4.4.9.4 1.4h-2.2a1.2 1.2 0 0 0-.2-.6 1 1 0 0 0-.4-.4l-.7-.2c-.3 0-.5 0-.7.2l-.4.3-.1.5a.8.8 0 0 0 0 .3l.3.3.5.3.7.1 1.7.5c.5.2.8.5 1.1.8s.4.8.4 1.4c0 .4 0 .7-.2 1l-.7.8c-.3.3-.7.4-1.2.6s-.9.2-1.4.2c-.8 0-1.5-.2-2-.5s-1-.6-1.3-1-.4-1-.4-1.4h2.2c0 .3 0 .6.2.8l.6.4h1.5l.4-.4a.8.8 0 0 0 .1-.4zm8.2 0a.7.7 0 0 0-.1-.5l-.5-.3a5 5 0 0 0-1.1-.3 8.4 8.4 0 0 1-1.2-.4 4.1 4.1 0 0 1-1-.5 2.3 2.3 0 0 1-.6-.7l-.2-1c0-.4 0-.7.2-1l.7-.8a3.1 3.1 0 0 1 1-.6l1.5-.2c.7 0 1.3.1 1.9.3s.9.6 1.2 1a2.4 2.4 0 0 1 .4 1.4h-2.3a1.2 1.2 0 0 0 0-.6 1 1 0 0 0-.5-.4l-.7-.2c-.3 0-.5 0-.7.2l-.4.3-.2.5.1.3a.9.9 0 0 0 .3.3l.5.3.7.1 1.7.5c.5.2.8.5 1.1.8s.4.8.4 1.4a2.1 2.1 0 0 1-.2 1l-.7.8-1.2.6c-.5.2-.9.2-1.4.2-.8 0-1.5-.2-2-.5s-1-.6-1.3-1c-.2-.5-.4-1-.4-1.4h2.2c0 .3 0 .6.2.8l.6.4h1.4l.5-.4a.8.8 0 0 0 .1-.4z" class="B"/>
  <g class="F">
    <path d="M130.6 640.5v1.5h-7.1v-1.5h7.1zm-6.7-12V642H122v-13.5h1.8zm5.8 5.8v1.5h-6.2v-1.5h6.2zm.9-5.8v1.5h-7.1v-1.5h7zm3.7 5.6v7.9h-1.7v-10h1.6l.1 2.1zm-.4 2.5h-.7c0-.7.1-1.3.3-2a4.7 4.7 0 0 1 .8-1.5 3.7 3.7 0 0 1 1.3-1c.5-.2 1-.3 1.7-.3.5 0 1 0 1.3.2a2.4 2.4 0 0 1 1 .6l.7 1.1.2 1.7v6.6h-1.7v-6.6c0-.5-.1-1-.3-1.3-.1-.3-.3-.5-.6-.7s-.7-.2-1.1-.2a2.5 2.5 0 0 0-1.2.3 2.8 2.8 0 0 0-.9.7 3.7 3.7 0 0 0-.6 1.1 4 4 0 0 0-.2 1.3zm13.4-4.6v1.3H142V632h5.4zm-3.6-2.5h1.7v10c0 .4 0 .6.2.8l.4.3.5.1a2.8 2.8 0 0 0 .5 0l.3-.1v1.4a4.2 4.2 0 0 1-.5.1h-.8a2.7 2.7 0 0 1-1.1-.2c-.4-.1-.7-.4-.9-.8-.2-.4-.3-1-.3-1.6v-10zm9.8 12.7a5 5 0 0 1-2-.4 4.3 4.3 0 0 1-1.4-1c-.4-.4-.7-1-.9-1.5s-.3-1.3-.3-2v-.4c0-.8.1-1.5.3-2.1l1-1.7c.4-.5 1-.8 1.4-1s1.1-.3 1.7-.3c.7 0 1.3.1 1.8.3.5.3 1 .6 1.3 1l.8 1.6a7.4 7.4 0 0 1 .2 2v.8h-7.5V636h5.8v-.2l-.3-1.3-.7-1c-.3-.3-.8-.4-1.4-.4a2.3 2.3 0 0 0-1.1.2l-.9.8c-.3.4-.4.7-.5 1.1l-.2 1.6v.4c0 .5 0 1 .2 1.4.1.4.3.8.6 1 .2.4.6.6 1 .8.3.2.7.3 1.2.3.6 0 1.1-.1 1.5-.4l1.1-1 1 .8c-.1.4-.4.7-.8 1l-1.2.7c-.5.2-1 .3-1.7.3zm7.6-8.7v8.5h-1.7v-10h1.7v1.5zm3.2-1.6v1.6a2.5 2.5 0 0 0-.5 0 4.4 4.4 0 0 0-.4 0l-1 .1a2.2 2.2 0 0 0-.8.5l-.5.8a3.9 3.9 0 0 0-.2 1l-.5.3c0-.6 0-1.2.2-1.7 0-.5.3-1 .5-1.4l1-1a2.7 2.7 0 0 1 2.2-.2zm10.5 0v1.4h-5.5V632h5.5zm-3.6-2.4h1.7v10l.1.8c.1.2.3.3.4.3a1.7 1.7 0 0 0 .6.1 2.8 2.8 0 0 0 .4 0l.4-.1v1.4a4.2 4.2 0 0 1-.5.1h-.8c-.4 0-.8 0-1.2-.2s-.6-.4-.8-.8c-.2-.4-.3-1-.3-1.6v-10zm7.3-1.8V642h-1.7v-14.3h1.7zm-.4 8.9h-.7c0-.7 0-1.3.3-2a4.7 4.7 0 0 1 .8-1.5 3.7 3.7 0 0 1 1.3-1c.5-.2 1-.3 1.6-.3.5 0 1 0 1.4.2.4.1.7.3 1 .6.3.3.5.7.6 1.1.2.5.3 1 .3 1.7v6.6h-1.8v-6.6c0-.5 0-1-.2-1.3a1.4 1.4 0 0 0-.7-.7l-1-.2a2.5 2.5 0 0 0-1.2.3 2.8 2.8 0 0 0-1 .7l-.5 1.1a4 4 0 0 0-.2 1.3zm13.3 5.6a4.3 4.3 0 0 1-4.3-2.9c-.2-.6-.3-1.3-.3-2v-.4c0-.8.1-1.5.3-2.1l1-1.7c.4-.5 1-.8 1.4-1a4 4 0 0 1 1.7-.3c.7 0 1.3.1 1.8.3.6.3 1 .6 1.3 1 .4.5.6 1 .8 1.6a7.4 7.4 0 0 1 .2 2v.8h-7.5V636h5.8v-.2l-.3-1.3a2.3 2.3 0 0 0-.7-1c-.4-.3-.8-.4-1.4-.4a2.3 2.3 0 0 0-1.1.2 2.3 2.3 0 0 0-.8.8c-.3.3-.5.7-.6 1.1l-.2 1.6v.4c0 .5 0 1 .2 1.4a3.4 3.4 0 0 0 .6 1c.3.4.6.6 1 .8.3.2.7.3 1.2.3.6 0 1.1-.1 1.5-.4l1.1-1 1 .8c-.1.4-.4.7-.8 1l-1.2.7c-.5.2-1 .3-1.7.3zm16.5-2v-5c0-.5 0-.8-.2-1.1l-.7-.7c-.3-.2-.7-.2-1.2-.2-.4 0-.8 0-1.1.2l-.8.6c-.2.2-.2.5-.2.7h-1.8c0-.3.1-.7.3-1l.8-1a4 4 0 0 1 1.3-.7 5 5 0 0 1 1.6-.2 6 6 0 0 1 2 .3c.5.3 1 .7 1.3 1.2.3.5.5 1 .5 1.8v4.7a7.3 7.3 0 0 0 0 1l.3 1v.2h-1.8a3.3 3.3 0 0 1-.2-.8 6.4 6.4 0 0 1 0-1zm.3-4.3v1.2h-1.7l-1.3.1a3 3 0 0 0-1 .4 1 1 0 0 0-.5.6c-.2.2-.3.5-.3.8 0 .3.1.6.3.8l.6.7 1 .2c.6 0 1-.1 1.5-.4l1-.8c.2-.3.3-.6.3-1l.7 1-.3.8-.8.9-1.1.7c-.4.2-1 .3-1.5.3-.7 0-1.3-.1-1.8-.4a3 3 0 0 1-1.2-1 2.8 2.8 0 0 1-.4-1.6c0-.5.1-1 .3-1.4a2.7 2.7 0 0 1 1-1c.3-.3.8-.5 1.4-.7s1.2-.2 1.8-.2h2zm10.5 4.2v-12.4h1.7V642h-1.6l-.1-2zm-6.8-3v-.2c0-.8.1-1.5.3-2 .2-.7.5-1.3.8-1.7s.8-.8 1.3-1a3 3 0 0 1 1.6-.4c.6 0 1.2 0 1.7.3.4.2.8.5 1.2 1 .3.4.6.9.7 1.5a9.4 9.4 0 0 1 .4 2v.8c0 .8-.2 1.4-.4 2-.1.6-.4 1-.7 1.5l-1.2 1a4 4 0 0 1-3.3-.1c-.5-.2-1-.6-1.3-1s-.6-1-.8-1.7a7 7 0 0 1-.3-2zm1.8-.2v.2a6.4 6.4 0 0 0 .1 1.4l.5 1.2c.2.4.5.6.8.8l1.2.2c.6 0 1 0 1.4-.3.4-.3.7-.6.9-1l.5-1.3V636c0-.4-.2-.7-.3-1a3 3 0 0 0-.5-.9 2.3 2.3 0 0 0-.9-.6l-1-.2c-.5 0-1 .1-1.3.3l-.8.8-.5 1.2a6.4 6.4 0 0 0-.1 1.4zm15.7 3.2v-12.4h1.7V642h-1.5l-.2-2zm-6.7-3v-.2c0-.8 0-1.5.2-2a5 5 0 0 1 .8-1.7 3 3 0 0 1 1.3-1 3 3 0 0 1 1.6-.4c.7 0 1.2 0 1.7.3a3.2 3.2 0 0 1 1.2 1c.3.4.6.9.8 1.5l.4 2v.8l-.4 2c-.2.6-.5 1-.8 1.5a3.3 3.3 0 0 1-1.2 1 4 4 0 0 1-3.3-.1 3.8 3.8 0 0 1-1.3-1c-.3-.5-.6-1-.8-1.7a7.1 7.1 0 0 1-.2-2zm1.7-.2v.2a6.4 6.4 0 0 0 .1 1.4l.5 1.2c.2.4.5.6.8.8l1.2.2c.6 0 1 0 1.4-.3l1-1a5.5 5.5 0 0 0 .4-1.3V636a5 5 0 0 0-.3-1 3 3 0 0 0-.5-.9 2.3 2.3 0 0 0-.8-.6l-1.1-.2c-.5 0-1 .1-1.3.3l-.8.8a3.7 3.7 0 0 0-.5 1.2 6.4 6.4 0 0 0-.1 1.4zm11.1-3.4v8.5h-1.7v-10h1.7v1.5zm3.2-1.6v1.6h-.5a4.5 4.5 0 0 0-.4 0l-1 .1a2.2 2.2 0 0 0-.8.5 2.5 2.5 0 0 0-.5.8 3.8 3.8 0 0 0-.2 1l-.5.3a7.9 7.9 0 0 1 .2-1.7c0-.5.3-1 .5-1.4l1-1c.4-.2.9-.3 1.4-.3a2.3 2.3 0 0 1 .4 0l.4.1zm5.5 10.3a4.3 4.3 0 0 1-4.3-2.9c-.2-.6-.3-1.3-.3-2v-.4c0-.8.1-1.5.4-2.1.2-.7.5-1.2 1-1.7s.8-.8 1.4-1a4 4 0 0 1 1.6-.3c.7 0 1.3.1 1.9.3.5.3 1 .6 1.2 1 .4.5.6 1 .8 1.6a7.4 7.4 0 0 1 .2 2v.8h-7.5V636h5.8v-.2l-.3-1.3c-.1-.4-.4-.7-.7-1s-.8-.4-1.4-.4a2.3 2.3 0 0 0-2 1l-.5 1.1c-.2.4-.2 1-.2 1.6v.4l.2 1.4a3.4 3.4 0 0 0 .6 1c.3.4.6.6 1 .8.3.2.7.3 1.2.3.6 0 1.1-.1 1.6-.4s.7-.6 1-1l1.1.8-.8 1c-.3.3-.8.5-1.3.7a4 4 0 0 1-1.7.3zm11.8-2.9c0-.2 0-.4-.2-.6 0-.3-.3-.5-.6-.6l-1.5-.5a11.8 11.8 0 0 1-1.5-.4 4.6 4.6 0 0 1-1.2-.6l-.7-.8a2 2 0 0 1-.3-1c0-.5.1-.9.3-1.2l.8-1 1.1-.6c.4-.2 1-.2 1.6-.2.8 0 1.5.1 2 .4s1 .7 1.3 1.1c.3.5.5 1 .5 1.6h-1.7c0-.3-.1-.5-.3-.8-.1-.3-.4-.5-.7-.7l-1.1-.2c-.5 0-.9 0-1.2.2-.3.2-.5.3-.6.6a1.4 1.4 0 0 0-.1 1.2 1.1 1.1 0 0 0 .3.4l.7.3 1.2.3c.8.2 1.5.4 2 .7s1 .6 1.2 1 .4.8.4 1.3a2.6 2.6 0 0 1-1 2.2l-1.3.6a5.5 5.5 0 0 1-1.6.2c-.9 0-1.6-.2-2.2-.5s-1.1-.7-1.4-1.2-.5-1-.5-1.6h1.7c0 .5.2.8.4 1.1.3.3.6.5 1 .6l1 .2c.5 0 .9 0 1.2-.2l.7-.5c.1-.2.3-.5.3-.8zm9.8 0c0-.2 0-.4-.2-.6 0-.3-.3-.5-.6-.6l-1.5-.5-1.5-.4-1.2-.6a2.5 2.5 0 0 1-.7-.8c-.2-.3-.2-.7-.2-1a2.5 2.5 0 0 1 .2-1.2 3 3 0 0 1 .8-1l1.2-.6c.5-.2 1-.2 1.5-.2a4 4 0 0 1 2 .4l1.4 1.1c.3.5.4 1 .4 1.6h-1.7c0-.3 0-.5-.3-.8-.1-.3-.4-.5-.7-.7s-.7-.2-1.1-.2c-.5 0-.9 0-1.2.2-.3.2-.5.3-.6.6a1.4 1.4 0 0 0-.1 1.2l.3.4.7.3 1.2.3c.8.2 1.5.4 2 .7s1 .6 1.2 1 .4.8.4 1.3c0 .4 0 .8-.3 1.2a2.7 2.7 0 0 1-.8 1l-1.2.6-1.6.2c-.9 0-1.6-.2-2.2-.5s-1-.7-1.4-1.2-.5-1-.5-1.6h1.7c0 .5.2.8.5 1.1.2.3.5.5.9.6l1 .2c.5 0 .9 0 1.2-.2.3-.1.6-.3.7-.5l.3-.8zm10.4-5.3v8h-1.7v-10h1.6v2zm-.4 2.6h-.8c0-.7.1-1.3.3-2 .2-.5.4-1 .8-1.5a3.4 3.4 0 0 1 1.2-1 4 4 0 0 1 1.8-.3c.5 0 1 0 1.3.2a2.6 2.6 0 0 1 1 .6 2.9 2.9 0 0 1 .7 1.1c.2.4.3 1 .3 1.6v6.7h-1.8v-6.6c0-.5 0-1-.2-1.3l-.8-.7c-.3-.2-.7-.2-1.1-.2-.5 0-1 .1-1.3.3a2.1 2.1 0 0 0-.8.7l-.4 1.1-.2 1.3zm6.5-1-1.1.4a5 5 0 0 1 .3-1.6 4.3 4.3 0 0 1 .7-1.3 3.6 3.6 0 0 1 1.3-1 4 4 0 0 1 1.7-.3c.5 0 1 0 1.4.2.4.1.8.4 1 .6.4.3.6.7.7 1.2l.2 1.6v6.6h-1.7v-6.6c0-.6 0-1-.3-1.3-.1-.3-.4-.6-.7-.7a3 3 0 0 0-1.1-.2 2.5 2.5 0 0 0-1 .2 2 2 0 0 0-.8.6l-.4.7a2.9 2.9 0 0 0-.2 1zm14.8 4.7V635c0-.4-.1-.7-.3-1-.1-.3-.4-.5-.7-.7s-.7-.2-1.2-.2c-.4 0-.8 0-1.1.2a2 2 0 0 0-.8.6l-.2.7H291c0-.3 0-.7.2-1l.8-1a4 4 0 0 1 1.3-.7 5 5 0 0 1 1.6-.2c.8 0 1.4.1 2 .3s1 .7 1.3 1.2c.3.5.5 1 .5 1.8v4.7a7.3 7.3 0 0 0 0 1l.3 1v.2h-1.8a3.3 3.3 0 0 1-.2-.8 6.4 6.4 0 0 1 0-1zm.3-4.4v1.2h-1.8l-1.3.1-1 .4c-.2.2-.4.3-.5.6-.2.2-.2.5-.2.8 0 .3 0 .6.2.8a1.6 1.6 0 0 0 .6.7l1 .2c.6 0 1-.1 1.5-.4l1-.8c.2-.3.3-.6.3-1l.8 1-.4.8-.8.9-1.1.7c-.4.2-1 .3-1.5.3a4 4 0 0 1-1.8-.4 3 3 0 0 1-1.1-1 2.8 2.8 0 0 1-.5-1.6c0-.5.1-1 .4-1.4a2.7 2.7 0 0 1 .9-1l1.4-.7c.6-.2 1.2-.2 1.9-.2h2zm5.8-1.8v7.9h-1.7v-10h1.6v2.1zm-.4 2.5h-.7c0-.7 0-1.3.3-2a4.7 4.7 0 0 1 .8-1.5 3.7 3.7 0 0 1 1.3-1c.5-.2 1-.3 1.6-.3.5 0 1 0 1.4.2.4.1.7.3 1 .6.3.3.5.7.6 1.1.2.5.3 1 .3 1.7v6.6h-1.8v-6.6c0-.5 0-1-.2-1.3a1.4 1.4 0 0 0-.7-.7l-1-.2a2.5 2.5 0 0 0-1.2.3 2.8 2.8 0 0 0-1 .7l-.5 1.1a4 4 0 0 0-.2 1.3zm15.3 3V632h1.7v10h-1.6v-2.3zm.3-2h.8l-.3 1.8a4 4 0 0 1-.6 1.5 3.1 3.1 0 0 1-1.2 1c-.5.2-1.2.3-1.9.3a4 4 0 0 1-1.3-.2 2.7 2.7 0 0 1-1.7-1.8c-.2-.5-.3-1.1-.3-1.8V632h1.8v6.5l.1 1 .4.8a1.6 1.6 0 0 0 .6.3l.7.1c.7 0 1.3-.1 1.7-.4a2.4 2.4 0 0 0 1-1.1l.2-1.6zm10 2.7V635c0-.4-.1-.7-.3-1-.1-.3-.4-.5-.7-.7s-.7-.2-1.1-.2c-.5 0-.9 0-1.2.2a2 2 0 0 0-.7.6 1 1 0 0 0-.3.7h-1.7c0-.3 0-.7.3-1l.8-1a4 4 0 0 1 1.2-.7 5 5 0 0 1 1.7-.2c.7 0 1.3.1 1.9.3a2.9 2.9 0 0 1 1.3 1.2c.3.5.5 1 .5 1.8v4.7a7.4 7.4 0 0 0 0 1 4.2 4.2 0 0 0 .3 1v.2h-1.7a3.2 3.2 0 0 1-.2-.8 6.3 6.3 0 0 1-.1-1zm.3-4.4v1.2H327l-1.3.1c-.4.1-.8.2-1 .4l-.6.6-.2.8c0 .3 0 .6.2.8a1.6 1.6 0 0 0 .6.7l1.1.2c.5 0 1-.1 1.4-.4l1-.8c.2-.3.3-.6.3-1l.8 1-.4.8-.7.9-1.2.7a3.8 3.8 0 0 1-3.3-.1 2.8 2.8 0 0 1-1.6-2.6c0-.5.2-1 .4-1.4a2.7 2.7 0 0 1 .9-1l1.4-.7c.5-.2 1.2-.2 1.9-.2h2zm6-8.2V642h-1.8v-14.3h1.8zm4.6 0V642h-1.7v-14.3h1.7zm5.6 13.3 2.7-9h1.9l-4 11.5a6.3 6.3 0 0 1-.4.8l-.6.9a2.7 2.7 0 0 1-.8.6l-1.2.3a3.1 3.1 0 0 1-.5-.1h-.5v-1.5h.5l1-.1.6-.5.5-1 .8-2zm-2.1-9 2.6 7.8.5 1.8-1.3.6L341 632h1.9z"/>
    <path d="M120.5 643.9h229.2v.9H120.5v-1z"/>
  </g>
  <path fill="#000" d="M139.3 694.9v8.4a8.5 8.5 0 0 1-4.2 2.5 15 15 0 0 1-4 .5c-1.4 0-2.6-.2-3.7-.7a8.1 8.1 0 0 1-4.8-5.2 12 12 0 0 1-.7-4.4v-1.3c0-1.7.2-3.1.6-4.4.5-1.3 1-2.4 1.9-3.2s1.7-1.6 2.8-2 2.3-.7 3.6-.7c1.9 0 3.4.3 4.6.9a6 6 0 0 1 2.7 2.5 8 8 0 0 1 1.2 3.6H135c0-.7-.3-1.4-.6-1.9a3.2 3.2 0 0 0-1.3-1.3c-.5-.3-1.3-.4-2.2-.4-.7 0-1.3.1-2 .4a3.9 3.9 0 0 0-1.4 1.4c-.3.5-.6 1.2-.8 2s-.4 2-.4 3v1.4c0 1.1.2 2.1.4 3 .2.8.5 1.5 1 2.1.3.6.9 1 1.5 1.3s1.4.5 2.2.5a7 7 0 0 0 1.7-.2l1.1-.4.7-.5V698h-4v-3.1h8.4zm12.7 7.3v-12h4.2V706h-4l-.2-3.8zm.4-3.2h1.3c0 1-.1 2-.4 2.9a7 7 0 0 1-1 2.3 5.1 5.1 0 0 1-4.6 2c-.7 0-1.4 0-2-.2-.7-.3-1.3-.6-1.8-1a5 5 0 0 1-1-1.9c-.3-.8-.4-1.7-.4-2.7v-10.2h4.2v10.2c0 .5 0 .9.2 1.2 0 .3.2.6.4.8l.8.4.9.2a3 3 0 0 0 2-.6c.5-.3 1-.8 1.1-1.4.2-.6.3-1.3.3-2zm15.6 3.4v-7c0-.5-.1-1-.3-1.3a1.9 1.9 0 0 0-.8-.9c-.3-.2-.8-.3-1.3-.3s-.9 0-1.2.2a2 2 0 0 0-1.1 1.7h-4.2c0-.6.2-1.2.5-1.9s.7-1 1.3-1.5a5 5 0 0 1 2.2-1.1 9.2 9.2 0 0 1 6 .2 5 5 0 0 1 2.3 1.8c.5.8.8 1.9.8 3v6.9c0 .8 0 1.6.2 2.1 0 .6.2 1 .4 1.5v.2h-4.2l-.5-1.6a13.4 13.4 0 0 1-.1-2zm.5-6v2.3h-2.3l-1.5.2a2 2 0 0 0-1 .6 2 2 0 0 0-.6.8l-.1 1c0 .4 0 .6.2 1l.7.6c.3.2.7.2 1.1.2.7 0 1.2 0 1.7-.3s.8-.6 1-1c.3-.3.5-.7.5-1l1 1.8a7.2 7.2 0 0 1-1.6 2.4l-1.4 1c-.6.2-1.3.3-2 .3a6 6 0 0 1-2.8-.6 5 5 0 0 1-2-1.7 5 5 0 0 1-.2-4.7c.3-.6.8-1.2 1.4-1.6a7 7 0 0 1 2.3-1c.9-.2 2-.4 3.2-.4h2.4zm11.2-2.8V706h-4.2v-15.8h4l.2 3.4zm4.8-3.6-.1 4-.8-.1h-.7c-.6 0-1.2 0-1.6.2-.4.1-.8.3-1 .6-.4.3-.6.7-.7 1.1-.2.4-.2.9-.3 1.4l-.8-.2c0-1 .1-2 .3-2.9.2-.8.5-1.6.9-2.2.4-.7.9-1.2 1.5-1.5s1.2-.5 2-.5a4.5 4.5 0 0 1 .7 0l.6.1zm10 12.4v-7c0-.5 0-1-.2-1.3a1.9 1.9 0 0 0-.8-.9c-.4-.2-.8-.3-1.4-.3-.4 0-.8 0-1.2.2l-.8.7-.2 1h-4.3c0-.6.2-1.2.5-1.9s.8-1 1.4-1.5c.6-.5 1.3-.9 2.1-1.1a9.2 9.2 0 0 1 6 .2 5 5 0 0 1 2.3 1.8c.6.8.9 1.9.9 3.1v6.8l.1 2.1.5 1.5v.2H195l-.5-1.6a13.4 13.4 0 0 1-.1-2zm.6-6v2.3h-2.4l-1.4.2a2.4 2.4 0 0 0-1.6 1.4l-.2 1c0 .4 0 .6.3 1l.7.6c.3.2.7.2 1 .2.7 0 1.3 0 1.7-.3s.9-.6 1.1-1c.3-.3.4-.7.4-1l1.1 1.8a7.2 7.2 0 0 1-1.6 2.4c-.4.4-1 .7-1.5 1-.6.2-1.3.3-2 .3-1 0-2-.2-2.8-.6a5 5 0 0 1-2-1.7c-.4-.7-.6-1.5-.6-2.5 0-.8.1-1.5.4-2.2s.8-1.2 1.4-1.6a7 7 0 0 1 2.3-1c1-.2 2-.4 3.2-.4h2.5zm11-2.9V706H202v-15.8h4l.2 3.3zm-.6 4h-1.1a8.4 8.4 0 0 1 1.7-5.6 5.5 5.5 0 0 1 4.5-2 6.1 6.1 0 0 1 2 .3 3.9 3.9 0 0 1 1.6 1c.5.5.8 1 1 1.9.3.7.4 1.7.4 2.8V706h-4.2v-10.1c0-.7-.1-1.3-.3-1.7s-.5-.6-.9-.8l-1.4-.2a3 3 0 0 0-1.4.3 3 3 0 0 0-1 1 4.4 4.4 0 0 0-.7 1.3l-.2 1.7zm21-7.3v3h-9.1v-3h9.2zm-6.9-4h4.3v15l.1 1a1 1 0 0 0 .6.6l1 .1h1.2v3a8 8 0 0 1-1.2.3 8.6 8.6 0 0 1-1.4 0 6 6 0 0 1-2.4-.4c-.7-.3-1.2-.8-1.6-1.5s-.6-1.5-.6-2.7v-15.4zm8.3 12v-.3c0-1.1.2-2.2.5-3.2a7 7 0 0 1 1.5-2.5 6.5 6.5 0 0 1 2.3-1.7c1-.4 2-.6 3.2-.6s2.3.2 3.2.6a7 7 0 0 1 2.4 1.7 7.3 7.3 0 0 1 1.4 2.5c.4 1 .5 2 .5 3.2v.3a10 10 0 0 1-.5 3.2 6.5 6.5 0 0 1-3.8 4.2 8.3 8.3 0 0 1-6.4.1 6.6 6.6 0 0 1-2.3-1.7 7.6 7.6 0 0 1-1.5-2.6c-.3-1-.5-2-.5-3.2zm4.2-.3v.3a9.3 9.3 0 0 0 .2 1.9c.1.6.3 1 .6 1.5.2.5.6.8 1 1s1 .4 1.5.4c.6 0 1.1-.1 1.6-.4s.7-.5 1-1l.5-1.5a8.6 8.6 0 0 0 .2-1.9v-.3c0-.6 0-1.2-.2-1.8l-.5-1.5a2.8 2.8 0 0 0-1-1c-.5-.3-1-.4-1.6-.4s-1 0-1.5.3a3 3 0 0 0-1 1 5 5 0 0 0-.6 1.6 9 9 0 0 0-.2 1.8zm17.7-4.3V706h-4.3v-15.8h4l.3 3.4zm4.7-3.6v4l-.8-.1h-.8c-.6 0-1 0-1.5.2-.4.1-.8.3-1.1.6a2.9 2.9 0 0 0-.6 1.1c-.2.4-.3.9-.3 1.4l-.8-.2c0-1 0-2 .3-2.9.2-.8.5-1.6.9-2.2a4 4 0 0 1 1.4-1.5 4 4 0 0 1 2.7-.5l.6.1z"/>
  <path d="M126.7 756h-3.4v-2.5h3.4c.8 0 1.6-.2 2.1-.6.6-.4 1-1 1.3-1.7a7 7 0 0 0 .5-2.6v-.8c0-.8 0-1.5-.3-2.1-.1-.6-.4-1.1-.7-1.6a3.1 3.1 0 0 0-1.2-.9 4 4 0 0 0-1.7-.3h-3.5v-2.5h3.5c1 0 2 .1 2.9.5a6.5 6.5 0 0 1 3.7 3.9c.4.9.6 1.9.6 3v.8c0 1-.2 2-.6 3-.3 1-.8 1.7-1.4 2.4a6.5 6.5 0 0 1-2.3 1.5c-.9.3-1.8.5-2.9.5zm-1.6-15.6V756H122v-15.6h3.2zm10.4 10v-.3a7 7 0 0 1 1.4-4.3 4.8 4.8 0 0 1 1.8-1.2c.6-.3 1.4-.4 2.3-.4s1.7.1 2.4.4c.6.3 1.2.7 1.7 1.2.5.6.8 1.2 1 2 .3.6.4 1.4.4 2.3v.2c0 .9 0 1.6-.3 2.4a5.5 5.5 0 0 1-1.1 1.8c-.5.6-1 1-1.7 1.3s-1.5.4-2.4.4-1.6-.1-2.3-.4a4.9 4.9 0 0 1-2.8-3.1c-.3-.8-.4-1.5-.4-2.4zm3.1-.3v.2a6.8 6.8 0 0 0 .1 1.4l.4 1c.2.4.5.6.8.8s.7.3 1.1.3c.5 0 .8 0 1.1-.3a2 2 0 0 0 .8-.7l.4-1.1a6.3 6.3 0 0 0 .1-1.4v-.2a6 6 0 0 0-.1-1.4l-.4-1a2 2 0 0 0-.8-.8c-.3-.2-.7-.3-1-.3s-.9 0-1.2.3c-.3.1-.6.4-.8.7l-.4 1.1a6.6 6.6 0 0 0 0 1.4zm15.2 6.1c-1 0-1.7-.1-2.4-.4a5.3 5.3 0 0 1-3.4-5.2v-.4c0-1 .1-1.7.4-2.5a5.7 5.7 0 0 1 1-1.9 4.7 4.7 0 0 1 1.8-1.2 5 5 0 0 1 2.2-.4c.9 0 1.6.1 2.2.4s1.2.6 1.6 1.1a5 5 0 0 1 1 1.8c.2.7.3 1.5.3 2.4v1.2h-9.2v-2h6.2v-.3c0-.4 0-.8-.2-1.1a1.8 1.8 0 0 0-.7-.8c-.3-.2-.7-.3-1.2-.3-.4 0-.8 0-1 .2l-.8.8a4 4 0 0 0-.4 1.1l-.1 1.5v.4c0 .5 0 .9.2 1.3.1.4.3.7.6 1 .2.3.5.5.9.7l1.2.2a3.8 3.8 0 0 0 1.5-.3c.5-.2 1-.6 1.3-1l1.5 1.6-1 1a5.3 5.3 0 0 1-3.5 1.1zm12.8-3.4c0-.2 0-.4-.2-.6l-.7-.5a7 7 0 0 0-1.5-.4l-1.7-.5-1.3-.7a3.1 3.1 0 0 1-.8-1c-.2-.4-.3-.9-.3-1.4 0-.4 0-.9.3-1.3a3.5 3.5 0 0 1 .9-1.2c.4-.3.9-.6 1.4-.7.6-.2 1.3-.3 2-.3 1 0 1.9.1 2.6.4.7.4 1.3.8 1.7 1.4.4.5.6 1.2.6 1.9h-3.1c0-.3 0-.6-.2-.8-.1-.3-.3-.4-.6-.6a2 2 0 0 0-1-.2 2 2 0 0 0-.9.2l-.6.5-.2.6a1 1 0 0 0 .1.5l.4.4c.2.2.4.2.7.3l1 .2 2.3.7c.6.3 1.1.7 1.5 1.1.4.5.6 1.1.6 1.9 0 .5-.1 1-.3 1.4s-.6.8-1 1.1a5 5 0 0 1-1.6.8 7.2 7.2 0 0 1-4.7-.4 4 4 0 0 1-1.7-1.4c-.4-.6-.6-1.3-.6-1.9h3c0 .4 0 .8.3 1 .2.3.4.5.7.6l1 .2c.5 0 .8 0 1-.2l.7-.4a1 1 0 0 0 .2-.7zm16.2-8.4v2.2H176v-2.2h6.8zm-5.1-2.9h3v11l.2.8c.1.2.2.3.4.3l.7.1h.9v2.2a6 6 0 0 1-.8.2 6.4 6.4 0 0 1-1 .1c-.7 0-1.3-.1-1.8-.3-.5-.2-1-.6-1.2-1.1s-.4-1.2-.4-2v-11.3zm9.9-2V756h-3.1v-16.5h3zm-.5 10.3h-.8a7.9 7.9 0 0 1 .3-2.3c.2-.6.5-1.2.9-1.7a4.1 4.1 0 0 1 1.4-1.2c.5-.3 1.1-.4 1.8-.4.6 0 1 0 1.5.2s1 .4 1.3.8c.3.3.6.8.7 1.4s.3 1.2.3 2v7.4h-3v-7.4c0-.5-.2-.9-.3-1.2-.2-.3-.4-.5-.7-.6l-1-.2c-.4 0-.8 0-1.1.2a2 2 0 0 0-.7.7c-.2.3-.4.6-.4 1l-.2 1.3zm13-5.4V756h-3v-11.6h3zm-3.3-3a1.5 1.5 0 0 1 .5-1.2c.3-.3.8-.4 1.3-.4s1 .1 1.2.4c.4.3.5.7.5 1.1s-.1.9-.5 1.2c-.3.3-.7.4-1.2.4s-1-.1-1.3-.4a1.5 1.5 0 0 1-.5-1.2zm12.2 11.4a1 1 0 0 0-.2-.6c-.1-.2-.4-.4-.7-.5a7 7 0 0 0-1.5-.4l-1.7-.5-1.3-.7-.8-1c-.2-.4-.3-.9-.3-1.4 0-.4 0-.9.3-1.3a3.5 3.5 0 0 1 .9-1.2c.4-.3.9-.6 1.4-.7.6-.2 1.3-.3 2-.3 1 0 1.9.1 2.6.4.7.4 1.3.8 1.7 1.4.4.5.6 1.2.6 1.9h-3.1l-.2-.8c-.1-.3-.3-.4-.6-.6a2 2 0 0 0-1-.2 2 2 0 0 0-1 .2l-.5.5-.2.6a1 1 0 0 0 .1.5l.4.4c.2.2.4.2.7.3l1 .2c.8.2 1.6.4 2.2.7a5 5 0 0 1 1.6 1.1c.4.5.6 1.1.6 1.9 0 .5-.1 1-.4 1.4a3.4 3.4 0 0 1-1 1.1 5 5 0 0 1-1.5.8 7.2 7.2 0 0 1-4.7-.4c-.8-.4-1.4-.8-1.7-1.4-.4-.6-.6-1.3-.6-1.9h3c0 .4 0 .8.2 1a1.8 1.8 0 0 0 .8.6l1 .2c.5 0 .8 0 1-.2l.7-.4a1 1 0 0 0 .2-.7zm16.2-8.4v2.2h-6.8v-2.2h6.8zm-5.1-2.9h3v11l.2.8c.1.2.2.3.4.3l.7.1h.9v2.2a6 6 0 0 1-.8.2 6.4 6.4 0 0 1-1 .1c-.7 0-1.3-.1-1.9-.3-.5-.2-.8-.6-1.1-1.1s-.4-1.2-.4-2v-11.3zm12.2 14.7c-1 0-1.7-.1-2.4-.4a5.3 5.3 0 0 1-3.4-5.2v-.4c0-1 .1-1.7.4-2.5a5.7 5.7 0 0 1 1-1.9 4.7 4.7 0 0 1 1.8-1.2 5 5 0 0 1 2.2-.4c.9 0 1.6.1 2.2.4a4.3 4.3 0 0 1 1.6 1.1 5 5 0 0 1 1 1.8c.2.7.4 1.5.4 2.4v1.2h-9.3v-2h6.2v-.3c0-.4 0-.8-.2-1.1a1.8 1.8 0 0 0-.7-.8c-.3-.2-.7-.3-1.2-.3-.4 0-.8 0-1 .2l-.8.8a4 4 0 0 0-.4 1.1l-.1 1.5v.4c0 .5 0 .9.2 1.3.1.4.3.7.6 1 .2.3.5.5.9.7l1.2.2a3.8 3.8 0 0 0 1.5-.3c.5-.2 1-.6 1.3-1l1.5 1.6c-.2.4-.6.7-1 1a5.3 5.3 0 0 1-3.5 1.1zm9.5-9.3v9.1h-3v-11.6h2.8l.2 2.5zm-.4 2.9h-.8c0-.9 0-1.7.3-2.3a4 4 0 0 1 1-1.8 4 4 0 0 1 1.4-1.1c.5-.3 1.1-.4 1.8-.4.6 0 1 0 1.5.2a2.9 2.9 0 0 1 1.2.7c.3.4.6.8.7 1.4.2.6.3 1.3.3 2v7.5h-3.1v-7.4c0-.5 0-1-.2-1.2a1.2 1.2 0 0 0-.7-.6l-1-.2c-.4 0-.8 0-1 .2-.4.2-.6.4-.8.7a3.3 3.3 0 0 0-.5 1 5 5 0 0 0-.1 1.3zm16 3.6v-5.2c0-.4 0-.7-.2-1 0-.2-.3-.4-.5-.6l-1-.2a2 2 0 0 0-.9.2 1.3 1.3 0 0 0-.6.5l-.2.7h-3c0-.5 0-1 .3-1.4a3.5 3.5 0 0 1 1-1.1 5 5 0 0 1 1.5-.8 6.7 6.7 0 0 1 4.5.1 3.8 3.8 0 0 1 2.2 3.6v5c0 .6 0 1.2.2 1.6 0 .4.1.7.3 1v.2h-3.1l-.4-1.2v-1.4zm.4-4.5v1.8h-1.7l-1 .1-.8.4a1.5 1.5 0 0 0-.4.6 2 2 0 0 0-.1.7 1.4 1.4 0 0 0 .1.7c.2.2.3.4.6.5l.8.2c.4 0 .8 0 1.2-.3l.8-.7c.2-.2.3-.5.3-.7l.8 1.3-.5.9a4.3 4.3 0 0 1-.7.9l-1.1.7a4 4 0 0 1-1.5.2c-.7 0-1.4-.1-2-.4-.6-.3-1-.7-1.4-1.3a3.2 3.2 0 0 1-.5-1.8c0-.6 0-1.1.3-1.6s.6-.9 1-1.2c.5-.3 1-.6 1.7-.7a8 8 0 0 1 2.3-.3h1.8zm8.1-2v9.1h-3v-11.6h2.9l.1 2.5zm-.4 2.9h-.8c0-.9 0-1.7.3-2.3a4 4 0 0 1 1-1.8 4 4 0 0 1 1.4-1.1 4.3 4.3 0 0 1 1.8-.4c.6 0 1 0 1.5.2a2.9 2.9 0 0 1 1.2.8c.3.3.6.7.7 1.3.2.6.3 1.3.3 2v7.5h-3.1v-7.4c0-.5 0-1-.2-1.2a1.2 1.2 0 0 0-.7-.6l-1-.2c-.4 0-.8 0-1 .2-.4.2-.6.4-.8.7l-.5 1a5 5 0 0 0-.1 1.3zm15.4-5.4v2.2h-6.7v-2.2h6.7zm-5-2.9h3v11c0 .3 0 .6.2.8 0 .2.2.3.4.3l.7.1h.9v2.2a6 6 0 0 1-.9.2 6.4 6.4 0 0 1-1 .1c-.7 0-1.3-.1-1.8-.3-.5-.2-.9-.6-1.1-1.1s-.4-1.2-.4-2v-11.3zm15.3-2V756h-3v-16.5h3zm-.4 10.3h-.9c0-.8.1-1.6.3-2.3.2-.6.5-1.2 1-1.7a4.1 4.1 0 0 1 1.3-1.2 4.6 4.6 0 0 1 3.4-.2c.4.2.9.4 1.2.8.3.3.6.8.8 1.4s.3 1.2.3 2v7.4H295v-7.4c0-.5-.1-.9-.3-1.2a1.2 1.2 0 0 0-.6-.6l-1-.2c-.5 0-.8 0-1.2.2a2 2 0 0 0-.7.7l-.4 1a5 5 0 0 0-.1 1.3zm16 3.6v-5.2c0-.4 0-.7-.2-1l-.6-.6-1-.2a2 2 0 0 0-.8.2 1.3 1.3 0 0 0-.6.5l-.2.7h-3.1a3 3 0 0 1 .3-1.4 3.5 3.5 0 0 1 1-1.1 5 5 0 0 1 1.6-.8 6.7 6.7 0 0 1 4.4.1 4 4 0 0 1 1.7 1.4c.4.6.6 1.3.6 2.2v5l.1 1.6.4 1v.2h-3.2l-.3-1.2-.1-1.4zm.4-4.5v1.8h-1.7a3.6 3.6 0 0 0-1 .1 2 2 0 0 0-.8.4 1.5 1.5 0 0 0-.4.6 2 2 0 0 0-.2.7 1.4 1.4 0 0 0 .2.7 1.3 1.3 0 0 0 .5.5l.8.2c.5 0 1 0 1.3-.3l.8-.7.3-.7.8 1.3-.5.9a4.3 4.3 0 0 1-.7.9l-1.1.7a4 4 0 0 1-1.5.2c-.8 0-1.4-.1-2-.4-.6-.3-1.1-.7-1.5-1.3a3.2 3.2 0 0 1-.5-1.8c0-.6.1-1.1.4-1.6s.5-.9 1-1.2c.4-.3 1-.6 1.7-.7.6-.2 1.4-.3 2.3-.3h1.8zm8.9 4.8 2.5-9.3h3.3l-4 11.6H316v-2.3zm-1.8-9.3 2.6 9.4v2.2h-2l-3.8-11.6h3.2zm14.2 11.8c-1 0-1.7-.1-2.5-.4a5.3 5.3 0 0 1-3.3-5.2v-.4c0-1 .1-1.7.4-2.5s.6-1.3 1-1.9a4.7 4.7 0 0 1 1.7-1.2c.7-.3 1.5-.4 2.3-.4a5 5 0 0 1 3.8 1.5 5 5 0 0 1 1 1.8c.2.7.3 1.5.3 2.4v1.2H324v-2h6.2v-.3c0-.4 0-.8-.2-1.1l-.7-.8c-.3-.2-.7-.3-1.2-.3-.4 0-.8 0-1 .2l-.8.8a4 4 0 0 0-.4 1.1l-.1 1.5v.4c0 .5 0 .9.2 1.3l.5 1a2.6 2.6 0 0 0 1 .7l1.2.2a3.8 3.8 0 0 0 1.5-.3c.5-.2 1-.6 1.3-1l1.5 1.6-1 1a5.3 5.3 0 0 1-3.5 1.1zm18.3-2.8v-5.2l-.2-1-.6-.6-1-.2a2 2 0 0 0-.9.2 1.3 1.3 0 0 0-.5.5 1 1 0 0 0-.3.7h-3a3 3 0 0 1 .3-1.4 3.5 3.5 0 0 1 1-1.1 5 5 0 0 1 1.6-.8 6.7 6.7 0 0 1 4.4.1 4 4 0 0 1 1.7 1.4c.4.6.6 1.3.6 2.2v6.6l.4 1v.2h-3.1c-.1-.3-.3-.7-.3-1.2l-.1-1.4zm.4-4.5v1.8h-1.7l-1.1.1-.8.4a1.5 1.5 0 0 0-.4.6 2 2 0 0 0-.1.7 1.4 1.4 0 0 0 .2.7c0 .2.3.4.5.5l.8.2c.5 0 .9 0 1.2-.3l.8-.7c.2-.2.3-.5.3-.7l.8 1.3c0 .3-.2.6-.4.9a4.3 4.3 0 0 1-.8.9l-1 .7a4 4 0 0 1-1.6.2c-.7 0-1.4-.1-2-.4-.6-.3-1-.7-1.4-1.3a3.2 3.2 0 0 1-.5-1.8c0-.6.1-1.1.3-1.6s.6-.9 1-1.2a8.8 8.8 0 0 1 4.1-1h1.8zm17.9-4.5h2.8v11.2c0 1-.2 2-.7 2.7-.5.8-1.1 1.3-2 1.7a6.9 6.9 0 0 1-4.4.4 6.2 6.2 0 0 1-1.6-.6 4 4 0 0 1-1.2-1l1.4-1.9a3.5 3.5 0 0 0 2.8 1.3c.5 0 1 0 1.4-.3.4-.2.7-.5.9-.9.2-.3.3-.8.3-1.4v-8.5l.3-2.7zm-7.8 6v-.3c0-.9 0-1.7.3-2.4.2-.7.5-1.4 1-1.9a4.3 4.3 0 0 1 1.4-1.2c.6-.3 1.2-.4 2-.4a4 4 0 0 1 2 .4 3.5 3.5 0 0 1 1.2 1.2l.8 1.9.4 2.3v.5c0 .8-.2 1.6-.4 2.3a7 7 0 0 1-.9 1.8 3.4 3.4 0 0 1-3.1 1.6c-.7 0-1.4-.1-2-.4-.6-.3-1-.7-1.5-1.3s-.7-1.1-1-1.8l-.2-2.4zm3-.3v.2l.2 1.4c.1.4.2.8.4 1 .2.4.5.6.8.8.3.2.6.3 1 .3.6 0 1-.1 1.4-.4.4-.2.6-.6.8-1s.3-.9.3-1.4v-1.4l-.1-1.3-.5-.9c-.2-.3-.4-.5-.7-.6l-1.1-.2a2 2 0 0 0-1.1.3 2.3 2.3 0 0 0-.7.7l-.5 1.1a5.9 5.9 0 0 0-.1 1.4zm16.9 3.1v-8.8h3V756h-2.8l-.2-2.8zm.3-2.4h1c0 .8-.2 1.5-.3 2.2l-.8 1.7a3.8 3.8 0 0 1-1.4 1.1 4 4 0 0 1-2 .4c-.5 0-1 0-1.5-.2s-.9-.4-1.2-.8l-.8-1.3a6 6 0 0 1-.3-2v-7.5h3.1v7.5l.1.9.4.6a1.3 1.3 0 0 0 .5.3h.7c.6 0 1.1 0 1.5-.3a2 2 0 0 0 .8-1l.2-1.6zm11.4 2.6v-5.2a2.3 2.3 0 0 0-.2-1l-.5-.6-1-.2a2 2 0 0 0-1 .2c-.2 0-.4.3-.5.5l-.2.7h-3a3 3 0 0 1 .2-1.4 3.5 3.5 0 0 1 1-1.1 5 5 0 0 1 1.6-.8 6.7 6.7 0 0 1 4.5.1 3.8 3.8 0 0 1 2.2 3.6v5l.1 1.6a4.1 4.1 0 0 0 .4 1v.2h-3.1l-.4-1.2a9.7 9.7 0 0 1-.1-1.4zm.4-4.5v1.8h-1.7a3.6 3.6 0 0 0-1 .1 2 2 0 0 0-.8.4 1.5 1.5 0 0 0-.4.6 2 2 0 0 0-.2.7 1.4 1.4 0 0 0 .2.7c.1.2.3.4.6.5l.8.2c.4 0 .8 0 1.2-.3l.8-.7c.2-.2.3-.5.3-.7l.8 1.3a5.3 5.3 0 0 1-1.2 1.8l-1.1.7a4 4 0 0 1-1.5.2c-.8 0-1.4-.1-2-.4a3 3 0 0 1-1.4-1.3c-.4-.5-.6-1-.6-1.8 0-.6.2-1.1.4-1.6s.5-.9 1-1.2c.4-.3 1-.6 1.7-.7a8 8 0 0 1 2.3-.3h1.8zm8.2-2v9.1h-3.1v-11.6h3l.1 2.5zm3.5-2.6v2.9h-.6l-.6-.1c-.4 0-.8 0-1.1.2a2 2 0 0 0-.8.4 2.1 2.1 0 0 0-.5.8l-.1 1-.7-.1c0-.8.1-1.5.3-2 .1-.7.3-1.3.6-1.8l1-1a3 3 0 0 1 2-.4l.5.1zm7.4 9v-5.1a2.3 2.3 0 0 0-.2-1l-.6-.6-1-.2a2 2 0 0 0-.9.2 1.3 1.3 0 0 0-.5.5c-.2.2-.2.4-.2.7h-3.1a3 3 0 0 1 .3-1.4 3.5 3.5 0 0 1 1-1.1 5 5 0 0 1 1.6-.8 6.7 6.7 0 0 1 4.4.1 4 4 0 0 1 1.7 1.4c.4.6.6 1.3.6 2.2v5l.1 1.6a4.1 4.1 0 0 0 .3 1v.2h-3l-.4-1.2a9.7 9.7 0 0 1-.1-1.4zm.4-4.4v1.8h-1.7a3.6 3.6 0 0 0-1 .1 2 2 0 0 0-.8.4 1.5 1.5 0 0 0-.5.6 2 2 0 0 0 0 .7 1.4 1.4 0 0 0 0 .7 1.3 1.3 0 0 0 .6.5l.8.2c.5 0 .9 0 1.2-.3a2.2 2.2 0 0 0 .8-.7c.2-.2.3-.5.3-.7l.8 1.3a5.3 5.3 0 0 1-1.2 1.8l-1 .7a4 4 0 0 1-1.6.2c-.7 0-1.4-.1-2-.4-.6-.3-1-.7-1.4-1.3a3.2 3.2 0 0 1-.5-1.8c0-.6.1-1.1.3-1.6s.6-.9 1-1.2a8.8 8.8 0 0 1 4.1-1h1.8zm8.1-2v9.1h-3v-11.6h2.8l.2 2.5zm-.5 2.9h-.8c0-.9.1-1.7.3-2.3.3-.7.6-1.3 1-1.8a4 4 0 0 1 1.4-1.1 4 4 0 0 1 1.9-.4c.5 0 1 0 1.5.2a2.9 2.9 0 0 1 1.1.8c.4.3.6.7.8 1.3.2.6.2 1.3.2 2v7.5h-3v-7.4c0-.5-.1-1-.3-1.2s-.3-.5-.6-.6l-1-.2c-.4 0-.8 0-1.1.2l-.8.7a3.3 3.3 0 0 0-.4 1 5 5 0 0 0-.2 1.3zm15.5-5.4v2.2H425v-2.2h6.8zm-5.1-2.9h3.1v11l.1.8a.8.8 0 0 0 .4.3l.7.1h.9v2.2a6 6 0 0 1-.8.2l-1 .1c-.7 0-1.3-.1-1.8-.3-.5-.2-1-.6-1.2-1.1s-.4-1.2-.4-2v-11.3zm6 8.8v-.2c0-.9.2-1.7.4-2.4.3-.7.6-1.3 1.1-1.9s1-.9 1.7-1.2a6 6 0 0 1 2.4-.4 5.6 5.6 0 0 1 4.1 1.6 7.3 7.3 0 0 1 1.4 4.2v.3c0 .9-.1 1.6-.4 2.4a5.5 5.5 0 0 1-1 1.8c-.5.6-1 1-1.8 1.3s-1.4.4-2.3.4-1.7-.1-2.4-.4c-.6-.3-1.2-.7-1.7-1.3a5.6 5.6 0 0 1-1-1.8c-.3-.8-.4-1.5-.4-2.4zm3.2-.2v.2l.1 1.4a3.7 3.7 0 0 0 .4 1c.2.4.5.7.8.8s.6.3 1 .3c.5 0 .9 0 1.2-.3a2 2 0 0 0 .7-.7c.2-.3.4-.7.4-1.1l.2-1.4v-.2a6 6 0 0 0-.2-1.4c0-.4-.2-.7-.4-1a2 2 0 0 0-.7-.8c-.3-.2-.7-.3-1.1-.3s-.8 0-1.1.3c-.3.1-.6.4-.8.7a3.7 3.7 0 0 0-.4 1.1l-.1 1.4zm12.9-3.2v9.1h-3.1v-11.6h3v2.5zm3.5-2.6v2.9h-.6l-.6-.1c-.4 0-.8 0-1.1.2a2 2 0 0 0-.8.4l-.5.8-.2 1-.6-.1c0-.8 0-1.5.2-2l.7-1.8a3.3 3.3 0 0 1 1-1c.5-.3 1-.4 1.5-.4a3.3 3.3 0 0 1 .5 0l.5.1zm6.7 7h-2.7l.1-1.7.5-1.3a6 6 0 0 1 1-1.2l.9-.8.6-.8.2-1c0-.4 0-.8-.2-1-.1-.3-.3-.5-.6-.7l-.9-.2c-.3 0-.6 0-.8.2-.3.1-.5.3-.7.6-.2.3-.2.6-.3 1h-3c0-1 .2-1.7.6-2.4.4-.6 1-1 1.8-1.4a6.7 6.7 0 0 1 5 0c.7.4 1.3.8 1.6 1.5.4.6.6 1.4.6 2.2a3 3 0 0 1-.4 1.7c-.2.5-.5 1-1 1.4l-1.2 1.2a3 3 0 0 0-.8 1.2c-.2.4-.3.9-.3 1.4zm-3 3.2c0-.4.1-.8.4-1.1.4-.3.8-.5 1.3-.5s1 .2 1.3.5c.3.3.4.7.4 1.1a1.5 1.5 0 0 1-.4 1.2c-.4.3-.8.4-1.3.4s-1-.1-1.3-.4-.4-.7-.4-1.2z" class="C"/>
  <path d="M139.5 825a18 18 0 1 0 0-36 18 18 0 0 0 0 36z" class="B"/>
  <path d="M139.5 826a19 19 0 1 0 0-38 19 19 0 0 0 0 38z" class="D E"/>
  <path d="m176.7 799.5 3.5 6.8 3.5-6.8h2l-4.6 8.5v5h-1.8v-5l-4.7-8.5h2zm14 13.7a4.3 4.3 0 0 1-4.3-2.9l-.2-2v-.4c0-.8 0-1.5.3-2.1l1-1.7c.4-.5.9-.8 1.4-1a4 4 0 0 1 1.6-.3 5 5 0 0 1 1.9.3c.5.3 1 .6 1.3 1 .3.5.6 1 .7 1.6a7.4 7.4 0 0 1 .3 2v.8h-7.5V807h5.8v-.2l-.3-1.3a2.3 2.3 0 0 0-.8-1c-.3-.3-.8-.4-1.4-.4a2.3 2.3 0 0 0-1 .2 2.3 2.3 0 0 0-.9.8l-.5 1.1a7 7 0 0 0-.2 1.6v.4c0 .5 0 1 .2 1.4a3.4 3.4 0 0 0 .6 1c.2.4.5.6.9.8.4.2.8.3 1.3.3.6 0 1-.1 1.5-.4s.8-.6 1.1-1l1 .8c-.2.4-.4.7-.8 1l-1.2.7c-.5.2-1 .3-1.7.3zm11.8-2.9-.1-.6c-.1-.3-.4-.5-.7-.6-.3-.2-.8-.4-1.5-.5a11.8 11.8 0 0 1-1.5-.4l-1.1-.6a2.5 2.5 0 0 1-.8-.8l-.2-1c0-.5 0-.9.3-1.2.1-.4.4-.7.7-1a3.7 3.7 0 0 1 1.2-.6l1.5-.2a4 4 0 0 1 2 .4l1.4 1.1c.3.5.4 1 .4 1.6h-1.7c0-.3 0-.5-.2-.8l-.7-.7-1.2-.2c-.5 0-.8 0-1.1.2l-.7.6a1.4 1.4 0 0 0 0 1.2 1.1 1.1 0 0 0 .3.4l.7.3 1.1.3c.9.2 1.5.4 2 .7s1 .6 1.3 1 .3.8.3 1.3a2.6 2.6 0 0 1-.2 1.2l-.8 1-1.2.6a5.5 5.5 0 0 1-1.6.2c-1 0-1.7-.2-2.3-.5s-1-.7-1.4-1.2-.4-1-.4-1.6h1.7c0 .5.1.8.4 1.1.2.3.5.5.9.6l1 .2c.5 0 1 0 1.2-.2.4-.1.6-.3.8-.5s.2-.5.2-.8z" class="C"/>
  <path d="M139.5 887a18 18 0 1 0 0-36 18 18 0 0 0 0 36z" class="B"/>
  <path d="M139.5 888a19 19 0 1 0 0-38 19 19 0 0 0 0 38z" class="D E"/>
  <path d="M186.5 861.5V875h-1.8l-6.8-10.4V875H176v-13.5h1.8l6.8 10.4v-10.4h1.8zm2.4 8.6v-.2c0-.7.1-1.4.3-2 .2-.7.5-1.2 1-1.7a4 4 0 0 1 1.4-1c.5-.3 1.2-.4 1.9-.4s1.3.1 1.9.4a4 4 0 0 1 1.4 1l1 1.7c.1.6.3 1.3.3 2v.2c0 .7-.2 1.4-.4 2a4.8 4.8 0 0 1-.9 1.6 4.2 4.2 0 0 1-3.3 1.5c-.7 0-1.3-.1-2-.4a4.3 4.3 0 0 1-1.4-1c-.4-.5-.7-1-.9-1.7s-.3-1.3-.3-2zm1.7-.2v.2a5.5 5.5 0 0 0 .2 1.4l.5 1.2 1 .8c.3.2.7.3 1.2.3s.9-.1 1.2-.3l1-.8.4-1.2c.2-.4.2-1 .2-1.4v-.2c0-.5 0-1-.2-1.4a3.6 3.6 0 0 0-.5-1.2 2.5 2.5 0 0 0-.9-.8c-.3-.2-.8-.3-1.2-.3a2.5 2.5 0 0 0-1.3.3 2.7 2.7 0 0 0-.9.8l-.5 1.2-.2 1.4z" class="C"/>
  <path stroke="#d32205" d="M53.5 111h30m-30 368h30m-30 216h30m-29-584v584" class="D"/>
  <circle cx="35.5" cy="35.5" r="14.5" class="B"/>
  <g clip-path="url(#B)">
    <path fill="#d32205" d="M36 16a20 20 0 1 0 0 40 20 20 0 0 0 0-40zm10 27.2L43.2 46 36 38.8 28.8 46 26 43.2l7.2-7.2-7.2-7.2 2.8-2.8 7.2 7.2 7.2-7.2 2.8 2.8-7.2 7.2 7.2 7.2z"/>
  </g>
  <defs>
    <clipPath id="B">
      <path d="M0 0h48v48H0z" class="B" transform="translate(12 12)"/>
    </clipPath>
  </defs>
</svg>
