<svg xmlns="http://www.w3.org/2000/svg" fill="none" viewBox="0 0 830 477">
  <g fill="#fff">
    <path d="M0 0h830v477H0z"/>
    <path d="M42.5 48h745v392h-745z"/>
  </g>
  <path fill="#727272" d="M69.8 75h2c0 1-.4 1.9-.8 2.7s-1.1 1.4-2 1.8a6 6 0 0 1-3.1.7 6 6 0 0 1-2.5-.5 5.6 5.6 0 0 1-2-1.5c-.5-.6-.9-1.4-1.2-2.3-.3-.8-.4-1.8-.4-3v-1.5c0-1 .1-2 .4-3 .3-.9.7-1.6 1.3-2.3.5-.6 1.2-1.1 2-1.4S65 64 66 64c1.2 0 2.2.3 3 .7a4.8 4.8 0 0 1 1.9 1.9c.4.7.7 1.6.8 2.7h-2c-.1-.8-.3-1.4-.6-2a3.7 3.7 0 0 0-3.2-1.6 3.7 3.7 0 0 0-3.2 1.5L62 69c-.2.7-.2 1.5-.2 2.3V73c0 .7 0 1.4.2 2.1l.7 1.8a3.6 3.6 0 0 0 3 1.6c1 0 1.7-.1 2.2-.4a2.7 2.7 0 0 0 1.2-1.2l.6-1.9zm6.5-11.5V80h-2V63.5h2zM76 73.7h-1c0-.8.2-1.5.4-2.2a4 4 0 0 1 1-1.8l1.4-1.1c.6-.3 1.3-.4 2-.4.5 0 1 0 1.5.2.5.1.9.4 1.2.7.3.4.6.8.7 1.3.2.6.3 1.2.3 2V80h-2v-7.6c0-.6-.1-1.1-.3-1.5a1.6 1.6 0 0 0-.8-.8c-.3-.2-.7-.3-1.2-.3a3 3 0 0 0-1.4.3c-.4.3-.7.5-1 1a4.3 4.3 0 0 0-1 2.6zm15.4 6.5a5 5 0 0 1-2.2-.4 5 5 0 0 1-1.7-1.2c-.5-.5-.8-1-1-1.7s-.5-1.5-.5-2.3v-.5c0-.9.2-1.7.5-2.5.2-.7.6-1.4 1.1-1.9s1-.9 1.6-1.1a4.7 4.7 0 0 1 2-.4 5 5 0 0 1 2 .4 4 4 0 0 1 1.6 1.2 8 8 0 0 1 1.1 4.1v.8h-8.7v-1.6h6.7V73l-.3-1.5c-.2-.5-.5-1-.9-1.2s-.9-.5-1.6-.5a2.7 2.7 0 0 0-2.2 1.1c-.3.4-.5.9-.6 1.4l-.3 1.8v.5a5.3 5.3 0 0 0 .3 1.6 4 4 0 0 0 .6 1.2 3.2 3.2 0 0 0 2.6 1.2c.7 0 1.3-.1 1.8-.4s.9-.7 1.3-1.2l1.2 1a5.6 5.6 0 0 1-1 1c-.4.4-.9.7-1.4.9a6 6 0 0 1-2 .3zm11.5-1.6c.5 0 .9-.1 1.3-.3a2.7 2.7 0 0 0 1-.8c.2-.3.4-.7.4-1.2h2a5 5 0 0 1-.8 2 4.8 4.8 0 0 1-4 2 5 5 0 0 1-2.2-.5c-.7-.4-1.2-.8-1.6-1.3a7 7 0 0 1-1-1.9c-.2-.7-.3-1.4-.3-2.2V74c0-.8.1-1.6.3-2.2.2-.8.6-1.4 1-2 .4-.4 1-.9 1.6-1.2.6-.3 1.4-.4 2.3-.4.9 0 1.7.1 2.4.5.6.4 1.2.9 1.6 1.5.4.7.6 1.4.6 2.2h-1.9c0-.5-.2-1-.4-1.3a2.5 2.5 0 0 0-2.3-1.3 3 3 0 0 0-1.6.4 2.7 2.7 0 0 0-1 1c-.2.3-.3.8-.4 1.3l-.2 1.5v.4a7.5 7.5 0 0 0 .2 1.5 4.3 4.3 0 0 0 .5 1.4c.2.4.5.7 1 1 .3.2.9.3 1.5.3zm8.8-15.1V80h-2V63.5h2zm7.1 4.9-5 5.4-2.9 3-.1-2.2 2-2.4 3.6-3.8h2.4zM117 80l-4.1-5.5 1-1.8 5.5 7.3H117zm11.5-11.6V80h-2V68.4h2zm-2.1-3.1c0-.3 0-.6.3-.8.2-.2.4-.4.8-.4s.7.2.9.4c.2.2.3.5.3.8 0 .3 0 .6-.3.8-.2.2-.5.3-.9.3s-.6-.1-.8-.3c-.2-.2-.3-.5-.3-.8zm8.3 14.7h-2V67.2c0-.9.1-1.6.4-2.2.3-.5.8-1 1.4-1.3a4 4 0 0 1 2-.4 5.5 5.5 0 0 1 .7 0 5.3 5.3 0 0 1 .7.1l-.1 1.7a3.3 3.3 0 0 0-.6-.1h-.5c-.4 0-.8 0-1.1.2-.3.2-.5.4-.7.8s-.2.7-.2 1.2V80zm2.4-11.6v1.5h-6.3v-1.5h6.3zm11 10.4 3.2-10.4h2.1l-4.6 13.4-.5 1a4.4 4.4 0 0 1-.6.9 3.2 3.2 0 0 1-2.4 1h-.6l-.5-.2V83h.5l1.2-.1a1.7 1.7 0 0 0 .8-.6l.5-1.1.9-2.3zm-2.4-10.4 3 9 .5 2-1.4.8-4.3-11.8h2.2zm8.8 6V74c0-.9.1-1.6.4-2.4a5.5 5.5 0 0 1 1-1.8 4.7 4.7 0 0 1 1.7-1.3c.7-.3 1.4-.4 2.2-.4a5 5 0 0 1 2.2.4 4.7 4.7 0 0 1 1.7 1.3c.4.5.8 1.1 1 1.8a7.2 7.2 0 0 1 .4 2.4v.2a7.2 7.2 0 0 1-.4 2.3c-.2.8-.6 1.4-1 2a4.9 4.9 0 0 1-3.9 1.6c-.8 0-1.5-.1-2.2-.4a5 5 0 0 1-1.7-1.3c-.4-.5-.8-1.1-1-1.9s-.4-1.4-.4-2.3zm2-.3v.2a6.4 6.4 0 0 0 .2 1.7l.6 1.3a3.1 3.1 0 0 0 1 1l1.5.3c.6 0 1-.1 1.5-.4.4-.2.7-.5 1-.9s.5-.8.6-1.3l.2-1.7v-.2a6 6 0 0 0-.2-1.7c-.1-.5-.3-1-.6-1.3a3 3 0 0 0-1-1l-1.5-.3a3 3 0 0 0-1.4.3 3 3 0 0 0-1 1l-.7 1.3-.2 1.7zm18.2 3.2v-9h2V80h-1.9v-2.7zm.4-2.4h.8c0 .7 0 1.4-.2 2-.2.7-.4 1.3-.8 1.8s-.8.8-1.4 1.1a5 5 0 0 1-2.1.4c-.6 0-1.1 0-1.6-.2a3.1 3.1 0 0 1-2-2.1c-.2-.6-.2-1.3-.2-2v-7.5h2v7.5l.1 1.3.5.8.7.4a2.7 2.7 0 0 0 .8.1c.8 0 1.5-.1 2-.5.5-.3.8-.7 1-1.3a5 5 0 0 0 .4-1.8zm6.6-11.4v1.4c0 .4 0 .9-.2 1.3a5 5 0 0 1-1.6 2.5l-1.2-.7c.4-.5.6-1 .8-1.5a4.8 4.8 0 0 0 .3-1.6v-1.4h2zm4.4 6.7V80h-2V68.4h2v1.8zm3.7-1.9v1.9a3 3 0 0 0-.5-.1 5 5 0 0 0-.5 0 3.2 3.2 0 0 0-1.2.2 2.5 2.5 0 0 0-1 .6 2.9 2.9 0 0 0-.5 1l-.3 1-.5.4c0-.7 0-1.4.2-2 .1-.6.3-1.1.6-1.6s.7-.9 1.1-1.1a3.1 3.1 0 0 1 2.6-.3zm6.4 12c-.8 0-1.5-.2-2.2-.5a5 5 0 0 1-1.7-1.2 5.2 5.2 0 0 1-1-1.7c-.3-.7-.4-1.5-.4-2.3v-.5c0-.9.1-1.7.4-2.5.3-.7.6-1.4 1.1-1.9s1-.9 1.7-1.1a4.7 4.7 0 0 1 1.9-.4 5 5 0 0 1 2.1.4 4 4 0 0 1 1.5 1.2c.4.5.7 1.1.9 1.8l.2 2.3v.8H192v-1.6h6.6V73c0-.5 0-1-.3-1.5a2.7 2.7 0 0 0-.8-1.2c-.4-.3-1-.5-1.6-.5a2.7 2.7 0 0 0-1.3.3 2.6 2.6 0 0 0-1 .8c-.2.4-.5.8-.6 1.4l-.2 1.8v.5c0 .5 0 1 .2 1.6a4 4 0 0 0 .7 1.2 3.2 3.2 0 0 0 1 .9l1.5.3c.7 0 1.3-.2 1.8-.4s1-.7 1.3-1.2l1.2 1a5.5 5.5 0 0 1-1 1c-.4.4-.8.7-1.4.9a6 6 0 0 1-2 .3zm19.2-2.3v-6l-.3-1.2-.8-.8c-.3-.2-.9-.2-1.4-.2-.5 0-1 0-1.3.2-.4.2-.7.4-.9.7l-.3.9h-2l.3-1.2c.2-.4.6-.8 1-1.1.4-.4.9-.6 1.4-.8.6-.2 1.2-.3 2-.3s1.5.1 2.2.4c.6.3 1.1.7 1.5 1.3.4.6.5 1.3.5 2.2v5.4a8.4 8.4 0 0 0 .1 1.2 4.8 4.8 0 0 0 .4 1.1v.2h-2.1l-.3-1v-1zm.3-5v1.3h-2c-.5 0-1 0-1.5.2-.4 0-.8.2-1.1.4a1.9 1.9 0 0 0-.7.7 1.8 1.8 0 0 0-.2.9c0 .4 0 .7.2 1s.4.5.8.7c.3.2.7.3 1.2.3A3.3 3.3 0 0 0 215 77c.3-.3.4-.7.5-1l.8 1-.4 1c-.2.4-.5.6-.9 1l-1.3.8c-.5.2-1 .3-1.7.3a4 4 0 0 1-2-.4c-.7-.4-1.1-.8-1.5-1.3-.3-.5-.4-1-.4-1.7s0-1.2.3-1.7a3.2 3.2 0 0 1 1-1.2l1.7-.7c.7-.2 1.4-.2 2.2-.2h2.3zm4.8-9.5h2v14.2l-.2 2.3h-1.8V63.5zm9.8 10.6v.2a8.8 8.8 0 0 1-.3 2.4c-.2.7-.5 1.3-.9 1.8s-.8 1-1.4 1.3-1.2.4-2 .4c-.6 0-1.3-.1-1.9-.4a3.8 3.8 0 0 1-1.3-1c-.4-.5-.7-1.1-1-1.8a11 11 0 0 1-.4-2.3v-1c0-.9.2-1.6.4-2.3.3-.7.6-1.3 1-1.7.3-.5.8-.9 1.3-1.2a6 6 0 0 1 2-.3 4 4 0 0 1 3.3 1.6c.4.5.7 1.1 1 1.9l.2 2.4zm-2 .2v-.2a8 8 0 0 0-.1-1.6 4.3 4.3 0 0 0-.6-1.4 2.6 2.6 0 0 0-2.3-1.3c-.5 0-1 .1-1.3.3l-1 .7a3.7 3.7 0 0 0-.6 1l-.4 1.1v2.6a5.5 5.5 0 0 0 .6 1.5c.3.4.6.8 1 1 .5.4 1 .5 1.7.5.5 0 1 0 1.4-.3a2.6 2.6 0 0 0 1-1c.2-.3.3-.7.4-1.3a7.4 7.4 0 0 0 .2-1.6zm6.7-10.8V80h-2V63.5h2zm8 16.7c-.8 0-1.5-.1-2.2-.4a5 5 0 0 1-1.7-1.2 5.2 5.2 0 0 1-1-1.7c-.3-.7-.4-1.5-.4-2.3v-.5c0-.9.1-1.7.4-2.5.3-.7.6-1.4 1.1-1.9s1-.9 1.7-1.1a4.7 4.7 0 0 1 1.8-.4 5 5 0 0 1 2.2.4 4 4 0 0 1 1.5 1.2c.4.5.7 1.1.8 1.8.2.7.3 1.4.3 2.3v.8h-8.7v-1.6h6.7V73l-.3-1.5a2.7 2.7 0 0 0-.8-1.2c-.4-.3-1-.5-1.7-.5a2.7 2.7 0 0 0-2.2 1.1c-.3.4-.5.9-.6 1.4l-.2 1.8v.5c0 .5 0 1 .2 1.6a4 4 0 0 0 .7 1.2 3.2 3.2 0 0 0 1 .9l1.5.3c.7 0 1.3-.1 1.8-.4s.9-.7 1.3-1.2l1.2 1a5.5 5.5 0 0 1-1 1c-.4.4-.8.7-1.4.9a6 6 0 0 1-2 .3zm17.2-11.8v1.5h-6.3v-1.5h6.3zm-4.2-2.8h2V77c0 .4 0 .7.2 1s.3.2.5.3l.6.1a3.3 3.3 0 0 0 .5 0l.4-.1V80l-.6.1-1 .1c-.4 0-.9 0-1.3-.3s-.7-.5-1-1a4 4 0 0 1-.3-1.8V65.6zm5.8 8.7v-.2a7.2 7.2 0 0 1 .3-2.4c.3-.7.6-1.3 1-1.8a4.7 4.7 0 0 1 1.7-1.3c.7-.3 1.4-.4 2.2-.4a5 5 0 0 1 2.2.4 4.7 4.7 0 0 1 1.7 1.3 4 4 0 0 1 1 1.8c.3.8.4 1.5.4 2.4v.2c0 .9 0 1.6-.3 2.3l-1 2a4.9 4.9 0 0 1-4 1.6c-.8 0-1.5-.1-2.1-.4a5 5 0 0 1-2.8-3.2 7.2 7.2 0 0 1-.3-2.3zm2-.2v.2a6.4 6.4 0 0 0 .1 1.7c.2.5.4 1 .7 1.3a3.1 3.1 0 0 0 1 1c.4.2.9.3 1.5.3.5 0 1-.1 1.4-.4a3 3 0 0 0 1-.9c.3-.4.5-.8.6-1.3.2-.6.2-1.1.2-1.7v-.2a6 6 0 0 0-.2-1.7 4.2 4.2 0 0 0-.6-1.3 3 3 0 0 0-1-1c-.4-.2-1-.3-1.5-.3a3 3 0 0 0-1.4.3 3 3 0 0 0-1 1l-.7 1.3-.2 1.7zm24-5.7h1.8v11.4c0 1-.2 1.9-.6 2.6s-1 1.2-1.7 1.6a5.5 5.5 0 0 1-4 .4c-.6-.1-1-.3-1.6-.6a4 4 0 0 1-1.3-1.2l1-1.2c.5.6 1 1 1.6 1.2a4 4 0 0 0 1.6.4c.6 0 1.1-.2 1.6-.4a2.5 2.5 0 0 0 1-1c.3-.5.4-1 .4-1.7v-9l.2-2.5zm-8 6V74c0-.9.1-1.7.3-2.4.2-.8.5-1.4 1-2a4.1 4.1 0 0 1 3.3-1.5c.7 0 1.4 0 2 .3.5.3 1 .7 1.3 1.2.4.4.7 1 1 1.7s.3 1.4.4 2.3v1a6 6 0 0 1-.5 2.3 4 4 0 0 1-.9 1.7 3.8 3.8 0 0 1-1.4 1.1 4.6 4.6 0 0 1-3.8 0c-.6-.3-1-.7-1.5-1.3s-.7-1.1-.9-1.8c-.2-.8-.3-1.5-.3-2.4zm2-.3v.2a7.4 7.4 0 0 0 .2 1.7l.5 1.3 1 1 1.4.2a3 3 0 0 0 1.6-.4 3 3 0 0 0 1-1.1l.6-1.5V73a5.3 5.3 0 0 0-.3-1.1 3.5 3.5 0 0 0-.7-1 2.7 2.7 0 0 0-.9-.7 2.8 2.8 0 0 0-2.7.1 2.7 2.7 0 0 0-1 1c-.2.3-.4.7-.5 1.3a7.4 7.4 0 0 0-.2 1.6zm15.7 6.1a5 5 0 0 1-2.2-.4 5 5 0 0 1-1.7-1.2c-.5-.5-.8-1-1.1-1.7s-.4-1.5-.4-2.3v-.5c0-.9.2-1.7.4-2.5.3-.7.7-1.4 1.2-1.9s1-.9 1.6-1.1a4.7 4.7 0 0 1 2-.4 5 5 0 0 1 2 .4 4 4 0 0 1 1.5 1.2c.4.5.7 1.1 1 1.8l.2 2.3v.8h-8.7v-1.6h6.7V73l-.3-1.5a2.7 2.7 0 0 0-.9-1.2c-.4-.3-1-.5-1.6-.5a2.7 2.7 0 0 0-2.2 1.1l-.7 1.4c-.2.5-.2 1.1-.2 1.8v.5l.2 1.6a4 4 0 0 0 .7 1.2 3.2 3.2 0 0 0 1.1.9c.4.2 1 .3 1.5.3.7 0 1.3-.1 1.8-.4s.9-.7 1.2-1.2l1.2 1a5.5 5.5 0 0 1-1 1 3 3 0 0 1-1.3.9c-.6.2-1.3.3-2 .3zM309 68.4v1.5h-6.3v-1.5h6.3zm-4.2-2.8h2V77c0 .4 0 .7.2 1s.3.2.5.3l.6.1a3.3 3.3 0 0 0 .5 0l.4-.1V80a4.7 4.7 0 0 1-.6.1l-1 .1c-.4 0-.8 0-1.3-.3s-.7-.5-1-1a4 4 0 0 1-.3-1.8V65.6zM325.5 76c0-.3 0-.6-.2-1a1.8 1.8 0 0 0-.6-.7l-1-.6-2-.7-2-.7-1.6-1c-.4-.3-.8-.8-1-1.3s-.4-1-.4-1.6a3.8 3.8 0 0 1 .4-1.7c.2-.5.6-1 1-1.3l1.7-1c.7-.2 1.4-.3 2.2-.3 1.2 0 2.2.3 3 .7.8.5 1.5 1 1.9 1.8.4.7.6 1.5.6 2.3h-2c0-.6-.2-1.1-.4-1.6-.3-.4-.6-.8-1.1-1a4 4 0 0 0-2-.5c-.7 0-1.3.2-1.8.4s-.8.5-1 .9a2 2 0 0 0-.4 1.3 2 2 0 0 0 .2.9l.6.7 1.2.7 1.6.5c1 .3 1.7.5 2.3.9l1.6 1c.5.4.8.8 1 1.3.2.5.3 1 .3 1.6a3.8 3.8 0 0 1-.4 1.8A3.8 3.8 0 0 1 326 79c-.5.3-1 .6-1.7.8a8 8 0 0 1-2.3.3 7.8 7.8 0 0 1-2.1-.3c-.7-.2-1.3-.5-2-.9-.5-.4-1-.9-1.3-1.5-.3-.6-.5-1.3-.5-2h2c0 .5.2 1 .4 1.4l.8.9c.4.3.8.4 1.3.6a6 6 0 0 0 1.4.1c.7 0 1.4 0 1.9-.3l1.1-.8c.3-.4.4-.8.4-1.4zm9.2 4.2a5 5 0 0 1-3.9-1.6 5.2 5.2 0 0 1-1-1.7c-.3-.7-.4-1.5-.4-2.3v-.5c0-.9.1-1.7.4-2.5.3-.7.7-1.4 1.2-1.9s1-.9 1.6-1.1 1.2-.4 1.9-.4a5 5 0 0 1 2.1.4 4 4 0 0 1 1.5 1.2c.4.5.7 1.1.9 1.8a8.6 8.6 0 0 1 .3 2.3v.8h-8.7v-1.6h6.7V73l-.3-1.5a2.7 2.7 0 0 0-.9-1.2c-.4-.3-1-.5-1.6-.5a2.7 2.7 0 0 0-2.2 1.1l-.7 1.4c-.2.5-.2 1.1-.2 1.8v.5a5.2 5.2 0 0 0 .2 1.6 4 4 0 0 0 .7 1.2 3.2 3.2 0 0 0 1 .9c.5.2 1 .3 1.6.3.7 0 1.3-.1 1.7-.4s1-.7 1.3-1.2l1.2 1a5.5 5.5 0 0 1-1 1c-.3.4-.8.7-1.4.9-.5.2-1.2.3-2 .3zm9-16.7V80h-2V63.5h2zM350 80h-2V67.2c0-.9.2-1.6.5-2.2.3-.5.7-1 1.3-1.3a5.5 5.5 0 0 1 3.4-.3l-.1 1.7-.5-.1h-.6c-.4 0-.8 0-1 .2-.4.2-.6.4-.8.8s-.2.7-.2 1.2V80zm2.5-11.6v1.5H346v-1.5h6.3zm6.3 4.1v1.7h-5.2v-1.7h5.2zm4.5-8.1V80h-2V64.4h2zm10.2 12.5a1.7 1.7 0 0 0-.2-.8c0-.2-.3-.5-.7-.7l-1.7-.5a13.6 13.6 0 0 1-1.8-.5 4 4 0 0 1-1.3-.7 2.9 2.9 0 0 1-.8-.9c-.2-.3-.3-.8-.3-1.2 0-.5 0-1 .3-1.3.2-.5.5-.8.8-1.1l1.4-.8c.5-.2 1.1-.2 1.8-.2.9 0 1.7.1 2.4.5s1.1.7 1.5 1.3a3.3 3.3 0 0 1 .5 1.8h-2c0-.3 0-.6-.3-1-.2-.3-.4-.5-.8-.7-.4-.2-.8-.3-1.3-.3-.6 0-1 0-1.4.3-.3.1-.6.3-.7.6a1.6 1.6 0 0 0-.2.8v.6l.5.4.8.4 1.3.4c1 .2 1.8.5 2.4.8s1 .6 1.4 1 .4 1 .4 1.7c0 .5 0 1-.3 1.4a3.1 3.1 0 0 1-1 1c-.3.4-.8.6-1.3.8l-1.9.2c-1 0-1.9-.2-2.6-.5s-1.2-.9-1.6-1.5-.5-1.1-.5-1.8h2c0 .6.2 1 .4 1.3a2.4 2.4 0 0 0 1 .7 4.2 4.2 0 0 0 1.3.2c.6 0 1 0 1.4-.2l.8-.6a1.4 1.4 0 0 0 .3-.9zm4.1-2.6v-.2a7.2 7.2 0 0 1 .4-2.4c.2-.7.6-1.3 1-1.8a4.7 4.7 0 0 1 1.7-1.3 5 5 0 0 1 2.2-.4 4.7 4.7 0 0 1 3.9 1.7c.4.5.8 1.1 1 1.8a7.2 7.2 0 0 1 .4 2.4v.2a7.2 7.2 0 0 1-.4 2.3c-.2.8-.6 1.4-1 2a4.9 4.9 0 0 1-3.9 1.6 5 5 0 0 1-2.2-.4 5 5 0 0 1-2.7-3.2 7.2 7.2 0 0 1-.4-2.3zm2-.2v.2a6.4 6.4 0 0 0 .2 1.7 4.3 4.3 0 0 0 .6 1.3 3 3 0 0 0 1 1l1.5.3c.5 0 1-.1 1.4-.4a3 3 0 0 0 1-.9l.7-1.3.2-1.7v-.2a6 6 0 0 0-.2-1.7 4 4 0 0 0-.7-1.3 3 3 0 0 0-1-1c-.4-.2-.9-.3-1.4-.3a3 3 0 0 0-1.5.3 3 3 0 0 0-1 1c-.3.4-.5.8-.6 1.3l-.2 1.7zm13.2-10.6V80h-2V63.5h2zm10 14.5v-6c0-.4 0-.8-.2-1.2l-.8-.8c-.3-.2-.8-.2-1.4-.2-.5 0-1 0-1.3.2-.4.2-.7.4-.9.7a1.5 1.5 0 0 0-.3.9h-2l.3-1.2c.2-.4.6-.8 1-1.1.4-.4.9-.6 1.4-.8.6-.2 1.2-.3 2-.3s1.5.1 2.2.4c.6.3 1.1.7 1.5 1.3.4.6.6 1.3.6 2.2v6.6l.4 1.1v.2H403l-.2-1-.1-1zm.4-5v1.3h-2l-1.5.2c-.4 0-.8.2-1.1.4l-.7.7-.2.9c0 .4 0 .7.2 1a1.8 1.8 0 0 0 .8.7c.3.2.7.3 1.2.3a3.3 3.3 0 0 0 2.7-1.4c.3-.3.4-.7.5-1l.8 1-.4 1c-.2.4-.5.6-.9 1l-1.3.8c-.5.2-1 .3-1.7.3a4 4 0 0 1-2-.4c-.6-.4-1.1-.8-1.4-1.3-.4-.5-.5-1-.5-1.7s.1-1.2.3-1.7a3.2 3.2 0 0 1 1-1.1l1.7-.7c.7-.2 1.3-.2 2.1-.2h2.3zm9.7-4.6v1.5h-6.3v-1.5h6.3zm-4.2-2.8h2V77c0 .4 0 .7.2 1a.9.9 0 0 0 .4.3l.7.1a3.3 3.3 0 0 0 .5 0l.4-.1V80l-.6.1-1 .1c-.4 0-.9 0-1.3-.3s-.7-.5-1-1a4 4 0 0 1-.3-1.8V65.6zm8.6 2.8V80h-2V68.4h2zm-2.1-3.1c0-.3 0-.6.3-.8.2-.2.5-.4.9-.4.3 0 .6.2.8.4.2.2.4.5.4.8 0 .3-.2.6-.4.8-.2.2-.5.3-.8.3-.4 0-.7-.1-1-.3l-.2-.8zm4.8 9v-.2a7.2 7.2 0 0 1 .4-2.4c.2-.7.6-1.3 1-1.8a4.7 4.7 0 0 1 1.7-1.3 5 5 0 0 1 2.2-.4 4.7 4.7 0 0 1 3.9 1.7c.4.5.8 1.1 1 1.8a7.2 7.2 0 0 1 .4 2.4v.2a7.2 7.2 0 0 1-.4 2.3c-.2.8-.6 1.4-1 2a4.9 4.9 0 0 1-3.9 1.6c-.8 0-1.5-.1-2.2-.4a5 5 0 0 1-2.7-3.2 7.2 7.2 0 0 1-.4-2.3zm2-.2v.2c0 .6 0 1.1.2 1.7.1.5.3 1 .6 1.3a3 3 0 0 0 1 1l1.5.3c.6 0 1-.1 1.4-.4a3 3 0 0 0 1-.9l.7-1.3.2-1.7v-.2a6 6 0 0 0-.2-1.7 4.2 4.2 0 0 0-.6-1.3 3 3 0 0 0-1-1l-1.5-.3a3 3 0 0 0-1.5.3 3 3 0 0 0-1 1c-.3.4-.5.8-.6 1.3l-.2 1.7zm13-3.2V80h-2V68.4h2v2.5zm-.4 2.8h-.8c0-.8.1-1.5.3-2.2.3-.7.6-1.3 1-1.8s.9-.8 1.5-1.1a4 4 0 0 1 1.9-.4 3.6 3.6 0 0 1 2.7.9l.8 1.3.2 2V80h-2v-7.6c0-.6 0-1.1-.2-1.5a1.6 1.6 0 0 0-.8-.8c-.4-.2-.8-.3-1.3-.3a3 3 0 0 0-1.3.3c-.4.3-.8.5-1 1a4.3 4.3 0 0 0-1 2.6zm24.7 2.3-.1-1-.6-.7-1.2-.6c-.4-.3-1-.5-1.8-.7a16.8 16.8 0 0 1-2-.7l-1.7-1a3.9 3.9 0 0 1-1-1.3c-.2-.5-.3-1-.3-1.6s0-1.2.3-1.7.6-1 1.1-1.3l1.7-1a7.3 7.3 0 0 1 5.2.4c.8.5 1.4 1 1.8 1.8.5.7.7 1.5.7 2.3h-2a3 3 0 0 0-.5-1.6c-.2-.4-.6-.8-1.1-1a4 4 0 0 0-2-.5c-.7 0-1.3.2-1.8.4s-.8.5-1 .9a2 2 0 0 0-.4 1.3c0 .3 0 .6.2.9l.7.7 1.1.7 1.7.5c.9.3 1.6.5 2.3.9l1.6 1a3.6 3.6 0 0 1 1 1.3l.2 1.6c0 .7-.1 1.2-.4 1.8s-.6 1-1 1.3-1.1.6-1.8.8a8 8 0 0 1-2.2.3 7.7 7.7 0 0 1-2.2-.3 6.4 6.4 0 0 1-1.9-.9c-.5-.4-1-.9-1.3-1.5-.4-.6-.5-1.2-.5-2h2c0 .5.1 1 .3 1.4a2.8 2.8 0 0 0 .9.9 4 4 0 0 0 1.2.6 6 6 0 0 0 1.5.1c.7 0 1.3 0 1.8-.3s.9-.5 1.1-.8c.3-.4.4-.8.4-1.3zm11.6 1.3v-9h2V80h-2v-2.7zm.4-2.4h.8a8.8 8.8 0 0 1-.3 2c-.1.7-.4 1.3-.7 1.8s-.9.8-1.5 1.1a5 5 0 0 1-2 .4c-.6 0-1.2 0-1.6-.2a3.1 3.1 0 0 1-2-2.1c-.2-.6-.3-1.3-.3-2v-7.5h2v7.5c0 .5 0 1 .2 1.3l.5.8a1.8 1.8 0 0 0 .7.4 2.7 2.7 0 0 0 .7.1c.9 0 1.6-.1 2-.5a2.8 2.8 0 0 0 1.1-1.3 5 5 0 0 0 .4-1.8zm6.6-4.3v13.9h-2V68.4h1.8l.2 2.2zm7.8 3.5v.2a8.8 8.8 0 0 1-.3 2.4 5 5 0 0 1-.9 1.8 4 4 0 0 1-1.4 1.3 5 5 0 0 1-3.9 0 3.9 3.9 0 0 1-1.4-1l-1-1.7-.4-2.2v-1.2c0-.9.2-1.6.5-2.3s.5-1.3 1-1.7c.3-.5.8-.9 1.3-1.1.6-.3 1.2-.4 2-.4s1.4.1 2 .4a4 4 0 0 1 1.3 1.2c.4.5.7 1.1 1 1.9l.2 2.4zm-2 .2v-.2a7 7 0 0 0-.2-1.6 4 4 0 0 0-.5-1.4 2.7 2.7 0 0 0-2.4-1.3c-.5 0-1 .1-1.3.3a2.8 2.8 0 0 0-1 .7 3.7 3.7 0 0 0-.6 1c-.1.3-.3.7-.3 1.1v2.8a6.2 6.2 0 0 0 .6 1.4 3.1 3.1 0 0 0 1 1c.4.4 1 .5 1.6.5.6 0 1-.1 1.4-.3a2.8 2.8 0 0 0 1-1 4.2 4.2 0 0 0 .5-1.3 7.1 7.1 0 0 0 .2-1.7zm6.5-3.7v13.9h-2V68.4h1.9l.1 2.2zm7.9 3.5v.2a8.8 8.8 0 0 1-.3 2.4 4 4 0 0 1-1 1.8c-.3.6-.8 1-1.3 1.3s-1.2.4-2 .4c-.7 0-1.3-.1-1.9-.3s-1-.6-1.4-1.1l-1-1.7-.5-2.2v-1.2l.5-2.3a4 4 0 0 1 1-1.7 3 3 0 0 1 1.4-1.1c.6-.3 1.2-.4 2-.4a4 4 0 0 1 3.3 1.6c.4.5.7 1.1.9 1.9.2.7.3 1.5.3 2.4zm-2 .2v-.2a7 7 0 0 0-.2-1.6 3 3 0 0 0-.6-1.4 2.7 2.7 0 0 0-2.3-1.3c-.6 0-1 .1-1.4.3a2.8 2.8 0 0 0-.9.7 2 2 0 0 0-.6 1l-.4 1.1v2.8a6.2 6.2 0 0 0 .6 1.4c.3.5.6.8 1 1 .5.4 1 .5 1.7.5.5 0 1-.1 1.4-.3a2.8 2.8 0 0 0 1-1l.5-1.3a7.1 7.1 0 0 0 .2-1.7zm4 0v-.2c0-.9.1-1.6.3-2.4.3-.7.6-1.3 1.1-1.8a4.7 4.7 0 0 1 1.7-1.3c.6-.3 1.3-.4 2.2-.4.8 0 1.5.1 2.2.4A4.7 4.7 0 0 1 509 70c.5.5.9 1.1 1.1 1.8.2.8.4 1.5.4 2.4v.2c0 .9-.2 1.6-.4 2.4s-.6 1.3-1 1.8a4.9 4.9 0 0 1-4 1.7 5 5 0 0 1-2.1-.4 5 5 0 0 1-2.8-3.1c-.2-.8-.3-1.5-.3-2.4zm2-.2v.2a6.4 6.4 0 0 0 .2 1.7c.1.5.3 1 .6 1.3a3.1 3.1 0 0 0 1 1 3.7 3.7 0 0 0 2.9 0 3 3 0 0 0 1-1 4.3 4.3 0 0 0 .7-1.3l.2-1.7v-.2a6 6 0 0 0-.2-1.6l-.7-1.4a2.9 2.9 0 0 0-2.5-1.3 3 3 0 0 0-1.4.3 3 3 0 0 0-1 1 3 3 0 0 0-.6 1.4c-.2.5-.2 1-.2 1.6zm13-3.9V80h-2V68.4h2v1.8zm3.7-1.9v1.9a5.1 5.1 0 0 0-1 0h-1.2c-.3 0-.7.4-1 .7a2.9 2.9 0 0 0-.5 1l-.3 1-.5.4c0-.7 0-1.4.2-2 .1-.6.3-1.1.6-1.6s.7-.9 1.2-1.1a3.1 3.1 0 0 1 2.5-.3zm7.2 0V70h-6.3v-1.5h6.3zm-4.1-2.7h2V77l.1 1c.1.2.3.2.5.3l.6.1a3.3 3.3 0 0 0 .5 0l.5-.1V80a4.7 4.7 0 0 1-.7.1l-.9.1c-.5 0-.9 0-1.3-.3s-.7-.5-1-1a4 4 0 0 1-.3-1.8V65.6zm23.8 6.6V78a5.1 5.1 0 0 1-2.7 2 8.8 8.8 0 0 1-5.5-.2 6 6 0 0 1-2-1.4 5.8 5.8 0 0 1-1.4-2.4c-.3-.9-.5-2-.5-3.1v-1.2c0-1.2.1-2.2.4-3.2.3-.9.7-1.6 1.2-2.3.6-.6 1.2-1.1 2-1.4a6.6 6.6 0 0 1 5.7.1c.8.4 1.4 1 1.9 1.7.4.7.7 1.5.9 2.4h-2.1a4.3 4.3 0 0 0-.6-1.5 3 3 0 0 0-1.1-1.1 4 4 0 0 0-2-.5c-.7 0-1.4.2-1.9.4a3.5 3.5 0 0 0-1.3 1.2c-.3.5-.6 1-.8 1.8l-.2 2.3v1.3c0 .9 0 1.7.3 2.4a4 4 0 0 0 1 1.8 4 4 0 0 0 3.1 1.5c.8 0 1.4 0 1.8-.2.5 0 .9-.2 1.1-.4l.6-.5V74H540v-1.7h5.7zm5-2V80h-1.9V68.4h2v1.8zm3.7-1.9v1.9a2.9 2.9 0 0 0-.5-.1h-.5c-.4 0-.8 0-1.2.2a2.5 2.5 0 0 0-.9.6 3 3 0 0 0-.5 1 2 2 0 0 0-.3 1l-.6.4c0-.7 0-1.4.2-2a5.4 5.4 0 0 1 .7-1.6c.3-.5.7-.9 1.1-1.1a3 3 0 0 1 1.6-.4 2.7 2.7 0 0 1 .5 0l.4.1zm8.3 9.7v-6l-.3-1.2-.8-.8c-.3-.2-.8-.2-1.4-.2-.5 0-1 0-1.3.2-.4.2-.7.4-.9.7a1.5 1.5 0 0 0-.3.9h-2l.3-1.2c.2-.4.6-.8 1-1.1.4-.4.9-.6 1.4-.8.6-.2 1.2-.3 2-.3s1.5.1 2.2.4c.6.3 1.1.7 1.5 1.3.4.6.6 1.3.6 2.2v5.4a8.6 8.6 0 0 0 0 1.2l.4 1.1v.2H563l-.2-1-.1-1zm.3-5v1.4h-3.5l-1.1.5a2 2 0 0 0-.7.7l-.2.9c0 .4 0 .7.2 1a1.8 1.8 0 0 0 .8.7c.3.2.7.3 1.2.3a3.3 3.3 0 0 0 2.7-1.4c.3-.3.4-.7.5-1l.8 1-.4 1c-.2.4-.5.6-.9 1a4.8 4.8 0 0 1-1.3.8c-.5.2-1 .3-1.7.3a4 4 0 0 1-2-.4 3.5 3.5 0 0 1-1.4-1.3c-.4-.5-.5-1-.5-1.7s.1-1.2.3-1.7a3.2 3.2 0 0 1 1.1-1.2l1.7-.7c.7-.2 1.3-.2 2.1-.2h2.3zm6.8-2.1V80h-2V68.4h1.9v2.5zm-.5 2.8h-.8c0-.8.1-1.5.3-2.2.3-.7.6-1.3 1-1.8s1-.8 1.5-1.1a4 4 0 0 1 1.9-.4c.6 0 1 0 1.6.2l1.1.7c.4.4.6.8.8 1.3l.2 2V80h-2v-7.6c0-.6 0-1.1-.2-1.5a1.6 1.6 0 0 0-.8-.8c-.4-.2-.8-.3-1.3-.3a3 3 0 0 0-2.4 1.2 4.3 4.3 0 0 0-.9 2.7zm15.5-5.3v1.5h-6.3v-1.5h6.3zm-4.1-2.8h2V77l.1 1c.1.2.3.2.5.3l.6.1a3.3 3.3 0 0 0 .5 0l.5-.1V80l-.7.1-.9.1c-.5 0-.9 0-1.3-.3s-.7-.5-1-1a4 4 0 0 1-.3-1.8V65.6z"/>
  <path fill="#000" d="M82.2 120.5v5H65.8v-5h16.4zm-14.5-12.8V139h-6.4v-31.3h6.4zm19 0V139h-6.4v-31.3h6.5zm17.8 26v-10.3c0-.7-.1-1.4-.3-2-.3-.5-.7-.9-1.2-1.2-.5-.3-1.1-.4-2-.4a4 4 0 0 0-1.7.3c-.5.3-1 .6-1.2 1a3 3 0 0 0-.4 1.6h-6.2c0-1 .3-2 .7-2.8s1.1-1.7 2-2.4c.9-.7 2-1.2 3.1-1.6a13.5 13.5 0 0 1 9 .3c1.3.6 2.4 1.5 3.2 2.7a7.9 7.9 0 0 1 1.3 4.5v10c0 1.3 0 2.3.2 3.1.1.8.4 1.5.7 2.1v.4h-6.3a9 9 0 0 1-.7-2.4 19.5 19.5 0 0 1-.2-2.8zm.8-8.9v3.5H102c-.8 0-1.5.1-2.1.3s-1.1.5-1.5.8a3 3 0 0 0-.8 1.2 4 4 0 0 0-.3 1.4 2.9 2.9 0 0 0 .4 1.5c.2.4.6.7 1 1a5 5 0 0 0 4-.2c.7-.4 1.3-.9 1.6-1.4.4-.6.6-1 .6-1.6l1.7 2.7a10.7 10.7 0 0 1-1 1.8l-1.5 1.8c-.6.5-1.3 1-2.1 1.3a8 8 0 0 1-3 .5 9 9 0 0 1-4-.9 7.3 7.3 0 0 1-2.9-2.4c-.7-1-1-2.3-1-3.6 0-1.2.2-2.3.7-3.3a6.3 6.3 0 0 1 2-2.4 16.3 16.3 0 0 1 8.1-2h3.5zm17.8 9.7 5.1-18.7h6.5L127 139h-4l.2-4.5zm-3.6-18.7 5.2 18.7.1 4.5h-4l-7.8-23.2h6.5zm28.4 23.6a13 13 0 0 1-4.9-.8 10.7 10.7 0 0 1-6-6 12 12 0 0 1-.7-4.4v-.9a11.9 11.9 0 0 1 2.9-8.6c1-1.1 2-2 3.4-2.5a12.3 12.3 0 0 1 9-.1c1.3.5 2.3 1.4 3.2 2.4a10 10 0 0 1 2 3.6c.4 1.4.6 3 .6 4.6v2.6H139v-4.1h12.4v-.5c0-.9-.1-1.6-.4-2.3a3.6 3.6 0 0 0-1.4-1.6c-.6-.4-1.4-.6-2.4-.6-.8 0-1.5.1-2 .5s-1.1.9-1.5 1.5c-.4.6-.7 1.4-.8 2.3a12 12 0 0 0-.3 2.8v.9c0 .9.1 1.8.4 2.5.3.8.6 1.5 1.1 2a5.2 5.2 0 0 0 1.8 1.4 6 6 0 0 0 2.5.5 7.5 7.5 0 0 0 3-.6c1-.5 1.9-1.2 2.6-2l3 3.2a10.6 10.6 0 0 1-5 3.6c-1.2.4-2.5.6-4 .6zm30.9-3 6.2-20.6h6.6l-9.3 26.7-.9 1.9c-.3.7-.7 1.3-1.3 1.9a8 8 0 0 1-2.1 1.5 8 8 0 0 1-3.2.6l-1.4-.1-1.3-.3v-4.6h1c.8 0 1.4 0 2-.2s.9-.5 1.2-.9c.3-.3.6-.8.8-1.4l1.7-4.5zm-2.6-20.6 5 16.8 1 6.5-4.3.5-8.3-23.8h6.6zm16.5 11.8v-.4a14 14 0 0 1 2.8-8.5 9 9 0 0 1 3.5-2.5 12 12 0 0 1 9.4.1 9.4 9.4 0 0 1 5.6 6.2c.5 1.4.8 3 .8 4.7v.4a14 14 0 0 1-.8 4.7 11 11 0 0 1-2.1 3.8c-1 1-2.1 1.9-3.5 2.4s-2.9 1-4.6 1-3.4-.4-4.7-1a9.7 9.7 0 0 1-5.6-6.2 14 14 0 0 1-.8-4.7zm6.2-.4v.4a13.7 13.7 0 0 0 .3 2.7c.2.9.4 1.6.8 2.3a4.3 4.3 0 0 0 1.5 1.5 5.2 5.2 0 0 0 4.5 0c.6-.3 1-.9 1.5-1.5.3-.7.6-1.4.8-2.3.2-.8.2-1.7.2-2.7v-.4c0-1 0-1.9-.2-2.7a7 7 0 0 0-.9-2.2c-.3-.7-.8-1.2-1.5-1.6s-1.3-.5-2.2-.5-1.6.1-2.2.5c-.6.4-1.1.9-1.5 1.6-.4.6-.6 1.4-.8 2.2a13.1 13.1 0 0 0-.3 2.7zm33.4 6.2v-17.6h6.2V139h-5.8l-.4-5.6zm.7-4.7h1.8c0 1.5-.2 3-.5 4.2-.4 1.4-1 2.5-1.6 3.5a7.5 7.5 0 0 1-6.6 3 10 10 0 0 1-3.1-.4 6.4 6.4 0 0 1-2.5-1.6 7.4 7.4 0 0 1-1.6-2.7c-.3-1-.5-2.4-.5-4v-15h6.2v15.1c0 .7 0 1.3.2 1.8l.7 1.1a2.6 2.6 0 0 0 1 .7l1.4.2c1.3 0 2.3-.3 3-.8a4 4 0 0 0 1.6-2.1c.3-1 .5-2 .5-3zm27.2-22.7v33H254v-33h6.2zm-.9 20.6h-1.7c0-1.7.3-3.1.7-4.5a11 11 0 0 1 1.8-3.6 7.8 7.8 0 0 1 6.4-3.2c1 0 2.1.2 3 .5a5.8 5.8 0 0 1 2.5 1.6c.7.7 1.2 1.6 1.6 2.7s.5 2.6.5 4.2V139H268v-14.7a6 6 0 0 0-.4-2.5c-.3-.6-.8-1-1.3-1.2-.6-.3-1.2-.4-2-.4-1 0-1.7.1-2.3.5a4 4 0 0 0-1.5 1.3c-.4.6-.6 1.3-.8 2s-.3 1.7-.3 2.6zm32 7.2v-10.4c0-.7 0-1.4-.3-2-.2-.5-.6-.9-1.1-1.2a4 4 0 0 0-2-.4 4 4 0 0 0-1.8.3c-.5.3-.8.6-1.1 1a3 3 0 0 0-.4 1.6h-6.2a6 6 0 0 1 .7-2.8 7 7 0 0 1 2-2.4c.9-.7 1.9-1.2 3-1.6a13.5 13.5 0 0 1 9 .3c1.4.6 2.5 1.5 3.3 2.7a7.9 7.9 0 0 1 1.2 4.5v10c0 1.3.1 2.3.3 3.1.1.8.3 1.5.6 2.1v.4h-6.2a9 9 0 0 1-.7-2.4 19.5 19.5 0 0 1-.2-2.8zm1-9v3.5h-3.5c-.8 0-1.5.1-2.1.3s-1.1.5-1.5.8a3 3 0 0 0-.9 1.2c-.2.4-.2 1-.2 1.4s0 1 .3 1.5l1 1a5.7 5.7 0 0 0 4.1-.2c.7-.3 1.2-.9 1.6-1.4.4-.6.6-1 .6-1.6l1.6 2.7a10.6 10.6 0 0 1-.9 1.8l-1.5 1.8a8 8 0 0 1-5.2 1.9 9 9 0 0 1-4-1 7.3 7.3 0 0 1-2.8-2.4c-.7-1-1-2.3-1-3.6 0-1.2.2-2.3.6-3.3s1.2-1.7 2-2.4a17.3 17.3 0 0 1 8.1-2h3.6zM316 134v-28h6.2v33h-5.6l-.6-5zm-14.7-6.2v-.5c0-1.8.2-3.4.6-4.8.4-1.5 1-2.7 1.8-3.8a8 8 0 0 1 6.8-3.3 7.1 7.1 0 0 1 6.1 3.3 15 15 0 0 1 1.8 3.8l1 4.6v1l-1 4.5c-.4 1.4-1 2.6-1.8 3.7-.7 1-1.6 1.8-2.6 2.4s-2.3.8-3.6.8a8 8 0 0 1-6.7-3.3c-.8-1-1.4-2.3-1.8-3.8s-.6-3-.6-4.6zm6.2-.5v.5a10.6 10.6 0 0 0 1 4.9c.3.6.8 1 1.4 1.4a4 4 0 0 0 2 .6c1.1 0 2-.3 2.7-.8a4 4 0 0 0 1.5-2c.4-.8.6-1.8.7-2.9v-2.8c0-.9-.2-1.7-.4-2.4s-.5-1.4-1-1.9a4 4 0 0 0-1.4-1.2c-.6-.3-1.2-.4-2-.4s-1.5.2-2 .5a4 4 0 0 0-1.5 1.5c-.3.7-.6 1.4-.8 2.3a15 15 0 0 0-.2 2.7zm42-11.4v4.3H336v-4.3h13.5zm-10.3-5.8h6.2v22c0 .7.1 1.2.3 1.5.2.4.4.7.8.8l1.4.2h1l.8-.2v4.6a11.6 11.6 0 0 1-1.7.4 12.7 12.7 0 0 1-2 .1c-1.4 0-2.6-.2-3.6-.6-1-.5-1.8-1.2-2.3-2.2s-.9-2.3-.9-4V110zm19.8-4v33h-6.2v-33h6.2zm-.9 20.6h-1.7c0-1.7.2-3.1.7-4.5a11 11 0 0 1 1.7-3.6c.8-1 1.7-1.8 2.8-2.3 1.1-.6 2.3-.9 3.6-.9 1.2 0 2.2.2 3.1.5a5.8 5.8 0 0 1 2.5 1.6c.6.7 1.2 1.6 1.6 2.7s.5 2.6.5 4.2V139h-6.2v-14.7c0-1-.2-1.9-.5-2.5-.3-.6-.7-1-1.2-1.2-.6-.3-1.3-.4-2-.4-1 0-1.7.1-2.3.5a4 4 0 0 0-1.5 1.3 5 5 0 0 0-.8 2l-.3 2.6zm30.2 12.8a13 13 0 0 1-4.8-.8 10.7 10.7 0 0 1-6-6 12 12 0 0 1-.8-4.4v-.9c0-1.7.3-3.4.8-4.8s1.2-2.8 2.1-3.8a9.4 9.4 0 0 1 3.5-2.5 12 12 0 0 1 8.9-.1c1.3.5 2.4 1.4 3.2 2.4a10 10 0 0 1 2 3.6c.4 1.4.7 3 .7 4.6v2.6h-18.5v-4.1h12.4v-.5c0-.9-.2-1.6-.5-2.3a3.6 3.6 0 0 0-1.4-1.6c-.6-.4-1.4-.6-2.3-.6-.9 0-1.6.1-2.1.5s-1.1.9-1.5 1.5a12 12 0 0 0-1.1 5.1v.9c0 .9.2 1.8.4 2.6.3.7.7 1.4 1.2 2a5.2 5.2 0 0 0 1.8 1.3 6 6 0 0 0 2.4.5 7.5 7.5 0 0 0 3.1-.6c1-.5 1.8-1.2 2.5-2l3 3.2c-.4.7-1.1 1.4-2 2-.8.7-1.8 1.2-3 1.6a12 12 0 0 1-4 .6zm38.8-23.6h5.6v22.4c0 2.1-.5 4-1.5 5.4a8.7 8.7 0 0 1-3.9 3.4 13.8 13.8 0 0 1-12-.4c-1-.6-1.8-1.3-2.5-2.1l2.8-3.7c.7.9 1.5 1.5 2.5 2s2 .7 3.1.7a6 6 0 0 0 2.8-.6 4 4 0 0 0 1.8-1.8 6 6 0 0 0 .6-2.8V121l.7-5.3zm-15.7 11.9v-.5c0-1.8.2-3.4.7-4.8.4-1.5 1-2.7 1.8-3.8a8.5 8.5 0 0 1 3-2.4c1.1-.6 2.5-.9 4-.9s2.8.3 3.8.9 2 1.4 2.6 2.4a12 12 0 0 1 1.6 3.8l.9 4.6v1l-1 4.5a14 14 0 0 1-1.7 3.7c-.7 1-1.6 1.8-2.6 2.4a9 9 0 0 1-7.7-.1 9.8 9.8 0 0 1-4.8-6.2 17 17 0 0 1-.6-4.6zm6.2-.5v.5a12.2 12.2 0 0 0 .3 2.6c.2.9.4 1.6.8 2.3a4.6 4.6 0 0 0 1.5 1.4c.6.4 1.3.6 2.1.6a5 5 0 0 0 2.8-.8c.7-.4 1.3-1.1 1.6-2s.6-1.8.7-2.9v-2.8c0-.9-.2-1.7-.4-2.4s-.5-1.4-1-1.9a4 4 0 0 0-1.4-1.2 5 5 0 0 0-2.2-.4 4 4 0 0 0-2.1.5c-.6.4-1.1.9-1.5 1.5-.4.7-.7 1.4-.9 2.3a12 12 0 0 0-.3 2.7zm26-6.4V139h-6.1v-23.2h5.8l.4 5zm7-5.2v5.7h-1.1l-1.2-.1c-.9 0-1.6 0-2.3.3a4 4 0 0 0-1.5 1c-.5.4-.8 1-1 1.5-.2.7-.3 1.4-.3 2.2l-1.3-.4c0-1.5.2-3 .5-4.2.3-1.3.7-2.4 1.3-3.3.6-1 1.3-1.7 2.1-2.2s1.8-.8 3-.8a6.7 6.7 0 0 1 1.9.3zm14.8 18.2v-10.4c0-.7-.1-1.4-.4-2-.2-.5-.6-.9-1.1-1.2a4 4 0 0 0-2-.4 4 4 0 0 0-1.7.3c-.5.3-1 .6-1.2 1a3 3 0 0 0-.4 1.6h-6.2a6 6 0 0 1 .7-2.8 7 7 0 0 1 2-2.4c.9-.7 1.9-1.2 3.1-1.6a13.5 13.5 0 0 1 8.9.3c1.4.6 2.5 1.5 3.3 2.7a7.9 7.9 0 0 1 1.2 4.5v10a13 13 0 0 0 1 5.2v.4h-6.3a9 9 0 0 1-.7-2.4 19.5 19.5 0 0 1-.2-2.8zm.8-9v3.5H463c-.8 0-1.5.1-2.1.3s-1.1.5-1.5.8a3 3 0 0 0-.9 1.2l-.2 1.4.3 1.5 1 1a5.7 5.7 0 0 0 4.1-.2c.7-.3 1.2-.9 1.6-1.4.4-.6.6-1 .6-1.6l1.7 2.7a10.6 10.6 0 0 1-2.5 3.6c-.6.5-1.3 1-2.1 1.3a8 8 0 0 1-3 .5 9 9 0 0 1-4-.9 7.3 7.3 0 0 1-2.9-2.4c-.7-1-1-2.3-1-3.6 0-1.2.2-2.3.7-3.3s1-1.7 2-2.4c.9-.6 2-1.1 3.3-1.4 1.4-.4 3-.6 4.7-.6h3.6zm16.3-4V139h-6.2v-23.2h5.8l.4 5zm-1 5.8H480c0-1.8.2-3.3.6-4.7a9.2 9.2 0 0 1 2-3.5 8 8 0 0 1 6.5-3c1.1 0 2.1 0 3 .4a5.7 5.7 0 0 1 2.3 1.5 6 6 0 0 1 1.5 2.7c.4 1.2.6 2.5.6 4.2V139h-6.3v-14.8c0-1-.1-1.9-.4-2.5s-.7-1-1.3-1.2a5 5 0 0 0-2-.3c-.8 0-1.5.1-2.2.5-.6.3-1 .8-1.5 1.3l-.8 2c-.2.8-.3 1.7-.3 2.6zm31-10.8v4.3H499v-4.3h13.6zm-10.2-5.8h6.2v22c0 .7 0 1.2.2 1.5a1.6 1.6 0 0 0 .8.8l1.4.2h1l.8-.2v4.6a11.6 11.6 0 0 1-1.7.4 12.7 12.7 0 0 1-2 .1c-1.4 0-2.6-.2-3.6-.6a5 5 0 0 1-2.3-2.2c-.6-1-.8-2.3-.8-4V110zm30.7 10.7h3.3c1 0 2-.2 2.6-.6a3.5 3.5 0 0 0 1.6-1.5 5 5 0 0 0 .5-2.4 4 4 0 0 0-.5-2 3.2 3.2 0 0 0-1.4-1.5c-.6-.4-1.4-.6-2.4-.6a5 5 0 0 0-2 .5c-.7.3-1.2.7-1.6 1.2s-.6 1.2-.6 2h-6.2c0-1.7.4-3.2 1.4-4.5a10.2 10.2 0 0 1 8.9-4c2 0 4 .3 5.5 1 1.6.7 2.8 1.7 3.7 3s1.4 3 1.4 4.9c0 1-.3 2-.7 2.9a8 8 0 0 1-2 2.5c-.8.7-1.9 1.3-3 1.7-1.3.4-2.7.7-4.2.7H533v-3.3zm0 4.7v-3.2h4.3c1.7 0 3.2.2 4.5.6s2.4.9 3.2 1.6a7 7 0 0 1 2 2.6 8.8 8.8 0 0 1-.2 7.2c-.5 1-1.3 2-2.3 2.8-1 .8-2.2 1.4-3.5 1.8-1.4.4-2.9.6-4.4.6a14.3 14.3 0 0 1-4-.5c-1.2-.4-2.3-1-3.4-1.7-1-.7-1.8-1.6-2.4-2.8a8.4 8.4 0 0 1-1-4h6.3c0 .8.2 1.5.6 2.2s1 1.1 1.6 1.5a6.7 6.7 0 0 0 5 0 4.4 4.4 0 0 0 2.2-3.9c0-1.2-.2-2-.6-2.8-.5-.7-1-1.2-1.8-1.5s-1.7-.5-2.8-.5H533zm41.5-9.6v4.3H561v-4.3h13.5zm-10.1-5.8h6.1v22c0 .7.1 1.2.3 1.5a1.6 1.6 0 0 0 .8.8l1.4.2h1l.8-.2v4.6a11.6 11.6 0 0 1-1.7.4 12.7 12.7 0 0 1-2 .1c-1.4 0-2.6-.2-3.6-.6-1-.5-1.8-1.2-2.3-2.2s-.8-2.3-.8-4V110zm20.2 5.8V139h-6.2v-23.2h6.2zm-6.6-6.1c0-1 .3-1.7 1-2.2s1.4-1 2.5-1c1 0 1.9.4 2.5 1a2.9 2.9 0 0 1 1 2.2 3 3 0 0 1-1 2.2c-.6.6-1.5 1-2.5 1s-2-.4-2.6-1-.9-1.3-.9-2.2zm17.9 10.9V139h-6.2v-23.2h5.8l.4 4.8zm-.9 6h-1.7c0-1.7.2-3.1.6-4.5a11 11 0 0 1 1.7-3.6 8 8 0 0 1 6.8-3.2c1 0 2 .2 2.9.5.8.3 1.6.8 2.2 1.4a9.9 9.9 0 0 1 2 6.3V139h-6.2v-14.8c0-1-.2-1.9-.5-2.5s-.7-1-1.2-1.2a5 5 0 0 0-1.9-.3c-.8 0-1.5.1-2 .5a4.2 4.2 0 0 0-1.5 1.3c-.4.6-.7 1.3-.9 2s-.3 1.7-.3 2.6zm13.9-.7-2.2.2c0-1.5.1-2.9.5-4.2.4-1.3 1-2.5 1.7-3.4.8-1 1.7-1.8 2.8-2.3a8 8 0 0 1 3.9-.9 9 9 0 0 1 3 .5c1 .3 1.7.8 2.4 1.5.6.7 1.1 1.6 1.5 2.8.4 1 .5 2.4.5 4V139h-6v-14.8c0-1.1-.1-2-.4-2.5-.3-.6-.7-1-1.2-1.2a5 5 0 0 0-1.9-.3 4 4 0 0 0-3.3 1.6 8 8 0 0 0-1.1 4.1zm29.6 13.5a13 13 0 0 1-4.8-.8 10.7 10.7 0 0 1-6-6 12 12 0 0 1-.8-4.4v-.9c0-1.7.3-3.4.8-4.8s1.2-2.8 2.1-3.8a9.4 9.4 0 0 1 3.5-2.5 12 12 0 0 1 8.9-.1c1.3.5 2.4 1.4 3.2 2.4a10 10 0 0 1 2 3.6c.4 1.4.7 3 .7 4.6v2.6h-18.5v-4.1H642v-.5c0-.9-.2-1.6-.5-2.3a3.6 3.6 0 0 0-1.4-1.6c-.6-.4-1.4-.6-2.3-.6-.8 0-1.5.1-2.1.5s-1.1.9-1.5 1.5a12 12 0 0 0-1.1 5.1v.9c0 .9.2 1.8.4 2.6.3.7.7 1.4 1.2 2a5.2 5.2 0 0 0 1.8 1.3 6 6 0 0 0 2.4.5 7.5 7.5 0 0 0 3.1-.6c1-.5 1.8-1.2 2.5-2l3 3.2c-.4.7-1.1 1.4-2 2-.8.7-1.8 1.2-3 1.6a12 12 0 0 1-4 .6zm25.7-6.8a2 2 0 0 0-.4-1.2c-.3-.4-.8-.7-1.5-1a14 14 0 0 0-3-.9 23.3 23.3 0 0 1-3.2-1c-1-.3-2-.8-2.7-1.4a5.5 5.5 0 0 1-2.3-4.6 6.2 6.2 0 0 1 .6-2.8c.4-.8 1-1.6 1.8-2.2a11.4 11.4 0 0 1 6.9-2.2c2 0 3.7.3 5.2 1 1.4.6 2.5 1.5 3.3 2.7a6.5 6.5 0 0 1 1.2 3.8H664c0-.6-.1-1.2-.4-1.6-.2-.5-.6-.9-1.1-1.2a4 4 0 0 0-2-.4 4 4 0 0 0-1.8.4c-.5.2-1 .5-1.2 1a2.3 2.3 0 0 0-.2 2.2c.2.2.4.5.8.7l1.3.7 2 .5c1.8.3 3.3.8 4.6 1.3 1.3.6 2.3 1.3 3.1 2.3.8.9 1.2 2.1 1.2 3.6 0 1-.3 2-.7 2.9s-1.1 1.6-2 2.2a10 10 0 0 1-3 1.5 14.5 14.5 0 0 1-9.6-.6 8.7 8.7 0 0 1-3.4-3 6.8 6.8 0 0 1-1.1-3.7h5.8c0 .9.3 1.6.7 2 .4.6 1 1 1.5 1.2l2.1.3c.8 0 1.5 0 2-.3.5-.2 1-.5 1.2-.9.3-.4.5-.8.5-1.3zm20-5v-.4c0-1.7.2-3.3.7-4.7.5-1.5 1.2-2.7 2.1-3.8s2-1.9 3.4-2.5c1.4-.6 3-.9 4.7-.9s3.4.3 4.7 1c1.4.5 2.6 1.3 3.5 2.4 1 1 1.7 2.3 2.1 3.8.5 1.4.8 3 .8 4.7v.4a14 14 0 0 1-.8 4.7 11 11 0 0 1-2.1 3.8c-1 1-2 1.9-3.4 2.4s-3 1-4.7 1-3.4-.4-4.7-1a9.7 9.7 0 0 1-5.6-6.2 14 14 0 0 1-.7-4.7zm6.1-.4v.4a13.7 13.7 0 0 0 .3 2.7c.2.9.4 1.6.8 2.3.4.6.9 1.1 1.5 1.5s1.4.5 2.3.5c.8 0 1.6-.2 2.2-.5s1.1-.9 1.5-1.5a12.3 12.3 0 0 0 1.1-5v-.4c0-1-.1-1.9-.3-2.7a7 7 0 0 0-.9-2.2c-.3-.7-.8-1.2-1.4-1.6s-1.4-.5-2.3-.5-1.6.1-2.2.5a4.4 4.4 0 0 0-1.5 1.6c-.4.6-.6 1.4-.8 2.2a13.1 13.1 0 0 0-.3 2.7zm25.9-6.4V139H710v-23.2h5.8l.4 5zm7-5.2-.1 5.7H722l-1.2-.1c-.8 0-1.6 0-2.3.3a4 4 0 0 0-1.5 1c-.5.4-.8 1-1 1.5-.2.7-.3 1.4-.3 2.2l-1.3-.4c0-1.5.2-3 .5-4.2.3-1.3.7-2.4 1.3-3.3.6-1 1.3-1.7 2.1-2.2s1.8-.8 3-.8a6.7 6.7 0 0 1 1.9.3zM67 176.6V195h-6.2v-23.2h5.8l.4 4.8zm-.9 6h-1.7c0-1.7.2-3.1.6-4.5a11 11 0 0 1 1.7-3.6 8 8 0 0 1 6.8-3.2c1 0 2 .2 2.9.5.8.3 1.6.8 2.2 1.4a9.9 9.9 0 0 1 2 6.3V195h-6.2v-14.8c0-1-.2-1.9-.5-2.5s-.7-1-1.2-1.2a5 5 0 0 0-1.9-.3c-.8 0-1.5.1-2 .5-.7.3-1.1.8-1.5 1.3-.4.6-.7 1.3-.9 2s-.3 1.7-.3 2.6zm13.9-.7-2.2.2c0-1.5.1-2.9.5-4.2.4-1.3 1-2.5 1.7-3.4.8-1 1.7-1.8 2.8-2.3a8 8 0 0 1 3.9-.9 9 9 0 0 1 3 .5c1 .3 1.7.8 2.4 1.5.6.7 1.1 1.6 1.5 2.8.3 1 .5 2.4.5 4V195H88v-14.8c0-1.1-.1-2-.4-2.5-.3-.6-.7-1-1.2-1.2a5 5 0 0 0-1.9-.3 4 4 0 0 0-3.3 1.6 6 6 0 0 0-.9 1.8l-.2 2.3zm18 1.7v-.4a14 14 0 0 1 2.7-8.5 9.5 9.5 0 0 1 3.5-2.5 12 12 0 0 1 9.4.1 9.4 9.4 0 0 1 5.6 6.2c.5 1.4.8 3 .8 4.7v.4a14 14 0 0 1-.8 4.7 11 11 0 0 1-2.1 3.8c-1 1-2.1 1.9-3.5 2.4s-2.9 1-4.6 1-3.4-.4-4.8-1a9.7 9.7 0 0 1-5.5-6.2 14 14 0 0 1-.8-4.7zm6.1-.4v.4a13.7 13.7 0 0 0 .3 2.7c.1.9.4 1.6.8 2.3a4.3 4.3 0 0 0 1.5 1.5 5.2 5.2 0 0 0 4.5 0 4 4 0 0 0 1.4-1.5c.4-.7.7-1.4.9-2.3a12.6 12.6 0 0 0 .2-2.7v-.4c0-1 0-1.9-.2-2.7a7 7 0 0 0-.9-2.2c-.3-.7-.8-1.2-1.5-1.6s-1.3-.5-2.2-.5-1.6.1-2.2.5a5.7 5.7 0 0 0-2.3 3.8 13.1 13.1 0 0 0-.3 2.7zm25.8-6.4V195H124v-23.2h5.8l.3 5zm7-5.2v5.7h-1.2l-1-.1c-1 0-1.7 0-2.4.3a4 4 0 0 0-1.6 1c-.4.4-.7 1-1 1.5l-.3 2.2-1.2-.4c0-1.5.2-3 .5-4.2.3-1.3.7-2.4 1.3-3.3.6-1 1.3-1.7 2.1-2.2s1.8-.8 3-.8a6.7 6.7 0 0 1 1.8.3zm13.2 23.8a13 13 0 0 1-4.8-.8 10.7 10.7 0 0 1-6-6 12 12 0 0 1-.7-4.4v-.9c0-1.7.2-3.4.7-4.8s1.2-2.8 2.2-3.8a9.4 9.4 0 0 1 3.4-2.5 11.8 11.8 0 0 1 8.9-.1 8.6 8.6 0 0 1 3.2 2.4 10 10 0 0 1 2 3.6c.5 1.4.7 3 .7 4.6v2.6h-18.5v-4.1h12.4v-.5c0-.9-.2-1.6-.5-2.3-.3-.7-.7-1.2-1.3-1.6s-1.5-.6-2.4-.6c-.8 0-1.5.1-2.1.5s-1 .9-1.5 1.5c-.3.6-.6 1.4-.8 2.3l-.2 2.8v.9c0 .9.1 1.8.4 2.5.2.8.6 1.5 1 2a5.2 5.2 0 0 0 1.9 1.4 6 6 0 0 0 2.4.5 6.7 6.7 0 0 0 5.6-2.6l3 3.2c-.4.7-1 1.4-2 2-.8.7-1.8 1.2-3 1.6a12 12 0 0 1-4 .6zm36.6-6.8a2 2 0 0 0-.4-1.2c-.2-.4-.7-.7-1.4-1a14 14 0 0 0-3-.9 16 16 0 0 1-5.9-2.4 5.5 5.5 0 0 1-2.3-4.6c0-1 .2-1.9.6-2.8a7 7 0 0 1 1.8-2.2 11.2 11.2 0 0 1 6.8-2.2c2 0 3.8.3 5.2 1 1.5.6 2.6 1.5 3.4 2.7a6.5 6.5 0 0 1 1.2 3.8h-6.2c0-.6-.1-1.2-.4-1.6-.2-.5-.6-.9-1.2-1.2-.5-.3-1.1-.4-2-.4a4 4 0 0 0-1.8.4c-.5.2-.8.5-1.1 1a2.3 2.3 0 0 0-.2 2.2c.2.2.4.5.8.7l1.3.7 2 .5c1.7.3 3.2.8 4.5 1.3 1.4.6 2.4 1.3 3.2 2.3.8.9 1.1 2.1 1.1 3.6 0 1-.2 2-.6 2.9s-1.2 1.6-2 2.2a10 10 0 0 1-3.1 1.5 14.5 14.5 0 0 1-9.5-.6 8.7 8.7 0 0 1-3.4-3 6.8 6.8 0 0 1-1.2-3.7h5.9c0 .9.2 1.6.6 2 .5.6 1 1 1.6 1.2l2.1.3c.8 0 1.5 0 2-.3.5-.2 1-.5 1.2-.9.3-.4.4-.8.4-1.3zm16.6-16.8V195h-6.2v-23.2h6.2zm-6.6-6.1c0-1 .3-1.7 1-2.2s1.4-1 2.5-1c1 0 1.9.4 2.5 1 .6.5 1 1.3 1 2.2s-.4 1.6-1 2.2c-.6.6-1.5 1-2.5 1s-2-.4-2.6-1-.9-1.3-.9-2.2zm17.8 11V195h-6.2v-23.2h5.8l.4 5zm-1 5.9H212a13.7 13.7 0 0 1 2.5-8.2 8 8 0 0 1 6.6-3c1.1 0 2.1 0 3 .4a5.7 5.7 0 0 1 2.3 1.5 6 6 0 0 1 1.5 2.7c.4 1.2.6 2.5.6 4.2V195h-6.3v-14.8c0-1-.1-1.9-.4-2.5s-.7-1-1.3-1.2a5 5 0 0 0-2-.3c-.8 0-1.5.1-2.2.5-.6.3-1 .8-1.5 1.3l-.8 2c-.2.8-.3 1.7-.3 2.6zm29.2 8c.7 0 1.4-.1 2-.4a3.4 3.4 0 0 0 1.4-1.3c.3-.5.5-1.2.5-1.9h5.8c0 1.6-.4 3-1.3 4.4a9 9 0 0 1-3.4 3c-1.5.7-3.1 1-4.9 1-1.8 0-3.4-.3-4.7-.9a9.2 9.2 0 0 1-3.4-2.5 11 11 0 0 1-2-3.7 17 17 0 0 1-.6-4.6v-.6c0-1.7.2-3.2.6-4.6.5-1.5 1.2-2.7 2-3.8 1-1 2-1.9 3.4-2.5s2.9-.9 4.7-.9c1.9 0 3.5.4 5 1.1a8.2 8.2 0 0 1 3.4 3.2 9 9 0 0 1 1.2 4.7h-5.8c0-.7-.2-1.4-.5-2a3.6 3.6 0 0 0-1.3-1.6c-.6-.3-1.3-.5-2.1-.5-1 0-1.7.2-2.3.5-.5.4-1 1-1.3 1.6-.3.6-.5 1.4-.7 2.2l-.1 2.6v.6l.1 2.6c.1.8.4 1.6.7 2.2.3.7.8 1.2 1.3 1.5s1.4.6 2.3.6zm24 4.8a13 13 0 0 1-4.8-.8 10.7 10.7 0 0 1-6-6 12 12 0 0 1-.8-4.4v-.9c0-1.7.3-3.4.8-4.8s1.2-2.8 2.1-3.8a9.4 9.4 0 0 1 3.5-2.5 12 12 0 0 1 8.9-.1c1.3.5 2.4 1.4 3.2 2.4a10 10 0 0 1 2 3.6c.4 1.4.7 3 .7 4.6v2.6h-18.5v-4.1h12.4v-.5c0-.9-.2-1.6-.5-2.3-.3-.7-.8-1.2-1.4-1.6s-1.4-.6-2.3-.6c-.9 0-1.6.1-2.1.5s-1.1.9-1.5 1.5a12 12 0 0 0-1.1 5.1v.9c0 .9.2 1.8.4 2.5.3.8.7 1.5 1.2 2 .5.7 1 1.1 1.8 1.4a6 6 0 0 0 2.4.5 6.7 6.7 0 0 0 5.6-2.6l3 3.2a10.6 10.6 0 0 1-5 3.6 12 12 0 0 1-4 .6zm38.9-31.7V195h-6.2v-24.2L292 173v-4.8l13-4.6h.7zm24.7 0h5.4l8 23 8.1-23h5.5L346 195h-4.4l-11.3-31.3zm-3 0h5.5l1 22.4v8.9h-6.5v-31.3zm27.5 0h5.4V195H354v-8.9l1-22.4zm23.2 26v-10.3c0-.7 0-1.4-.3-2-.3-.5-.6-.9-1.2-1.2-.5-.3-1.1-.4-2-.4a4 4 0 0 0-1.7.3 4 4 0 0 0-1.2 1c-.2.5-.4 1-.4 1.6H365a6 6 0 0 1 .7-2.8 7 7 0 0 1 2-2.4c1-.7 2-1.2 3.1-1.6a13.5 13.5 0 0 1 9 .3c1.3.6 2.4 1.5 3.3 2.7a7.9 7.9 0 0 1 1.2 4.5v10c0 1.3 0 2.3.2 3.1l.7 2.1v.4H379a9 9 0 0 1-.6-2.4 19.5 19.5 0 0 1-.3-2.8zm.9-8.9v3.5h-3.5a5.2 5.2 0 0 0-3.6 1 3 3 0 0 0-.8 1.3 3.2 3.2 0 0 0 .1 2.9c.2.4.6.7 1 1a5 5 0 0 0 4-.2 5 5 0 0 0 1.7-1.4c.4-.6.6-1 .6-1.6l1.6 2.7a10.7 10.7 0 0 1-1 1.8c-.3.6-.8 1.2-1.4 1.8a8 8 0 0 1-5.2 1.9 9 9 0 0 1-4-1 7.3 7.3 0 0 1-2.9-2.4 7.3 7.3 0 0 1-.3-6.9c.5-1 1.1-1.7 2-2.4a16.3 16.3 0 0 1 8.1-2h3.6zm16.7 11.6 6.2-20.6h6.6l-9.3 26.7-.9 1.9c-.3.7-.7 1.3-1.3 1.9a8 8 0 0 1-2.1 1.5 8 8 0 0 1-3.2.6l-1.4-.1-1.3-.3v-4.6h1c.8 0 1.4 0 2-.2s.9-.5 1.2-.9c.3-.3.6-.8.8-1.4l1.7-4.5zm-2.6-20.6 5 16.8 1 6.5-4.3.5-8.3-23.8h6.6zm50 18.4v4.8h-21.4v-4.1l10-10.9c1.1-1.1 2-2.1 2.5-3 .6-.8 1-1.6 1.3-2.3a5.7 5.7 0 0 0 0-4.4c-.4-.7-.9-1.2-1.5-1.6-.6-.4-1.3-.6-2.2-.6-1 0-1.8.3-2.5.7-.7.5-1.2 1.1-1.5 2a7 7 0 0 0-.5 2.7H421a10 10 0 0 1 5.1-8.8 11 11 0 0 1 5.8-1.4c2.2 0 4 .3 5.5 1a8 8 0 0 1 3.5 3 9 9 0 0 1 1.2 4.8c0 1-.2 2-.5 3-.4 1-.8 2-1.5 3-.6 1-1.3 1.9-2.1 2.9l-2.9 3-5.4 6.2H443zm24.9-13.6v5.4c0 2.4-.3 4.4-.8 6.1a11 11 0 0 1-2.1 4.2 8.6 8.6 0 0 1-3.4 2.4c-1.2.5-2.7.7-4.3.7-1.2 0-2.4-.1-3.5-.4a8.9 8.9 0 0 1-5.2-4.2c-.6-1-1-2.3-1.4-3.7s-.5-3.2-.5-5v-5.5c0-2.3.3-4.4.8-6 .5-1.7 1.2-3.1 2.2-4.2a8.5 8.5 0 0 1 3.3-2.3 10 10 0 0 1 4.3-.8c1.3 0 2.4.2 3.5.5a8.8 8.8 0 0 1 5.2 4 18.8 18.8 0 0 1 1.9 8.8zm-6.2 6.2v-7c0-1.2 0-2.1-.2-3l-.5-2.1c-.3-.6-.6-1.1-1-1.5s-.7-.6-1.2-.8l-1.5-.3c-.7 0-1.3.2-1.9.4-.5.3-1 .7-1.3 1.3a7 7 0 0 0-.9 2.4c-.2 1-.3 2.2-.3 3.6v7l.2 3c.1.9.3 1.6.6 2.2.2.6.5 1.1.9 1.5.3.4.7.7 1.2.8a4.5 4.5 0 0 0 3.4-.1c.5-.3 1-.7 1.3-1.3.4-.7.7-1.5.9-2.5s.3-2.1.3-3.6zm31.8 7.4v4.8h-21.4v-4.1l10.1-10.9 2.4-3c.6-.8 1-1.6 1.3-2.3a5.7 5.7 0 0 0 0-4.4c-.4-.7-.8-1.2-1.5-1.6-.6-.4-1.3-.6-2.2-.6-1 0-1.8.3-2.4.7-.7.5-1.2 1.1-1.6 2a7 7 0 0 0-.5 2.7h-6.2a10 10 0 0 1 5-8.8 11 11 0 0 1 5.8-1.4c2.2 0 4 .3 5.6 1 1.5.7 2.6 1.8 3.4 3a9 9 0 0 1 1.2 4.8 9.5 9.5 0 0 1-.5 3c-.3 1-.8 2-1.4 3-.6 1-1.4 1.9-2.2 2.9l-2.9 3-5.4 6.2h13.4zm25.3 0v4.8h-21.4v-4.1l10-10.9c1.1-1.1 2-2.1 2.5-3 .6-.8 1-1.6 1.3-2.3a5.7 5.7 0 0 0 0-4.4c-.4-.7-.9-1.2-1.5-1.6-.6-.4-1.3-.6-2.2-.6-1 0-1.8.3-2.5.7-.7.5-1.2 1.1-1.5 2a7 7 0 0 0-.5 2.7h-6.3a10 10 0 0 1 5.1-8.8 11 11 0 0 1 5.8-1.4c2.2 0 4 .3 5.5 1a8 8 0 0 1 3.5 3 9 9 0 0 1 1.2 4.8 9.5 9.5 0 0 1-.5 3c-.4 1-.8 2-1.5 3-.6 1-1.3 1.9-2.1 2.9l-2.9 3-5.4 6.2h13.4zm14.6-4.8H528c0-1.3 0-2.4.3-3.3.2-1 .5-1.8 1-2.5.5-.8 1.1-1.6 2-2.3l1.7-1.7c.5-.6.9-1.1 1.2-1.7.2-.6.4-1.2.4-2s-.1-1.5-.4-2c-.3-.6-.6-1-1.1-1.3-.5-.3-1.1-.4-1.9-.4a3.7 3.7 0 0 0-1.7.4c-.5.3-1 .7-1.3 1.2-.3.5-.5 1.3-.5 2.1h-6.2a8 8 0 0 1 1.3-4.8c.9-1.3 2-2.3 3.5-2.9a13.1 13.1 0 0 1 10 0c1.5.7 2.6 1.7 3.4 3a8.6 8.6 0 0 1 1.1 4.5c0 1.2-.2 2.3-.7 3.3-.5 1-1.1 1.9-2 2.7l-2.5 2.6a6 6 0 0 0-1.7 2.3c-.3.8-.4 1.7-.5 2.8zm-6 6.7a3 3 0 0 1 .9-2.3c.6-.6 1.4-1 2.5-1 1 0 1.9.4 2.5 1a3 3 0 0 1 1 2.3 3 3 0 0 1-1 2.2c-.6.6-1.5 1-2.5 1s-2-.4-2.5-1-1-1.3-1-2.2z"/>
  <circle cx="78.5" cy="252" r="19" fill="#fff" stroke="#000" stroke-width="2"/>
  <path fill="#000" d="M126.5 244.5V258h-1.8l-6.8-10.4V258H116v-13.5h1.8l6.8 10.4v-10.4h1.8zm2.4 8.6v-.2c0-.7.1-1.4.3-2 .2-.7.5-1.2 1-1.7a4 4 0 0 1 1.4-1c.5-.3 1.2-.4 1.9-.4s1.3.1 1.9.4a4 4 0 0 1 1.4 1l1 1.7c.1.6.3 1.3.3 2v.2c0 .7-.2 1.4-.4 2a4.8 4.8 0 0 1-.9 1.6 4.2 4.2 0 0 1-3.3 1.5c-.7 0-1.3-.1-2-.4a4.3 4.3 0 0 1-1.4-1c-.4-.5-.7-1-.9-1.7s-.3-1.3-.3-2zm1.7-.2v.2a5.5 5.5 0 0 0 .2 1.4l.5 1.2 1 .8c.3.2.7.3 1.2.3s.9-.1 1.2-.3l1-.8.4-1.2c.2-.4.2-1 .2-1.4v-.2c0-.5 0-1-.2-1.4a3.6 3.6 0 0 0-.5-1.2 2.5 2.5 0 0 0-.9-.8c-.3-.2-.8-.3-1.2-.3a2.5 2.5 0 0 0-1.3.3 2.7 2.7 0 0 0-.9.8l-.5 1.2-.2 1.4z"/>
  <circle cx="78.5" cy="316" r="19" fill="#fff" stroke="#000" stroke-width="2"/>
  <path fill="#000" d="m116.7 308.5 3.5 6.8 3.5-6.8h2l-4.6 8.5v5h-1.8v-5l-4.7-8.5h2zm14 13.7a4.3 4.3 0 0 1-4.3-2.9l-.2-2v-.4c0-.8 0-1.5.3-2.1l1-1.7c.4-.5.9-.8 1.4-1a4 4 0 0 1 1.6-.3 6 6 0 0 1 2 .3c.4.3.9.6 1.2 1 .3.5.6 1 .7 1.6a7.4 7.4 0 0 1 .3 2v.8h-7.5V316h5.8v-.2l-.3-1.3a2.3 2.3 0 0 0-.8-1c-.3-.3-.8-.4-1.4-.4a2.3 2.3 0 0 0-1 .2 2.3 2.3 0 0 0-.9.8l-.5 1.1a7 7 0 0 0-.2 1.6v.4c0 .5 0 1 .2 1.4a3.4 3.4 0 0 0 .6 1c.2.4.5.6.9.8.4.2.8.3 1.3.3.6 0 1-.1 1.5-.4s.8-.6 1.1-1l1 .8c-.2.4-.4.7-.8 1l-1.2.7c-.5.2-1 .3-1.7.3zm11.8-2.9-.1-.6c-.1-.3-.4-.5-.7-.6-.3-.2-.8-.4-1.5-.5a11.8 11.8 0 0 1-1.5-.4l-1.1-.6a2.5 2.5 0 0 1-.8-.8l-.2-1c0-.5 0-.9.3-1.2.1-.4.4-.7.7-1a3.7 3.7 0 0 1 1.2-.6l1.5-.2a4 4 0 0 1 2 .4l1.4 1.1c.3.5.4 1 .4 1.6h-1.7c0-.3 0-.5-.2-.8l-.7-.7-1.2-.2c-.5 0-.8 0-1.1.2l-.7.6a1.4 1.4 0 0 0 0 1.2 1.1 1.1 0 0 0 .3.4l.7.3 1.1.3c.9.2 1.5.4 2 .7s1 .6 1.3 1 .3.8.3 1.3a2.6 2.6 0 0 1-.2 1.2l-.8 1-1.2.6a5.5 5.5 0 0 1-1.6.2c-1 0-1.7-.2-2.3-.5s-1-.7-1.4-1.2-.4-1-.4-1.6h1.7c0 .5.1.8.4 1.1.2.3.5.5.9.6l1 .2c.5 0 1 0 1.2-.2.4-.1.6-.3.8-.5s.2-.5.2-.8z"/>
  <path fill="#0065bd" d="M58.5 376h122v56h-122z"/>
  <path fill="#fff" d="M84.8 397.6V409h-2.4l-4.5-7.6v7.6h-2.4v-11.4H78l4.5 7.7v-7.7h2.4zm5.7 11.6c-.6 0-1.2-.1-1.7-.4-.6-.2-1-.5-1.4-.8a4 4 0 0 1-.8-1.3c-.2-.5-.3-1-.3-1.6v-.4c0-.6.1-1.2.3-1.7a4.1 4.1 0 0 1 .8-1.4c.3-.4.7-.7 1.2-.9a4 4 0 0 1 1.7-.3c.6 0 1.1 0 1.6.3l1.1.8c.4.4.6.8.8 1.3l.2 1.7v1h-6.7V404h4.5v-.2c0-.3 0-.6-.2-.8 0-.3-.3-.5-.5-.6l-.8-.3-.8.2-.5.6a3 3 0 0 0-.3.8 5.3 5.3 0 0 0-.1 1v.4a3 3 0 0 0 .1.9l.4.7a1.9 1.9 0 0 0 .7.5 2.2 2.2 0 0 0 .9.2c.4 0 .8 0 1.1-.2.4-.2.7-.4 1-.8l1 1.2-.7.8a3.9 3.9 0 0 1-1.1.5c-.4.2-1 .3-1.5.3zm6.6-8.7 1.4 2.6 1.4-2.6h2.4l-2.4 4.2 2.5 4.3H100l-1.5-2.7L97 409h-2.5l2.5-4.3-2.3-4.2H97zm10.4 0v1.6h-5v-1.6h5zm-3.7-2h2.2v8l.1.5.3.3a1.5 1.5 0 0 0 .5 0h.7v1.7a4.2 4.2 0 0 1-.6.1 4.7 4.7 0 0 1-.8 0c-.5 0-.9 0-1.3-.2a1.8 1.8 0 0 1-.8-.8 3 3 0 0 1-.3-1.4v-8.2z"/>
  <g clip-path="url(#a)">
    <path fill="#fff" d="m154.6 395-2.1 2.1 6.9 6.9-6.9 6.9 2.1 2.1 9-9-9-9z"/>
  </g>
  <circle cx="36.5" cy="35.5" r="17.5" fill="#fff"/>
  <g clip-path="url(#b)">
    <path fill="#428542" d="M36 16a20 20 0 1 0 0 40 20 20 0 0 0 0-40zm-4 30L22 36l2.8-2.8 7.2 7.1 15.2-15.1L50 28 32 46z"/>
  </g>
  <path stroke="#428542" stroke-width="2" d="M46 336.1V374m7-37H39m14 38H39"/>
  <defs>
    <clipPath id="a">
      <path fill="#fff" d="M0 0h24v24H0z" transform="translate(144.5 392)"/>
    </clipPath>
    <clipPath id="b">
      <path fill="#fff" d="M0 0h48v48H0z" transform="translate(12 12)"/>
    </clipPath>
  </defs>
</svg>
