<svg xmlns="http://www.w3.org/2000/svg" fill="none" viewBox="0 0 830 564">
  <path fill="#fff" d="M0 0h830v564H0z"/>
  <path fill="#F8F8F8" d="M96.5 56h680v452h-680z"/>
  <path fill="#0065BD" d="M96.5 56h680v4h-680z"/>
  <path fill="#000" d="M132 100.7V122h-4.4v-21.3h4.3Zm6.5 0v3.4h-17.4v-3.4h17.4Zm8.2 21.6c-1.3 0-2.4-.2-3.3-.6a7.3 7.3 0 0 1-4.6-7v-.7c0-1.2.1-2.3.5-3.3.3-1 .8-1.8 1.4-2.6a7.7 7.7 0 0 1 5.4-2.3c1.2 0 2.2.2 3 .6 1 .4 1.7 1 2.3 1.6.6.7 1 1.5 1.3 2.5.3.9.5 2 .5 3.1v1.8h-12.6v-2.8h8.4v-.4c0-.5 0-1-.3-1.5-.2-.5-.5-.9-1-1.1a3 3 0 0 0-1.6-.4c-.5 0-1 0-1.4.3l-1 1-.5 1.6-.2 2v.5c0 .7 0 1.2.3 1.8.1.5.4 1 .7 1.4a4 4 0 0 0 2.9 1.2c.8 0 1.5-.1 2.2-.4.6-.3 1.2-.8 1.7-1.4l2 2.2c-.3.5-.8 1-1.3 1.4a8.5 8.5 0 0 1-4.8 1.5Zm13-12.8V122h-4.2v-15.8h4l.2 3.3Zm-.6 4h-1.2a9.6 9.6 0 0 1 1.8-5.6 5.5 5.5 0 0 1 4.5-2c.7 0 1.4 0 2 .3a4 4 0 0 1 1.6 1c.4.5.8 1 1 1.9.3.7.4 1.7.4 2.8V122h-4.3v-10.1c0-.7 0-1.3-.3-1.7-.2-.4-.4-.6-.8-.8l-1.4-.2a3 3 0 0 0-1.5.3 3 3 0 0 0-1 1c-.3.3-.5.8-.6 1.3l-.2 1.7Zm21.8 5v-7.1c0-.5 0-1-.2-1.3-.2-.4-.4-.7-.8-.9-.3-.2-.8-.3-1.3-.3s-.9 0-1.2.2c-.4.2-.6.4-.8.7a2 2 0 0 0-.3 1h-4.2c0-.6.1-1.2.4-1.9a6.7 6.7 0 0 1 3.5-2.7 9.2 9.2 0 0 1 6.1.3 5 5 0 0 1 2.3 1.8c.5.8.8 1.9.8 3v6.9l.1 2.1.5 1.5v.2h-4.2a6 6 0 0 1-.5-1.6l-.2-2Zm.6-6.2v2.4h-2.3l-1.5.2c-.4.2-.7.3-1 .6a2 2 0 0 0-.6.8l-.2 1 .3 1 .7.6c.3.2.7.2 1.1.2.6 0 1.2 0 1.7-.3a3 3 0 0 0 1-1c.3-.3.4-.7.5-1l1 1.8a7.3 7.3 0 0 1-1.6 2.4c-.4.4-.9.7-1.5 1-.5.2-1.2.3-2 .3-1 0-2-.2-2.8-.6a5 5 0 0 1-1.9-1.7 4 4 0 0 1-.7-2.5c0-.8.2-1.5.5-2.2.3-.6.8-1.2 1.4-1.6.6-.4 1.3-.8 2.3-1 .9-.2 2-.4 3.2-.4h2.4Zm11-2.8V122h-4.1v-15.8h4l.2 3.3Zm-.5 4h-1.2c0-1.2.2-2.2.5-3.1.3-1 .7-1.8 1.2-2.5a5.5 5.5 0 0 1 4.5-2c.8 0 1.5 0 2 .3.7.2 1.2.5 1.7 1 .4.5.7 1 1 1.9.2.7.3 1.7.3 2.8V122h-4.2v-10.1a4 4 0 0 0-.3-1.7c-.2-.4-.5-.6-.9-.8l-1.3-.2a3 3 0 0 0-1.5.3 3 3 0 0 0-1 1c-.3.3-.5.8-.6 1.3-.2.5-.2 1.1-.2 1.7Zm21-7.3v3h-9.2v-3h9.2Zm-7-4h4.3v15c0 .5 0 .8.2 1 .1.3.3.5.5.6l1 .1a7.7 7.7 0 0 0 1.2 0v3a7.9 7.9 0 0 1-5 0c-.7-.4-1.2-.9-1.6-1.6-.3-.6-.5-1.5-.5-2.7v-15.4Zm26.3 16.3v-19h4.2V122h-3.8l-.4-3.5Zm-10-4.2v-.3c0-1.3 0-2.4.3-3.3a9 9 0 0 1 1.2-2.6 5.5 5.5 0 0 1 4.6-2.2 4.9 4.9 0 0 1 4.2 2.2 9.9 9.9 0 0 1 1.9 5.7v.7a17 17 0 0 1-.7 3 9 9 0 0 1-1.2 2.6c-.4.7-1 1.2-1.7 1.6a5 5 0 0 1-2.5.6c-1 0-1.9-.2-2.6-.6-.8-.4-1.4-1-2-1.7a8 8 0 0 1-1.2-2.5c-.2-1-.4-2-.4-3.2Zm4.2-.3v.3l.1 1.8.5 1.5c.3.4.6.8 1 1 .3.3.8.4 1.4.4a3 3 0 0 0 1.8-.5 3 3 0 0 0 1-1.4c.3-.6.4-1.2.5-2v-1.9a7 7 0 0 0-.3-1.6c-.1-.5-.3-1-.6-1.3-.3-.4-.6-.6-1-.8a3 3 0 0 0-1.4-.3c-.5 0-1 0-1.4.3l-1 1-.5 1.6-.1 1.9Zm20.6 8.3c-1.2 0-2.3-.2-3.3-.6a7.3 7.3 0 0 1-4.6-7v-.7a8.4 8.4 0 0 1 2-5.9c.6-.7 1.4-1.3 2.3-1.6 1-.4 2-.6 3.1-.6s2.1.1 3 .5c.9.4 1.6 1 2.2 1.6.6.7 1 1.5 1.3 2.5.3.9.5 2 .5 3.1v1.8H241v-2.8h8.4v-.4c0-.5 0-1-.3-1.5-.2-.5-.5-.9-1-1.1-.3-.3-.9-.4-1.5-.4s-1 0-1.5.3l-1 1-.5 1.6-.2 2v.5c0 .7.1 1.2.3 1.8.2.5.4 1 .8 1.4.3.4.7.7 1.2.9a5.1 5.1 0 0 0 3.8-.1c.6-.3 1.2-.8 1.7-1.4l2 2.2c-.3.5-.7 1-1.3 1.4a7.3 7.3 0 0 1-4.8 1.5Zm16.7-16.1v3h-9.3v-3h9.3Zm-7-4h4.2v15l.2 1c.1.3.3.5.6.6l.9.1a7.7 7.7 0 0 0 1.2 0v3a7.9 7.9 0 0 1-5 0c-.6-.4-1.2-.9-1.5-1.6a5 5 0 0 1-.6-2.7v-15.4Zm18 16.2v-7c0-.5-.2-1-.3-1.3-.2-.4-.5-.7-.8-.9-.3-.2-.8-.3-1.3-.3s-1 0-1.3.2c-.3.2-.6.4-.7.7a2 2 0 0 0-.3 1h-4.2c0-.6.1-1.2.4-1.9.3-.6.8-1 1.4-1.5.6-.5 1.3-.9 2.1-1.1a9.2 9.2 0 0 1 6 .2 5 5 0 0 1 2.3 1.8c.6.8.9 1.9.9 3v6.9l.1 2.1.5 1.5v.2h-4.3l-.4-1.6-.2-2Zm.5-6v2.3H273l-1.4.2c-.4.2-.8.3-1 .6-.3.2-.5.5-.6.8l-.2 1 .3 1 .7.6c.3.2.7.2 1 .2.7 0 1.3 0 1.7-.3a3 3 0 0 0 1.1-1c.3-.3.4-.7.4-1l1.2 1.8a7.2 7.2 0 0 1-1.7 2.4c-.4.4-1 .7-1.5 1a6 6 0 0 1-2 .3c-1 0-2-.2-2.8-.6a5 5 0 0 1-2-1.7c-.4-.7-.6-1.5-.6-2.5 0-.8.1-1.5.5-2.2a4 4 0 0 1 1.3-1.6c.7-.4 1.4-.8 2.3-1 1-.2 2-.4 3.2-.4h2.5Zm11.4-6.3V122h-4.3v-15.8h4.3Zm-4.5-4c0-.7.2-1.2.6-1.6.4-.4 1-.6 1.7-.6.8 0 1.3.2 1.8.6.4.4.6.9.6 1.5a2 2 0 0 1-.6 1.5c-.5.4-1 .6-1.8.6-.7 0-1.3-.2-1.7-.6a2 2 0 0 1-.6-1.5Zm12.4-2.6V122h-4.2V99.5h4.2Zm12 18.1c0-.3 0-.6-.2-.8-.2-.2-.5-.5-1-.7l-2-.6c-.8-.1-1.6-.4-2.3-.6l-1.7-1c-.5-.4-1-.8-1.2-1.3a4.2 4.2 0 0 1 0-3.7c.3-.6.7-1.1 1.2-1.6a7.7 7.7 0 0 1 4.7-1.4c1.4 0 2.5.2 3.5.6 1 .5 1.8 1 2.3 1.8.6.8.8 1.7.8 2.6h-4.2c0-.4 0-.7-.3-1-.1-.4-.4-.6-.7-.8-.4-.2-.9-.3-1.4-.3-.5 0-.9 0-1.2.2-.4.2-.6.4-.8.7a1.6 1.6 0 0 0-.2 1.5c.2.2.3.4.6.5l.9.5 1.4.3c1.1.2 2.1.5 3 1 1 .3 1.6.8 2.2 1.5.5.6.8 1.4.8 2.5a4 4 0 0 1-.5 1.9c-.3.6-.8 1-1.3 1.5a5 5 0 0 1-2.2 1 9.8 9.8 0 0 1-6.4-.4 6 6 0 0 1-2.4-2c-.5-.8-.7-1.7-.7-2.5h4c0 .6.1 1 .4 1.4.3.3.6.6 1 .7l1.5.3c.5 0 1-.1 1.4-.3.3-.1.6-.3.8-.6.2-.2.3-.5.3-.9Z"/>
  <path fill="#333" d="M124.5 156.5V170h-2.8v-13.5h2.8Zm5.4 5.8v2.1h-6.2v-2.1h6.2Zm.6-5.8v2.2h-6.8v-2.2h6.8Zm7.2 11.1V160h2.7v10h-2.5l-.2-2.4Zm.3-2h.8c0 .6 0 1.2-.2 1.8l-.7 1.5-1.2 1c-.5.2-1 .3-1.7.3-.5 0-1 0-1.3-.2-.4-.2-.8-.4-1-.7-.4-.3-.6-.7-.8-1.1l-.2-1.8V160h2.7v7.2l.4.5.4.3h.6c.6 0 1 0 1.3-.3.3-.2.6-.5.7-.9l.2-1.3Zm7.2-9.8V170h-2.6v-14.3h2.6Zm5 0V170h-2.6v-14.3h2.7Zm9.6 6.3v7.9h-2.7v-10h2.6l.1 2.1Zm-.4 2.5h-.7c0-.7.1-1.4.3-2 .2-.6.5-1 .8-1.5.3-.4.8-.8 1.2-1 .5-.2 1-.3 1.6-.3.5 0 1 0 1.3.2.4.1.8.3 1 .6.3.3.5.7.7 1.2l.2 1.8v6.4h-2.7v-6.4c0-.5 0-.8-.2-1a1 1 0 0 0-.5-.6l-.9-.1a2 2 0 0 0-1 .2l-.6.6c-.1.2-.3.5-.3.9l-.2 1Zm13.9 3.1v-4.4c0-.4 0-.6-.2-.9 0-.2-.3-.4-.5-.5l-.8-.2c-.3 0-.6 0-.8.2-.2 0-.4.2-.5.4l-.2.6h-2.6c0-.4 0-.8.3-1.2.2-.3.4-.7.8-1l1.4-.7a5.8 5.8 0 0 1 3.8.2c.6.2 1 .6 1.4 1.1.4.6.6 1.2.6 2v5.6l.4 1v.1h-2.7c-.2-.3-.3-.6-.3-1l-.1-1.3Zm.3-3.8v1.5h-1.5l-.9.1-.6.4-.4.5v1.2l.5.4.7.2c.4 0 .8 0 1-.3.4-.1.6-.3.7-.5l.3-.7.7 1.1a4.6 4.6 0 0 1-1 1.6l-1 .6-1.3.2c-.6 0-1.2-.1-1.7-.4-.5-.3-1-.6-1.2-1a3 3 0 0 1-.2-3c.2-.4.5-.8.9-1a4 4 0 0 1 1.5-.7l2-.2h1.5Zm7-1.9v8H178v-10h2.5l.2 2Zm-.3 2.6h-.7c0-.7 0-1.3.2-1.9.2-.6.5-1.1.8-1.5a3.4 3.4 0 0 1 3-1.4c.4 0 .8 0 1.1.2.4.1.7.3 1 .6.3.3.5.6.6 1.1.2.4.2 1 .2 1.6v6.7H184v-6.4c0-.5 0-.8-.2-1a1 1 0 0 0-.5-.6 2 2 0 0 0-.8-.1c-.4 0-.7 0-1 .2l-.6.6c-.2.2-.3.5-.4.9v1Zm6-.3-1 .1.3-1.8c.1-.5.4-1 .7-1.5a4 4 0 0 1 1.2-1c.5-.2 1-.3 1.7-.3.5 0 1 0 1.3.2.4.1.7.3 1 .6.3.3.5.7.7 1.2l.2 1.8v6.4h-2.7v-6.4c0-.5 0-.8-.2-1a1 1 0 0 0-.5-.6 2 2 0 0 0-.8-.1 1.8 1.8 0 0 0-1.4.7l-.4.8-.1 1Zm12.8 5.9c-.8 0-1.5-.1-2.1-.4a4.6 4.6 0 0 1-2.9-4.5v-.3c0-.8.1-1.5.3-2.1.2-.7.5-1.2 1-1.7a4 4 0 0 1 1.4-1c.6-.3 1.3-.4 2-.4s1.3 0 1.9.3l1.4 1a6.4 6.4 0 0 1 1.1 3.6v1.1h-8V164h5.4v-.2c0-.4 0-.7-.2-1-.1-.3-.3-.5-.6-.7-.3-.2-.6-.2-1-.2s-.7 0-1 .2l-.6.6-.3 1-.1 1.3v.3l.1 1.1.5 1 .8.5 1 .2c.5 0 1 0 1.4-.3a3 3 0 0 0 1-.8l1.4 1.4a4.6 4.6 0 0 1-2.2 1.6l-1.7.2Z"/>
  <path fill="#fff" stroke="#333" stroke-width="2" d="M121.5 189h630v46h-630z"/>
  <path fill="#333" d="M130.8 279.8v2.2h-7.2v-2.2h7.2Zm-6.3-11.3V282h-2.8v-13.5h2.8Zm5.3 5.5v2.1h-6.2V274h6.2Zm1-5.5v2.2h-7.2v-2.2h7.2Zm4.1 5.5v8h-2.7v-10h2.5l.2 2Zm-.4 2.6h-.7c0-.7 0-1.3.2-1.9.2-.6.5-1.1.8-1.5a3.4 3.4 0 0 1 3-1.4c.4 0 .8 0 1.1.2.4.1.7.3 1 .6.3.3.5.6.6 1.1.2.4.3 1 .3 1.6v6.7H138v-6.4c0-.5 0-.8-.2-1a1 1 0 0 0-.5-.6 2 2 0 0 0-.8-.1c-.4 0-.7 0-1 .2l-.6.6-.4.9v1Zm6-.3-1 .1.3-1.8.7-1.5c.3-.4.8-.7 1.2-1 .5-.2 1-.3 1.7-.3.5 0 1 0 1.3.2.4.1.8.3 1 .6.3.3.5.7.7 1.2l.2 1.8v6.4H144v-6.4c0-.5 0-.8-.2-1a1 1 0 0 0-.5-.6 2 2 0 0 0-.8-.1 1.8 1.8 0 0 0-1.4.7l-.4.8-.1 1Zm13.6 3.4v-4.4c0-.4 0-.6-.2-.9 0-.2-.2-.4-.4-.5l-.9-.2c-.3 0-.5 0-.8.2-.2 0-.3.2-.5.4l-.1.6h-2.7c0-.4 0-.8.3-1.2l.8-1 1.4-.7a5.8 5.8 0 0 1 3.8.2c.6.2 1.1.6 1.5 1.1.3.6.5 1.2.5 2v5.6l.4 1v.1h-2.7l-.3-1-.1-1.3Zm.4-3.8v1.5H153l-1 .1-.6.4c-.1.1-.3.3-.3.5l-.2.6c0 .2 0 .4.2.6l.5.4.6.2c.4 0 .8 0 1-.3.4-.1.6-.3.8-.5l.2-.7.7 1.1a4.6 4.6 0 0 1-1 1.6l-1 .6-1.2.2c-.7 0-1.3-.1-1.8-.4a4 4 0 0 1-1.2-1 3 3 0 0 1-.4-1.6c0-.5 0-1 .3-1.4.2-.4.4-.8.8-1a4 4 0 0 1 1.5-.7l2-.2h1.6Zm7.2-4V282H159v-10h2.7Zm-2.9-2.6c0-.3.2-.7.4-1a2 2 0 0 1 1.1-.3c.5 0 .8.1 1.1.4.3.2.4.6.4 1 0 .3-.1.7-.4 1-.3.2-.6.3-1 .3-.5 0-.9-.1-1.2-.4-.2-.2-.4-.6-.4-1Zm7.9-1.6V282H164v-14.3h2.7Z"/>
  <path fill="#fff" stroke="#333" stroke-width="2" d="M121.5 301h630v46h-630z"/>
  <path fill="#333" d="M127 389.2h-3.5V387h3.5c.5 0 1 0 1.3-.2l.7-.8c.2-.3.2-.7.2-1 0-.5 0-.8-.2-1.2l-.7-.8c-.4-.2-.8-.3-1.3-.3h-2.5V394h-2.8v-13.5h5.3c1 0 2 .2 2.7.6a4.1 4.1 0 0 1 2.3 3.8c0 .9-.2 1.7-.6 2.3a4 4 0 0 1-1.7 1.5c-.8.3-1.7.5-2.7.5Zm9.4-9.4V394h-2.7v-14.3h2.7Zm-.4 8.8h-.7c0-.7 0-1.3.3-1.9.1-.6.4-1.1.7-1.5a3.4 3.4 0 0 1 2.8-1.4c.5 0 1 0 1.3.2.4.1.8.3 1 .7.4.3.6.7.8 1.2l.2 1.8v6.3h-2.7v-6.4c0-.4 0-.8-.2-1a1 1 0 0 0-.5-.6 2 2 0 0 0-.9-.1c-.4 0-.7 0-1 .2-.3.1-.5.3-.6.6-.2.2-.3.5-.4.9v1Zm8 .5v-.2c0-.7.1-1.4.3-2 .2-.7.5-1.2 1-1.7a3 3 0 0 1 1.4-1 5 5 0 0 1 2-.4 5 5 0 0 1 2 .4c.7.2 1.2.6 1.6 1a6.3 6.3 0 0 1 1.2 3.7v.2c0 .7 0 1.4-.3 2-.2.6-.5 1.2-1 1.6-.3.5-.8.9-1.4 1.1a5 5 0 0 1-2 .4 4 4 0 0 1-2-.4 4.2 4.2 0 0 1-2.5-2.7c-.2-.6-.3-1.3-.3-2Zm2.7-.2v1.4l.4 1 .7.6 1 .2c.3 0 .7 0 1-.2l.6-.7.3-1 .1-1.1v-1.4a3 3 0 0 0-.4-1l-.7-.6c-.3-.2-.6-.2-1-.2-.3 0-.6 0-1 .2l-.6.7-.3 1-.1 1Zm11-2.8v7.9h-2.6v-10h2.5l.2 2.1Zm-.3 2.5h-.7c0-.7 0-1.4.3-2 .1-.6.4-1 .8-1.5a3 3 0 0 1 1.2-1c.5-.2 1-.3 1.6-.3.5 0 1 0 1.3.2a2.3 2.3 0 0 1 1.6 1.8c.2.5.3 1 .3 1.8v6.4H161v-6.4c0-.5 0-.8-.2-1a1 1 0 0 0-.5-.6l-1-.1a2 2 0 0 0-.9.2l-.6.6c-.2.2-.3.5-.4.9l-.1 1Zm13 5.6c-.7 0-1.4-.1-2-.4a4.6 4.6 0 0 1-3-4.5v-.3c0-.8.1-1.5.4-2.1a4 4 0 0 1 2.4-2.7 4 4 0 0 1 2-.4c.6 0 1.3 0 1.8.3.6.3 1 .6 1.4 1 .4.5.7 1 .9 1.6.2.6.3 1.3.3 2v1.1h-8V388h5.3v-.2c0-.4 0-.7-.2-1-.1-.3-.3-.5-.6-.7-.2-.2-.6-.2-1-.2-.3 0-.7 0-.9.2-.3.1-.5.4-.6.6l-.4 1v2.7l.6 1 .7.5 1.1.2c.5 0 1-.1 1.3-.3a3 3 0 0 0 1.1-.8l1.3 1.4a4.6 4.6 0 0 1-2.2 1.6l-1.7.2Zm13-8v7.8h-2.7v-10h2.6l.1 2.1Zm-.4 2.4h-.7c0-.7.1-1.4.3-2 .2-.6.5-1 .8-1.5.3-.4.8-.8 1.2-1 .5-.2 1-.3 1.6-.3.5 0 1 0 1.3.2.4.1.8.3 1 .6.3.3.5.7.7 1.2l.2 1.8v6.4h-2.7v-6.4c0-.5 0-.8-.2-1a1 1 0 0 0-.5-.6l-.9-.1a2 2 0 0 0-1 .2l-.6.6c-.1.2-.3.5-.3.9l-.2 1Zm14.4 3V384h2.7v10h-2.6l-.1-2.4Zm.3-2h.8l-.3 1.8a3 3 0 0 1-.7 1.5l-1.1 1c-.5.2-1 .3-1.7.3-.5 0-1 0-1.3-.2-.4-.2-.8-.4-1-.7-.4-.3-.6-.7-.8-1.1l-.2-1.8V384h2.7v7.2l.4.5.4.3h.6c.6 0 1 0 1.3-.3.3-.2.6-.5.7-.9l.2-1.3Zm7-3.6v8h-2.6v-10h2.5l.2 2Zm-.3 2.6h-.7c0-.7 0-1.3.2-1.9.2-.6.4-1.1.8-1.5a3.4 3.4 0 0 1 2.9-1.4c.4 0 .8 0 1.2.2.4.1.7.3 1 .6.2.3.5.6.6 1.1.2.4.2 1 .2 1.6v6.7H208v-6.4l-.2-1a1 1 0 0 0-.6-.6 2 2 0 0 0-.8-.1c-.3 0-.6 0-.9.2l-.6.6c-.2.2-.3.5-.4.9l-.1 1Zm6-.3-1 .1.3-1.8c.1-.5.4-1 .7-1.5a4 4 0 0 1 1.2-1c.5-.2 1-.3 1.7-.3.5 0 .9 0 1.3.2.4.1.7.3 1 .6.3.3.5.7.7 1.2l.2 1.8v6.4h-2.7v-6.4c0-.5 0-.8-.2-1a1 1 0 0 0-.5-.6 2 2 0 0 0-.8-.1 1.8 1.8 0 0 0-1.4.7l-.4.8-.1 1Zm8.2-8.6h2.6v12l-.2 2.3h-2.4v-14.3Zm9 9.2v.2c0 .7 0 1.4-.3 2-.1.7-.3 1.2-.7 1.7a3 3 0 0 1-1.2 1 3 3 0 0 1-1.7.4c-.6 0-1.2-.1-1.6-.4-.4-.2-.8-.6-1.1-1a6 6 0 0 1-.8-1.6 12 12 0 0 1-.4-2v-.4l.4-2a6 6 0 0 1 .8-1.6c.3-.5.7-.8 1.1-1 .4-.3 1-.4 1.6-.4.6 0 1.2.1 1.7.4.5.2.9.6 1.2 1 .4.5.6 1 .7 1.6.2.6.3 1.3.3 2Zm-2.7.2v-1.4a3 3 0 0 0-.4-1l-.6-.6-.9-.2a2 2 0 0 0-1 .2c-.2 0-.4.3-.6.5l-.3.8-.2 1v1.2c0 .5.1 1 .3 1.3.1.4.3.7.6.9.3.2.7.3 1.2.3.4 0 .7 0 1-.2l.5-.7c.2-.2.3-.6.3-1l.1-1.1Zm9 5c-.8 0-1.5 0-2.1-.3a4.6 4.6 0 0 1-3-4.5v-.3c0-.8.2-1.5.4-2.1a5 5 0 0 1 1-1.7 4 4 0 0 1 1.4-1c.6-.3 1.2-.4 2-.4a4 4 0 0 1 1.9.3c.5.3 1 .6 1.3 1 .4.5.7 1 .9 1.6.2.6.3 1.3.3 2v1.1h-8V388h5.4v-.2l-.2-1-.6-.7c-.3-.2-.6-.2-1-.2s-.7 0-1 .2l-.6.6-.3 1-.1 1.3v.3l.1 1.1.5 1 .8.5 1 .2c.5 0 1-.1 1.4-.3a3 3 0 0 0 1-.8l1.4 1.4a4.6 4.6 0 0 1-2.2 1.6l-1.7.2Zm8.3-8v7.9h-2.7v-10h2.5l.2 2.2Zm3-2.2v2.5a6 6 0 0 0-2 0l-.7.5-.4.6-.1 1-.6-.2c0-.7 0-1.3.2-1.8.2-.6.3-1 .6-1.4a2 2 0 0 1 1-1c.3-.2.7-.3 1.2-.3a3 3 0 0 1 .8.1Z"/>
  <path fill="#fff" stroke="#333" stroke-width="2" d="M121.5 413h348v46h-348z"/>
  <path stroke="#428542" stroke-width="2" d="M53.5 167h30m-30 43h30m-30 111h30m-30-43h30m-30 154h30m-30-43h30m-29-221v265"/>
</svg>
