<svg xmlns="http://www.w3.org/2000/svg" fill="none" viewBox="0 0 830 1080">
  <path fill="#fff" d="M0 0h830v1080H0z"/>
  <path fill="#F8F8F8" d="M96.5 56h680v968h-680z"/>
  <path fill="#0065BD" d="M96.5 56h680v4h-680z"/>
  <path fill="#000" d="M132 100.7V122h-4.4v-21.3h4.3Zm6.5 0v3.4h-17.4v-3.4h17.4Zm8.2 21.6c-1.3 0-2.4-.2-3.3-.6a7.3 7.3 0 0 1-4.6-7v-.7c0-1.2.1-2.3.5-3.3.3-1 .8-1.8 1.4-2.6a7.7 7.7 0 0 1 5.4-2.3c1.2 0 2.2.2 3 .6 1 .4 1.7 1 2.3 1.6.6.7 1 1.5 1.3 2.5.3.9.5 2 .5 3.1v1.8h-12.6v-2.8h8.4v-.4c0-.5 0-1-.3-1.5-.2-.5-.5-.9-1-1.1a3 3 0 0 0-1.6-.4c-.5 0-1 0-1.4.3l-1 1-.5 1.6-.2 2v.5c0 .7 0 1.2.3 1.8.1.5.4 1 .7 1.4a4 4 0 0 0 2.9 1.2c.8 0 1.5-.1 2.2-.4.6-.3 1.2-.8 1.7-1.4l2 2.2c-.3.5-.8 1-1.3 1.4a8.5 8.5 0 0 1-4.8 1.5Zm13-12.8V122h-4.2v-15.8h4l.2 3.3Zm-.6 4h-1.2a9.6 9.6 0 0 1 1.8-5.6 5.5 5.5 0 0 1 4.5-2c.7 0 1.4 0 2 .3a4 4 0 0 1 1.6 1c.4.5.8 1 1 1.9.3.7.4 1.7.4 2.8V122h-4.3v-10.1c0-.7 0-1.3-.3-1.7-.2-.4-.4-.6-.8-.8l-1.4-.2a3 3 0 0 0-1.5.3 3 3 0 0 0-1 1c-.3.3-.5.8-.6 1.3l-.2 1.7Zm21.8 5v-7.1c0-.5 0-1-.2-1.3-.2-.4-.4-.7-.8-.9-.3-.2-.8-.3-1.3-.3s-.9 0-1.2.2c-.4.2-.6.4-.8.7a2 2 0 0 0-.3 1h-4.2c0-.6.1-1.2.4-1.9a6.7 6.7 0 0 1 3.5-2.7 9.2 9.2 0 0 1 6.1.3 5 5 0 0 1 2.3 1.8c.5.8.8 1.9.8 3v6.9l.1 2.1.5 1.5v.2h-4.2a6 6 0 0 1-.5-1.6l-.2-2Zm.6-6.2v2.4h-2.3l-1.5.2c-.4.2-.7.3-1 .6a2 2 0 0 0-.6.8l-.2 1 .3 1 .7.6c.3.2.7.2 1.1.2.6 0 1.2 0 1.7-.3a3 3 0 0 0 1-1c.3-.3.4-.7.5-1l1 1.8a7.3 7.3 0 0 1-1.6 2.4c-.4.4-.9.7-1.5 1-.5.2-1.2.3-2 .3-1 0-2-.2-2.8-.6a5 5 0 0 1-1.9-1.7 4 4 0 0 1-.7-2.5c0-.8.2-1.5.5-2.2.3-.6.8-1.2 1.4-1.6.6-.4 1.3-.8 2.3-1 .9-.2 2-.4 3.2-.4h2.4Zm11-2.8V122h-4.1v-15.8h4l.2 3.3Zm-.5 4h-1.2c0-1.2.2-2.2.5-3.1.3-1 .7-1.8 1.2-2.5a5.5 5.5 0 0 1 4.5-2c.8 0 1.5 0 2 .3.7.2 1.2.5 1.7 1 .4.5.7 1 1 1.9.2.7.3 1.7.3 2.8V122h-4.2v-10.1a4 4 0 0 0-.3-1.7c-.2-.4-.5-.6-.9-.8l-1.3-.2a3 3 0 0 0-1.5.3 3 3 0 0 0-1 1c-.3.3-.5.8-.6 1.3-.2.5-.2 1.1-.2 1.7Zm21-7.3v3h-9.2v-3h9.2Zm-7-4h4.3v15c0 .5 0 .8.2 1 .1.3.3.5.5.6l1 .1a7.7 7.7 0 0 0 1.2 0v3a7.9 7.9 0 0 1-5 0c-.7-.4-1.2-.9-1.6-1.6-.3-.6-.5-1.5-.5-2.7v-15.4Zm26.3 16.3v-19h4.2V122h-3.8l-.4-3.5Zm-10-4.2v-.3c0-1.3 0-2.4.3-3.3a9 9 0 0 1 1.2-2.6 5.5 5.5 0 0 1 4.6-2.2 4.9 4.9 0 0 1 4.2 2.2 9.9 9.9 0 0 1 1.9 5.7v.7a17 17 0 0 1-.7 3 9 9 0 0 1-1.2 2.6c-.4.7-1 1.2-1.7 1.6a5 5 0 0 1-2.5.6c-1 0-1.9-.2-2.6-.6-.8-.4-1.4-1-2-1.7a8 8 0 0 1-1.2-2.5c-.2-1-.4-2-.4-3.2Zm4.2-.3v.3l.1 1.8.5 1.5c.3.4.6.8 1 1 .3.3.8.4 1.4.4a3 3 0 0 0 1.8-.5 3 3 0 0 0 1-1.4c.3-.6.4-1.2.5-2v-1.9a7 7 0 0 0-.3-1.6c-.1-.5-.3-1-.6-1.3-.3-.4-.6-.6-1-.8a3 3 0 0 0-1.4-.3c-.5 0-1 0-1.4.3l-1 1-.5 1.6-.1 1.9Zm20.6 8.3c-1.2 0-2.3-.2-3.3-.6a7.3 7.3 0 0 1-4.6-7v-.7a8.4 8.4 0 0 1 2-5.9c.6-.7 1.4-1.3 2.3-1.6 1-.4 2-.6 3.1-.6s2.1.1 3 .5c.9.4 1.6 1 2.2 1.6.6.7 1 1.5 1.3 2.5.3.9.5 2 .5 3.1v1.8H241v-2.8h8.4v-.4c0-.5 0-1-.3-1.5-.2-.5-.5-.9-1-1.1-.3-.3-.9-.4-1.5-.4s-1 0-1.5.3l-1 1-.5 1.6-.2 2v.5c0 .7.1 1.2.3 1.8.2.5.4 1 .8 1.4.3.4.7.7 1.2.9a5.1 5.1 0 0 0 3.8-.1c.6-.3 1.2-.8 1.7-1.4l2 2.2c-.3.5-.7 1-1.3 1.4a7.3 7.3 0 0 1-4.8 1.5Zm16.7-16.1v3h-9.3v-3h9.3Zm-7-4h4.2v15l.2 1c.1.3.3.5.6.6l.9.1a7.7 7.7 0 0 0 1.2 0v3a7.9 7.9 0 0 1-5 0c-.6-.4-1.2-.9-1.5-1.6a5 5 0 0 1-.6-2.7v-15.4Zm18 16.2v-7c0-.5-.2-1-.3-1.3-.2-.4-.5-.7-.8-.9-.3-.2-.8-.3-1.3-.3s-1 0-1.3.2c-.3.2-.6.4-.7.7a2 2 0 0 0-.3 1h-4.2c0-.6.1-1.2.4-1.9.3-.6.8-1 1.4-1.5.6-.5 1.3-.9 2.1-1.1a9.2 9.2 0 0 1 6 .2 5 5 0 0 1 2.3 1.8c.6.8.9 1.9.9 3v6.9l.1 2.1.5 1.5v.2h-4.3l-.4-1.6-.2-2Zm.5-6v2.3H273l-1.4.2c-.4.2-.8.3-1 .6-.3.2-.5.5-.6.8l-.2 1 .3 1 .7.6c.3.2.7.2 1 .2.7 0 1.3 0 1.7-.3a3 3 0 0 0 1.1-1c.3-.3.4-.7.4-1l1.2 1.8a7.2 7.2 0 0 1-1.7 2.4c-.4.4-1 .7-1.5 1a6 6 0 0 1-2 .3c-1 0-2-.2-2.8-.6a5 5 0 0 1-2-1.7c-.4-.7-.6-1.5-.6-2.5 0-.8.1-1.5.5-2.2a4 4 0 0 1 1.3-1.6c.7-.4 1.4-.8 2.3-1 1-.2 2-.4 3.2-.4h2.5Zm11.4-6.3V122h-4.3v-15.8h4.3Zm-4.5-4c0-.7.2-1.2.6-1.6.4-.4 1-.6 1.7-.6.8 0 1.3.2 1.8.6.4.4.6.9.6 1.5a2 2 0 0 1-.6 1.5c-.5.4-1 .6-1.8.6-.7 0-1.3-.2-1.7-.6a2 2 0 0 1-.6-1.5Zm12.4-2.6V122h-4.2V99.5h4.2Zm12 18.1c0-.3 0-.6-.2-.8-.2-.2-.5-.5-1-.7l-2-.6c-.8-.1-1.6-.4-2.3-.6l-1.7-1c-.5-.4-1-.8-1.2-1.3a4.2 4.2 0 0 1 0-3.7c.3-.6.7-1.1 1.2-1.6a7.7 7.7 0 0 1 4.7-1.4c1.4 0 2.5.2 3.5.6 1 .5 1.8 1 2.3 1.8.6.8.8 1.7.8 2.6h-4.2c0-.4 0-.7-.3-1-.1-.4-.4-.6-.7-.8-.4-.2-.9-.3-1.4-.3-.5 0-.9 0-1.2.2-.4.2-.6.4-.8.7a1.6 1.6 0 0 0-.2 1.5c.2.2.3.4.6.5l.9.5 1.4.3c1.1.2 2.1.5 3 1 1 .3 1.6.8 2.2 1.5.5.6.8 1.4.8 2.5a4 4 0 0 1-.5 1.9c-.3.6-.8 1-1.3 1.5a5 5 0 0 1-2.2 1 9.8 9.8 0 0 1-6.4-.4 6 6 0 0 1-2.4-2c-.5-.8-.7-1.7-.7-2.5h4c0 .6.1 1 .4 1.4.3.3.6.6 1 .7l1.5.3c.5 0 1-.1 1.4-.3.3-.1.6-.3.8-.6.2-.2.3-.5.3-.9Z"/>
  <path fill="#333" d="M124.5 156.5V170h-2.8v-13.5h2.8Zm5.4 5.8v2.1h-6.2v-2.1h6.2Zm.6-5.8v2.2h-6.8v-2.2h6.8Zm7.2 11.1V160h2.7v10h-2.5l-.2-2.4Zm.3-2h.8c0 .6 0 1.2-.2 1.8l-.7 1.5-1.2 1c-.5.2-1 .3-1.7.3-.5 0-1 0-1.3-.2-.4-.2-.8-.4-1-.7-.4-.3-.6-.7-.8-1.1l-.2-1.8V160h2.7v7.2l.4.5.4.3h.6c.6 0 1 0 1.3-.3.3-.2.6-.5.7-.9l.2-1.3Zm7.2-9.8V170h-2.6v-14.3h2.6Zm5 0V170h-2.6v-14.3h2.7Zm9.6 6.3v7.9h-2.7v-10h2.6l.1 2.1Zm-.4 2.5h-.7c0-.7.1-1.4.3-2 .2-.6.5-1 .8-1.5.3-.4.8-.8 1.2-1 .5-.2 1-.3 1.6-.3.5 0 1 0 1.3.2.4.1.8.3 1 .6.3.3.5.7.7 1.2l.2 1.8v6.4h-2.7v-6.4c0-.5 0-.8-.2-1a1 1 0 0 0-.5-.6l-.9-.1a2 2 0 0 0-1 .2l-.6.6c-.1.2-.3.5-.3.9l-.2 1Zm13.9 3.1v-4.4c0-.4 0-.6-.2-.9 0-.2-.3-.4-.5-.5l-.8-.2c-.3 0-.6 0-.8.2-.2 0-.4.2-.5.4l-.2.6h-2.6c0-.4 0-.8.3-1.2.2-.3.4-.7.8-1l1.4-.7a5.8 5.8 0 0 1 3.8.2c.6.2 1 .6 1.4 1.1.4.6.6 1.2.6 2v5.6l.4 1v.1h-2.7c-.2-.3-.3-.6-.3-1l-.1-1.3Zm.3-3.8v1.5h-1.5l-.9.1-.6.4-.4.5v1.2l.5.4.7.2c.4 0 .8 0 1-.3.4-.1.6-.3.7-.5l.3-.7.7 1.1a4.6 4.6 0 0 1-1 1.6l-1 .6-1.3.2c-.6 0-1.2-.1-1.7-.4-.5-.3-1-.6-1.2-1a3 3 0 0 1-.2-3c.2-.4.5-.8.9-1a4 4 0 0 1 1.5-.7l2-.2h1.5Zm7-1.9v8H178v-10h2.5l.2 2Zm-.3 2.6h-.7c0-.7 0-1.3.2-1.9.2-.6.5-1.1.8-1.5a3.4 3.4 0 0 1 3-1.4c.4 0 .8 0 1.1.2.4.1.7.3 1 .6.3.3.5.6.6 1.1.2.4.2 1 .2 1.6v6.7H184v-6.4c0-.5 0-.8-.2-1a1 1 0 0 0-.5-.6 2 2 0 0 0-.8-.1c-.4 0-.7 0-1 .2l-.6.6c-.2.2-.3.5-.4.9v1Zm6-.3-1 .1.3-1.8c.1-.5.4-1 .7-1.5a4 4 0 0 1 1.2-1c.5-.2 1-.3 1.7-.3.5 0 1 0 1.3.2.4.1.7.3 1 .6.3.3.5.7.7 1.2l.2 1.8v6.4h-2.7v-6.4c0-.5 0-.8-.2-1a1 1 0 0 0-.5-.6 2 2 0 0 0-.8-.1 1.8 1.8 0 0 0-1.4.7l-.4.8-.1 1Zm12.8 5.9c-.8 0-1.5-.1-2.1-.4a4.6 4.6 0 0 1-2.9-4.5v-.3c0-.8.1-1.5.3-2.1.2-.7.5-1.2 1-1.7a4 4 0 0 1 1.4-1c.6-.3 1.3-.4 2-.4s1.3 0 1.9.3l1.4 1a6.4 6.4 0 0 1 1.1 3.6v1.1h-8V164h5.4v-.2c0-.4 0-.7-.2-1-.1-.3-.3-.5-.6-.7-.3-.2-.6-.2-1-.2s-.7 0-1 .2l-.6.6-.3 1-.1 1.3v.3l.1 1.1.5 1 .8.5 1 .2c.5 0 1 0 1.4-.3a3 3 0 0 0 1-.8l1.4 1.4a4.6 4.6 0 0 1-2.2 1.6l-1.7.2Z"/>
  <path fill="#fff" stroke="#333" stroke-width="2" d="M121.5 189h630v46h-630z"/>
  <path fill="#333" d="M130.8 279.8v2.2h-7.2v-2.2h7.2Zm-6.3-11.3V282h-2.8v-13.5h2.8Zm5.3 5.5v2.1h-6.2V274h6.2Zm1-5.5v2.2h-7.2v-2.2h7.2Zm4.1 5.5v8h-2.7v-10h2.5l.2 2Zm-.4 2.6h-.7c0-.7 0-1.3.2-1.9.2-.6.5-1.1.8-1.5a3.4 3.4 0 0 1 3-1.4c.4 0 .8 0 1.1.2.4.1.7.3 1 .6.3.3.5.6.6 1.1.2.4.3 1 .3 1.6v6.7H138v-6.4c0-.5 0-.8-.2-1a1 1 0 0 0-.5-.6 2 2 0 0 0-.8-.1c-.4 0-.7 0-1 .2l-.6.6-.4.9v1Zm6-.3-1 .1.3-1.8.7-1.5c.3-.4.8-.7 1.2-1 .5-.2 1-.3 1.7-.3.5 0 1 0 1.3.2.4.1.8.3 1 .6.3.3.5.7.7 1.2l.2 1.8v6.4H144v-6.4c0-.5 0-.8-.2-1a1 1 0 0 0-.5-.6 2 2 0 0 0-.8-.1 1.8 1.8 0 0 0-1.4.7l-.4.8-.1 1Zm13.6 3.4v-4.4c0-.4 0-.6-.2-.9 0-.2-.2-.4-.4-.5l-.9-.2c-.3 0-.5 0-.8.2-.2 0-.3.2-.5.4l-.1.6h-2.7c0-.4 0-.8.3-1.2l.8-1 1.4-.7a5.8 5.8 0 0 1 3.8.2c.6.2 1.1.6 1.5 1.1.3.6.5 1.2.5 2v5.6l.4 1v.1h-2.7l-.3-1-.1-1.3Zm.4-3.8v1.5H153l-1 .1-.6.4c-.1.1-.3.3-.3.5l-.2.6c0 .2 0 .4.2.6l.5.4.6.2c.4 0 .8 0 1-.3.4-.1.6-.3.8-.5l.2-.7.7 1.1a4.6 4.6 0 0 1-1 1.6l-1 .6-1.2.2c-.7 0-1.3-.1-1.8-.4a4 4 0 0 1-1.2-1 3 3 0 0 1-.4-1.6c0-.5 0-1 .3-1.4.2-.4.4-.8.8-1a4 4 0 0 1 1.5-.7l2-.2h1.6Zm7.2-4V282H159v-10h2.7Zm-2.9-2.6c0-.3.2-.7.4-1a2 2 0 0 1 1.1-.3c.5 0 .8.1 1.1.4.3.2.4.6.4 1 0 .3-.1.7-.4 1-.3.2-.6.3-1 .3-.5 0-.9-.1-1.2-.4-.2-.2-.4-.6-.4-1Zm7.9-1.6V282H164v-14.3h2.7Z"/>
  <path fill="#fff" stroke="#333" stroke-width="2" d="M121.5 301h630v46h-630z"/>
  <path fill="#333" d="M127 389.2h-3.5V387h3.5c.5 0 1 0 1.3-.2l.7-.8c.2-.3.2-.7.2-1 0-.5 0-.8-.2-1.2l-.7-.8c-.4-.2-.8-.3-1.3-.3h-2.5V394h-2.8v-13.5h5.3c1 0 2 .2 2.7.6a4.1 4.1 0 0 1 2.3 3.8c0 .9-.2 1.7-.6 2.3a4 4 0 0 1-1.7 1.5c-.8.3-1.7.5-2.7.5Zm9.4-9.4V394h-2.7v-14.3h2.7Zm-.4 8.8h-.7c0-.7 0-1.3.3-1.9.1-.6.4-1.1.7-1.5a3.4 3.4 0 0 1 2.8-1.4c.5 0 1 0 1.3.2.4.1.8.3 1 .7.4.3.6.7.8 1.2l.2 1.8v6.3h-2.7v-6.4c0-.4 0-.8-.2-1a1 1 0 0 0-.5-.6 2 2 0 0 0-.9-.1c-.4 0-.7 0-1 .2-.3.1-.5.3-.6.6-.2.2-.3.5-.4.9v1Zm8 .5v-.2c0-.7.1-1.4.3-2 .2-.7.5-1.2 1-1.7a3 3 0 0 1 1.4-1 5 5 0 0 1 2-.4 5 5 0 0 1 2 .4c.7.2 1.2.6 1.6 1a6.3 6.3 0 0 1 1.2 3.7v.2c0 .7 0 1.4-.3 2-.2.6-.5 1.2-1 1.6-.3.5-.8.9-1.4 1.1a5 5 0 0 1-2 .4 4 4 0 0 1-2-.4 4.2 4.2 0 0 1-2.5-2.7c-.2-.6-.3-1.3-.3-2Zm2.7-.2v1.4l.4 1 .7.6 1 .2c.3 0 .7 0 1-.2l.6-.7.3-1 .1-1.1v-1.4a3 3 0 0 0-.4-1l-.7-.6c-.3-.2-.6-.2-1-.2-.3 0-.6 0-1 .2l-.6.7-.3 1-.1 1Zm11-2.8v7.9h-2.6v-10h2.5l.2 2.1Zm-.3 2.5h-.7c0-.7 0-1.4.3-2 .1-.6.4-1 .8-1.5a3 3 0 0 1 1.2-1c.5-.2 1-.3 1.6-.3.5 0 1 0 1.3.2a2.3 2.3 0 0 1 1.6 1.8c.2.5.3 1 .3 1.8v6.4H161v-6.4c0-.5 0-.8-.2-1a1 1 0 0 0-.5-.6l-1-.1a2 2 0 0 0-.9.2l-.6.6c-.2.2-.3.5-.4.9l-.1 1Zm13 5.6c-.7 0-1.4-.1-2-.4a4.6 4.6 0 0 1-3-4.5v-.3c0-.8.1-1.5.4-2.1a4 4 0 0 1 2.4-2.7 4 4 0 0 1 2-.4c.6 0 1.3 0 1.8.3.6.3 1 .6 1.4 1 .4.5.7 1 .9 1.6.2.6.3 1.3.3 2v1.1h-8V388h5.3v-.2c0-.4 0-.7-.2-1-.1-.3-.3-.5-.6-.7-.2-.2-.6-.2-1-.2-.3 0-.7 0-.9.2-.3.1-.5.4-.6.6l-.4 1v2.7l.6 1 .7.5 1.1.2c.5 0 1-.1 1.3-.3a3 3 0 0 0 1.1-.8l1.3 1.4a4.6 4.6 0 0 1-2.2 1.6l-1.7.2Zm13-8v7.8h-2.7v-10h2.6l.1 2.1Zm-.4 2.4h-.7c0-.7.1-1.4.3-2 .2-.6.5-1 .8-1.5.3-.4.8-.8 1.2-1 .5-.2 1-.3 1.6-.3.5 0 1 0 1.3.2.4.1.8.3 1 .6.3.3.5.7.7 1.2l.2 1.8v6.4h-2.7v-6.4c0-.5 0-.8-.2-1a1 1 0 0 0-.5-.6l-.9-.1a2 2 0 0 0-1 .2l-.6.6c-.1.2-.3.5-.3.9l-.2 1Zm14.4 3V384h2.7v10h-2.6l-.1-2.4Zm.3-2h.8l-.3 1.8a3 3 0 0 1-.7 1.5l-1.1 1c-.5.2-1 .3-1.7.3-.5 0-1 0-1.3-.2-.4-.2-.8-.4-1-.7-.4-.3-.6-.7-.8-1.1l-.2-1.8V384h2.7v7.2l.4.5.4.3h.6c.6 0 1 0 1.3-.3.3-.2.6-.5.7-.9l.2-1.3Zm7-3.6v8h-2.6v-10h2.5l.2 2Zm-.3 2.6h-.7c0-.7 0-1.3.2-1.9.2-.6.4-1.1.8-1.5a3.4 3.4 0 0 1 2.9-1.4c.4 0 .8 0 1.2.2.4.1.7.3 1 .6.2.3.5.6.6 1.1.2.4.2 1 .2 1.6v6.7H208v-6.4l-.2-1a1 1 0 0 0-.6-.6 2 2 0 0 0-.8-.1c-.3 0-.6 0-.9.2l-.6.6c-.2.2-.3.5-.4.9l-.1 1Zm6-.3-1 .1.3-1.8c.1-.5.4-1 .7-1.5a4 4 0 0 1 1.2-1c.5-.2 1-.3 1.7-.3.5 0 .9 0 1.3.2.4.1.7.3 1 .6.3.3.5.7.7 1.2l.2 1.8v6.4h-2.7v-6.4c0-.5 0-.8-.2-1a1 1 0 0 0-.5-.6 2 2 0 0 0-.8-.1 1.8 1.8 0 0 0-1.4.7l-.4.8-.1 1Zm8.2-8.6h2.6v12l-.2 2.3h-2.4v-14.3Zm9 9.2v.2c0 .7 0 1.4-.3 2-.1.7-.3 1.2-.7 1.7a3 3 0 0 1-1.2 1 3 3 0 0 1-1.7.4c-.6 0-1.2-.1-1.6-.4-.4-.2-.8-.6-1.1-1a6 6 0 0 1-.8-1.6 12 12 0 0 1-.4-2v-.4l.4-2a6 6 0 0 1 .8-1.6c.3-.5.7-.8 1.1-1 .4-.3 1-.4 1.6-.4.6 0 1.2.1 1.7.4.5.2.9.6 1.2 1 .4.5.6 1 .7 1.6.2.6.3 1.3.3 2Zm-2.7.2v-1.4a3 3 0 0 0-.4-1l-.6-.6-.9-.2a2 2 0 0 0-1 .2c-.2 0-.4.3-.6.5l-.3.8-.2 1v1.2c0 .5.1 1 .3 1.3.1.4.3.7.6.9.3.2.7.3 1.2.3.4 0 .7 0 1-.2l.5-.7c.2-.2.3-.6.3-1l.1-1.1Zm9 5c-.8 0-1.5 0-2.1-.3a4.6 4.6 0 0 1-3-4.5v-.3c0-.8.2-1.5.4-2.1a5 5 0 0 1 1-1.7 4 4 0 0 1 1.4-1c.6-.3 1.2-.4 2-.4a4 4 0 0 1 1.9.3c.5.3 1 .6 1.3 1 .4.5.7 1 .9 1.6.2.6.3 1.3.3 2v1.1h-8V388h5.4v-.2l-.2-1-.6-.7c-.3-.2-.6-.2-1-.2s-.7 0-1 .2l-.6.6-.3 1-.1 1.3v.3l.1 1.1.5 1 .8.5 1 .2c.5 0 1-.1 1.4-.3a3 3 0 0 0 1-.8l1.4 1.4a4.6 4.6 0 0 1-2.2 1.6l-1.7.2Zm8.3-8v7.9h-2.7v-10h2.5l.2 2.2Zm3-2.2v2.5a6 6 0 0 0-2 0l-.7.5-.4.6-.1 1-.6-.2c0-.7 0-1.3.2-1.8.2-.6.3-1 .6-1.4a2 2 0 0 1 1-1c.3-.2.7-.3 1.2-.3a3 3 0 0 1 .8.1Z"/>
  <path fill="#fff" stroke="#333" stroke-width="2" d="M121.5 413h348v46h-348z"/>
  <path fill="#000" d="M132 524.7V546h-4.4v-21.3h4.3Zm6.5 0v3.4h-17.4v-3.4h17.4Zm8.2 21.6c-1.3 0-2.4-.2-3.3-.6a7.3 7.3 0 0 1-4.6-7v-.7c0-1.2.1-2.3.5-3.3.3-1 .8-1.8 1.4-2.6a7.7 7.7 0 0 1 5.4-2.3c1.2 0 2.2.2 3 .6 1 .4 1.7 1 2.3 1.6.6.7 1 1.5 1.3 2.5.3.9.5 2 .5 3.1v1.8h-12.6v-2.8h8.4v-.4c0-.5 0-1-.3-1.5-.2-.5-.5-.9-1-1.1a3 3 0 0 0-1.6-.4c-.5 0-1 0-1.4.3l-1 1-.5 1.6-.2 2v.5c0 .7 0 1.2.3 1.8.1.5.4 1 .7 1.4a4 4 0 0 0 2.9 1.2c.8 0 1.5-.1 2.2-.4.6-.3 1.2-.8 1.7-1.4l2 2.2c-.3.5-.8 1-1.3 1.4a8.5 8.5 0 0 1-4.8 1.5Zm13-12.8V546h-4.2v-15.9h4l.2 3.4Zm-.6 4h-1.2a9.6 9.6 0 0 1 1.8-5.6 5.5 5.5 0 0 1 4.5-2c.7 0 1.4 0 2 .3a4 4 0 0 1 1.6 1c.4.5.8 1 1 1.9.3.7.4 1.7.4 2.8V546h-4.3v-10.1c0-.7 0-1.3-.3-1.7-.2-.4-.4-.6-.8-.8l-1.4-.2a3 3 0 0 0-1.5.3 3 3 0 0 0-1 1c-.3.3-.5.8-.6 1.3l-.2 1.7Zm21.8 5v-7.1c0-.5 0-1-.2-1.3-.2-.4-.4-.7-.8-.9-.3-.2-.8-.3-1.3-.3s-.9 0-1.2.2c-.4.2-.6.4-.8.7a2 2 0 0 0-.3 1h-4.2c0-.6.1-1.2.4-1.9a6.7 6.7 0 0 1 3.5-2.7 9.2 9.2 0 0 1 6.1.3 5 5 0 0 1 2.3 1.8c.5.8.8 1.9.8 3.1v6.8l.1 2.1.5 1.5v.2h-4.2a6 6 0 0 1-.5-1.6l-.2-2Zm.6-6.2v2.4h-2.3l-1.5.2c-.4.2-.7.3-1 .6a2 2 0 0 0-.6.8l-.2 1 .3 1 .7.6c.3.2.7.2 1.1.2.6 0 1.2 0 1.7-.3a3 3 0 0 0 1-1c.3-.3.4-.7.5-1l1 1.8a7.3 7.3 0 0 1-1.6 2.4c-.4.4-.9.7-1.5 1-.5.2-1.2.3-2 .3-1 0-2-.2-2.8-.6a5 5 0 0 1-1.9-1.7 4 4 0 0 1-.7-2.5c0-.8.2-1.5.5-2.2.3-.6.8-1.2 1.4-1.6.6-.4 1.3-.8 2.3-1 .9-.2 2-.4 3.2-.4h2.4Zm11-2.8V546h-4.1v-15.9h4l.2 3.4Zm-.5 4h-1.2c0-1.2.2-2.2.5-3.1.3-1 .7-1.8 1.2-2.5a5.5 5.5 0 0 1 4.5-2c.8 0 1.5 0 2 .3.7.2 1.2.5 1.7 1 .4.5.7 1 1 1.9.2.7.3 1.7.3 2.8V546h-4.2v-10.1a4 4 0 0 0-.3-1.7c-.2-.4-.5-.6-.9-.8l-1.3-.2a3 3 0 0 0-1.5.3 3 3 0 0 0-1 1c-.3.3-.5.8-.6 1.3-.2.5-.2 1.1-.2 1.7Zm21-7.4v3h-9.2v-3h9.2Zm-7-3.9h4.3v15c0 .5 0 .8.2 1 .1.3.3.5.5.6l1 .1a7.7 7.7 0 0 0 1.2 0v3a7.9 7.9 0 0 1-5 0c-.7-.4-1.2-.9-1.6-1.6-.3-.6-.5-1.5-.5-2.7v-15.4Zm25.4 16.2v-7c0-.5 0-1-.2-1.3-.2-.4-.4-.7-.8-.9-.3-.2-.8-.3-1.3-.3s-.9 0-1.2.2a2 2 0 0 0-1.1 1.7h-4.2c0-.6.1-1.2.5-1.9.3-.6.7-1 1.3-1.5.6-.5 1.3-.9 2.1-1.1a9.2 9.2 0 0 1 6.1.2 5 5 0 0 1 2.3 1.8c.5.8.8 1.9.8 3.1v6.8c0 .8 0 1.6.2 2.1 0 .6.2 1 .4 1.5v.2h-4.2a6 6 0 0 1-.5-1.6l-.2-2Zm.6-6v2.3h-2.3l-1.5.2c-.4.2-.7.3-1 .6a2 2 0 0 0-.6.8l-.1 1c0 .3 0 .6.2 1l.7.6c.3.2.7.2 1.1.2.7 0 1.2 0 1.7-.3a3 3 0 0 0 1-1c.3-.3.5-.7.5-1l1 1.8a7.3 7.3 0 0 1-1.6 2.4c-.4.4-.9.7-1.5 1-.5.2-1.2.3-2 .3-1 0-2-.2-2.7-.6a5 5 0 0 1-2-1.7 5 5 0 0 1-.2-4.7c.3-.6.8-1.2 1.4-1.6.6-.4 1.3-.8 2.3-1 .9-.2 2-.4 3.2-.4h2.4Zm16.3 6.1v-19h4.3V546h-3.9l-.4-3.5Zm-10-4.2v-.3c0-1.3.1-2.4.4-3.3a9 9 0 0 1 1.2-2.6 5.5 5.5 0 0 1 4.6-2.2 4.9 4.9 0 0 1 4.2 2.2 9 9 0 0 1 1.2 2.5l.7 3.2v.7l-.7 3a9 9 0 0 1-1.2 2.6 5 5 0 0 1-4.2 2.2c-1 0-2-.2-2.7-.6-.7-.4-1.4-1-2-1.7a8 8 0 0 1-1.1-2.5c-.3-1-.4-2-.4-3.2Zm4.2-.3v.3c0 .6 0 1.2.2 1.8 0 .6.2 1 .5 1.5.2.4.5.8.9 1 .4.3.9.4 1.4.4a3 3 0 0 0 1.8-.5c.5-.3.8-.8 1-1.4.3-.6.5-1.2.5-2v-1.9a7 7 0 0 0-.2-1.6 4 4 0 0 0-.7-1.3c-.2-.4-.6-.6-1-.8a3 3 0 0 0-1.3-.3c-.6 0-1 0-1.5.3l-1 1-.4 1.6-.2 1.9Zm22.7 4.5v-19h4.3V546h-3.9l-.4-3.5Zm-10-4.2v-.3c0-1.3.1-2.4.4-3.3a9 9 0 0 1 1.2-2.6 5.5 5.5 0 0 1 4.6-2.2 4.9 4.9 0 0 1 4.2 2.2c.5.7 1 1.6 1.2 2.5l.7 3.2v.7a17 17 0 0 1-.7 3 9 9 0 0 1-1.2 2.6 5 5 0 0 1-4.2 2.2c-1 0-2-.2-2.7-.6-.7-.4-1.4-1-2-1.7a8 8 0 0 1-1.1-2.5c-.3-1-.4-2-.4-3.2Zm4.2-.3v.3c0 .6 0 1.2.2 1.8 0 .6.2 1 .5 1.5.2.4.5.8 1 1 .3.3.8.4 1.3.4a3 3 0 0 0 1.8-.5c.5-.3.8-.8 1-1.4.3-.6.5-1.2.5-2v-1.9a7 7 0 0 0-.2-1.6 4 4 0 0 0-.7-1.3c-.2-.4-.6-.6-1-.8a3 3 0 0 0-1.3-.3c-.6 0-1 0-1.4.3-.4.3-.8.6-1 1l-.5 1.6-.2 1.9Zm17.6-4.4V546h-4.2v-15.9h4l.2 3.5Zm4.8-3.6-.1 4a10 10 0 0 0-1.5-.2c-.6 0-1.2.1-1.6.3-.4.1-.8.3-1 .6-.4.3-.6.7-.7 1.1-.2.4-.2.9-.3 1.4l-.8-.2c0-1 0-2 .3-2.9.2-.8.5-1.6.9-2.2.4-.7.9-1.2 1.5-1.5.5-.4 1.2-.5 2-.5a4.5 4.5 0 0 1 1.3.1Zm9 16.3a9 9 0 0 1-3.4-.6 7.3 7.3 0 0 1-4.6-7v-.7c0-1.2.2-2.3.6-3.3.3-1 .8-1.8 1.4-2.6a7.7 7.7 0 0 1 5.4-2.3c1.2 0 2.2.2 3 .6 1 .4 1.7 1 2.2 1.6.6.7 1 1.5 1.4 2.5.3.9.4 2 .4 3.1v1.8h-12.6v-2.8h8.5v-.4l-.3-1.5c-.2-.5-.5-.9-1-1.1a3 3 0 0 0-1.6-.4c-.5 0-1 0-1.4.3l-1 1-.5 1.6c-.2.6-.2 1.2-.2 2v.5c0 .7 0 1.2.2 1.8l.8 1.4a4 4 0 0 0 2.9 1.2c.8 0 1.5-.1 2.1-.4a4 4 0 0 0 1.7-1.4l2.1 2.2a7.3 7.3 0 0 1-3.4 2.5c-.8.3-1.7.4-2.8.4Zm17.4-4.7c0-.3 0-.6-.2-.8-.2-.2-.5-.5-1-.7l-2-.6a16 16 0 0 1-2.3-.6c-.7-.3-1.3-.6-1.8-1s-.9-.8-1.2-1.3c-.2-.6-.4-1.2-.4-1.9a4.3 4.3 0 0 1 1.7-3.4c.5-.4 1.2-.8 2-1a9.7 9.7 0 0 1 6.2.2 6 6 0 0 1 2.3 1.8c.5.8.8 1.7.8 2.6H308c0-.4-.1-.7-.3-1-.2-.4-.4-.6-.8-.8-.3-.2-.8-.3-1.4-.3-.4 0-.8 0-1.2.2l-.8.7a1.6 1.6 0 0 0-.1 1.5l.5.5 1 .5 1.3.3c1.2.2 2.2.5 3 1a4 4 0 0 1 2.2 1.5c.6.6.8 1.4.8 2.5a4 4 0 0 1-.4 1.9c-.4.6-.8 1-1.4 1.5-.6.5-1.3.8-2.1 1a9.8 9.8 0 0 1-6.5-.4 6 6 0 0 1-2.3-2c-.5-.8-.8-1.7-.8-2.5h4c0 .6.2 1 .5 1.4.2.3.6.6 1 .7l1.4.3c.6 0 1-.1 1.4-.3.4-.1.6-.3.8-.6.2-.2.3-.5.3-.9Zm15.4 0c0-.3 0-.6-.2-.8-.2-.2-.5-.5-1-.7l-2-.6c-.9-.1-1.6-.4-2.3-.6-.7-.3-1.3-.6-1.8-1s-.9-.8-1.2-1.3c-.2-.6-.4-1.2-.4-1.9a4.3 4.3 0 0 1 1.7-3.4c.5-.4 1.2-.8 2-1 .8-.3 1.7-.4 2.7-.4 1.3 0 2.5.2 3.5.6 1 .5 1.8 1 2.3 1.8.5.8.8 1.7.8 2.6h-4.2c0-.4-.1-.7-.3-1-.2-.4-.4-.6-.8-.8-.3-.2-.8-.3-1.4-.3-.4 0-.8 0-1.2.2l-.8.7-.2.8.1.7.5.5 1 .5 1.3.3c1.2.2 2.2.5 3.1 1a4 4 0 0 1 2.1 1.5c.6.6.8 1.4.8 2.5a4 4 0 0 1-.4 1.9c-.4.6-.8 1-1.4 1.5-.6.5-1.3.8-2 1a9.8 9.8 0 0 1-6.6-.4 6 6 0 0 1-2.3-2c-.5-.8-.8-1.7-.8-2.5h4c0 .6.2 1 .5 1.4.2.3.6.6 1 .7l1.5.3c.5 0 1-.1 1.3-.3.4-.1.7-.3.8-.6.2-.2.3-.5.3-.9Z"/>
  <path fill="#333" d="M127 589.2h-3.5V587h3.5c.5 0 1 0 1.3-.2l.7-.8c.2-.3.2-.7.2-1 0-.5 0-.8-.2-1.2l-.7-.8c-.4-.2-.8-.3-1.3-.3h-2.5V594h-2.8v-13.5h5.3c1 0 2 .2 2.7.6a4.1 4.1 0 0 1 2.3 3.8c0 .9-.2 1.7-.6 2.3a4 4 0 0 1-1.7 1.5c-.8.3-1.7.5-2.7.5Zm6.2-.1v-.2c0-.7.1-1.4.3-2l1-1.7c.4-.4.9-.8 1.4-1a5 5 0 0 1 2-.4 5 5 0 0 1 2.1.4c.6.2 1 .6 1.5 1l1 1.7.2 2v.2c0 .7 0 1.4-.3 2-.2.6-.5 1.2-1 1.6-.3.5-.8.9-1.4 1.1a5 5 0 0 1-2 .4c-.8 0-1.4-.1-2-.4a4.2 4.2 0 0 1-2.5-2.7c-.2-.6-.3-1.3-.3-2Zm2.7-.2v.2l.1 1.2c0 .3.2.6.4 1l.6.6 1 .2c.4 0 .7 0 1-.2l.6-.7c.1-.3.3-.6.3-1l.2-1.1v-.2c0-.4 0-.8-.2-1.2a3 3 0 0 0-.3-1l-.7-.6c-.2-.2-.6-.2-1-.2-.3 0-.6 0-.9.2-.3.2-.5.4-.6.7l-.4 1-.1 1Zm14 2.3c0-.2-.1-.3-.3-.5l-.6-.4a6 6 0 0 0-1.3-.4l-1.4-.4a5 5 0 0 1-1.1-.6l-.8-.9-.2-1.1c0-.4 0-.8.2-1.2l.8-1 1.3-.7 1.7-.2a4.5 4.5 0 0 1 3.7 1.5c.3.5.5 1 .5 1.7h-2.7c0-.3 0-.5-.2-.7 0-.2-.2-.4-.5-.5l-.8-.2c-.3 0-.6 0-.8.2-.2 0-.4.2-.5.4a1 1 0 0 0 0 1l.2.3.6.3 1 .2c.6.1 1.3.3 1.8.6.6.2 1 .5 1.4 1 .3.3.5.9.5 1.5 0 .5 0 .9-.3 1.2a3 3 0 0 1-.8 1l-1.4.7a6.3 6.3 0 0 1-4-.3c-.7-.3-1.2-.8-1.6-1.3a3 3 0 0 1-.4-1.6h2.5c0 .4 0 .7.3.9l.6.5 1 .1.8-.1.5-.4.2-.6Zm9.2-7.2v1.9h-5.9v-2h5.9Zm-4.4-2.5h2.6v9.5l.1.6.4.4h.6a4.5 4.5 0 0 0 .8 0v2a5 5 0 0 1-3.2-.1 2 2 0 0 1-1-1 4 4 0 0 1-.3-1.7v-9.7Zm10 10.6c.4 0 .6 0 .9-.2a1.5 1.5 0 0 0 .8-1.4h2.5c0 .8-.2 1.4-.5 2-.4.5-.9 1-1.5 1.2a5 5 0 0 1-4.1 0 4 4 0 0 1-1.5-1c-.4-.4-.7-1-.9-1.6-.2-.6-.2-1.3-.2-2v-.2c0-.8 0-1.4.2-2 .2-.7.5-1.2.9-1.6a4 4 0 0 1 1.4-1.1c.6-.3 1.3-.4 2-.4.9 0 1.6.1 2.2.5.6.3 1.1.7 1.5 1.3.3.6.5 1.3.5 2h-2.5c0-.3 0-.6-.2-.8-.1-.3-.3-.5-.6-.7-.2-.2-.5-.2-.9-.2s-.7 0-1 .2l-.5.7c-.2.3-.2.6-.3 1v2.3c0 .4.1.7.3 1 .1.3.3.5.6.7l1 .2Zm5.4-3v-.2c0-.7 0-1.4.3-2a4.1 4.1 0 0 1 2.4-2.7 5 5 0 0 1 2-.4 5 5 0 0 1 2 .4 4 4 0 0 1 1.5 1l1 1.7c.2.6.3 1.3.3 2v.2c0 .7-.1 1.4-.3 2-.3.6-.6 1.2-1 1.6-.4.5-.9.9-1.5 1.1a5 5 0 0 1-2 .4c-.7 0-1.4-.1-2-.4a4.2 4.2 0 0 1-2.4-2.7c-.2-.6-.3-1.3-.3-2Zm2.6-.2v.2l.1 1.2.4 1 .6.6 1 .2c.4 0 .7 0 1-.2.2-.2.5-.4.6-.7l.4-1v-2.5a3 3 0 0 0-.4-1l-.6-.6c-.3-.2-.6-.2-1-.2s-.7 0-1 .2l-.6.7-.4 1v1Zm14.4 3v-12.1h2.7V594h-2.4l-.3-2.2Zm-6.3-2.8v-.2c0-.8 0-1.5.3-2 .1-.7.4-1.3.7-1.7a3.5 3.5 0 0 1 3-1.4 3 3 0 0 1 2.6 1.4l.8 1.6.4 2v.5l-.4 1.9-.8 1.6c-.3.4-.7.8-1.1 1a3 3 0 0 1-1.6.4 3.5 3.5 0 0 1-2.9-1.4 5 5 0 0 1-.7-1.7c-.2-.6-.3-1.3-.3-2Zm2.7-.2v1.4l.4 1 .6.6.9.2a2 2 0 0 0 1.1-.3c.3-.2.5-.5.7-.9l.3-1.3v-1.2l-.2-1c0-.3-.2-.6-.4-.8l-.6-.5a2 2 0 0 0-1-.2c-.3 0-.5 0-.8.2l-.6.7c-.1.2-.3.5-.3 1l-.1 1.1Zm13 5.3c-.7 0-1.4-.1-2-.4a4.6 4.6 0 0 1-3-4.5v-.3c0-.8.1-1.5.4-2.1a5 5 0 0 1 .9-1.7 4 4 0 0 1 1.5-1c.6-.3 1.2-.4 2-.4.7 0 1.3 0 1.8.3.6.3 1 .6 1.4 1 .4.5.7 1 .9 1.6.2.6.3 1.3.3 2v1.1h-8V588h5.3v-.2c0-.3 0-.7-.2-1-.1-.3-.3-.5-.6-.7l-1-.2c-.3 0-.6 0-.9.2-.3.1-.5.4-.6.6l-.4 1v2.7l.6 1 .8.5 1 .2c.5 0 1-.1 1.3-.3a3 3 0 0 0 1.1-.8l1.3 1.4a4.6 4.6 0 0 1-2.2 1.6l-1.7.2Z"/>
  <mask id="a" fill="#fff">
    <path d="M120.5 612h167v48h-167v-48Z"/>
  </mask>
  <path fill="#fff" d="M120.5 612h167v48h-167v-48Z"/>
  <path fill="#333" d="M120.5 612v-2h-2v2h2Zm0 48h-2v2h2v-2Zm0-46h167v-4h-167v4Zm167 44h-167v4h167v-4Zm-165 2v-48h-4v48h4Z" mask="url(#a)"/>
  <path fill="#0065BD" d="M287.5 612h117v48h-117z"/>
  <path fill="#fff" d="M302.9 629.6V641h-2.4v-11.4h2.4Zm4.5 4.9v1.8h-5.2v-1.8h5.2Zm.5-4.9v1.9h-5.7v-1.9h5.7Zm3.6 3v8.4h-2.3v-8.5h2.3Zm-2.4-2.3c0-.3.1-.6.3-.8.3-.2.6-.3 1-.3.3 0 .7.1.9.3.2.2.3.5.3.8 0 .4 0 .6-.3.9-.2.2-.6.3-1 .3l-.9-.3a1 1 0 0 1-.3-.9Zm6.4 4v6.7h-2.2v-8.5h2l.2 1.9Zm-.3 2.2h-.6c0-.6 0-1.2.2-1.7s.4-1 .7-1.3a3 3 0 0 1 2.4-1.1c.4 0 .8 0 1.1.2.3 0 .6.3.8.5.3.3.5.6.6 1l.2 1.5v5.4h-2.3v-5.4l-.1-.9a.9.9 0 0 0-.5-.4l-.7-.1-.8.1-.6.5-.3.8-.1.9Zm12 2.7V629h2.3v12h-2l-.2-1.8Zm-5.3-2.3v-.2c0-.6 0-1.2.2-1.7l.7-1.4a3 3 0 0 1 2.4-1.2 2.6 2.6 0 0 1 2.3 1.2l.6 1.3.4 1.7v.4a9 9 0 0 1-.4 1.6l-.6 1.4-1 .8a2 2 0 0 1-1.3.4 3 3 0 0 1-1.4-.4 3 3 0 0 1-1-.9c-.3-.3-.5-.8-.7-1.3l-.2-1.7Zm2.3-.2v1.2l.3.8.5.5.8.2c.4 0 .7-.1 1-.3l.5-.7.2-1v-1l-.1-1a2 2 0 0 0-.3-.6l-.6-.5-.7-.1c-.3 0-.6 0-.8.2-.2 0-.3.3-.5.5l-.3.8v1Zm15.6 2.4v-3.8c0-.2 0-.5-.2-.7a1 1 0 0 0-.4-.4l-.7-.2-.6.1a1 1 0 0 0-.5.4 1 1 0 0 0-.1.6H335c0-.4.1-.7.3-1l.7-1 1.1-.5 1.5-.2c.7 0 1.3.1 1.8.3.5.2.9.6 1.2 1 .3.4.4 1 .4 1.6v3.7l.1 1.1c0 .3.2.5.3.8v.1H340l-.3-.9v-1Zm.3-3.2v1.2h-1.3l-.8.1c-.2 0-.4.2-.5.3l-.3.4-.1.6.1.5.4.4h.6l.9-.1.6-.5.2-.6.6 1a3.9 3.9 0 0 1-1 1.3c-.1.2-.4.3-.7.5l-1 .2c-.6 0-1.1-.2-1.6-.4a2.5 2.5 0 0 1-1.4-2.2l.3-1.2.7-.8c.4-.3.8-.4 1.3-.6a7 7 0 0 1 1.7-.1h1.3Zm8.6 3.3V629h2.3v12h-2l-.3-1.8Zm-5.3-2.3v-.2c0-.6 0-1.2.2-1.7.1-.6.4-1 .6-1.4a3 3 0 0 1 2.5-1.2 2.6 2.6 0 0 1 2.2 1.2l.7 1.3c.1.6.3 1.1.3 1.7v.4a9 9 0 0 1-.3 1.6 5 5 0 0 1-.7 1.4 2 2 0 0 1-1 .8c-.3.3-.7.4-1.2.4a3 3 0 0 1-1.4-.4 3 3 0 0 1-1-.9c-.3-.3-.6-.8-.7-1.3l-.2-1.7Zm2.2-.2v.2l.1 1c0 .3.2.5.3.8l.5.5.7.2c.4 0 .7-.1 1-.3l.6-.7.2-1v-1l-.1-1a2 2 0 0 0-.4-.6l-.5-.5-.7-.1c-.3 0-.6 0-.8.2-.2 0-.4.3-.5.5l-.3.8v1Zm12.1 2.5V629h2.3v12h-2l-.3-1.8Zm-5.3-2.3v-.2c0-.6 0-1.2.2-1.7.1-.6.3-1 .6-1.4a3 3 0 0 1 2.5-1.2 2.6 2.6 0 0 1 2.2 1.2l.7 1.3.3 1.7v.4a9 9 0 0 1-.3 1.6 5 5 0 0 1-.7 1.4c-.2.3-.6.6-1 .8-.3.3-.7.4-1.2.4a3 3 0 0 1-1.5-.4 3 3 0 0 1-1-.9c-.3-.3-.5-.8-.6-1.3-.2-.5-.2-1.1-.2-1.7Zm2.2-.2v1.2l.4.8c0 .2.3.4.5.5l.7.2c.4 0 .7-.1 1-.3l.5-.7c.2-.3.3-.7.3-1v-1c0-.4 0-.7-.2-1a2 2 0 0 0-.3-.6l-.5-.5-.8-.1c-.3 0-.5 0-.7.2-.2 0-.4.3-.5.5l-.3.8v1Zm9.3-2.3v6.6h-2.2v-8.5h2.1l.1 1.9Zm2.6-2v2.2a5 5 0 0 0-1.7 0l-.6.4-.3.6-.1.7-.5-.1c0-.6 0-1 .2-1.5 0-.5.2-.9.5-1.2.2-.4.4-.6.7-.8a2 2 0 0 1 1-.3 2.4 2.4 0 0 1 .8 0Zm4.8 8.8c-.7 0-1.3-.1-1.8-.4a3.9 3.9 0 0 1-2.5-3.7v-.4c0-.6.1-1.2.3-1.7l.8-1.4a4 4 0 0 1 3-1.2 4 4 0 0 1 1.5.3c.5.2.9.5 1.2.8l.7 1.3.2 1.7v1H368V636h4.5v-.2c0-.3 0-.6-.2-.8 0-.3-.2-.5-.5-.6-.2-.2-.5-.3-.8-.3l-.8.2-.5.6a3 3 0 0 0-.3.8v2.3l.5.7c.1.3.4.4.6.5l.9.2c.4 0 .8 0 1.1-.2.4-.2.7-.4 1-.8l1 1.2c-.1.3-.4.5-.7.8a4 4 0 0 1-2.5.8Zm9.2-2.5v-.5l-.6-.3c-.3-.1-.6-.3-1.1-.3l-1.2-.4-1-.5-.6-.7a2.3 2.3 0 0 1 0-2l.7-.8a2 2 0 0 1 1-.6l1.5-.2c.7 0 1.3.1 1.9.3.5.3.9.6 1.2 1 .3.4.4.9.4 1.4h-2.2c0-.2 0-.4-.2-.6a1 1 0 0 0-.4-.4l-.7-.2c-.3 0-.5 0-.7.2a1 1 0 0 0-.4.3.8.8 0 0 0 0 .8c0 .1 0 .2.2.3l.5.3.7.1 1.7.5c.5.2.8.5 1.1.8.3.4.4.8.4 1.4 0 .4 0 .7-.2 1l-.7.8c-.3.3-.7.4-1.2.6a5.3 5.3 0 0 1-3.4-.3 2.5 2.5 0 0 1-1.6-2.4h2c0 .3.2.6.3.8l.6.4h1.5l.4-.4.1-.4Zm8.2 0-.1-.5-.5-.3c-.3-.1-.6-.3-1.1-.3l-1.2-.4-1-.5-.6-.7a2.3 2.3 0 0 1 0-2l.7-.8a2 2 0 0 1 1-.6l1.5-.2c.7 0 1.3.1 1.9.3.5.3.9.6 1.2 1 .3.4.4.9.4 1.4h-2.3v-.6a1 1 0 0 0-.5-.4l-.7-.2c-.3 0-.5 0-.7.2a1 1 0 0 0-.4.3l-.2.5.1.3.3.3.5.3.7.1 1.7.5 1.1.8c.3.4.4.8.4 1.4 0 .4 0 .7-.2 1l-.7.8-1.2.6a5.3 5.3 0 0 1-3.4-.3 2.5 2.5 0 0 1-1.6-2.4h2c0 .3.1.6.3.8l.6.4h1.4l.5-.4.1-.4Z"/>
  <path fill="#0065BD" d="M130.6 696.5v1.5h-7.1v-1.5h7.1Zm-6.7-12V698H122v-13.5h1.8Zm5.8 5.8v1.5h-6.2v-1.5h6.2Zm.9-5.8v1.5h-7.1v-1.5h7Zm3.7 5.6v7.9h-1.7v-10h1.6l.1 2.1Zm-.4 2.5h-.7c0-.7.1-1.3.3-2l.8-1.5a3.7 3.7 0 0 1 3-1.3c.5 0 1 0 1.3.2.4.1.8.3 1 .6l.7 1.1.2 1.7v6.6h-1.7v-6.6c0-.5-.1-1-.3-1.3-.1-.3-.3-.5-.6-.7l-1.1-.2a2.5 2.5 0 0 0-2.1 1 3.7 3.7 0 0 0-.8 2.4Zm13.4-4.6v1.3H142V688h5.4Zm-3.6-2.5h1.7v10c0 .4 0 .6.2.8.1.2.2.3.4.3l.5.1a2.8 2.8 0 0 0 .8-.1v1.4a4.2 4.2 0 0 1-1.3.2 2 2 0 0 1-1.1-.3c-.4-.1-.7-.4-.9-.8-.2-.4-.3-1-.3-1.6v-10Zm9.8 12.7a4.3 4.3 0 0 1-4.3-2.9c-.2-.6-.3-1.3-.3-2v-.4c0-.8.1-1.5.3-2.1l1-1.7a4.2 4.2 0 0 1 3-1.3 6 6 0 0 1 2 .3c.4.3.9.6 1.2 1l.8 1.6.2 2v.8h-7.5V692h5.8v-.2l-.3-1.3-.7-1c-.4-.3-.8-.4-1.4-.4a2.3 2.3 0 0 0-2 1l-.5 1.1a6 6 0 0 0-.2 1.6v.4c0 .5 0 1 .2 1.4.1.4.3.8.6 1 .2.4.6.6 1 .8.3.2.7.3 1.2.3a3 3 0 0 0 1.5-.4c.4-.2.8-.6 1.1-1l1 .8c-.1.4-.4.7-.8 1a4 4 0 0 1-1.2.7c-.5.2-1 .3-1.7.3Zm7.6-8.7v8.5h-1.7v-10h1.7v1.5Zm3.2-1.6v1.6h-.9l-1 .1-.8.5-.5.8-.2 1-.5.3c0-.6 0-1.2.2-1.7 0-.5.3-1 .5-1.4l1-1a2.7 2.7 0 0 1 2.2-.2Zm10.5 0v1.4h-5.5V688h5.5Zm-3.6-2.4h1.7v10l.1.8c.1.2.3.3.4.3l.6.1a2.8 2.8 0 0 0 .8-.1v1.4a4.2 4.2 0 0 1-1.3.2l-1.2-.3c-.3-.1-.6-.4-.8-.8-.2-.4-.3-1-.3-1.6v-10Zm7.3-1.8V698h-1.7v-14.3h1.7Zm-.4 8.9h-.7c0-.7 0-1.3.3-2 .2-.5.4-1 .8-1.5a3.7 3.7 0 0 1 3-1.3c.4 0 .9 0 1.3.2.4.1.7.3 1 .6.3.3.5.7.6 1.1.2.5.3 1 .3 1.7v6.6h-1.8v-6.6c0-.5 0-1-.2-1.3-.1-.3-.4-.5-.7-.7l-1-.2a2.5 2.5 0 0 0-2.1 1 3.7 3.7 0 0 0-.8 2.4Zm13.3 5.6a4.3 4.3 0 0 1-4.3-2.9c-.2-.6-.3-1.3-.3-2v-.4c0-.8.1-1.5.3-2.1l1-1.7a4.2 4.2 0 0 1 3-1.3 6 6 0 0 1 2 .3 4 4 0 0 1 2 2.6l.2 2v.8h-7.5V692h5.8v-.2l-.3-1.3c-.1-.4-.4-.7-.7-1-.4-.3-.8-.4-1.4-.4a2.3 2.3 0 0 0-2 1l-.5 1.1a6 6 0 0 0-.2 1.6v.4c0 .5 0 1 .2 1.4.1.4.3.8.6 1 .3.4.6.6 1 .8.3.2.7.3 1.2.3a3 3 0 0 0 1.5-.4c.5-.2.8-.6 1.1-1l1 .8c-.1.4-.4.7-.8 1a4 4 0 0 1-1.2.7c-.5.2-1 .3-1.7.3Zm16.5-2v-5c0-.5 0-.8-.2-1.1l-.7-.7c-.3-.2-.7-.2-1.2-.2-.4 0-.8 0-1.1.2a2 2 0 0 0-.8.6c-.2.2-.2.5-.2.7h-1.8c0-.3.1-.7.3-1l.8-1a4 4 0 0 1 1.3-.7 5 5 0 0 1 1.6-.2 6 6 0 0 1 2 .3c.5.3 1 .7 1.3 1.2.3.5.5 1 .5 1.8v5.7l.3 1v.2h-1.8l-.2-.8v-1Zm.3-4.3v1.2h-1.7l-1.3.1a3 3 0 0 0-1 .4 1 1 0 0 0-.5.6c-.2.2-.3.5-.3.8 0 .3.1.6.3.8.1.3.3.5.6.7l1 .2a2.8 2.8 0 0 0 2.4-1.2c.3-.3.4-.6.4-.9l.7.8-.3.9a4.1 4.1 0 0 1-2 1.6c-.3.2-.8.3-1.4.3-.7 0-1.3-.1-1.8-.4a2.8 2.8 0 0 1-1.6-2.6 2.7 2.7 0 0 1 1.2-2.4c.4-.3 1-.5 1.5-.7l1.8-.2h2Zm10.5 4.2v-12.4h1.7V698h-1.6l-.1-2Zm-6.8-3v-.2c0-.8.1-1.5.3-2a5 5 0 0 1 .8-1.7 3 3 0 0 1 1.3-1 3 3 0 0 1 1.6-.4c.6 0 1.2 0 1.7.3.4.2.8.5 1.2 1 .3.4.6.9.7 1.5.2.6.4 1.2.4 2v.8c0 .8-.2 1.4-.4 2-.1.6-.4 1-.7 1.5l-1.3 1a4 4 0 0 1-3.2-.1c-.5-.2-1-.6-1.3-1-.3-.5-.6-1-.8-1.7a7 7 0 0 1-.3-2Zm1.8-.2v.2l.1 1.4.5 1.2.8.8 1.2.2c.6 0 1 0 1.4-.3.4-.3.7-.6.9-1l.5-1.3V692c0-.4-.2-.7-.3-1a3 3 0 0 0-.5-.9l-.9-.6-1-.2c-.5 0-1 .1-1.3.3l-.8.8-.5 1.2-.1 1.4Zm15.7 3.2v-12.4h1.7V698h-1.5l-.2-2Zm-6.7-3v-.2c0-.8 0-1.5.2-2a5 5 0 0 1 .8-1.7 3 3 0 0 1 1.3-1 3 3 0 0 1 1.6-.4c.7 0 1.2 0 1.7.3.5.2.9.5 1.2 1 .3.4.6.9.8 1.5l.4 2v.8l-.4 2c-.2.6-.5 1-.8 1.5a4 4 0 0 1-1.2 1 4 4 0 0 1-3.3-.1c-.5-.2-1-.6-1.3-1-.3-.5-.6-1-.8-1.7-.2-.6-.2-1.3-.2-2Zm1.7-.2v.2l.1 1.4.5 1.2.8.8 1.2.2c.6 0 1 0 1.4-.3l1-1 .4-1.3V692a5 5 0 0 0-.3-1 3 3 0 0 0-.5-.9l-.8-.6-1.1-.2c-.5 0-1 .1-1.3.3l-.8.8-.5 1.2-.1 1.4Zm11.1-3.4v8.5h-1.7v-10h1.7v1.5Zm3.2-1.6v1.6h-.9l-1 .1-.8.5-.5.8-.2 1-.5.3c0-.6 0-1.2.2-1.7 0-.5.3-1 .5-1.4l1-1a2.7 2.7 0 0 1 2.2-.2Zm5.5 10.3a4.3 4.3 0 0 1-4.3-2.9c-.2-.6-.3-1.3-.3-2v-.4c0-.8.1-1.5.4-2.1.2-.7.5-1.2 1-1.7a4.2 4.2 0 0 1 3-1.3c.7 0 1.3.1 1.9.3.5.3 1 .6 1.2 1 .4.5.6 1 .8 1.6l.2 2v.8h-7.5V692h5.8v-.2l-.3-1.3c-.1-.4-.4-.7-.7-1-.3-.3-.8-.4-1.4-.4a2.3 2.3 0 0 0-2 1l-.5 1.1a6 6 0 0 0-.2 1.6v.4l.2 1.4.6 1c.3.4.6.6 1 .8.3.2.7.3 1.2.3a3 3 0 0 0 1.6-.4c.4-.2.7-.6 1-1l1.1.8-.8 1a4 4 0 0 1-1.3.7 4 4 0 0 1-1.7.3Zm11.8-2.9c0-.2 0-.4-.2-.6 0-.3-.3-.5-.6-.6l-1.5-.5-1.5-.4-1.2-.6-.7-.8a2 2 0 0 1-.3-1c0-.5.1-.9.3-1.2.2-.4.4-.7.8-1l1.1-.6 1.6-.2a4 4 0 0 1 2 .4c.6.3 1 .7 1.3 1.1.3.5.5 1 .5 1.6h-1.7c0-.3-.1-.5-.3-.8-.1-.3-.4-.5-.7-.7l-1.1-.2c-.5 0-.9 0-1.2.2-.3.2-.5.3-.6.6a1.4 1.4 0 0 0-.1 1.2l.3.4.7.3 1.2.3c.8.2 1.5.4 2 .7.5.2 1 .6 1.2 1 .3.3.4.8.4 1.3a2.6 2.6 0 0 1-1 2.2l-1.3.6-1.6.2c-.9 0-1.6-.2-2.2-.5-.6-.3-1.1-.7-1.4-1.2a3 3 0 0 1-.5-1.6h1.7c0 .5.2.8.4 1.1.3.3.6.5 1 .6a3.6 3.6 0 0 0 2.2 0c.3-.1.6-.3.7-.5.2-.2.3-.5.3-.8Zm9.8 0c0-.2 0-.4-.2-.6 0-.3-.3-.5-.6-.6l-1.5-.5-1.5-.4-1.2-.6-.7-.8c-.2-.3-.2-.7-.2-1 0-.5 0-.9.2-1.2l.8-1 1.2-.6 1.5-.2a4 4 0 0 1 2 .4c.6.3 1 .7 1.4 1.1.3.5.4 1 .4 1.6h-1.7c0-.3 0-.5-.3-.8-.1-.3-.4-.5-.7-.7l-1.1-.2c-.5 0-.9 0-1.2.2-.3.2-.5.3-.6.6a1.4 1.4 0 0 0-.1 1.2l.3.4.7.3 1.2.3c.8.2 1.5.4 2 .7.6.2 1 .6 1.2 1 .3.3.4.8.4 1.3a2.6 2.6 0 0 1-1 2.2l-1.3.6-1.6.2c-.9 0-1.6-.2-2.2-.5a4 4 0 0 1-1.4-1.2 3 3 0 0 1-.5-1.6h1.7c0 .5.2.8.5 1.1.2.3.5.5.9.6a3.6 3.6 0 0 0 2.2 0c.3-.1.6-.3.7-.5.2-.2.3-.5.3-.8Zm10.4-5.3v8h-1.7v-10h1.6v2Zm-.4 2.6h-.8c0-.7.1-1.3.3-2 .2-.5.4-1 .8-1.5a4 4 0 0 1 1.2-1 4 4 0 0 1 1.8-.3c.5 0 1 0 1.3.2a2.6 2.6 0 0 1 1.7 1.7c.2.4.3 1 .3 1.6v6.7h-1.8v-6.6c0-.5 0-1-.2-1.3l-.8-.7-1.1-.2c-.5 0-1 .1-1.3.3l-.8.7-.4 1.1-.2 1.3Zm6.5-1-1.1.4c0-.5 0-1 .3-1.6.1-.5.4-1 .7-1.3l1.3-1a4 4 0 0 1 1.7-.3c.5 0 1 0 1.4.2.4.1.8.4 1 .6.3.3.6.7.7 1.2.2.4.2 1 .2 1.6v6.6h-1.7v-6.6c0-.6 0-1-.3-1.3-.1-.3-.4-.6-.7-.7a3 3 0 0 0-2.1 0 2 2 0 0 0-.8.6l-.4.7-.2 1Zm14.8 4.7V691c0-.4-.1-.7-.3-1-.1-.3-.4-.5-.7-.7-.3-.2-.7-.2-1.2-.2-.4 0-.8 0-1.1.2a2 2 0 0 0-.8.6l-.2.7H291c0-.3 0-.7.2-1l.8-1a4 4 0 0 1 1.3-.7 5 5 0 0 1 1.6-.2 6 6 0 0 1 2 .3c.5.3 1 .7 1.3 1.2.3.5.5 1 .5 1.8v5.7l.3 1v.2h-1.8l-.2-.8v-1Zm.3-4.4v1.2h-1.8l-1.3.1a3 3 0 0 0-1 .4 1 1 0 0 0-.5.6c-.2.2-.2.5-.2.8 0 .3 0 .6.2.8.1.3.3.5.6.7l1 .2a2.8 2.8 0 0 0 2.4-1.2c.3-.3.4-.6.4-.9l.8.8c0 .3-.2.6-.4.9a4.1 4.1 0 0 1-1.9 1.6c-.4.2-1 .3-1.5.3a4 4 0 0 1-1.8-.4 2.8 2.8 0 0 1-1.6-2.6c0-.5.1-1 .4-1.4.2-.4.5-.8.9-1l1.4-.7 1.9-.2h2Zm5.8-1.8v7.9h-1.7v-10h1.6v2.1Zm-.4 2.5h-.7c0-.7 0-1.3.3-2 .2-.5.4-1 .8-1.5a3.7 3.7 0 0 1 3-1.3c.4 0 .9 0 1.3.2.4.1.7.3 1 .6.3.3.5.7.6 1.1.2.5.3 1 .3 1.7v6.6h-1.8v-6.6c0-.5 0-1-.2-1.3-.1-.3-.4-.5-.7-.7l-1-.2a2.5 2.5 0 0 0-2.1 1 3.7 3.7 0 0 0-.8 2.4Zm15.3 3V688h1.7v10h-1.6v-2.3Zm.3-2h.8l-.3 1.8a4 4 0 0 1-.6 1.5 4 4 0 0 1-1.2 1c-.5.2-1.2.3-1.9.3-.5 0-1 0-1.3-.2a2.7 2.7 0 0 1-1.7-1.8c-.2-.5-.3-1.1-.3-1.8V688h1.8v6.5l.1 1 .4.8.6.3.7.1c.7 0 1.3-.1 1.7-.4.5-.3.8-.7 1-1.1l.2-1.6Zm10 2.7V691c0-.4-.1-.7-.3-1-.1-.3-.4-.5-.7-.7-.3-.2-.7-.2-1.1-.2-.5 0-.9 0-1.2.2a2 2 0 0 0-.7.6 1 1 0 0 0-.3.7h-1.7c0-.3 0-.7.3-1 .1-.4.4-.7.8-1a4 4 0 0 1 1.2-.7 5 5 0 0 1 1.7-.2c.7 0 1.3.1 1.9.3.6.3 1 .7 1.3 1.2.3.5.5 1 .5 1.8v5.7l.3 1v.2h-1.7l-.2-.8-.1-1Zm.3-4.4v1.2H327l-1.4.1a3 3 0 0 0-1 .4 1 1 0 0 0-.5.6l-.2.8c0 .3 0 .6.2.8.1.3.4.5.6.7l1.1.2a2.8 2.8 0 0 0 2.4-1.2l.3-.9.8.8c0 .3-.2.6-.4.9a4.2 4.2 0 0 1-1.9 1.6 3.8 3.8 0 0 1-3.3-.1 2.8 2.8 0 0 1-1.6-2.6c0-.5.2-1 .4-1.4.2-.4.5-.8.9-1l1.4-.7 1.9-.2h2Zm6-8.1V698h-1.8v-14.3h1.8Zm4.6 0V698h-1.7v-14.3h1.7Zm5.6 13.2 2.7-9h1.9l-4 11.5a6.3 6.3 0 0 1-1 1.7 2.7 2.7 0 0 1-2 .9l-.5-.1h-.5v-1.5a3.8 3.8 0 0 0 1.5-.1l.6-.5.5-1 .8-2Zm-2.1-9 2.6 7.8.5 1.8-1.3.6L341 688h1.9Z"/>
  <path fill="#0065BD" d="M120.5 699.9h229.2v.9H120.5v-1Z"/>
  <path fill="#000" d="M139.3 782.9v8.4a8.5 8.5 0 0 1-4.2 2.5 13.8 13.8 0 0 1-7.7-.2 8.1 8.1 0 0 1-4.8-5.2c-.5-1.3-.7-2.8-.7-4.4v-1.3c0-1.7.2-3.1.6-4.4.5-1.3 1-2.4 1.9-3.2.7-1 1.7-1.6 2.8-2 1-.5 2.3-.7 3.6-.7 1.9 0 3.4.3 4.6.9a6 6 0 0 1 2.7 2.5 8 8 0 0 1 1.2 3.6H135c0-.7-.3-1.4-.6-1.9s-.7-1-1.3-1.3c-.5-.3-1.3-.4-2.2-.4-.7 0-1.3.1-2 .4-.5.3-1 .8-1.4 1.3-.3.6-.6 1.3-.8 2.2-.3.8-.4 1.8-.4 3v1.3c0 1.1.2 2.1.4 3 .2.8.5 1.5 1 2.1.3.6.9 1 1.5 1.3a5 5 0 0 0 2.2.5 7 7 0 0 0 1.7-.2l1.1-.4.7-.5V786h-4v-3.1h8.4Zm12.7 7.3v-12h4.2V794h-4l-.2-3.8Zm.4-3.2h1.3c0 1-.1 2-.4 2.9a7 7 0 0 1-1 2.3 5.1 5.1 0 0 1-4.6 2c-.7 0-1.4 0-2-.2-.7-.3-1.3-.6-1.8-1a5 5 0 0 1-1-1.9c-.3-.8-.4-1.7-.4-2.7V778h4.2v10.3c0 .5 0 .9.2 1.2 0 .3.2.6.4.8l.8.4.9.2a3 3 0 0 0 2-.6 2 2 0 0 0 1.1-1.4c.2-.6.3-1.3.3-2Zm15.6 3.4v-7c0-.5-.1-1-.3-1.3-.2-.4-.4-.7-.8-.9-.3-.2-.8-.3-1.3-.3s-.9 0-1.2.2a2 2 0 0 0-1.1 1.7h-4.2c0-.6.2-1.2.5-1.9.3-.6.7-1 1.3-1.5a5 5 0 0 1 2.2-1.1 9.2 9.2 0 0 1 6 .2 5 5 0 0 1 2.3 1.8c.5.8.8 1.9.8 3.1v6.8c0 .8 0 1.6.2 2.1 0 .6.2 1 .4 1.5v.2h-4.2l-.5-1.6-.1-2Zm.5-6v2.3h-2.3l-1.5.2c-.4.2-.7.3-1 .6a2 2 0 0 0-.6.8l-.1 1c0 .3 0 .6.2 1l.7.6c.3.2.7.2 1.1.2.7 0 1.2 0 1.7-.3a3 3 0 0 0 1-1c.3-.3.5-.7.5-1l1 1.8a7.2 7.2 0 0 1-1.6 2.4l-1.4 1c-.6.2-1.3.3-2 .3a6 6 0 0 1-2.8-.6 5 5 0 0 1-2-1.7 5 5 0 0 1-.2-4.7c.3-.6.8-1.2 1.4-1.6a7 7 0 0 1 2.3-1c.9-.2 2-.4 3.2-.4h2.4Zm11.2-2.8V794h-4.2v-15.9h4l.2 3.5Zm4.8-3.6-.1 4a10 10 0 0 0-1.5-.2c-.6 0-1.2.1-1.6.3-.4.1-.8.3-1 .6-.4.3-.6.7-.7 1.1-.2.4-.2.9-.3 1.4l-.8-.2c0-1 .1-2 .3-2.9.2-.8.5-1.6.9-2.2.4-.7.9-1.2 1.5-1.5.5-.4 1.2-.5 2-.5a4.5 4.5 0 0 1 1.3.1Zm10 12.4v-7c0-.5 0-1-.2-1.3-.2-.4-.5-.7-.8-.9-.4-.2-.8-.3-1.4-.3-.4 0-.8 0-1.2.2l-.8.7-.2 1h-4.3c0-.6.2-1.2.5-1.9.3-.6.8-1 1.4-1.5.6-.5 1.3-.9 2.1-1.1a9.2 9.2 0 0 1 6 .2 5 5 0 0 1 2.3 1.8c.6.8.9 1.9.9 3.1v6.8l.1 2.1.5 1.5v.2H195l-.4-1.6-.2-2Zm.6-6v2.3h-2.4l-1.4.2c-.4.2-.8.3-1 .6a2 2 0 0 0-.6.8l-.2 1c0 .3 0 .6.3 1l.7.6c.3.2.7.2 1 .2.7 0 1.3 0 1.7-.3a3 3 0 0 0 1.1-1c.3-.3.4-.7.4-1l1.1 1.8a7.2 7.2 0 0 1-1.6 2.4c-.4.4-1 .7-1.5 1-.6.2-1.3.3-2 .3-1 0-2-.2-2.8-.6a5 5 0 0 1-2-1.7c-.4-.7-.6-1.5-.6-2.5 0-.8.1-1.5.4-2.2.4-.6.8-1.2 1.4-1.6a7 7 0 0 1 2.3-1c1-.2 2-.4 3.2-.4h2.5Zm11-2.9V794H202v-15.9h4l.2 3.4Zm-.6 4h-1.1a8.4 8.4 0 0 1 1.7-5.6 5.5 5.5 0 0 1 4.5-2c.7 0 1.4 0 2 .3a3 3 0 0 1 1.6 1c.5.5.8 1 1 1.9.3.7.4 1.7.4 2.8V794h-4.2v-10.1a4 4 0 0 0-.3-1.7c-.2-.4-.5-.6-.9-.8l-1.4-.2a3 3 0 0 0-1.4.3 3 3 0 0 0-1 1c-.3.3-.5.8-.7 1.3l-.2 1.7Zm21-7.4v3h-9.1v-3h9.2Zm-6.9-3.9h4.3v15l.1 1c.2.3.3.5.6.6l1 .1a7.7 7.7 0 0 0 1.2 0v3a8 8 0 0 1-5 0c-.7-.4-1.2-.9-1.6-1.6a5 5 0 0 1-.6-2.7v-15.4Zm8.3 12v-.3c0-1.1.2-2.2.5-3.2a7 7 0 0 1 1.5-2.5c.6-.8 1.4-1.3 2.3-1.7 1-.4 2-.6 3.2-.6a8 8 0 0 1 3.2.6 7 7 0 0 1 2.4 1.7c.6.7 1.1 1.5 1.4 2.5.4 1 .5 2 .5 3.2v.3a10 10 0 0 1-.5 3.2 6.5 6.5 0 0 1-3.8 4.2 8 8 0 0 1-3.2.7 8 8 0 0 1-3.2-.6 6.6 6.6 0 0 1-3.8-4.3c-.3-1-.5-2-.5-3.2Zm4.3-.3v.3l.1 1.9c.1.6.3 1 .6 1.5.2.4.6.8 1 1 .4.3 1 .4 1.5.4a3 3 0 0 0 1.6-.4c.4-.2.7-.6 1-1l.5-1.5.2-1.9v-.3c0-.6 0-1.2-.2-1.8 0-.6-.3-1-.5-1.5-.3-.5-.6-.8-1-1a3 3 0 0 0-1.6-.4c-.6 0-1 0-1.5.3a3 3 0 0 0-1 1 5 5 0 0 0-.6 1.6 9 9 0 0 0-.2 1.8Zm17.6-4.3V794h-4.3v-15.9h4l.3 3.5Zm4.7-3.6v4a10 10 0 0 0-1.6-.2c-.6 0-1 .1-1.5.3-.4.1-.8.3-1.1.6-.3.3-.5.7-.6 1.1-.2.4-.3.9-.3 1.4l-.8-.2c0-1 0-2 .3-2.9.2-.8.5-1.6.9-2.2a3.7 3.7 0 0 1 3.4-2 4.6 4.6 0 0 1 1.3.1Z"/>
  <path fill="#333" d="M126.7 844h-3.4v-2.5h3.4c.8 0 1.6-.2 2.1-.6.6-.4 1-1 1.3-1.7a7 7 0 0 0 .5-2.6v-.8c0-.8 0-1.5-.3-2.1-.1-.6-.4-1.1-.7-1.6-.3-.4-.7-.7-1.2-.9a4 4 0 0 0-1.7-.3h-3.5v-2.5h3.5c1 0 2 .1 2.9.5a6.5 6.5 0 0 1 3.7 3.9c.4.9.6 1.9.6 3v.8c0 1-.2 2-.6 3-.3 1-.8 1.7-1.4 2.4-.7.6-1.4 1.1-2.3 1.5-.9.3-1.8.5-2.9.5Zm-1.6-15.6V844H122v-15.6h3.2Zm10.4 10v-.3a7 7 0 0 1 1.4-4.3 5.7 5.7 0 0 1 4-1.7c1 0 1.8.2 2.5.5.6.3 1.2.7 1.7 1.2.5.6.8 1.2 1 2 .3.6.4 1.4.4 2.3v.2c0 .9 0 1.6-.3 2.4-.3.7-.6 1.3-1.1 1.8-.5.6-1 1-1.7 1.3a6 6 0 0 1-2.4.4 6 6 0 0 1-2.3-.4 4.9 4.9 0 0 1-2.8-3.1c-.3-.8-.4-1.5-.4-2.4Zm3.1-.3v.2l.1 1.4.4 1c.2.4.5.6.8.8.3.2.7.3 1.1.3.5 0 .8 0 1.1-.3.3-.1.6-.4.8-.7l.4-1.1.1-1.4v-.2l-.1-1.4-.4-1a2 2 0 0 0-.8-.8 2 2 0 0 0-1-.3c-.5 0-.9 0-1.2.3-.3.1-.6.4-.8.7l-.4 1.1v1.4Zm15.2 6.1c-1 0-1.7-.1-2.4-.4a5.3 5.3 0 0 1-3.4-5.2v-.4c0-1 .1-1.7.4-2.5a7 7 0 0 1 1-1.9c.5-.5 1-1 1.8-1.2a5 5 0 0 1 2.2-.4c.9 0 1.6.1 2.2.4a3 3 0 0 1 1.6 1.1 5 5 0 0 1 1 1.8c.2.7.3 1.5.3 2.4v1.2h-9.2v-2h6.2v-.3c0-.4 0-.8-.2-1.1l-.7-.8c-.3-.2-.7-.3-1.2-.3a2 2 0 0 0-1 .2 2 2 0 0 0-.8.8 4 4 0 0 0-.4 1.1l-.1 1.5v.4c0 .5 0 .9.2 1.3.1.4.3.7.6 1 .2.3.5.5.9.7l1.2.2 1.5-.3c.5-.2 1-.6 1.3-1l1.5 1.6-1 1a5.3 5.3 0 0 1-3.5 1.1Zm12.8-3.4c0-.2 0-.4-.2-.6-.1-.2-.4-.4-.7-.5a7 7 0 0 0-1.5-.4l-1.7-.5-1.3-.7-.8-1c-.2-.4-.3-.9-.3-1.4 0-.4 0-.9.3-1.3.2-.5.5-.8.9-1.2.4-.3.9-.6 1.4-.7.6-.2 1.3-.3 2-.3 1 0 1.9.1 2.6.4.7.4 1.3.8 1.7 1.4.4.5.6 1.2.6 1.9h-3.1c0-.3 0-.6-.2-.8-.1-.3-.3-.4-.6-.6a2 2 0 0 0-1-.2 2 2 0 0 0-.9.2l-.6.5a1.1 1.1 0 0 0 0 1c0 .2.1.3.3.5l.7.3 1 .2 2.3.7c.6.3 1.1.7 1.5 1.1.4.5.6 1.1.6 1.9 0 .5-.1 1-.3 1.4l-1 1.1a5 5 0 0 1-1.6.8 7.2 7.2 0 0 1-4.7-.4 4 4 0 0 1-1.7-1.4c-.4-.6-.6-1.3-.6-1.9h3c0 .4 0 .8.3 1 .2.3.4.5.7.6l1 .2c.5 0 .8 0 1-.2l.7-.4.2-.7Zm16.2-8.4v2.2H176v-2.2h6.8Zm-5.1-2.9h3v11l.2.8c.1.2.2.3.4.3l.7.1a5.6 5.6 0 0 0 1 0v2.2a6 6 0 0 1-3.7 0c-.5-.2-1-.6-1.2-1.1a4 4 0 0 1-.4-2v-11.3Zm9.9-2V844h-3.1v-16.5h3Zm-.5 10.3h-.8c0-.8 0-1.6.3-2.3.2-.6.5-1.2.9-1.7s.8-1 1.4-1.2c.5-.3 1.1-.4 1.8-.4.6 0 1 0 1.5.2s1 .4 1.3.8c.3.3.6.8.7 1.4.2.5.3 1.2.3 2v7.4h-3v-7.4c0-.5-.2-.9-.3-1.2l-.6-.6-1-.2c-.5 0-.9 0-1.2.2a2 2 0 0 0-.7.7 3 3 0 0 0-.4 1l-.2 1.3Zm13-5.4V844h-3v-11.6h3Zm-3.3-3c0-.5.2-.9.5-1.2.3-.3.8-.4 1.3-.4s1 .1 1.2.4c.4.3.5.7.5 1.1 0 .5-.1.9-.5 1.2-.3.3-.7.4-1.2.4s-1-.1-1.3-.4c-.3-.3-.5-.7-.5-1.2Zm12.2 11.4c0-.2 0-.4-.2-.6-.1-.2-.4-.4-.7-.5a7 7 0 0 0-1.5-.4l-1.7-.5-1.3-.7-.8-1c-.2-.4-.3-.9-.3-1.4 0-.4 0-.9.3-1.3.2-.5.5-.8.9-1.2.4-.3.9-.6 1.4-.7.6-.2 1.3-.3 2-.3 1 0 1.9.1 2.6.4.7.4 1.3.8 1.7 1.4.4.5.6 1.2.6 1.9h-3.1l-.2-.8c-.1-.3-.3-.4-.6-.6a2 2 0 0 0-1-.2 2 2 0 0 0-1 .2l-.5.5-.2.6.1.5.4.4.7.3 1 .2c.8.2 1.6.4 2.2.7a5 5 0 0 1 1.6 1.1c.4.5.6 1.1.6 1.9 0 .5-.1 1-.4 1.4-.2.4-.5.8-1 1.1a5 5 0 0 1-1.5.8 7.2 7.2 0 0 1-4.7-.4c-.8-.4-1.4-.8-1.7-1.4-.4-.6-.6-1.3-.6-1.9h3c0 .4 0 .8.2 1 .2.3.5.5.8.6l1 .2c.5 0 .8 0 1-.2l.7-.4.2-.7Zm16.2-8.4v2.2h-6.8v-2.2h6.8Zm-5.1-2.9h3v11l.2.8c.1.2.2.3.4.3l.7.1a5.6 5.6 0 0 0 .9 0v2.2a6 6 0 0 1-3.7 0c-.5-.2-.8-.6-1.1-1.1a4 4 0 0 1-.4-2v-11.3Zm12.2 14.7c-1 0-1.7-.1-2.4-.4a5.3 5.3 0 0 1-3.4-5.2v-.4c0-1 .1-1.7.4-2.5a7 7 0 0 1 1-1.9c.5-.5 1-1 1.8-1.2a5 5 0 0 1 2.2-.4c.9 0 1.6.1 2.2.4a3 3 0 0 1 1.6 1.1 5 5 0 0 1 1 1.8c.2.7.4 1.5.4 2.4v1.2h-9.3v-2h6.2v-.3c0-.4 0-.8-.2-1.1l-.7-.8c-.3-.2-.7-.3-1.2-.3a2 2 0 0 0-1 .2 2 2 0 0 0-.8.8 4 4 0 0 0-.4 1.1l-.1 1.5v.4c0 .5 0 .9.2 1.3.1.4.3.7.6 1 .2.3.5.5.9.7l1.2.2 1.5-.3c.5-.2 1-.6 1.3-1l1.5 1.6c-.2.4-.6.7-1 1a5.3 5.3 0 0 1-3.5 1.1Zm9.5-9.3v9.1h-3v-11.6h2.8l.2 2.5Zm-.4 2.9h-.8c0-.9 0-1.7.3-2.3a4 4 0 0 1 1-1.8 4 4 0 0 1 1.4-1.1c.5-.3 1.1-.4 1.8-.4.6 0 1 0 1.5.2s.9.4 1.2.8c.3.3.6.7.7 1.3.2.6.3 1.3.3 2v7.5h-3.1v-7.4c0-.5 0-1-.2-1.2-.2-.3-.4-.5-.7-.6l-1-.2c-.4 0-.8 0-1 .2-.4.2-.6.4-.8.7l-.5 1a5 5 0 0 0-.1 1.3Zm16 3.6v-5.2c0-.4 0-.7-.2-1 0-.2-.3-.4-.5-.6l-1-.2a2 2 0 0 0-.9.2c-.3 0-.4.3-.6.5l-.2.7h-3c0-.5 0-1 .3-1.4.2-.4.5-.8 1-1.1a5 5 0 0 1 1.5-.8 6.7 6.7 0 0 1 4.5.1 3.8 3.8 0 0 1 2.2 3.6v5c0 .6 0 1.2.2 1.6 0 .4.1.7.3 1v.2h-3.1l-.4-1.2v-1.4Zm.4-4.5v1.8h-1.7l-1 .1a2 2 0 0 0-.8.4l-.4.6-.1.7.1.7c.2.2.3.4.6.5l.8.2c.4 0 .8 0 1.2-.3l.8-.7c.2-.2.3-.5.3-.7l.8 1.3a5.3 5.3 0 0 1-1.2 1.8l-1.1.7a4 4 0 0 1-1.5.2c-.7 0-1.4-.1-2-.4-.6-.3-1-.7-1.4-1.3-.4-.5-.5-1-.5-1.8 0-.6 0-1.1.3-1.6a3 3 0 0 1 1-1.2c.5-.3 1-.6 1.7-.7a8 8 0 0 1 2.3-.3h1.8Zm8.1-2v9.1h-3v-11.6h2.9l.1 2.5Zm-.4 2.9h-.8c0-.9 0-1.7.3-2.3a4 4 0 0 1 1-1.8 4 4 0 0 1 1.4-1.1c.5-.3 1.1-.4 1.8-.4.6 0 1 0 1.5.2s.9.4 1.2.8c.3.3.6.7.7 1.3.2.6.3 1.3.3 2v7.5h-3.1v-7.4c0-.5 0-1-.2-1.2-.2-.3-.4-.5-.7-.6l-1-.2c-.4 0-.8 0-1 .2-.4.2-.6.4-.8.7l-.5 1a5 5 0 0 0-.1 1.3Zm15.4-5.4v2.2h-6.7v-2.2h6.7Zm-5-2.9h3v11c0 .3 0 .6.2.8 0 .2.2.3.4.3l.7.1a5.6 5.6 0 0 0 .9 0v2.2a6 6 0 0 1-3.7 0 2 2 0 0 1-1.1-1.1 4 4 0 0 1-.4-2v-11.3Zm15.3-2V844h-3v-16.5h3Zm-.4 10.3h-.9c0-.8.1-1.6.3-2.3.2-.6.5-1.2 1-1.7.3-.5.8-1 1.3-1.2a4.6 4.6 0 0 1 3.4-.2c.4.2.9.4 1.2.8.3.3.6.8.8 1.4.2.5.3 1.2.3 2v7.4H295v-7.4c0-.5-.1-.9-.3-1.2a.9.9 0 0 0-.6-.6l-1-.2c-.5 0-.8 0-1.2.2a2 2 0 0 0-.7.7 3 3 0 0 0-.4 1l-.1 1.3Zm16 3.6v-5.2c0-.4 0-.7-.2-1l-.6-.6-1-.2a2 2 0 0 0-.8.2c-.3 0-.5.3-.6.5l-.2.7h-3.1c0-.5.1-1 .3-1.4l1-1.1a5 5 0 0 1 1.6-.8 6.7 6.7 0 0 1 4.4.1 4 4 0 0 1 1.7 1.4c.4.6.6 1.3.6 2.2v5l.1 1.6.4 1v.2h-3.2l-.3-1.2-.1-1.4Zm.4-4.5v1.8h-1.7l-1 .1a2 2 0 0 0-.8.4l-.4.6-.2.7c0 .3 0 .5.2.7l.5.5.8.2c.5 0 1 0 1.3-.3l.8-.7.3-.7.8 1.3a5.4 5.4 0 0 1-1.2 1.8l-1.1.7a4 4 0 0 1-1.5.2c-.8 0-1.4-.1-2-.4-.6-.3-1.1-.7-1.5-1.3-.3-.5-.5-1-.5-1.8 0-.6.1-1.1.4-1.6.2-.5.5-.9 1-1.2.4-.3 1-.6 1.7-.7.6-.2 1.4-.3 2.3-.3h1.8Zm8.9 4.8 2.5-9.3h3.3l-4 11.6H316v-2.3Zm-1.8-9.3 2.6 9.4v2.2h-2l-3.8-11.6h3.2Zm14.2 11.8c-1 0-1.7-.1-2.5-.4a5.3 5.3 0 0 1-3.3-5.2v-.4c0-1 .1-1.7.4-2.5a7 7 0 0 1 1-1.9c.5-.5 1-1 1.7-1.2.7-.3 1.5-.4 2.3-.4a5 5 0 0 1 2.2.4 3 3 0 0 1 1.6 1.1 5 5 0 0 1 1 1.8c.2.7.3 1.5.3 2.4v1.2H324v-2h6.2v-.3c0-.4 0-.8-.2-1.1l-.7-.8c-.3-.2-.7-.3-1.2-.3a2 2 0 0 0-1 .2 2 2 0 0 0-.8.8 4 4 0 0 0-.4 1.1l-.1 1.5v.4c0 .5 0 .9.2 1.3l.5 1 1 .7 1.2.2 1.5-.3c.5-.2 1-.6 1.3-1l1.5 1.6-1 1a5.3 5.3 0 0 1-3.5 1.1Zm18.3-2.8v-5.2l-.2-1-.6-.6-1-.2a2 2 0 0 0-.9.2c-.2 0-.4.3-.5.5a1 1 0 0 0-.3.7h-3c0-.5 0-1 .3-1.4.2-.4.6-.8 1-1.1a5 5 0 0 1 1.6-.8 6.7 6.7 0 0 1 4.4.1 4 4 0 0 1 1.7 1.4c.4.6.6 1.3.6 2.2v6.6l.4 1v.2h-3.1c-.1-.3-.3-.7-.3-1.2l-.1-1.4Zm.4-4.5v1.8h-1.7l-1.1.1a2 2 0 0 0-.8.4l-.4.6-.1.7c0 .3 0 .5.2.7 0 .2.3.4.5.5l.8.2c.5 0 .9 0 1.2-.3.4-.2.6-.4.8-.7.2-.2.3-.5.3-.7l.8 1.3a5.3 5.3 0 0 1-1.2 1.8l-1 .7a4 4 0 0 1-1.6.2c-.7 0-1.4-.1-2-.4a3.5 3.5 0 0 1-1.9-3.1c0-.6.1-1.1.3-1.6a4 4 0 0 1 1-1.2 8.8 8.8 0 0 1 4.1-1h1.8Zm17.9-4.5h2.8v11.2c0 1-.2 2-.7 2.7-.5.8-1.1 1.3-2 1.7a6.9 6.9 0 0 1-6-.2 4 4 0 0 1-1.2-1l1.4-1.9a3.5 3.5 0 0 0 2.8 1.3c.5 0 1 0 1.4-.3.4-.2.7-.5.9-.9.2-.3.3-.8.3-1.4v-8.5l.3-2.7Zm-7.8 6v-.3c0-.9 0-1.7.3-2.4.2-.7.5-1.4 1-1.9a4.3 4.3 0 0 1 3.4-1.6 4 4 0 0 1 2 .4c.4.3.9.7 1.2 1.2l.8 1.9.4 2.3v.5c0 .8-.2 1.6-.4 2.3a7 7 0 0 1-.9 1.8 3.4 3.4 0 0 1-3.1 1.6 4.2 4.2 0 0 1-3.5-1.7c-.4-.5-.7-1.1-1-1.8l-.2-2.4Zm3-.3v.2l.2 1.4c.1.4.2.8.4 1 .2.4.5.6.8.8.3.2.6.3 1 .3.6 0 1-.1 1.4-.4.4-.2.6-.6.8-1 .2-.4.3-.9.3-1.4v-1.4l-.1-1.3a3 3 0 0 0-.5-.9 2 2 0 0 0-.7-.6l-1.1-.2a2 2 0 0 0-1.1.3c-.3.1-.5.4-.7.7l-.5 1.1-.1 1.4Zm16.9 3.1v-8.8h3V844h-2.8l-.2-2.8Zm.3-2.4h1c0 .8-.2 1.5-.3 2.2l-.8 1.7a3.8 3.8 0 0 1-3.3 1.5c-.6 0-1.1 0-1.6-.2s-.9-.4-1.2-.8l-.8-1.3a6 6 0 0 1-.3-2v-7.5h3.1v7.5l.1.9.4.6.5.3h.7c.6 0 1.1 0 1.5-.3.4-.3.6-.6.8-1l.2-1.6Zm11.4 2.6v-5.2c0-.4 0-.7-.2-1l-.5-.6-1-.2a2 2 0 0 0-1 .2c-.2 0-.4.3-.5.5l-.2.7h-3.1c0-.5.1-1 .3-1.4l1-1.1a5 5 0 0 1 1.6-.8 6.7 6.7 0 0 1 4.5.1 3.8 3.8 0 0 1 2.2 3.6v5l.1 1.6.4 1v.2h-3.1l-.4-1.2-.1-1.4Zm.4-4.5v1.8h-1.7l-1 .1a2 2 0 0 0-.8.4l-.4.6-.2.7.2.7c.1.2.3.4.6.5l.8.2c.4 0 .8 0 1.2-.3l.8-.7c.2-.2.3-.5.3-.7l.8 1.3a5.3 5.3 0 0 1-1.2 1.8l-1.1.7a4 4 0 0 1-1.5.2c-.8 0-1.4-.1-2-.4a3 3 0 0 1-1.4-1.3c-.4-.5-.6-1-.6-1.8 0-.6.2-1.1.4-1.6s.5-.9 1-1.2c.4-.3 1-.6 1.7-.7a8 8 0 0 1 2.3-.3h1.8Zm8.2-2v9.1h-3.1v-11.6h3l.1 2.5Zm3.5-2.6v2.9a7.5 7.5 0 0 0-1.2-.1c-.4 0-.8 0-1.1.2a2 2 0 0 0-.8.4l-.5.8-.1 1-.7-.1c0-.8.1-1.5.3-2 .1-.7.3-1.3.6-1.8l1-1c.5-.3 1-.4 1.5-.4a3.3 3.3 0 0 1 1 .1Zm7.4 9v-5.1c0-.4 0-.7-.2-1l-.6-.6-1-.2a2 2 0 0 0-.9.2c-.2 0-.4.3-.5.5-.2.2-.2.4-.2.7h-3.1c0-.5 0-1 .3-1.4.2-.4.6-.8 1-1.1a5 5 0 0 1 1.6-.8 6.7 6.7 0 0 1 4.4.1 4 4 0 0 1 1.7 1.4c.4.6.6 1.3.6 2.2v5l.1 1.6c0 .4.2.7.3 1v.2h-3l-.4-1.2-.1-1.4Zm.4-4.4v1.8h-1.7l-1 .1a2 2 0 0 0-.8.4l-.5.6v1.4l.6.5.8.2c.5 0 .9 0 1.2-.3.4-.2.6-.4.8-.7.2-.2.3-.5.3-.7l.8 1.3a5.3 5.3 0 0 1-1.2 1.8l-1 .7a4 4 0 0 1-1.6.2c-.7 0-1.4-.1-2-.4a3.5 3.5 0 0 1-1.9-3.1c0-.6.1-1.1.3-1.6a4 4 0 0 1 1-1.2 8.8 8.8 0 0 1 4.1-1h1.8Zm8.1-2v9.1h-3v-11.6h2.8l.2 2.5Zm-.5 2.9h-.8c0-.9.1-1.7.3-2.3.3-.7.6-1.3 1-1.8a4 4 0 0 1 1.4-1.1 4 4 0 0 1 1.9-.4c.5 0 1 0 1.5.2.4.2.8.4 1.1.8.4.3.6.7.8 1.3.2.6.2 1.3.2 2v7.5h-3v-7.4c0-.5-.1-1-.3-1.2a.9.9 0 0 0-.6-.6l-1-.2c-.4 0-.8 0-1.1.2l-.8.7-.4 1a5 5 0 0 0-.2 1.3Zm15.5-5.4v2.2H425v-2.2h6.8Zm-5.1-2.9h3.1v11l.1.8c.1.2.3.3.4.3l.7.1a5.6 5.6 0 0 0 1 0v2.2a6 6 0 0 1-3.7 0c-.5-.2-1-.6-1.2-1.1a4 4 0 0 1-.4-2v-11.3Zm6 8.8v-.2c0-.9.2-1.7.4-2.4.3-.7.6-1.3 1.1-1.9.5-.5 1-.9 1.7-1.2a6 6 0 0 1 2.4-.4 5.6 5.6 0 0 1 4.1 1.6 7.3 7.3 0 0 1 1.4 4.2v.3c0 .9-.1 1.6-.4 2.4a4.7 4.7 0 0 1-2.8 3.1c-.6.3-1.4.4-2.3.4a6 6 0 0 1-2.4-.4 4.9 4.9 0 0 1-2.8-3.1c-.2-.8-.3-1.5-.3-2.4Zm3.2-.2v.2l.1 1.4c0 .4.2.8.4 1 .2.4.5.6.8.8.3.2.6.3 1 .3.5 0 .9 0 1.2-.3.3-.1.6-.4.7-.7.2-.3.4-.7.4-1.1l.2-1.4v-.2c0-.5 0-1-.2-1.4 0-.4-.2-.7-.4-1a2 2 0 0 0-.7-.8 2 2 0 0 0-1.1-.3c-.5 0-.8 0-1.1.3-.3.1-.6.4-.8.7l-.4 1.1-.1 1.4Zm12.9-3.2v9.1h-3.1v-11.6h3v2.5Zm3.5-2.6v2.9a7.5 7.5 0 0 0-1.2-.1c-.4 0-.8 0-1.1.2a2 2 0 0 0-.8.4l-.5.8-.2 1-.6-.1c0-.8 0-1.5.2-2l.7-1.8 1-1c.5-.3 1-.4 1.5-.4a3.3 3.3 0 0 1 1 .1Zm6.7 7h-2.7l.1-1.7.5-1.3a6 6 0 0 1 1-1.2l.9-.8.6-.8.2-1c0-.4 0-.8-.2-1-.1-.3-.3-.5-.6-.7l-.9-.2c-.3 0-.6 0-.8.2-.3.1-.5.3-.7.6-.2.3-.2.6-.3 1h-3c0-1 .2-1.7.6-2.4.4-.6 1-1 1.8-1.4a6.7 6.7 0 0 1 5 0c.7.4 1.3.8 1.6 1.5.4.6.6 1.4.6 2.2a3 3 0 0 1-.4 1.7c-.2.5-.5 1-1 1.4l-1.2 1.2a3 3 0 0 0-.8 1.2c-.2.4-.3.9-.3 1.4Zm-3 3.2c0-.4.1-.8.4-1.1.4-.3.8-.5 1.3-.5s1 .2 1.3.5c.3.3.4.7.4 1.1 0 .5-.1.9-.4 1.2-.4.3-.8.4-1.3.4s-1-.1-1.3-.4c-.3-.3-.4-.7-.4-1.2Z"/>
  <path fill="#fff" d="M139.5 913a18 18 0 1 0 0-36 18 18 0 0 0 0 36Z"/>
  <path stroke="#333" stroke-width="2" d="M139.5 914a19 19 0 1 0 0-38 19 19 0 0 0 0 38Z"/>
  <path fill="#333" d="m176.7 887.5 3.5 6.8 3.5-6.8h2l-4.6 8.5v5h-1.8v-5l-4.7-8.5h2Zm14 13.7a4.3 4.3 0 0 1-4.3-2.9l-.2-2v-.4c0-.8 0-1.5.3-2.1l1-1.7a4.2 4.2 0 0 1 3-1.3 6 6 0 0 1 2 .3c.4.3.9.6 1.2 1 .3.5.6 1 .7 1.6.2.6.3 1.3.3 2v.8h-7.5V895h5.8v-.2l-.3-1.3c-.2-.4-.4-.7-.8-1-.3-.3-.8-.4-1.3-.4a2.3 2.3 0 0 0-2 1l-.5 1.1a6 6 0 0 0-.2 1.6v.4c0 .5 0 1 .2 1.4.1.4.3.8.6 1 .2.4.5.6.9.8.4.2.8.3 1.3.3a3 3 0 0 0 1.5-.4c.4-.2.8-.6 1.1-1l1 .8c-.2.4-.4.7-.8 1a4 4 0 0 1-1.2.7c-.5.2-1 .3-1.7.3Zm11.8-2.9-.1-.6c-.1-.3-.4-.5-.7-.6-.3-.2-.8-.4-1.5-.5l-1.5-.4-1.1-.6-.8-.8-.2-1c0-.5 0-.9.3-1.2.1-.4.4-.7.7-1l1.2-.6 1.5-.2a4 4 0 0 1 2 .4c.6.3 1 .7 1.4 1.1.3.5.4 1 .4 1.6h-1.7c0-.3 0-.5-.2-.8l-.7-.7-1.2-.2c-.5 0-.8 0-1.1.2l-.7.6a1.4 1.4 0 0 0 0 1.2l.3.4.7.3 1.1.3c.9.2 1.5.4 2 .7.6.2 1 .6 1.3 1 .2.3.3.8.3 1.3a2.6 2.6 0 0 1-1 2.2l-1.2.6-1.6.2c-1 0-1.7-.2-2.3-.5a4 4 0 0 1-1.4-1.2 3 3 0 0 1-.4-1.6h1.7c0 .5.1.8.4 1.1.2.3.5.5.9.6a3.6 3.6 0 0 0 2.2 0c.4-.1.6-.3.8-.5l.2-.8Z"/>
  <path fill="#fff" d="M139.5 975a18 18 0 1 0 0-36 18 18 0 0 0 0 36Z"/>
  <path stroke="#333" stroke-width="2" d="M139.5 976a19 19 0 1 0 0-38 19 19 0 0 0 0 38Z"/>
  <path fill="#333" d="M186.5 949.5V963h-1.8l-6.8-10.4V963H176v-13.5h1.8l6.8 10.4v-10.4h1.8Zm2.4 8.6v-.2c0-.7.1-1.4.3-2 .2-.7.5-1.2 1-1.7a4 4 0 0 1 1.4-1c.5-.3 1.2-.4 1.9-.4s1.3.1 1.9.4c.5.2 1 .6 1.4 1l1 1.7c.1.6.3 1.3.3 2v.2a6.5 6.5 0 0 1-1.3 3.6 4.2 4.2 0 0 1-3.3 1.5 4.3 4.3 0 0 1-4.3-3l-.3-2.1Zm1.7-.2v.2c0 .5 0 1 .2 1.4l.5 1.2 1 .8c.3.2.7.3 1.2.3s.9-.1 1.2-.3l1-.8.4-1.2c.2-.4.2-1 .2-1.4v-.2c0-.5 0-1-.2-1.4 0-.5-.3-.9-.5-1.2a2.5 2.5 0 0 0-2.1-1.1c-.5 0-1 0-1.3.3l-.9.8-.5 1.2-.2 1.4Z"/>
  <path stroke="#428542" stroke-width="2" d="M53.5 110h30m-30 425h30m-30 248h30m-29-672v673"/>
</svg>
