<?xml version="1.0" encoding="utf-8"?><svg viewBox="0 0 69.5 70" xmlns="http://www.w3.org/2000/svg" xmlns:xlink="http://www.w3.org/1999/xlink"><style>:root>svg{display:none}:root>svg:target{display:block}</style><svg id="close-21" data-name="Layer 1" viewBox="0 0 21 21" xmlns="http://www.w3.org/2000/svg"><defs><style>.acls-1{fill:#231f20}</style></defs><path class="acls-1" d="M21 2.86L18.14 0 10.5 7.64 2.92 0 0 2.86l7.64 7.64L0 18.14 2.86 21l7.64-7.64L18.14 21 21 18.14l-7.64-7.64L21 2.86z"/></svg><svg id="menu-21" data-name="Layer 1" viewBox="0 0 21 21" xmlns="http://www.w3.org/2000/svg"><defs><style>.bcls-1{fill:#231f20}</style></defs><path class="bcls-1" d="M-.01 1h21v4h-21zM-.01 15h21v4h-21zM-.01 8h21v4h-21z"/></svg><svg data-name="Layer 1" viewBox="0 0 69.5 70" id="search" xmlns="http://www.w3.org/2000/svg"><path d="M69.5 63.5L52.29 46.29a29.11 29.11 0 10-6.59 6.41L63 70zM7 29a22 22 0 1122 22A22 22 0 017 29z"/></svg></svg>