<svg viewBox="0 0 180.39 49.91" xmlns="http://www.w3.org/2000/svg" xmlns:xlink="http://www.w3.org/1999/xlink"><clipPath id="a" transform="translate(-12.47 -9.71)"><path d="m12.47 9.71h180.39v49.91h-180.39z"/></clipPath><g clip-path="url(#a)"><path d="m37.43 59.62a25 25 0 1 0 -25-25 25 25 0 0 0 25 25" fill="#0065bd" transform="translate(-12.47 -9.71)"/><path d="m102.67 59.62a25 25 0 1 0 -25-25 25 25 0 0 0 25 25" fill="#002d54" transform="translate(-12.47 -9.71)"/><path d="m167.9 59.62a25 25 0 1 0 -25-25 25 25 0 0 0 25 25" fill="#5eb135" transform="translate(-12.47 -9.71)"/></g></svg>