<svg id="Layer_1" data-name="Layer 1" xmlns="http://www.w3.org/2000/svg" xmlns:xlink="http://www.w3.org/1999/xlink" viewBox="0 0 180.39 49.91"><defs><style>.cls-1{fill:none;}.cls-2{clip-path:url(#clip-path);}.cls-3{fill:#0065bd;}.cls-4{fill:#002d54;}.cls-5{fill:#5eb135;}</style><clipPath id="clip-path" transform="translate(-12.47 -9.71)"><rect class="cls-1" x="12.47" y="9.71" width="180.39" height="49.91"/></clipPath></defs><g class="cls-2"><path class="cls-3" d="M37.43,59.62a25,25,0,1,0-25-25,25,25,0,0,0,25,25" transform="translate(-12.47 -9.71)"/><path class="cls-4" d="M102.67,59.62a25,25,0,1,0-25-25,25,25,0,0,0,25,25" transform="translate(-12.47 -9.71)"/><path class="cls-5" d="M167.9,59.62a25,25,0,1,0-25-25,25,25,0,0,0,25,25" transform="translate(-12.47 -9.71)"/></g></svg>