<svg id="Layer_1" data-name="Layer 1" xmlns="http://www.w3.org/2000/svg" viewBox="0 0 245.61 49.67"><defs><style>.cls-1{fill:#5eb135;}.cls-2{fill:#002d54;}.cls-3{fill:#0065bd;}.cls-4{fill:#28a197;}</style></defs><path class="cls-1" d="M168,59.48a24.82,24.82,0,1,0-24.81-24.82A24.82,24.82,0,0,0,168,59.48" transform="translate(-12.47 -9.81)"/><path class="cls-2" d="M102.67,59.44A24.82,24.82,0,1,0,77.85,34.62a24.81,24.81,0,0,0,24.82,24.82" transform="translate(-12.47 -9.81)"/><path class="cls-3" d="M37.29,59.44A24.82,24.82,0,1,0,12.47,34.62,24.81,24.81,0,0,0,37.29,59.44" transform="translate(-12.47 -9.81)"/><path class="cls-4" d="M233.27,59.44a24.82,24.82,0,1,0-24.82-24.82,24.81,24.81,0,0,0,24.82,24.82" transform="translate(-12.47 -9.81)"/><path class="cls-1" d="M168,59.48a24.82,24.82,0,1,0-24.81-24.82A24.82,24.82,0,0,0,168,59.48" transform="translate(-12.47 -9.81)"/><path class="cls-2" d="M102.67,59.44A24.82,24.82,0,1,0,77.85,34.62a24.81,24.81,0,0,0,24.82,24.82" transform="translate(-12.47 -9.81)"/><path class="cls-3" d="M37.29,59.44A24.82,24.82,0,1,0,12.47,34.62,24.81,24.81,0,0,0,37.29,59.44" transform="translate(-12.47 -9.81)"/></svg>