<svg viewBox="0 0 245.61 49.67" xmlns="http://www.w3.org/2000/svg"><g transform="translate(-12.47 -9.81)"><path d="m168 59.48a24.82 24.82 0 1 0 -24.81-24.82 24.82 24.82 0 0 0 24.81 24.82" fill="#5eb135"/><path d="m102.67 59.44a24.82 24.82 0 1 0 -24.82-24.82 24.81 24.81 0 0 0 24.82 24.82" fill="#002d54"/><path d="m37.29 59.44a24.82 24.82 0 1 0 -24.82-24.82 24.81 24.81 0 0 0 24.82 24.82" fill="#0065bd"/><path d="m233.27 59.44a24.82 24.82 0 1 0 -24.82-24.82 24.81 24.81 0 0 0 24.82 24.82" fill="#28a197"/><path d="m168 59.48a24.82 24.82 0 1 0 -24.81-24.82 24.82 24.82 0 0 0 24.81 24.82" fill="#5eb135"/><path d="m102.67 59.44a24.82 24.82 0 1 0 -24.82-24.82 24.81 24.81 0 0 0 24.82 24.82" fill="#002d54"/><path d="m37.29 59.44a24.82 24.82 0 1 0 -24.82-24.82 24.81 24.81 0 0 0 24.82 24.82" fill="#0065bd"/></g></svg>