<svg id="Layer_1" title="Article layout diagram" data-name="Layer 1" xmlns="http://www.w3.org/2000/svg" viewBox="0 0 1143 810"><defs><style>.cls-1,.cls-2{fill:none;stroke-miterlimit:10;}.cls-1{stroke:#d9effb;}.cls-2{stroke:#333333;}.cls-3{font-size:24px;fill:#333333;font-family:Roboto, sans-serif;}</style></defs><line class="cls-1" x1="612" y1="468" x2="612"/><line class="cls-1" x1="648" x2="648" y2="468"/><line class="cls-1" x1="657" y1="468" x2="657"/><line class="cls-1" x1="693" x2="693" y2="468"/><line class="cls-1" x1="702" y1="468" x2="702"/><line class="cls-1" x1="738" x2="738" y2="468"/><line class="cls-1" x1="747" y1="468" x2="747"/><line class="cls-1" x1="783" x2="783" y2="468"/><line class="cls-1" x1="792" y1="468" x2="792"/><line class="cls-1" x1="828" x2="828" y2="468"/><line class="cls-1" x1="837" y1="468" x2="837"/><line class="cls-1" x1="873" x2="873" y2="468"/><line class="cls-1" x1="882" y1="468" x2="882"/><line class="cls-1" x1="918" x2="918" y2="468"/><line class="cls-1" x1="927" y1="468" x2="927"/><line class="cls-1" x1="963" x2="963" y2="468"/><line class="cls-1" x1="972" y1="468" x2="972"/><line class="cls-1" x1="1008" x2="1008" y2="468"/><line class="cls-1" x1="1017" y1="468" x2="1017"/><line class="cls-1" x1="1053" x2="1053" y2="468"/><line class="cls-1" x1="1062" y1="468" x2="1062"/><line class="cls-1" x1="1098" x2="1098" y2="468"/><line class="cls-1" x1="1107" y1="468" x2="1107"/><line class="cls-1" x1="1143" x2="1143" y2="468"/><rect class="cls-2" x="612" y="18" width="351" height="72"/><rect class="cls-2" x="972" y="99" width="171" height="279"/><rect class="cls-2" x="612" y="99" width="351" height="279"/><rect class="cls-2" x="972" y="18" width="171" height="72"/><rect class="cls-2" x="612" y="387" width="351" height="63"/><text class="cls-3" transform="translate(621 45)">Header</text><text class="cls-3" transform="translate(981 45)">Partner</text><text class="cls-3" transform="translate(621 126)">Content</text><text class="cls-3" transform="translate(981 126)">Sidebar</text><text class="cls-3" transform="translate(621 414)">Feedback</text><line class="cls-1" x1="225" y1="675" x2="225"/><line class="cls-1" x1="243" x2="243" y2="675"/><line class="cls-1" x1="252" y1="675" x2="252"/><line class="cls-1" x1="270" x2="270" y2="675"/><line class="cls-1" x1="279" y1="675" x2="279"/><line class="cls-1" x1="297" x2="297" y2="675"/><line class="cls-1" x1="306" y1="675" x2="306"/><line class="cls-1" x1="324" x2="324" y2="675"/><line class="cls-1" x1="333" y1="675" x2="333"/><line class="cls-1" x1="351" x2="351" y2="675"/><line class="cls-1" x1="360" y1="675" x2="360"/><line class="cls-1" x1="378" x2="378" y2="675"/><line class="cls-1" x1="387" y1="675" x2="387"/><line class="cls-1" x1="405" x2="405" y2="675"/><line class="cls-1" x1="414" y1="675" x2="414"/><line class="cls-1" x1="432" x2="432" y2="675"/><line class="cls-1" x1="441" y1="675" x2="441"/><line class="cls-1" x1="459" x2="459" y2="675"/><line class="cls-1" x1="468" y1="675" x2="468"/><line class="cls-1" x1="486" x2="486" y2="675"/><line class="cls-1" x1="495" y1="675" x2="495"/><line class="cls-1" x1="513" x2="513" y2="675"/><line class="cls-1" x1="522" y1="675" x2="522"/><line class="cls-1" x1="540" x2="540" y2="675"/><rect class="cls-2" x="225" y="18" width="207" height="72"/><rect class="cls-2" x="225" y="387" width="315" height="198"/><rect class="cls-2" x="225" y="99" width="315" height="279"/><rect class="cls-2" x="441" y="18" width="99" height="72"/><rect class="cls-2" x="225" y="594" width="207" height="63"/><text class="cls-3" transform="translate(234 45)">Header</text><text class="cls-3" transform="translate(450 45)">Partner</text><text class="cls-3" transform="translate(234 126)">Content</text><text class="cls-3" transform="translate(234 414)">Sidebar</text><text class="cls-3" transform="translate(234 621)">Feedback</text><line class="cls-1" y1="810"/><line class="cls-1" x1="18" x2="18" y2="810"/><line class="cls-1" x1="27" y1="810" x2="27"/><line class="cls-1" x1="45" x2="45" y2="810"/><line class="cls-1" x1="54" y1="810" x2="54"/><line class="cls-1" x1="72" x2="72" y2="810"/><line class="cls-1" x1="81" y1="810" x2="81"/><line class="cls-1" x1="99" x2="99" y2="810"/><line class="cls-1" x1="108" y1="810" x2="108"/><line class="cls-1" x1="126" x2="126" y2="810"/><line class="cls-1" x1="135" y1="810" x2="135"/><line class="cls-1" x1="153" x2="153" y2="810"/><rect class="cls-2" y="18" width="153" height="72"/><rect class="cls-2" y="558" width="153" height="162"/><rect class="cls-2" y="171" width="153" height="378"/><rect class="cls-2" y="99" width="153" height="63"/><rect class="cls-2" y="729" width="153" height="63"/><text class="cls-3" transform="translate(9 45)">Header</text><text class="cls-3" transform="translate(9 126)">Partner</text><text class="cls-3" transform="translate(9 198)">Content</text><text class="cls-3" transform="translate(9 585)">Sidebar</text><text class="cls-3" transform="translate(9 756)">Feedback</text></svg>
