<svg xmlns="http://www.w3.org/2000/svg" xml:space="preserve" id="Layer_1" x="0" y="0" version="1.1" viewBox="0 0 830 400">
  <style>
    .st0{fill:#ebebeb}.st2{fill:#b3b3b3}
  </style>
  <path d="M0 0h830v400H0z" class="st0"/>
  <path fill="#fff" stroke="#b3b3b3" stroke-miterlimit="10" stroke-width="2" d="M167 320h496v48H167zm0-48h496v48H167zm0-48h496v48H167zm0-48h496v48H167zm0-48h496v48H167zm0-48h496v48H167z"/>
  <path d="M183 192h104v16H183zm216-96h104v16H399zm0 48h48v16h-48zm56 0h112v16H455zm-272 96h64v16h-64z" class="st0"/>
  <path d="M255 240h88v16h-88zm96 0h16v16h-16z" class="st2"/>
  <path d="M375 240h88v16h-88z" class="st0"/>
  <path d="M183 288h88v16h-88zm96 0h16v16h-16z" class="st2"/>
  <path d="M303 288h88v16h-88z" class="st0"/>
  <path d="M343 336h88v16h-88zm96 0h16v16h-16z" class="st2"/>
  <path d="M463 336h88v16h-88z" class="st0"/>
  <path d="M183 96h88v16h-88zm96 0h16v16h-16z" class="st2"/>
  <path d="M169 34h492v44H169z" class="st0"/>
  <path fill="#333" d="M659 36v40H171V36h488m4-4H167v48h496V32z"/>
  <path fill="#ffd712" d="M663 32v48H167V32h496m4-4H163v56h504V28z"/>
  <path d="M183 45h119.4v21.7H183zm130.3 0H335v21.7h-21.7z" class="st2"/>
  <path d="M303 96h88v16h-88z" class="st0"/>
  <path d="M183 144h88v16h-88zm96 0h16v16h-16z" class="st2"/>
  <path d="M303 144h88v16h-88z" class="st0"/>
  <path d="M295 192h88v16h-88zm96 0h16v16h-16z" class="st2"/>
  <path d="M415 192h88v16h-88zm96 0h56v16h-56zM279 336h56v16h-56zm-96 0h88v16h-88zm288-96h56v16h-56z" class="st0"/>
  <path fill="#0065bd" d="M615 32h48v48h-48z"/>
</svg>
