<svg viewBox="0 0 406.01 265" xmlns="http://www.w3.org/2000/svg" xmlns:xlink="http://www.w3.org/1999/xlink"><clipPath id="a"><path d="m63.28 13.27h293.41v229.73h-293.41z"/></clipPath><g clip-path="url(#a)"><path d="m243.52 128.54a81.75 81.75 0 0 0 -13-31.51l11.77-11.76-21.29-21.27-11.75 11.81a81.76 81.76 0 0 0 -31.51-13.05v-16.65h-30v16.65a81.7 81.7 0 0 0 -31.51 13.05l-11.79-11.81-21.23 21.27 11.79 11.73a81.76 81.76 0 0 0 -13 31.51h-16.72v30h16.65a81.7 81.7 0 0 0 13 31.51l-11.72 11.82 21.23 21.23 11.77-11.76a81.84 81.84 0 0 0 31.51 13v16.69h30v-16.65a81.7 81.7 0 0 0 31.51-13l11.77 11.72 21.23-21.23-11.77-11.77a81.53 81.53 0 0 0 13-31.51h16.65v-30z" fill="none" stroke="#00a4b4" stroke-width="4"/><path d="m346.46 56.84a41.71 41.71 0 0 0 -6.46-15.84l5.82-6-10.5-10.71-5.83 5.94a39.93 39.93 0 0 0 -15.59-6.58v-8.4h-14.9v8.4a39.93 39.93 0 0 0 -15.59 6.58l-5.83-5.94-10.46 10.71 5.82 6a41.71 41.71 0 0 0 -6.46 15.89h-8.24v15.11h8.24a41.71 41.71 0 0 0 6.46 15.89l-5.82 5.93 10.5 10.71 5.83-5.94a39.93 39.93 0 0 0 15.55 6.56v8.4h14.9v-8.4a39.93 39.93 0 0 0 15.59-6.58l5.83 5.94 10.5-10.71-5.82-5.93a41.71 41.71 0 0 0 6.46-15.87h8.24v-15.16z" fill="none" stroke="#76bc21" stroke-width="4"/><path d="m331.7 162.86a.5.5 0 0 1 -.49.49h-4.1a3.74 3.74 0 0 0 -3.41 2.4l-.73 1.77a3.78 3.78 0 0 0 .68 4.18l2.9 2.9a.49.49 0 0 1 .14.34.47.47 0 0 1 -.15.35l-4.46 4.47a.43.43 0 0 1 -.71 0l-2.89-2.9a4.06 4.06 0 0 0 -4.11-.71l-1.76.73a3.78 3.78 0 0 0 -2.48 3.44v4.09a.5.5 0 0 1 -.5.5h-6.32a.51.51 0 0 1 -.5-.5v-4.09a3.73 3.73 0 0 0 -2.4-3.41l-1.76-.73a3.5 3.5 0 0 0 -1.56-.35 3.79 3.79 0 0 0 -2.63 1l-2.89 2.9a.43.43 0 0 1 -.7 0l-4.48-4.48a.5.5 0 0 1 -.14-.35.5.5 0 0 1 .15-.35l2.89-2.89a3.75 3.75 0 0 0 .72-4.1l-.73-1.78a3.78 3.78 0 0 0 -3.44-2.47h-4.1a.51.51 0 0 1 -.5-.49v-6.33a.51.51 0 0 1 .5-.5h4.1a3.75 3.75 0 0 0 3.41-2.4l.72-1.76a3.79 3.79 0 0 0 -.68-4.19l-2.9-2.89a.51.51 0 0 1 -.14-.35.49.49 0 0 1 .15-.35l4.47-4.48a.43.43 0 0 1 .7 0l2.89 2.89a4 4 0 0 0 4.11.71l1.76-.73a3.76 3.76 0 0 0 2.48-3.44v-4a.51.51 0 0 1 .5-.5h6.32a.51.51 0 0 1 .5.5v4.09a3.74 3.74 0 0 0 2.4 3.41l1.76.73a3.91 3.91 0 0 0 4.19-.68l2.89-2.89a.42.42 0 0 1 .7 0l4.48 4.48a.48.48 0 0 1 .14.34.49.49 0 0 1 -.15.35l-2.89 2.9a3.73 3.73 0 0 0 -.71 4.1l.73 1.76a3.76 3.76 0 0 0 3.44 2.48h4.1a.51.51 0 0 1 .49.5zm2.46 0v-6.33a3 3 0 0 0 -3-3h-4.1a1.38 1.38 0 0 1 -1.14-.87l-.8-1.93a1.37 1.37 0 0 1 .22-1.35l2.89-2.89a2.95 2.95 0 0 0 0-4.18l-4.47-4.48a3 3 0 0 0 -4.18 0l-2.89 2.9a1.25 1.25 0 0 1 -1.42.18l-1.93-.79a1.36 1.36 0 0 1 -.8-1.11v-4.01a3 3 0 0 0 -3-3h-6.32a3 3 0 0 0 -3 3v4.09a1.36 1.36 0 0 1 -.88 1.14l-1.92.8a1.46 1.46 0 0 1 -1.35-.22l-2.89-2.89a3 3 0 0 0 -4.18 0l-4.47 4.48a2.95 2.95 0 0 0 0 4.18l2.89 2.89a1.37 1.37 0 0 1 .18 1.43l-.79 1.92a1.32 1.32 0 0 1 -1.1.8h-4.1a3 3 0 0 0 -3 3v6.33a3 3 0 0 0 3 2.95h4.1a1.36 1.36 0 0 1 1.13.87l.8 1.94a1.38 1.38 0 0 1 -.22 1.34l-2.89 2.89a2.94 2.94 0 0 0 -.87 2.09 2.9 2.9 0 0 0 .87 2.09l4.47 4.48a3 3 0 0 0 4.18 0l2.9-2.9a1.24 1.24 0 0 1 1.42-.18l1.92.79a1.35 1.35 0 0 1 .8 1.11v4.09a3 3 0 0 0 3 3h6.32a3 3 0 0 0 3-3v-4.09a1.39 1.39 0 0 1 .88-1.14l1.92-.79a1.42 1.42 0 0 1 1.35.21l2.9 2.9a3 3 0 0 0 4.17 0l4.47-4.48a2.9 2.9 0 0 0 .87-2.09 2.94 2.94 0 0 0 -.87-2.09l-2.84-2.94a1.39 1.39 0 0 1 -.18-1.42l.8-1.94a1.33 1.33 0 0 1 1.1-.79h4.1a3 3 0 0 0 3-2.95" fill="#f0de00"/><path d="m316.42 170.13a.54.54 0 0 1 -.36-.14l-7.32-7.32a.5.5 0 0 1 .71-.71l7.32 7.32a.51.51 0 0 1 0 .71.54.54 0 0 1 -.35.14" fill="#36424a"/><path d="m316.42 170.13a.54.54 0 0 1 -.36-.14l-7.32-7.32a.5.5 0 0 1 .71-.71l7.32 7.32a.51.51 0 0 1 0 .71.54.54 0 0 1 -.35.14z" fill="none" stroke="#00a4b4" stroke-miterlimit="10"/><path d="m296.65 149.87 8.17 19.32 3.31-7.58a.59.59 0 0 1 .26-.26l7.61-3.35zm8.17 21.13a.48.48 0 0 1 -.45-.3l-9.11-21.53a.49.49 0 0 1 .65-.65l21.53 9.1a.51.51 0 0 1 .3.46.49.49 0 0 1 -.3.46l-8.46 3.7-3.7 8.46a.48.48 0 0 1 -.45.3" fill="#36424a"/><path d="m296.65 149.87 8.17 19.32 3.31-7.58a.59.59 0 0 1 .26-.26l7.61-3.35zm8.17 21.13a.48.48 0 0 1 -.45-.3l-9.11-21.53a.49.49 0 0 1 .65-.65l21.53 9.1a.51.51 0 0 1 .3.46.49.49 0 0 1 -.3.46l-8.46 3.7-3.7 8.46a.48.48 0 0 1 -.46.3z" fill="none" stroke="#00a4b4" stroke-miterlimit="10"/></g><path d="m208 181h-90.54a2.09 2.09 0 0 1 -2.09-2.09v-75.45a2.1 2.1 0 0 1 2.09-2.09h90.54a2.09 2.09 0 0 1 2.09 2.09v75.45a2.08 2.08 0 0 1 -2.09 2.09zm-88.46-4.18h86.37v-71.27h-86.36v71.27z" fill="#002d54"/><path d="m207.87 167.22a2.07 2.07 0 0 1 -1.32-.47l-20.61-16.75-20.77 13.8-26.81-28.8-19.36 20a2.09 2.09 0 0 1 -3-2.91l22.46-23.19 27.39 29.46 20.38-13.58 23 18.74a2.09 2.09 0 0 1 .3 2.94 2.06 2.06 0 0 1 -1.62.77z" fill="#002d54"/><path d="m167.72 117a8.72 8.72 0 1 0 8.71 8.71 8.73 8.73 0 0 0 -8.71-8.71z" fill="#76bc21"/><path d="m256.5 1h105.6v29.6h-105.6z" fill="none"/><path d="m292.1 47.13h-4.4a1.76 1.76 0 0 0 -1.76 1.76v4.4a1.76 1.76 0 0 0 1.76 1.76h4.4a1.76 1.76 0 0 0 1.76-1.76v-4.4a1.76 1.76 0 0 0 -1.76-1.76z" fill="#00a4b4"/><path d="m324.2 53h-24.48a1.91 1.91 0 0 1 0-3.82h24.48a1.91 1.91 0 0 1 0 3.82z" fill="#f0de00"/><path d="m292.1 73.28h-4.4a1.76 1.76 0 0 0 -1.76 1.72v4.4a1.76 1.76 0 0 0 1.76 1.76h4.4a1.76 1.76 0 0 0 1.76-1.76v-4.4a1.75 1.75 0 0 0 -1.76-1.76z" fill="#00a4b4"/><path d="m324.2 79.15h-24.48a1.91 1.91 0 0 1 0-3.82h24.48a1.91 1.91 0 0 1 0 3.82z" fill="#f0de00"/><path d="m292.1 60.2h-4.4a1.76 1.76 0 0 0 -1.76 1.8v4.39a1.77 1.77 0 0 0 1.76 1.77h4.4a1.76 1.76 0 0 0 1.76-1.77v-4.39a1.76 1.76 0 0 0 -1.76-1.77z" fill="#00a4b4"/><path d="m324.2 66.07h-24.48a1.91 1.91 0 0 1 0-3.81h24.48a1.91 1.91 0 0 1 0 3.81z" fill="#f0de00"/></svg>