<svg id="Capa_1" data-name="Capa 1" xmlns="http://www.w3.org/2000/svg" xmlns:xlink="http://www.w3.org/1999/xlink" viewBox="0 0 406.01 265"><defs><style>.cls-1,.cls-3,.cls-4,.cls-7{fill:none;}.cls-2{clip-path:url(#clip-path);}.cls-3,.cls-7{stroke:#00a4b4;}.cls-3,.cls-4{stroke-width:4px;}.cls-4{stroke:#76bc21;}.cls-5{fill:#f0de00;}.cls-6{fill:#36424a;}.cls-7{stroke-miterlimit:10;}.cls-8{fill:#002d54;}.cls-9{fill:#76bc21;}.cls-10{fill:#00a4b4;}</style><clipPath id="clip-path"><rect class="cls-1" x="63.28" y="13.27" width="293.41" height="229.73"/></clipPath></defs><title>Submenu.Heros</title><g class="cls-2"><path class="cls-3" d="M243.52,128.54a81.75,81.75,0,0,0-13-31.51l11.77-11.76L221,64,209.25,75.81a81.76,81.76,0,0,0-31.51-13.05V46.11h-30V62.76a81.7,81.7,0,0,0-31.51,13.05L104.44,64,83.21,85.27,95,97a81.76,81.76,0,0,0-13,31.51H65.28v30H81.93a81.7,81.7,0,0,0,13,31.51L83.21,201.84l21.23,21.23,11.77-11.76a81.84,81.84,0,0,0,31.51,13V241h30V224.35a81.7,81.7,0,0,0,31.51-13L221,223.07l21.23-21.23-11.77-11.77a81.53,81.53,0,0,0,13-31.51h16.65v-30Z"/><path class="cls-4" d="M346.46,56.84A41.71,41.71,0,0,0,340,41L345.82,35l-10.5-10.71-5.83,5.94a39.93,39.93,0,0,0-15.59-6.58v-8.4H299v8.4a39.93,39.93,0,0,0-15.59,6.58l-5.83-5.94L267.12,35,272.94,41a41.71,41.71,0,0,0-6.46,15.89h-8.24V72h8.24a41.71,41.71,0,0,0,6.46,15.89l-5.82,5.93,10.5,10.71,5.83-5.94A39.93,39.93,0,0,0,299,105.15v8.4H313.9v-8.4a39.93,39.93,0,0,0,15.59-6.58l5.83,5.94,10.5-10.71L340,87.87A41.71,41.71,0,0,0,346.46,72h8.24V56.84Z"/><path class="cls-5" d="M331.7,162.86a.5.5,0,0,1-.49.49h-4.1a3.74,3.74,0,0,0-3.41,2.4l-.73,1.77a3.78,3.78,0,0,0,.68,4.18l2.9,2.9a.49.49,0,0,1,.14.34.47.47,0,0,1-.15.35l-4.46,4.47a.43.43,0,0,1-.71,0l-2.89-2.9a4.06,4.06,0,0,0-4.11-.71l-1.76.73a3.78,3.78,0,0,0-2.48,3.44v4.09a.5.5,0,0,1-.5.5h-6.32a.51.51,0,0,1-.5-.5v-4.09a3.73,3.73,0,0,0-2.4-3.41l-1.76-.73a3.5,3.5,0,0,0-1.56-.35,3.79,3.79,0,0,0-2.63,1l-2.89,2.9a.43.43,0,0,1-.7,0l-4.48-4.48a.5.5,0,0,1-.14-.35.5.5,0,0,1,.15-.35l2.89-2.89a3.75,3.75,0,0,0,.72-4.1l-.73-1.78a3.78,3.78,0,0,0-3.44-2.47h-4.1a.51.51,0,0,1-.5-.49v-6.33a.51.51,0,0,1,.5-.5h4.1a3.75,3.75,0,0,0,3.41-2.4l.72-1.76a3.79,3.79,0,0,0-.68-4.19l-2.9-2.89a.51.51,0,0,1-.14-.35.49.49,0,0,1,.15-.35l4.47-4.48a.43.43,0,0,1,.7,0l2.89,2.89a4,4,0,0,0,4.11.71l1.76-.73a3.76,3.76,0,0,0,2.48-3.44V135a.51.51,0,0,1,.5-.5h6.32a.51.51,0,0,1,.5.5v4.09a3.74,3.74,0,0,0,2.4,3.41l1.76.73a3.91,3.91,0,0,0,4.19-.68l2.89-2.89a.42.42,0,0,1,.7,0l4.48,4.48a.48.48,0,0,1,.14.34.49.49,0,0,1-.15.35l-2.89,2.9a3.73,3.73,0,0,0-.71,4.1l.73,1.76a3.76,3.76,0,0,0,3.44,2.48h4.1a.51.51,0,0,1,.49.5Zm2.46,0v-6.33a3,3,0,0,0-3-3h-4.1a1.38,1.38,0,0,1-1.14-.87l-.8-1.93a1.37,1.37,0,0,1,.22-1.35l2.89-2.89a2.95,2.95,0,0,0,0-4.18l-4.47-4.48a3,3,0,0,0-4.18,0l-2.89,2.9a1.25,1.25,0,0,1-1.42.18l-1.93-.79a1.36,1.36,0,0,1-.8-1.11V135a3,3,0,0,0-3-3h-6.32a3,3,0,0,0-3,3v4.09a1.36,1.36,0,0,1-.88,1.14l-1.92.8a1.46,1.46,0,0,1-1.35-.22l-2.89-2.89a3,3,0,0,0-4.18,0l-4.47,4.48a2.95,2.95,0,0,0,0,4.18l2.89,2.89a1.37,1.37,0,0,1,.18,1.43l-.79,1.92a1.32,1.32,0,0,1-1.1.8h-4.1a3,3,0,0,0-3,3v6.33a3,3,0,0,0,3,2.95h4.1a1.36,1.36,0,0,1,1.13.87l.8,1.94a1.38,1.38,0,0,1-.22,1.34l-2.89,2.89a2.94,2.94,0,0,0-.87,2.09,2.9,2.9,0,0,0,.87,2.09l4.47,4.48a3,3,0,0,0,4.18,0l2.9-2.9a1.24,1.24,0,0,1,1.42-.18l1.92.79a1.35,1.35,0,0,1,.8,1.11v4.09a3,3,0,0,0,3,3h6.32a3,3,0,0,0,3-3v-4.09a1.39,1.39,0,0,1,.88-1.14l1.92-.79a1.42,1.42,0,0,1,1.35.21l2.9,2.9a3,3,0,0,0,4.17,0l4.47-4.48a2.9,2.9,0,0,0,.87-2.09,2.94,2.94,0,0,0-.87-2.09L325.39,170a1.39,1.39,0,0,1-.18-1.42l.8-1.94a1.33,1.33,0,0,1,1.1-.79h4.1a3,3,0,0,0,3-2.95"/><path class="cls-6" d="M316.42,170.13a.54.54,0,0,1-.36-.14l-7.32-7.32a.5.5,0,0,1,.71-.71l7.32,7.32a.51.51,0,0,1,0,.71.54.54,0,0,1-.35.14"/><path class="cls-7" d="M316.42,170.13a.54.54,0,0,1-.36-.14l-7.32-7.32a.5.5,0,0,1,.71-.71l7.32,7.32a.51.51,0,0,1,0,.71A.54.54,0,0,1,316.42,170.13Z"/><path class="cls-6" d="M296.65,149.87l8.17,19.32,3.31-7.58a.59.59,0,0,1,.26-.26L316,158ZM304.82,171h0a.48.48,0,0,1-.45-.3l-9.11-21.53a.49.49,0,0,1,.65-.65l21.53,9.1a.51.51,0,0,1,.3.46.49.49,0,0,1-.3.46l-8.46,3.7-3.7,8.46a.48.48,0,0,1-.45.3"/><path class="cls-7" d="M296.65,149.87l8.17,19.32,3.31-7.58a.59.59,0,0,1,.26-.26L316,158ZM304.82,171h0a.48.48,0,0,1-.45-.3l-9.11-21.53a.49.49,0,0,1,.65-.65l21.53,9.1a.51.51,0,0,1,.3.46.49.49,0,0,1-.3.46l-8.46,3.7-3.7,8.46A.48.48,0,0,1,304.82,171Z"/></g><path class="cls-8" d="M208,181H117.46a2.09,2.09,0,0,1-2.09-2.09V103.46a2.1,2.1,0,0,1,2.09-2.09H208a2.09,2.09,0,0,1,2.09,2.09v75.45A2.08,2.08,0,0,1,208,181Zm-88.46-4.18h86.37V105.55H119.55v71.27Z"/><path class="cls-8" d="M207.87,167.22a2.07,2.07,0,0,1-1.32-.47L185.94,150,165.17,163.8,138.36,135,119,155a2.09,2.09,0,0,1-3-2.91l22.46-23.19,27.39,29.46,20.38-13.58,23,18.74a2.09,2.09,0,0,1,.3,2.94,2.06,2.06,0,0,1-1.62.77Z"/><path class="cls-9" d="M167.72,117a8.72,8.72,0,1,0,8.71,8.71,8.73,8.73,0,0,0-8.71-8.71Z"/><rect class="cls-1" x="256.5" y="1" width="105.6" height="29.6"/><path class="cls-10" d="M292.1,47.13h-4.4a1.76,1.76,0,0,0-1.76,1.76v4.4a1.76,1.76,0,0,0,1.76,1.76h4.4a1.76,1.76,0,0,0,1.76-1.76v-4.4a1.76,1.76,0,0,0-1.76-1.76Z"/><path class="cls-5" d="M324.2,53H299.72a1.91,1.91,0,0,1,0-3.82H324.2a1.91,1.91,0,0,1,0,3.82Z"/><path class="cls-10" d="M292.1,73.28h-4.4A1.76,1.76,0,0,0,285.94,75v4.4a1.76,1.76,0,0,0,1.76,1.76h4.4a1.76,1.76,0,0,0,1.76-1.76V75a1.75,1.75,0,0,0-1.76-1.76Z"/><path class="cls-5" d="M324.2,79.15H299.72a1.91,1.91,0,0,1,0-3.82H324.2a1.91,1.91,0,0,1,0,3.82Z"/><path class="cls-10" d="M292.1,60.2h-4.4A1.76,1.76,0,0,0,285.94,62v4.39a1.77,1.77,0,0,0,1.76,1.77h4.4a1.76,1.76,0,0,0,1.76-1.77V62a1.76,1.76,0,0,0-1.76-1.77Z"/><path class="cls-5" d="M324.2,66.07H299.72a1.91,1.91,0,0,1,0-3.81H324.2a1.91,1.91,0,0,1,0,3.81Z"/></svg>
