<?xml version="1.0" encoding="utf-8"?>
<!-- Generator: Adobe Illustrator 24.1.0, SVG Export Plug-In . SVG Version: 6.00 Build 0)  -->
<svg version="1.1" id="Layer_1" xmlns="http://www.w3.org/2000/svg" xmlns:xlink="http://www.w3.org/1999/xlink" x="0px" y="0px"
	 viewBox="0 0 1143 738" style="enable-background:new 0 0 1143 738;" xml:space="preserve">
<style type="text/css">
	.st0{fill:none;stroke:#D9EFFB;stroke-miterlimit:10;}
	.st1{fill:none;stroke:#231F20;stroke-miterlimit:10;}
	.st2{fill:#231F20;}
	.st3{font-family:'ArialMT';}
	.st4{font-size:24px;}
</style>
<line class="st0" x1="612" y1="468" x2="612" y2="0"/>
<line class="st0" x1="648" y1="0" x2="648" y2="468"/>
<line class="st0" x1="657" y1="468" x2="657" y2="0"/>
<line class="st0" x1="693" y1="0" x2="693" y2="468"/>
<line class="st0" x1="702" y1="468" x2="702" y2="0"/>
<line class="st0" x1="738" y1="0" x2="738" y2="468"/>
<line class="st0" x1="747" y1="468" x2="747" y2="0"/>
<line class="st0" x1="783" y1="0" x2="783" y2="468"/>
<line class="st0" x1="792" y1="468" x2="792" y2="0"/>
<line class="st0" x1="828" y1="0" x2="828" y2="468"/>
<line class="st0" x1="837" y1="468" x2="837" y2="0"/>
<line class="st0" x1="873" y1="0" x2="873" y2="468"/>
<line class="st0" x1="882" y1="468" x2="882" y2="0"/>
<line class="st0" x1="918" y1="0" x2="918" y2="468"/>
<line class="st0" x1="927" y1="468" x2="927" y2="0"/>
<line class="st0" x1="963" y1="0" x2="963" y2="468"/>
<line class="st0" x1="972" y1="468" x2="972" y2="0"/>
<line class="st0" x1="1008" y1="0" x2="1008" y2="468"/>
<line class="st0" x1="1017" y1="468" x2="1017" y2="0"/>
<line class="st0" x1="1053" y1="0" x2="1053" y2="468"/>
<line class="st0" x1="1062" y1="468" x2="1062" y2="0"/>
<line class="st0" x1="1098" y1="0" x2="1098" y2="468"/>
<line class="st0" x1="1107" y1="468" x2="1107" y2="0"/>
<line class="st0" x1="1143" y1="0" x2="1143" y2="468"/>
<rect x="612" y="18" class="st1" width="81" height="72"/>
<rect x="1017" y="99" class="st1" width="126" height="279"/>
<rect x="702" y="99" class="st1" width="306" height="279"/>
<rect x="702" y="18" class="st1" width="306" height="72"/>
<rect x="702" y="387" class="st1" width="306" height="63"/>
<text transform="matrix(1 0 0 1 621 45)" class="st2 st3 st4">Icon</text>
<text transform="matrix(1 0 0 1 711 45)" class="st2 st3 st4">Header</text>
<text transform="matrix(1 0 0 1 711 126)" class="st2 st3 st4">Content</text>
<text transform="matrix(1 0 0 1 1027 129)" class="st2 st3 st4">Sidebar</text>
<text transform="matrix(1 0 0 1 711 414)" class="st2 st3 st4">Feedback</text>
<line class="st0" x1="225" y1="468" x2="225" y2="0"/>
<line class="st0" x1="243" y1="0" x2="243" y2="468"/>
<line class="st0" x1="252" y1="468" x2="252" y2="0"/>
<line class="st0" x1="270" y1="0" x2="270" y2="468"/>
<line class="st0" x1="279" y1="468" x2="279" y2="0"/>
<line class="st0" x1="297" y1="0" x2="297" y2="468"/>
<line class="st0" x1="306" y1="468" x2="306" y2="0"/>
<line class="st0" x1="324" y1="0" x2="324" y2="468"/>
<line class="st0" x1="333" y1="468" x2="333" y2="0"/>
<line class="st0" x1="351" y1="0" x2="351" y2="468"/>
<line class="st0" x1="360" y1="468" x2="360" y2="0"/>
<line class="st0" x1="378" y1="0" x2="378" y2="468"/>
<line class="st0" x1="387" y1="468" x2="387" y2="0"/>
<line class="st0" x1="405" y1="0" x2="405" y2="468"/>
<line class="st0" x1="414" y1="468" x2="414" y2="0"/>
<line class="st0" x1="432" y1="0" x2="432" y2="468"/>
<line class="st0" x1="441" y1="468" x2="441" y2="0"/>
<line class="st0" x1="459" y1="0" x2="459" y2="468"/>
<line class="st0" x1="468" y1="468" x2="468" y2="0"/>
<line class="st0" x1="486" y1="0" x2="486" y2="468"/>
<line class="st0" x1="495" y1="468" x2="495" y2="0"/>
<line class="st0" x1="513" y1="0" x2="513" y2="468"/>
<line class="st0" x1="522" y1="468" x2="522" y2="0"/>
<line class="st0" x1="540" y1="0" x2="540" y2="468"/>
<rect x="225" y="18" class="st1" width="315" height="72"/>
<rect x="441" y="99" class="st1" width="99" height="279"/>
<rect x="225" y="99" class="st1" width="207" height="279"/>
<rect x="225" y="388" class="st1" width="207" height="63"/>
<text transform="matrix(1 0 0 1 234 45)" class="st2 st3 st4">Header</text>
<text transform="matrix(1 0 0 1 234 126)" class="st2 st3 st4">Content</text>
<text transform="matrix(1 0 0 1 451 129.0001)" class="st2 st3 st4">Sidebar</text>
<text transform="matrix(1 0 0 1 234 415)" class="st2 st3 st4">Feedback</text>
<line class="st0" x1="0" y1="738" x2="0" y2="0"/>
<line class="st0" x1="18" y1="0" x2="18" y2="738"/>
<line class="st0" x1="27" y1="738" x2="27" y2="0"/>
<line class="st0" x1="45" y1="0" x2="45" y2="738"/>
<line class="st0" x1="54" y1="738" x2="54" y2="0"/>
<line class="st0" x1="72" y1="0" x2="72" y2="738"/>
<line class="st0" x1="81" y1="738" x2="81" y2="0"/>
<line class="st0" x1="99" y1="0" x2="99" y2="738"/>
<line class="st0" x1="108" y1="738" x2="108" y2="0"/>
<line class="st0" x1="126" y1="0" x2="126" y2="738"/>
<line class="st0" x1="135" y1="738" x2="135" y2="0"/>
<line class="st0" x1="153" y1="0" x2="153" y2="738"/>
<rect y="18" class="st1" width="153" height="72"/>
<rect y="486" class="st1" width="153" height="162"/>
<rect y="99" class="st1" width="153" height="378"/>
<rect y="657" class="st1" width="153" height="63"/>
<text transform="matrix(1 0 0 1 9 45)" class="st2 st3 st4">Header</text>
<text transform="matrix(1 0 0 1 9 126)" class="st2 st3 st4">Content</text>
<text transform="matrix(1 0 0 1 9 513)" class="st2 st3 st4">Sidebar</text>
<text transform="matrix(1 0 0 1 9 684)" class="st2 st3 st4">Feedback</text>
</svg>
