<svg id="Layer_1" data-name="Layer 1" xmlns="http://www.w3.org/2000/svg" viewBox="0 0 1580 930"><defs><style>.cls-1{fill:#ebebeb;}.cls-2,.cls-7,.cls-9{fill:#fff;}.cls-3,.cls-6{fill:none;}.cls-3{stroke:#ccc;stroke-width:4px;}.cls-3,.cls-6,.cls-7,.cls-9{stroke-miterlimit:10;}.cls-4{fill:#0065bd;}.cls-5{fill:#ccc;}.cls-6,.cls-7{stroke:#b3b3b3;stroke-width:1.5px;}.cls-8{fill:#333;}.cls-9{stroke:#333;}</style></defs><rect class="cls-1" x="-2" y="-2" width="1582" height="932"/><rect class="cls-2" x="136" y="103.9" width="497.22" height="55.66"/><rect class="cls-2" x="136" y="165.39" width="497.22" height="660.71"/><line class="cls-3" x1="136" y1="103.9" x2="633.22" y2="103.9"/><path class="cls-4" d="M172.61,146.31H154.55v-28.1h18.06s10,2,10,14S172.61,146.31,172.61,146.31Z"/><rect class="cls-1" x="192.72" y="122.45" width="64.96" height="7.22"/><rect class="cls-1" x="192.72" y="135.08" width="84.81" height="7.22"/><rect class="cls-1" x="154.55" y="248.63" width="272.46" height="4.87"/><rect class="cls-1" x="154.55" y="262.42" width="272.46" height="4.87"/><rect class="cls-1" x="154.55" y="214.69" width="80.57" height="15.37"/><rect class="cls-1" x="154.66" y="421.28" width="272.42" height="336.82"/><rect class="cls-1" x="154.55" y="397.48" width="272.46" height="4.87"/><rect class="cls-1" x="154.55" y="375.61" width="80.57" height="10.75"/><rect class="cls-1" x="154.55" y="806.93" width="272.46" height="7.22"/><rect class="cls-1" x="154.55" y="786.24" width="80.57" height="10.75"/><rect class="cls-1" x="154.55" y="184.47" width="22.26" height="5.3"/><rect class="cls-1" x="185.83" y="184.47" width="22.26" height="5.3"/><rect class="cls-1" x="503.35" y="126.69" width="110.79" height="15.37"/><rect class="cls-4" x="598.77" y="126.69" width="15.37" height="15.37"/><rect class="cls-1" x="175.97" y="301.5" width="222.1" height="4.87"/><rect class="cls-1" x="123.08" y="318.27" width="68.73" height="4.87" transform="translate(478.16 163.26) rotate(90)"/><rect class="cls-1" x="175.97" y="317.25" width="222.1" height="4.87"/><rect class="cls-1" x="175.97" y="332.99" width="98.96" height="4.87"/><rect class="cls-5" x="171.29" y="433.36" width="238.97" height="12.92"/><rect class="cls-5" x="171.29" y="458.97" width="238.97" height="7.31"/><rect class="cls-5" x="171.29" y="474.93" width="238.97" height="7.31"/><rect class="cls-5" x="171.29" y="497.98" width="238.97" height="12.92"/><rect class="cls-5" x="171.29" y="523.58" width="238.97" height="7.31"/><rect class="cls-5" x="171.29" y="539.55" width="121.91" height="7.31"/><circle class="cls-5" cx="181.06" cy="568.3" r="9.88"/><circle class="cls-5" cx="229.72" cy="568.3" r="9.88"/><rect class="cls-5" x="171.29" y="603.27" width="238.97" height="12.92"/><rect class="cls-5" x="171.29" y="628.87" width="238.97" height="7.31"/><rect class="cls-5" x="171.29" y="644.83" width="121.91" height="7.31"/><circle class="cls-5" cx="181.06" cy="673.58" r="9.88"/><circle class="cls-5" cx="229.72" cy="673.58" r="9.88"/><rect class="cls-4" x="171.18" y="716.53" width="93.5" height="25.47"/><line class="cls-6" x1="446" y1="439.87" x2="767.9" y2="439.87"/><rect class="cls-7" x="768.76" y="54.62" width="678.37" height="820.75"/><rect class="cls-1" x="828.58" y="119.6" width="558.73" height="690.8"/><rect class="cls-8" x="862.69" y="144.38" width="414.39" height="26.5"/><rect class="cls-5" x="862.69" y="196.89" width="490.13" height="15"/><rect class="cls-5" x="862.69" y="229.63" width="206.95" height="15"/><rect class="cls-8" x="862.69" y="276.9" width="337.15" height="26.5"/><rect class="cls-5" x="862.69" y="329.41" width="490.13" height="15"/><rect class="cls-5" x="862.69" y="362.16" width="250.02" height="15"/><rect class="cls-5" x="910.24" y="415.28" width="19.27" height="11.69"/><circle class="cls-9" cx="882.74" cy="421.12" r="20.27"/><circle class="cls-8" cx="882.74" cy="421.12" r="9.74"/><rect class="cls-5" x="1010.02" y="415.28" width="19.27" height="11.69"/><circle class="cls-9" cx="982.52" cy="421.12" r="20.27"/><rect class="cls-8" x="862.69" y="492.84" width="323.26" height="26.5"/><rect class="cls-5" x="862.69" y="545.35" width="490.13" height="15"/><rect class="cls-5" x="862.69" y="578.09" width="250.02" height="15"/><rect class="cls-5" x="910.24" y="631.21" width="19.27" height="11.69"/><circle class="cls-9" cx="882.74" cy="637.06" r="20.27"/><circle class="cls-8" cx="882.74" cy="637.06" r="9.74"/><rect class="cls-5" x="1010.02" y="631.21" width="19.27" height="11.69"/><circle class="cls-9" cx="982.52" cy="637.06" r="20.27"/><rect class="cls-4" x="862.47" y="725.15" width="191.77" height="52.23"/><rect class="cls-2" x="885.01" y="747.33" width="146.69" height="7.87"/></svg>