<svg viewBox="0 0 1580 930" xmlns="http://www.w3.org/2000/svg"><path d="m-2-2h1582v932h-1582z" fill="#ebebeb"/><path d="m136 103.9h497.22v55.66h-497.22z" fill="#fff"/><path d="m136 165.39h497.22v660.71h-497.22z" fill="#fff"/><path d="m136 103.9h497.22" fill="none" stroke="#ccc" stroke-miterlimit="10" stroke-width="4"/><path d="m172.61 146.31h-18.06v-28.1h18.06s10 2 10 14-10 14.1-10 14.1z" fill="#0065bd"/><g fill="#ebebeb"><path d="m192.72 122.45h64.96v7.22h-64.96z"/><path d="m192.72 135.08h84.81v7.22h-84.81z"/><path d="m154.55 248.63h272.46v4.87h-272.46z"/><path d="m154.55 262.42h272.46v4.87h-272.46z"/><path d="m154.55 214.69h80.57v15.37h-80.57z"/><path d="m154.66 421.28h272.42v336.82h-272.42z"/><path d="m154.55 397.48h272.46v4.87h-272.46z"/><path d="m154.55 375.61h80.57v10.75h-80.57z"/><path d="m154.55 806.93h272.46v7.22h-272.46z"/><path d="m154.55 786.24h80.57v10.75h-80.57z"/><path d="m154.55 184.47h22.26v5.3h-22.26z"/><path d="m185.83 184.47h22.26v5.3h-22.26z"/><path d="m503.35 126.69h110.79v15.37h-110.79z"/></g><path d="m598.77 126.69h15.37v15.37h-15.37z" fill="#0065bd"/><path d="m175.97 301.5h222.1v4.87h-222.1z" fill="#ebebeb"/><path d="m123.08 318.27h68.73v4.87h-68.73z" fill="#ebebeb" transform="matrix(0 1 -1 0 478.16 163.26)"/><path d="m175.97 317.25h222.1v4.87h-222.1z" fill="#ebebeb"/><path d="m175.97 332.99h98.96v4.87h-98.96z" fill="#ebebeb"/><path d="m171.29 433.36h238.97v12.92h-238.97z" fill="#ccc"/><path d="m171.29 458.97h238.97v7.31h-238.97z" fill="#ccc"/><path d="m171.29 474.93h238.97v7.31h-238.97z" fill="#ccc"/><path d="m171.29 497.98h238.97v12.92h-238.97z" fill="#ccc"/><path d="m171.29 523.58h238.97v7.31h-238.97z" fill="#ccc"/><path d="m171.29 539.55h121.91v7.31h-121.91z" fill="#ccc"/><circle cx="181.06" cy="568.3" fill="#ccc" r="9.88"/><circle cx="229.72" cy="568.3" fill="#ccc" r="9.88"/><path d="m171.29 603.27h238.97v12.92h-238.97z" fill="#ccc"/><path d="m171.29 628.87h238.97v7.31h-238.97z" fill="#ccc"/><path d="m171.29 644.83h121.91v7.31h-121.91z" fill="#ccc"/><circle cx="181.06" cy="673.58" fill="#ccc" r="9.88"/><circle cx="229.72" cy="673.58" fill="#ccc" r="9.88"/><path d="m171.18 716.53h93.5v25.47h-93.5z" fill="#0065bd"/><path d="m446 439.87h321.9" fill="none" stroke="#b3b3b3" stroke-miterlimit="10" stroke-width="1.5"/><path d="m768.76 54.62h678.37v820.75h-678.37z" fill="#fff" stroke="#b3b3b3" stroke-miterlimit="10" stroke-width="1.5"/><path d="m828.58 119.6h558.73v690.8h-558.73z" fill="#ebebeb"/><path d="m862.69 144.38h414.39v26.5h-414.39z" fill="#333"/><path d="m862.69 196.89h490.13v15h-490.13z" fill="#ccc"/><path d="m862.69 229.63h206.95v15h-206.95z" fill="#ccc"/><path d="m862.69 276.9h337.15v26.5h-337.15z" fill="#333"/><path d="m862.69 329.41h490.13v15h-490.13z" fill="#ccc"/><path d="m862.69 362.16h250.02v15h-250.02z" fill="#ccc"/><path d="m910.24 415.28h19.27v11.69h-19.27z" fill="#ccc"/><circle cx="882.74" cy="421.12" fill="#fff" r="20.27" stroke="#333" stroke-miterlimit="10"/><circle cx="882.74" cy="421.12" fill="#333" r="9.74"/><path d="m1010.02 415.28h19.27v11.69h-19.27z" fill="#ccc"/><circle cx="982.52" cy="421.12" fill="#fff" r="20.27" stroke="#333" stroke-miterlimit="10"/><path d="m862.69 492.84h323.26v26.5h-323.26z" fill="#333"/><path d="m862.69 545.35h490.13v15h-490.13z" fill="#ccc"/><path d="m862.69 578.09h250.02v15h-250.02z" fill="#ccc"/><path d="m910.24 631.21h19.27v11.69h-19.27z" fill="#ccc"/><circle cx="882.74" cy="637.06" fill="#fff" r="20.27" stroke="#333" stroke-miterlimit="10"/><circle cx="882.74" cy="637.06" fill="#333" r="9.74"/><path d="m1010.02 631.21h19.27v11.69h-19.27z" fill="#ccc"/><circle cx="982.52" cy="637.06" fill="#fff" r="20.27" stroke="#333" stroke-miterlimit="10"/><path d="m862.47 725.15h191.77v52.23h-191.77z" fill="#0065bd"/><path d="m885.01 747.33h146.69v7.87h-146.69z" fill="#fff"/></svg>