<svg id="Layer_1" data-name="Layer 1" xmlns="http://www.w3.org/2000/svg" viewBox="0 0 1400 1740"><defs><style>.cls-1{fill:#ebebeb;}.cls-2{fill:#fff;}.cls-3,.cls-6{fill:none;stroke-miterlimit:10;}.cls-3{stroke:#0065bd;stroke-width:4px;}.cls-4{fill:#0065bd;}.cls-5{fill:#333;}.cls-6{stroke:#333;}.cls-7{fill:#b3b3b3;}.cls-8{fill:#ccc;}</style></defs><rect class="cls-1" x="-1.75" y="-1.5" width="1403.5" height="1743"/><rect class="cls-2" x="190" y="129.24" width="1020" height="114.18"/><rect class="cls-2" x="190" y="255.38" width="1020" height="1355.38"/><line class="cls-3" x1="190" y1="129.24" x2="1210" y2="129.24"/><path class="cls-4" d="M265.11,216.23H228.06V158.6h37.05s20.58,4.11,20.58,28.81S265.11,216.23,265.11,216.23Z"/><rect class="cls-5" x="306.35" y="167.3" width="133.27" height="14.81"/><rect class="cls-5" x="306.35" y="193.21" width="173.99" height="14.81"/><rect class="cls-1" x="228.06" y="426.15" width="558.93" height="10"/><rect class="cls-1" x="228.06" y="454.42" width="558.93" height="10"/><rect class="cls-1" x="228.06" y="356.51" width="165.29" height="31.54"/><rect class="cls-1" x="228.28" y="790.31" width="558.85" height="690.95"/><rect class="cls-1" x="228.06" y="741.5" width="558.93" height="10"/><rect class="cls-1" x="228.06" y="696.63" width="165.29" height="22.06"/><rect class="cls-1" x="228.06" y="1581.44" width="558.93" height="14.81"/><rect class="cls-1" x="228.06" y="1538.98" width="165.29" height="22.06"/><rect class="cls-1" x="228.06" y="294.53" width="45.67" height="10.87"/><rect class="cls-1" x="292.22" y="294.53" width="45.67" height="10.87"/><rect class="cls-1" x="943.58" y="176" width="227.27" height="31.54"/><rect class="cls-4" x="1139.32" y="176" width="31.54" height="31.54"/><line class="cls-6" x1="228.06" y1="499.86" x2="787.13" y2="499.86"/><line class="cls-6" x1="228.06" y1="655.01" x2="787.13" y2="655.01"/><rect class="cls-1" x="302.01" y="542.6" width="425.62" height="10"/><rect class="cls-1" x="302.01" y="574.9" width="425.62" height="10"/><rect class="cls-1" x="302.01" y="607.2" width="425.62" height="10"/><circle class="cls-5" cx="269.48" cy="547.88" r="15.73"/><rect class="cls-7" x="262.39" y="815.1" width="490.23" height="26.51"/><rect class="cls-8" x="262.39" y="867.62" width="490.23" height="15"/><rect class="cls-8" x="262.39" y="900.37" width="490.23" height="15"/><rect class="cls-7" x="262.39" y="947.65" width="490.23" height="26.51"/><rect class="cls-8" x="262.39" y="1000.17" width="490.23" height="15"/><rect class="cls-8" x="262.39" y="1032.92" width="250.08" height="15"/><rect class="cls-8" x="309.95" y="1086.05" width="19.28" height="11.7"/><circle class="cls-2" cx="282.44" cy="1091.9" r="20.27"/><circle class="cls-5" cx="282.44" cy="1091.9" r="9.75"/><rect class="cls-8" x="409.75" y="1086.05" width="19.28" height="11.7"/><circle class="cls-2" cx="382.25" cy="1091.9" r="20.27"/><rect class="cls-7" x="262.39" y="1163.64" width="490.23" height="26.51"/><rect class="cls-8" x="262.39" y="1216.16" width="490.23" height="15"/><rect class="cls-8" x="262.39" y="1248.91" width="250.08" height="15"/><rect class="cls-8" x="309.95" y="1302.04" width="19.28" height="11.7"/><circle class="cls-2" cx="282.44" cy="1307.89" r="20.27"/><circle class="cls-5" cx="282.44" cy="1307.89" r="9.75"/><rect class="cls-8" x="409.75" y="1302.04" width="19.28" height="11.7"/><circle class="cls-2" cx="382.25" cy="1307.89" r="20.27"/><rect class="cls-4" x="262.17" y="1396" width="191.81" height="52.24"/></svg>