<svg xmlns="http://www.w3.org/2000/svg" id="Layer_1" viewBox="0 0 1580 930">
  <defs>
    <style>
      .cls-2{stroke-miterlimit:10}.cls-5{fill:#0065bd}.cls-6{fill:#ebebeb}.cls-2,.cls-7{fill:#fff}.cls-8{fill:#333}.cls-9{fill:#ccc}.cls-2{stroke:#333}
    </style>
  </defs>
  <path d="M-2-2h1582v932H-2z" class="cls-6"/>
  <path d="M136 72.5h497.2v55.7H136zm0 61.4h497.2v723.6H136z" class="cls-7"/>
  <path fill="none" stroke="#ccc" stroke-miterlimit="10" stroke-width="4" d="M136 72.5h497.2"/>
  <path d="M172.6 114.9h-18V86.8h18s10 2 10 14-10 14-10 14Z" class="cls-5"/>
  <path d="M192.7 91h65v7.2h-65zm0 12.6h84.8v7.2h-84.8zm-38.1 113.6h272.5v4.9H154.6zm0 13.8h272.5v4.9H154.6zm0-47.8h80.6v15.4h-80.6zm0 182.8h272.5v4.9H154.6zm0-21.8h80.6V355h-80.6zm0 480.3h272.5v7.2H154.6zm0-20.7h80.6v10.8h-80.6zm0-650.8h22.3v5.3h-22.3zm31.2 0h22.3v5.3h-22.3zm317.6-57.8h110.8v15.4H503.4z" class="cls-6"/>
  <path d="M598.8 95.2h15.4v15.4h-15.4z" class="cls-5"/>
  <path d="M176 270.1h222.1v4.9H176zM160 255v68.6h-5V255zm16 30.8h222.1v4.9H176zm0 15.7h99v4.9h-99zm-21.4 101.1h112.5v19.1H154.6zm.4 28.9h272v7.3H155zm0 16h272v7.3H155zm-1.2 163.3H311v12.9H153.8zm0 25.6H427v7.3H153.8zm0 16h139.3v7.3H153.8z" class="cls-6"/>
  <circle cx="163.7" cy="682.1" r="9.9" class="cls-6"/>
  <circle cx="163.7" cy="714.1" r="9.9" class="cls-6"/>
  <path d="M153.8 478.8H311v12.9H153.8zm0 25.6H427v7.3H153.8zm0 16h139.3v7.3H153.8z" class="cls-6"/>
  <circle cx="163.7" cy="550.1" r="9.9" class="cls-6"/>
  <circle cx="163.7" cy="582.1" r="9.9" class="cls-6"/>
  <path d="M154.2 745.1h93.5v25.5h-93.5z" class="cls-5"/>
  <path fill="none" stroke="#b3b3b3" stroke-miterlimit="10" stroke-width="1.5" d="M446 559.9h321.9"/>
  <path fill="#fff" stroke="#b3b3b3" stroke-miterlimit="10" stroke-width="1.5" d="M768.8 54.6h678.4v820.8H768.8z"/>
  <path d="M814.1 83h587.6v764H814.1z" class="cls-7"/>
  <path d="M814.6 109.1h339.2V137H814.6z" class="cls-8"/>
  <path d="M814.6 164.3h586.9v15.8H814.6zm0 34.4h247.8v15.8H814.6z" class="cls-9"/>
  <path d="M814.6 255h354.6v21H814.6z" class="cls-8"/>
  <path d="M814.6 295.3h586.9v15.8H814.6zm0 34.4h263v15.8h-263zm50.2 55.9h20.3v12.3h-20.3z" class="cls-9"/>
  <circle cx="835.9" cy="391.7" r="21.3" class="cls-2"/>
  <circle cx="835.9" cy="391.7" r="10.3" class="cls-8"/>
  <path d="M864.8 447.6h20.3v12.3h-20.3z" class="cls-9"/>
  <circle cx="835.9" cy="453.8" r="21.3" class="cls-2"/>
  <path d="M814.6 507.4h354.6v21H814.6z" class="cls-8"/>
  <path d="M814.6 547.7h586.9v15.8H814.6zm0 34.4h263v15.8h-263zm50.2 55.9h20.3v12.3h-20.3z" class="cls-9"/>
  <circle cx="835.9" cy="644.1" r="21.3" class="cls-2"/>
  <circle cx="835.9" cy="644.1" r="10.3" class="cls-8"/>
  <path d="M864.8 700h20.3v12.3h-20.3z" class="cls-9"/>
  <circle cx="835.9" cy="706.2" r="21.3" class="cls-2"/>
  <path d="M815.1 768.3h201.7v54.9H815.1z" class="cls-5"/>
  <path d="M838.8 791.6h154.3v8.3H838.8z" class="cls-7"/>
</svg>
