<svg xmlns="http://www.w3.org/2000/svg" xml:space="preserve" id="Layer_1" x="0" y="0" version="1.1" viewBox="0 0 592 296">
  <style>
    .st1{fill:#fff;stroke:#0065bd;stroke-width:2}.st2{fill:#0065bd}.st3{fill:#fff}
  </style>
  <path fill="#f8f8f8" d="M-.5.5h592v296H-.5z"/>
  <path d="M400.9 135.3v-118h58.6l19.4 19.4v98.6h-78z" class="st1"/>
  <path d="m479.9 36.3-20-20v20h20zm-16 8h-47.5c-2.6 0-5.3 2.7-5.3 5.3V87c0 2.9 2.4 5.3 5.3 5.3h47.5c2.6 0 5.3-2.7 5.3-5.3V49.6c-.1-2.6-2.7-5.3-5.3-5.3zm-42.2 37.3 9.2-12 6.6 8 9.2-12 11.9 16h-36.9z" class="st2"/>
  <circle cx="439.5" cy="59.9" r="3.3" class="st3"/>
  <path d="M496.9 135.3v-118h58.6l19.4 19.4v98.6h-78z" class="st1"/>
  <path d="m575.9 36.3-20-20v20h20zm-70 40h60v5h-60zm0 10h60v5h-60zm0 10h30v5h-30zm0-52h60v27h-60z" class="st2"/>
  <path d="M525.7 59.9h-3.2v-2h3.2c.5 0 .9-.1 1.2-.2.3-.2.5-.4.7-.7s.2-.6.2-1-.1-.7-.2-1-.4-.6-.7-.8-.7-.3-1.2-.3h-2.3v10.4h-2.6V51.9h4.8c1 0 1.8.2 2.5.5s1.2.8 1.6 1.4c.4.6.6 1.3.6 2.1s-.2 1.5-.6 2.1c-.4.6-.9 1-1.6 1.4-.6.3-1.4.5-2.4.5zm10.3 4.4h-2.7v-2h2.7c.7 0 1.2-.2 1.7-.5s.8-.8 1-1.3c.2-.6.4-1.3.4-2.1v-.6c0-.6-.1-1.2-.2-1.7s-.3-.9-.6-1.2c-.3-.3-.6-.6-1-.7-.4-.2-.8-.3-1.3-.3h-2.8v-2h2.8c.8 0 1.6.1 2.3.4.7.3 1.3.7 1.8 1.2s.9 1.2 1.2 1.9c.3.7.4 1.5.4 2.4v.6a6.05 6.05 0 0 1-1.6 4.3c-.5.5-1.1.9-1.8 1.2-.7.3-1.5.4-2.3.4zm-1.3-12.4v12.4h-2.6V51.9h2.6zm11.4 0v12.4h-2.6V51.9h2.6zm4.9 5.3v2h-5.7v-2h5.7zm.6-5.3v2h-6.3v-2h6.3z" class="st3"/>
  <path d="M304.9 135.3v-118h58.6l19.4 19.4v98.6h-78z" class="st1"/>
  <path d="m383.9 36.3-20-20v20h20zm-70 58h60v27h-60z" class="st2"/>
  <path d="M326.7 107.2v3.9c-.2.2-.4.4-.7.6-.3.2-.7.4-1.2.5-.5.2-1.1.2-1.8.2-.6 0-1.2-.1-1.7-.3-.5-.2-1-.5-1.3-.9-.4-.4-.7-.9-.9-1.5-.2-.6-.3-1.3-.3-2v-.6a5.3 5.3 0 0 1 1.1-3.5 3.8 3.8 0 0 1 3-1.2c.9 0 1.5.1 2.1.4.5.3 1 .7 1.2 1.1.3.5.5 1 .5 1.7h-2c0-.3-.1-.6-.3-.9s-.3-.4-.6-.6c-.3-.1-.6-.2-1-.2-.3 0-.6.1-.9.2-.3.1-.5.3-.7.6a3 3 0 0 0-.4 1c-.1.4-.1.8-.1 1.4v.6c0 .5 0 1 .1 1.4.1.4.2.7.4 1 .2.3.4.5.7.6.3.1.6.2 1 .2.3 0 .6 0 .8-.1.2-.1.4-.1.5-.2.1-.1.2-.2.3-.2v-1.7h-1.8v-1.4h4zm4.8 5.2c-.6 0-1.1-.1-1.5-.3-.4-.2-.8-.4-1.1-.8-.3-.3-.5-.7-.7-1.1-.2-.4-.2-.9-.2-1.4v-.3c0-.6.1-1.1.2-1.5.2-.5.4-.9.7-1.2.3-.3.7-.6 1.1-.8.4-.2.9-.3 1.4-.3.5 0 1 .1 1.4.3.4.2.7.4 1 .7.3.3.5.7.6 1.1.1.4.2.9.2 1.5v.8h-5.8V108h3.9v-.1c0-.3 0-.5-.1-.7-.1-.2-.2-.4-.4-.5-.2-.1-.4-.2-.7-.2-.3 0-.5.1-.7.2s-.3.3-.4.5c-.1.2-.2.4-.3.7-.1.3-.1.6-.1.9v.3c0 .3 0 .6.1.8.1.2.2.5.4.6.2.2.3.3.6.4.2.1.5.1.8.1.3 0 .7-.1 1-.2.3-.1.6-.3.8-.6l.9 1-.6.6c-.3.2-.6.4-.9.5-.7.1-1.1.1-1.6.1zm3.8-3.6v-.1c0-.5.1-1 .2-1.5.2-.5.4-.8.7-1.2a3.34 3.34 0 0 1 2.6-1.1c.6 0 1 .1 1.5.3.4.2.8.4 1.1.8.3.3.5.7.7 1.2.2.4.2.9.2 1.5v.1c0 .5-.1 1-.2 1.5-.2.4-.4.8-.7 1.2-.3.3-.6.6-1.1.8s-.9.3-1.5.3-1-.1-1.5-.3c-.4-.2-.8-.4-1.1-.8-.3-.3-.5-.7-.7-1.2-.1-.5-.2-1-.2-1.5zm1.9-.2v.1c0 .3 0 .6.1.9.1.3.1.5.3.7.1.2.3.4.5.5s.4.2.7.2c.3 0 .5-.1.7-.2.2-.1.3-.3.5-.5.1-.2.2-.4.3-.7.1-.3.1-.5.1-.9v-.1c0-.3 0-.6-.1-.8-.1-.3-.1-.5-.3-.7-.1-.2-.3-.4-.5-.5-.2-.1-.4-.2-.7-.2-.3 0-.5.1-.7.2-.2.1-.3.3-.5.5-.1.2-.2.4-.3.7-.1.2-.1.5-.1.8zm10.4 2.1V102h1.9v10.3h-1.8l-.1-1.6zm-4.6-1.9v-.1c0-.6.1-1.1.2-1.5.1-.5.3-.8.6-1.2.2-.3.5-.6.9-.8.4-.2.8-.3 1.2-.3.4 0 .8.1 1.1.3.3.2.6.4.8.8.2.3.4.7.6 1.2.1.4.2.9.3 1.5v.3c-.1.5-.2 1-.3 1.4-.1.4-.3.8-.6 1.1-.2.3-.5.6-.8.8-.3.2-.7.3-1.1.3-.5 0-.9-.1-1.2-.3-.3-.2-.6-.4-.9-.8-.2-.3-.4-.7-.5-1.2-.2-.5-.3-1-.3-1.5zm2-.2v.1c0 .3 0 .6.1.8 0 .3.1.5.2.7.1.2.3.4.4.5.2.1.4.2.7.2.3 0 .6-.1.8-.2.2-.2.4-.4.5-.6.1-.3.2-.6.2-.9v-.9c0-.3-.1-.5-.1-.8l-.3-.6c-.1-.2-.3-.3-.5-.4-.2-.1-.4-.1-.6-.1-.3 0-.5.1-.6.2-.2.1-.3.3-.4.5-.1.2-.2.4-.2.7-.2.2-.2.5-.2.8zm10 2.1v-3.2c0-.2 0-.4-.1-.6-.1-.2-.2-.3-.4-.4-.2-.1-.4-.1-.6-.1-.2 0-.4 0-.6.1-.2.1-.3.2-.4.3-.1.1-.1.3-.1.5H351c0-.3.1-.6.2-.9.1-.3.4-.5.6-.7.3-.2.6-.4 1-.5.4-.1.8-.2 1.3-.2.6 0 1.1.1 1.5.3.4.2.8.5 1 .8.3.4.4.8.4 1.4v3.1c0 .4 0 .7.1 1 0 .3.1.5.2.7v.1h-2c-.1-.2-.2-.4-.2-.7-.1-.4-.1-.7-.1-1zm.3-2.8v1.1h-1.1c-.3 0-.5 0-.7.1-.2.1-.3.1-.5.2-.1.1-.2.2-.3.4-.1.1-.1.3-.1.5s0 .3.1.4l.3.3c.1.1.3.1.5.1.3 0 .5-.1.8-.2.2-.1.4-.3.5-.4.1-.2.2-.3.2-.5l.5.8-.3.6c-.1.2-.3.4-.5.6-.2.2-.4.3-.7.4-.3.1-.6.2-.9.2-.5 0-.9-.1-1.3-.3-.4-.2-.7-.4-.9-.8-.2-.3-.3-.7-.3-1.1 0-.4.1-.7.2-1 .1-.3.4-.5.6-.7.3-.2.6-.4 1.1-.5.4-.1.9-.2 1.5-.2h1.3zm6.7-2.9v1.4h-4.2V105h4.2zm-3.2-1.7h1.9v6.9c0 .2 0 .4.1.5.1.1.1.2.3.2.1 0 .3.1.4.1h.5v1.4c-.2.1-.3.1-.5.1h-.6c-.4 0-.8-.1-1.1-.2-.3-.1-.6-.4-.7-.7-.2-.3-.3-.7-.3-1.2v-7.1zm8.2 7.4v-3.2c0-.2 0-.4-.1-.6-.1-.2-.2-.3-.4-.4-.2-.1-.4-.1-.6-.1-.2 0-.4 0-.6.1-.2.1-.3.2-.4.3-.1.1-.1.3-.1.5H363c0-.3.1-.6.2-.9.1-.3.4-.5.6-.7.3-.2.6-.4 1-.5.4-.1.8-.2 1.3-.2.6 0 1.1.1 1.5.3.4.2.8.5 1 .8.3.4.4.8.4 1.4v3.1c0 .4 0 .7.1 1 0 .3.1.5.2.7v.1h-2c-.1-.2-.2-.4-.2-.7 0-.4-.1-.7-.1-1zm.3-2.8v1.1h-1.1c-.3 0-.5 0-.7.1-.2.1-.3.1-.5.2-.1.1-.2.2-.3.4-.1.1-.1.3-.1.5s0 .3.1.4l.3.3c.1.1.3.1.5.1.3 0 .5-.1.8-.2.2-.1.4-.3.5-.4.1-.2.2-.3.2-.5l.5.8-.3.6c-.1.2-.3.4-.5.6-.2.2-.4.3-.7.4-.3.1-.6.2-.9.2-.5 0-.9-.1-1.3-.3-.4-.2-.7-.4-.9-.8-.2-.3-.3-.7-.3-1.1 0-.4.1-.7.2-1 .1-.3.4-.5.6-.7.3-.2.6-.4 1.1-.5.4-.1.9-.2 1.5-.2h1.3z" class="st3"/>
  <path d="M343.9 37.1c-9.2 0-16.7 7.4-16.7 16.6 0 12.4 16.7 30.7 16.7 30.7s16.7-18.3 16.7-30.7a16.7 16.7 0 0 0-16.7-16.6zm0 22.5c-3.3 0-6-2.6-6-5.9 0-3.3 2.7-5.9 6-5.9s6 2.6 6 5.9a6 6 0 0 1-6 5.9z" class="st2"/>
  <path d="M208.9 135.3v-118h58.6l19.4 19.4v98.6h-78z" class="st1"/>
  <path d="m287.9 36.3-20-20v20h20zm-70 40h60v5h-60zm0 10h60v5h-60zm0 10h30v5h-30zm0-52h60v27h-60z" class="st2"/>
  <path d="M237.4 51.9v12.4h-2.6V51.9h2.6zm5 5.3v2h-5.7v-2h5.7zm.5-5.3v2h-6.3v-2h6.3zm4 3.2v9.2h-2.5v-9.2h2.5zm-2.6-2.4c0-.4.1-.7.4-.9.3-.2.6-.4 1-.4s.7.1 1 .4c.3.2.4.5.4.9s-.1.7-.4.9c-.3.2-.6.4-1 .4s-.8-.1-1-.4c-.3-.3-.4-.6-.4-.9zm7.2-1.5v13.1H249V51.2h2.5zm6.3 13.3c-.7 0-1.4-.1-1.9-.3a4.2 4.2 0 0 1-2.7-4.1v-.3c0-.7.1-1.3.3-1.9.2-.6.5-1.1.9-1.5.4-.4.8-.8 1.4-1 .5-.2 1.1-.4 1.8-.4s1.2.1 1.7.3c.5.2.9.5 1.3.9.3.4.6.9.8 1.4.2.6.3 1.2.3 1.8v1h-7.3v-1.6h4.9v-.2c0-.3-.1-.6-.2-.9-.1-.3-.3-.5-.5-.6-.2-.2-.6-.2-.9-.2-.3 0-.6.1-.8.2-.2.1-.4.3-.6.6-.1.3-.3.6-.3.9-.1.3-.1.7-.1 1.1v.3c0 .4.1.7.2 1 .1.3.3.6.5.8.2.2.4.4.7.5.3.1.6.2 1 .2s.9-.1 1.2-.3c.4-.2.7-.4 1-.8l1.2 1.3c-.2.3-.5.5-.8.8-.3.3-.7.5-1.2.6-.8.3-1.3.4-1.9.4z" class="st3"/>
  <path d="M112.9 135.3v-118h58.6l19.4 19.4v98.6h-78z" class="st1"/>
  <path d="m191.9 36.3-20-20v20h20zm-70 45h12.5v5h-12.5zm15.8 0h12.5v5h-12.5zm15.8 0H166v5h-12.5zm15.9 0h12.5v5h-12.5zm-47.5 10h12.5v5h-12.5zm15.8 0h12.5v5h-12.5zm15.8 0H166v5h-12.5zm15.9 0h12.5v5h-12.5zm-47.5 10h12.5v5h-12.5zm15.8 0h12.5v5h-12.5zm15.8 0H166v5h-12.5zm15.9 0h12.5v5h-12.5zm-47.5-57h60v27h-60z" class="st2"/>
  <path d="M140.4 62.3v2h-6.6v-2h6.6zm-5.7-10.4v12.4h-2.6V51.9h2.6zm4.9 5v1.9h-5.8v-1.9h5.8zm.8-5v2h-6.6v-2h6.6zm3.4 3.2 1.5 2.8 1.6-2.8h2.6l-2.6 4.5 2.7 4.7H147l-1.7-3-1.7 3H141l2.7-4.7-2.6-4.5h2.7zm10.5 7.5c.3 0 .6-.1.8-.2.2-.1.4-.3.5-.5.1-.2.2-.5.2-.8h2.3c0 .6-.2 1.2-.5 1.7s-.8.9-1.4 1.2c-.6.3-1.2.4-1.9.4a4.06 4.06 0 0 1-3.2-1.4c-.4-.4-.6-.9-.8-1.5-.2-.6-.3-1.2-.3-1.8v-.2c0-.7.1-1.3.3-1.8.2-.6.4-1.1.8-1.5.4-.4.8-.8 1.3-1 .5-.2 1.2-.4 1.9-.4.8 0 1.4.1 2 .4.6.3 1 .7 1.4 1.2.3.5.5 1.2.5 1.9h-2.3c0-.3-.1-.6-.2-.8-.1-.3-.3-.5-.5-.6-.2-.2-.5-.2-.8-.2a2 2 0 0 0-.9.2c-.2.1-.4.4-.5.6-.1.3-.2.5-.3.9 0 .3-.1.7-.1 1v.2c0 .4 0 .7.1 1 0 .3.1.6.3.9.1.3.3.5.5.6.2.4.5.5.8.5zm9.6 1.9c-.7 0-1.4-.1-1.9-.3a4.2 4.2 0 0 1-2.7-4.1v-.3c0-.7.1-1.3.3-1.9.2-.6.5-1.1.9-1.5.4-.4.8-.8 1.4-1 .5-.2 1.1-.4 1.8-.4s1.2.1 1.7.3.9.5 1.3.9c.3.4.6.9.8 1.4.2.6.3 1.2.3 1.8v1h-7.3v-1.6h4.9v-.2c0-.3-.1-.6-.2-.9-.1-.3-.3-.5-.5-.6-.2-.2-.6-.2-.9-.2-.3 0-.6.1-.8.2-.2.1-.4.3-.6.6-.1.3-.3.6-.3.9-.1.3-.1.7-.1 1.1v.3c0 .4.1.7.2 1 .1.3.3.6.5.8.2.2.4.4.7.5.3.1.6.2 1 .2s.9-.1 1.2-.3c.4-.2.7-.4 1-.8l1.2 1.3c-.2.3-.5.5-.8.8-.3.3-.7.5-1.2.6-.8.3-1.3.4-1.9.4zm7.8-13.3v13.1h-2.5V51.2h2.5z" class="st3"/>
  <path d="M16.9 135.3v-118h58.6l19.4 19.4v98.6h-78z" class="st1"/>
  <path d="m95.9 36.3-20-20v20h20zm-70 45h12.5v5H25.9zm15.8 0h12.5v5H41.7zm15.8 0H70v5H57.5zm15.9 0h12.5v5H73.4zm-47.5 10h12.5v5H25.9zm15.8 0h12.5v5H41.7zm15.8 0H70v5H57.5zm15.9 0h12.5v5H73.4zm-47.5 10h12.5v5H25.9zm15.8 0h12.5v5H41.7zm15.8 0H70v5H57.5zm15.9 0h12.5v5H73.4zm-47.5-57h60v27h-60z" class="st2"/>
  <path d="M47.4 60.2H50c-.1.8-.3 1.6-.7 2.2-.4.6-1 1.2-1.7 1.5-.7.4-1.6.5-2.6.5a4.64 4.64 0 0 1-4.7-3.5c-.2-.7-.4-1.6-.4-2.5v-.9c0-.9.1-1.7.4-2.5.2-.7.6-1.4 1-1.9.5-.5 1-.9 1.6-1.2.6-.3 1.3-.4 2.1-.4 1 0 1.9.2 2.6.6.7.4 1.3.9 1.7 1.6.4.7.6 1.4.7 2.3h-2.6c0-.5-.1-.9-.3-1.3-.2-.4-.4-.6-.8-.8-.3-.2-.8-.3-1.4-.3-.4 0-.8.1-1.1.2-.3.2-.6.4-.8.7-.2.3-.4.7-.5 1.2-.1.5-.2 1.1-.2 1.7v.9c0 .6 0 1.2.1 1.7s.2.9.4 1.2c.2.3.5.6.8.8.3.2.7.2 1.2.2s1-.1 1.3-.3c.3-.2.6-.4.8-.8.3 0 .4-.4.5-.9zm10.7.9c0-.2 0-.4-.1-.6-.1-.2-.2-.3-.4-.5s-.4-.3-.7-.5c-.3-.1-.7-.3-1.2-.5-.6-.2-1.1-.4-1.6-.6-.5-.2-.9-.5-1.3-.8-.4-.3-.7-.7-.9-1.1-.2-.4-.3-.9-.3-1.4 0-.5.1-1 .3-1.4.2-.4.5-.8 1-1.1.4-.3.9-.5 1.5-.7.6-.2 1.2-.2 1.9-.2.9 0 1.7.2 2.4.5s1.2.8 1.6 1.4c.4.6.6 1.2.6 2h-2.5c0-.4-.1-.7-.2-1-.1-.3-.4-.5-.7-.7-.3-.2-.7-.2-1.1-.2-.4 0-.8.1-1.1.2-.3.1-.5.3-.7.5-.1.2-.2.5-.2.8 0 .2.1.4.2.6.1.2.3.3.5.5.2.1.5.3.8.4.3.1.7.3 1.1.4.7.2 1.3.4 1.8.7.5.3 1 .5 1.3.9.3.3.6.7.8 1.1.2.4.3.9.3 1.4 0 .5-.1 1-.3 1.5-.2.4-.5.8-.9 1.1-.4.3-.9.5-1.4.7s-1.2.2-1.9.2c-.6 0-1.2-.1-1.8-.2-.6-.2-1.1-.4-1.6-.7a3.42 3.42 0 0 1-1.6-3.1h2.6c0 .4.1.7.2 1 .1.3.3.5.5.6.2.2.5.3.8.4.3.1.6.1 1 .1s.8-.1 1.1-.2c.3-.1.5-.3.6-.5-.5-.5-.4-.8-.4-1zm8.8.6 2.9-9.8h2.9l-4.3 12.4h-1.9l.4-2.6zm-2.7-9.8 2.9 9.8.4 2.6h-1.9l-4.3-12.4h2.9z" class="st3"/>
  <path d="M400.9 279.3v-118h58.6l19.4 19.4v98.6h-78z" class="st1"/>
  <path d="m479.9 180.3-20-20v20h20zm-70 40h60v5h-60zm0 10h60v5h-60zm0 10h30v5h-30zm0-52h60v27h-60z" class="st2"/>
  <path d="m425.2 195.9 2.3 4.3 2.3-4.3h2.9l-3.6 6.2 3.8 6.2h-3l-2.4-4.4-2.4 4.4h-3l3.7-6.3-3.6-6.2h3v.1zm10.1 0h2.2l3.2 9.1 3.2-9.1h2.2l-4.5 12.4h-1.7l-4.6-12.4zm-1.1 0h2.2l.4 8.9v3.5h-2.6v-12.4zm10.9 0h2.2v12.4h-2.6v-3.5l.4-8.9zm12.4 10.4v2h-6.3v-2h6.3zm-5.4-10.4v12.4h-2.6v-12.4h2.6z" class="st3"/>
  <path d="M304.9 279.3v-118h58.6l19.4 19.4v98.6h-78z" class="st1"/>
  <path d="m383.9 180.3-20-20v20h20zm-70 40h60v5h-60zm0 10h60v5h-60zm0 10h30v5h-30zm0-52h60v27h-60z" class="st2"/>
  <path d="m327.5 206.3 2.5-10.5h1.4l.3 1.7-2.7 10.8h-1.5v-2zm-1.3-10.4 2.1 10.4-.2 2h-1.7l-2.8-12.4h2.6zm7.7 10.4 2-10.4h2.5l-2.7 12.4H334l-.1-2zm-1.8-10.4 2.5 10.5v1.9h-1.5l-2.7-10.7.3-1.7h1.4zm6.9 7.9v-.2a5.3 5.3 0 0 1 1.1-3.4c.4-.4.8-.7 1.4-1 .5-.2 1.2-.4 1.9-.4s1.3.1 1.9.4c.5.2 1 .6 1.4 1 .4.4.7.9.9 1.5.2.6.3 1.2.3 1.9v.2c0 .7-.1 1.3-.3 1.9-.2.6-.5 1.1-.9 1.5-.4.4-.8.7-1.4 1-.5.2-1.2.4-1.9.4s-1.3-.1-1.9-.4c-.5-.2-1-.6-1.4-1-.4-.4-.7-.9-.8-1.5-.2-.6-.3-1.3-.3-1.9zm2.5-.2v.2c0 .4 0 .7.1 1.1l.3.9c.2.3.4.4.6.6.2.1.5.2.9.2.3 0 .6-.1.9-.2.2-.1.4-.3.6-.6.1-.3.3-.6.3-.9.1-.3.1-.7.1-1.1v-.2c0-.4 0-.7-.1-1.1l-.3-.9a.9.9 0 0 0-.6-.6c-.2-.1-.5-.2-.9-.2s-.6.1-.9.2c-.2.1-.4.4-.6.6-.1.3-.3.6-.3.9-.1.4-.1.7-.1 1.1zm10.2-2.5v7.2h-2.5v-9.2h2.3l.2 2zm2.8-2.1v2.3h-.9c-.3 0-.6 0-.9.1-.3.1-.5.2-.6.4-.2.2-.3.4-.4.6s-.1.5-.1.8l-.5-.2c0-.6.1-1.1.2-1.6s.3-.9.5-1.3.5-.7.9-.9c.3-.2.7-.3 1.2-.3h.4s.1.1.2.1zm6.5 7.3v-11.1h2.5v13.1h-2.2l-.3-2zm-5.9-2.5v-.2c0-.7.1-1.3.2-1.9.2-.6.4-1.1.7-1.5.3-.4.7-.7 1.1-1 .5-.2 1-.3 1.5-.3s1 .1 1.4.3c.4.2.8.6 1 1 .3.4.5.9.7 1.5.2.6.3 1.2.4 1.9v.4c-.1.6-.2 1.2-.4 1.8-.2.6-.4 1-.7 1.5-.3.4-.6.7-1 1-.4.2-.9.3-1.4.3-.6 0-1.1-.1-1.5-.4-.4-.2-.8-.6-1.1-1-.3-.4-.5-.9-.7-1.5-.1-.6-.2-1.2-.2-1.9zm2.5-.2v.2c0 .4 0 .7.1 1.1l.3.9c.1.3.3.4.5.6.2.1.5.2.8.2.4 0 .8-.1 1-.3.3-.2.5-.5.6-.8.1-.3.2-.7.3-1.2v-1.1c0-.4-.1-.7-.2-1-.1-.3-.2-.5-.4-.7-.2-.2-.3-.4-.6-.5-.2-.1-.5-.2-.8-.2-.3 0-.6.1-.8.2-.2.1-.4.3-.6.6-.1.3-.2.5-.3.9.1.4.1.7.1 1.1z" class="st3"/>
  <path d="M208.9 279.3v-118h58.6l19.4 19.4v98.6h-78z" class="st1"/>
  <path d="m287.9 180.3-20-20v20h20zm-70 40h60v5h-60zm0 10h60v5h-60zm0 10h30v5h-30zm0-52h60v27h-60z" class="st2"/>
  <path d="M237.4 195.9v12.4h-2.6v-12.4h2.6zm3.8 0v2H231v-2h10.2zm4.8 12.6c-.7 0-1.4-.1-1.9-.3a4.2 4.2 0 0 1-2.7-4.1v-.3c0-.7.1-1.3.3-1.9.2-.6.5-1.1.9-1.5.4-.4.8-.8 1.4-1 .5-.2 1.1-.4 1.8-.4s1.2.1 1.7.3c.5.2.9.5 1.3.9.3.4.6.9.8 1.4.2.6.3 1.2.3 1.8v1h-7.3v-1.6h4.9v-.2c0-.3-.1-.6-.2-.9-.1-.3-.3-.5-.5-.6-.2-.2-.6-.2-.9-.2-.3 0-.6.1-.8.2-.2.1-.4.3-.6.6-.1.3-.3.6-.3.9-.1.3-.1.7-.1 1.1v.3c0 .4.1.7.2 1 .1.3.3.6.5.8.2.2.4.4.7.5.3.1.6.2 1 .2s.9-.1 1.2-.3c.4-.2.7-.4 1-.8l1.2 1.3c-.2.3-.5.5-.8.8-.3.3-.7.5-1.2.6-.8.3-1.3.4-1.9.4zm7.2-9.4 1.5 2.8 1.6-2.8h2.6l-2.6 4.5 2.7 4.7h-2.6l-1.7-3-1.7 3h-2.6l2.7-4.7-2.6-4.5h2.7zm11.4 0v1.7h-5.4v-1.7h5.4zm-4-2.3h2.5v8.7c0 .3 0 .5.1.6l.3.3c.1.1.3.1.5.1h.4c.1 0 .2 0 .3-.1v1.8c-.2.1-.4.1-.7.2-.2 0-.5.1-.8.1-.5 0-1-.1-1.4-.3-.4-.2-.7-.5-.9-.9-.2-.4-.3-.9-.3-1.6v-8.9z" class="st3"/>
  <path d="M16.9 279.3v-118h58.6l19.4 19.4v98.6h-78z" class="st1"/>
  <path d="m95.9 180.3-20-20v20h20zm-70 8h60v27h-60z" class="st2"/>
  <path d="M45.1 203.9H42v-2h3.2c.5 0 .9-.1 1.2-.2.3-.2.5-.4.7-.7.1-.3.2-.6.2-1s-.1-.7-.2-1c-.1-.3-.4-.6-.7-.8-.3-.2-.7-.3-1.2-.3h-2.3v10.4h-2.6v-12.4h4.8c1 0 1.8.2 2.5.5s1.2.8 1.6 1.4c.4.6.6 1.3.6 2.1s-.2 1.5-.6 2.1c-.4.6-.9 1-1.6 1.4-.7.3-1.5.5-2.5.5zm11.3 0h-3.2v-2h3.2c.5 0 .9-.1 1.2-.2.3-.2.5-.4.7-.7.1-.3.2-.6.2-1s-.1-.7-.2-1c-.1-.3-.4-.6-.7-.8-.3-.2-.7-.3-1.2-.3h-2.3v10.4h-2.6v-12.4h4.8c1 0 1.8.2 2.5.5s1.2.8 1.6 1.4c.4.6.6 1.3.6 2.1s-.2 1.5-.6 2.1c-.4.6-.9 1-1.6 1.4-.6.3-1.4.5-2.4.5zm12-8v12.4h-2.6v-12.4h2.6zm3.8 0v2H62.1v-2h10.1z" class="st3"/>
  <path d="M73.9 243.8c0 3.8-1.1 7.4-3.2 10.6a19.3 19.3 0 0 1-8.5 7 19.7 19.7 0 0 1-11 1.1c-3.7-.7-7.1-2.5-9.7-5.2-2.7-2.7-4.5-6-5.2-9.7-.7-3.7-.4-7.5 1.1-11 1.4-3.5 3.9-6.4 7-8.5 3.1-2.1 6.8-3.2 10.6-3.2v19h18.9z" class="st2"/>
  <path d="M56.9 222.8c2.5 0 5 .5 7.3 1.4 2.3 1 4.4 2.4 6.2 4.1 1.8 1.8 3.2 3.9 4.1 6.2 1 2.3 1.4 4.8 1.4 7.3h-19v-19z" class="st2"/>
  <path d="M497 280V162h58.6l19.4 19.4V280h-78z" class="st1"/>
  <path d="m576 181-20-20v20h20zm-70 8h60v5h-60zm0 10h60v5h-60zm0 10h60v5h-60zm0 10h30v5h-30z" class="st2"/>
  <path d="M112.9 279.3v-118h58.6l19.4 19.4v98.6h-78z" class="st1"/>
  <path d="m191.9 180.3-20-20v20h20zm-70 40h60v5h-60zm0 10h60v5h-60zm0 10h30v5h-30zm0-52h60v27h-60z" class="st2"/>
  <path d="M137.4 195.9h4.6c1 0 1.8.1 2.5.4.7.3 1.2.7 1.6 1.3s.6 1.2.6 2.1c0 .7-.1 1.2-.3 1.7-.2.5-.5.9-.9 1.2-.4.3-.9.6-1.4.8l-.8.4h-4v-2h3c.5 0 .8-.1 1.1-.2.3-.2.5-.4.7-.7.2-.3.2-.6.2-1s-.1-.7-.2-1c-.1-.3-.4-.5-.7-.7-.3-.2-.7-.2-1.1-.2H140v10.4h-2.6v-12.5zm7 12.4-2.8-5.5h2.7l2.9 5.4v.1h-2.8zm9.3-12.4v12.4h-2.6v-12.4h2.6zm3.8 0v2h-10.2v-2h10.2zm4 0v12.4H159v-12.4h2.5zm5 5.3v2h-5.7v-2h5.7zm.6-5.3v2h-6.3v-2h6.3z" class="st3"/>
</svg>
