<svg xmlns="http://www.w3.org/2000/svg" viewBox="0 0 1696 776"><defs><style>.cls-1,.cls-3{fill:#ebebeb;}.cls-1{stroke:#fff;}.cls-1,.cls-5{stroke-miterlimit:10;}.cls-2{fill:#0065bd;}.cls-4,.cls-5{fill:#fff;}.cls-5{stroke:#ebebeb;}.cls-6{fill:#d32205;}.cls-7{fill:#333;}</style></defs><g id="Layer_1" data-name="Layer 1"><rect class="cls-1" x="528.5" y="128.5" width="40" height="24"/><rect class="cls-1" x="525" y="200" width="624" height="56"/><rect class="cls-1" x="525" y="256" width="192" height="56"/><rect class="cls-1" x="525" y="320" width="176" height="24"/><rect class="cls-1" x="525" y="376" width="736" height="32"/><rect class="cls-1" x="525" y="408" width="168" height="32"/><rect class="cls-1" x="525" y="456" width="672" height="32"/><rect class="cls-1" x="525" y="488" width="192" height="32"/><rect class="cls-1" x="525" y="616" width="728" height="32"/><rect class="cls-1" x="525" y="680" width="736" height="32"/><rect class="cls-1" x="525" y="712" width="432" height="32"/><rect class="cls-1" x="525" y="648" width="704" height="32"/><rect class="cls-1" x="525" y="560" width="288" height="40"/><rect class="cls-1" x="580.5" y="127.5" width="120" height="24"/><rect class="cls-1" x="716.5" y="127.5" width="168" height="24"/><rect class="cls-1" x="900.5" y="128.5" width="120" height="23"/><rect class="cls-2" x="524.5" y="39.5" width="216" height="48"/><rect class="cls-3" x="1380.5" y="39.5" width="216" height="48"/><rect class="cls-2" x="1596.5" y="39.5" width="48" height="48"/><rect class="cls-4" x="1389.89" y="192.45" width="258" height="127"/><path class="cls-5" d="M1648.39,320h-259V192h259Zm-258-1h257V193h-257Z"/><rect class="cls-6" x="1413.39" y="215.95" width="211" height="48"/><path class="cls-4" d="M1478,246.45h-2.34v-4.88h-4.57v4.88h-2.35V235.07h2.35v4.61h4.57v-4.61H1478Z"/><path class="cls-4" d="M1479.84,235.81a1.15,1.15,0,0,1,.34-.84,1.46,1.46,0,0,1,1.85,0,1.21,1.21,0,0,1,0,1.68,1.45,1.45,0,0,1-1.84,0A1.12,1.12,0,0,1,1479.84,235.81Zm2.4,10.64H1480V238h2.26Z"/><path class="cls-4" d="M1483.75,242.16a5.1,5.1,0,0,1,.89-3.15,2.87,2.87,0,0,1,2.42-1.17,2.61,2.61,0,0,1,2,.92v-4.31h2.27v12h-2l-.11-.9a2.66,2.66,0,0,1-2.17,1,2.88,2.88,0,0,1-2.4-1.17A5.29,5.29,0,0,1,1483.75,242.16Zm2.26.17a3.29,3.29,0,0,0,.41,1.82,1.36,1.36,0,0,0,1.2.63,1.51,1.51,0,0,0,1.48-.88v-3.34a1.49,1.49,0,0,0-1.46-.89C1486.55,239.67,1486,240.56,1486,242.33Z"/><path class="cls-4" d="M1497,246.6a4.16,4.16,0,0,1-3-1.14,4,4,0,0,1-1.17-3v-.21a5.23,5.23,0,0,1,.49-2.28,3.64,3.64,0,0,1,1.4-1.55,3.93,3.93,0,0,1,2.06-.54,3.52,3.52,0,0,1,2.73,1.09,4.46,4.46,0,0,1,1,3.1V243h-5.38a2,2,0,0,0,.66,1.32,2,2,0,0,0,1.4.5,2.4,2.4,0,0,0,2-.94l1.11,1.24a3.31,3.31,0,0,1-1.37,1.12A4.49,4.49,0,0,1,1497,246.6Zm-.26-6.94a1.42,1.42,0,0,0-1.09.45,2.39,2.39,0,0,0-.54,1.31h3.14v-.18a1.67,1.67,0,0,0-.4-1.17A1.47,1.47,0,0,0,1496.75,239.66Z"/><path class="cls-4" d="M1508.45,235.92V238h1.45v1.66h-1.45v4.22a1,1,0,0,0,.18.67.89.89,0,0,0,.69.2,3.28,3.28,0,0,0,.66-.05v1.71a4.44,4.44,0,0,1-1.36.2,2.16,2.16,0,0,1-2.43-2.39v-4.56H1505V238h1.23v-2.07Z"/><path class="cls-4" d="M1513.36,238.92a2.82,2.82,0,0,1,2.26-1.08c1.83,0,2.76,1.06,2.79,3.19v5.42h-2.26V241.1a1.62,1.62,0,0,0-.31-1.08,1.36,1.36,0,0,0-1-.35,1.54,1.54,0,0,0-1.44.77v6h-2.26v-12h2.26Z"/><path class="cls-4" d="M1520.09,235.81a1.15,1.15,0,0,1,.34-.84,1.46,1.46,0,0,1,1.85,0,1.21,1.21,0,0,1,0,1.68,1.45,1.45,0,0,1-1.84,0A1.12,1.12,0,0,1,1520.09,235.81Zm2.4,10.64h-2.26V238h2.26Z"/><path class="cls-4" d="M1528.93,244.11a.74.74,0,0,0-.41-.65,4.69,4.69,0,0,0-1.32-.43c-2-.42-3-1.27-3-2.56a2.32,2.32,0,0,1,.93-1.88,3.78,3.78,0,0,1,2.44-.75,4.06,4.06,0,0,1,2.58.76,2.38,2.38,0,0,1,1,2h-2.26a1.09,1.09,0,0,0-.31-.8,1.33,1.33,0,0,0-1-.31,1.3,1.3,0,0,0-.88.26.8.8,0,0,0-.31.65.72.72,0,0,0,.35.61,4,4,0,0,0,1.2.4,9.75,9.75,0,0,1,1.43.37,2.34,2.34,0,0,1,1.78,2.28,2.21,2.21,0,0,1-1,1.87,4.24,4.24,0,0,1-2.56.71,4.37,4.37,0,0,1-1.89-.38,3.1,3.1,0,0,1-1.29-1,2.45,2.45,0,0,1-.47-1.43h2.14a1.16,1.16,0,0,0,.45.92,1.71,1.71,0,0,0,1.11.32,1.67,1.67,0,0,0,1-.24A.78.78,0,0,0,1528.93,244.11Z"/><path class="cls-4" d="M1544.17,242.3a5,5,0,0,1-.89,3.13,2.84,2.84,0,0,1-2.39,1.17,2.62,2.62,0,0,1-2.07-.89v4h-2.26V238h2.1l.07.83a2.67,2.67,0,0,1,2.14-1,2.84,2.84,0,0,1,2.43,1.15,5.21,5.21,0,0,1,.87,3.19Zm-2.26-.17a3.43,3.43,0,0,0-.41-1.82,1.39,1.39,0,0,0-1.22-.64,1.47,1.47,0,0,0-1.46.82V244a1.52,1.52,0,0,0,1.48.83C1541.37,244.78,1541.91,243.9,1541.91,242.13Z"/><path class="cls-4" d="M1550.47,246.45a2.52,2.52,0,0,1-.23-.76,2.73,2.73,0,0,1-2.13.91,3,3,0,0,1-2.06-.72,2.31,2.31,0,0,1-.82-1.81,2.41,2.41,0,0,1,1-2.06,4.93,4.93,0,0,1,2.88-.73h1v-.48a1.41,1.41,0,0,0-.3-.94,1.2,1.2,0,0,0-.95-.35,1.38,1.38,0,0,0-.9.27,1,1,0,0,0-.32.75h-2.26a2.29,2.29,0,0,1,.45-1.36,3.1,3.1,0,0,1,1.29-1,4.77,4.77,0,0,1,1.85-.35,3.73,3.73,0,0,1,2.49.78,2.76,2.76,0,0,1,.91,2.21v3.66a4.05,4.05,0,0,0,.34,1.82v.14Zm-1.87-1.57a1.93,1.93,0,0,0,.92-.23,1.44,1.44,0,0,0,.63-.59V242.6h-.85c-1.13,0-1.73.39-1.8,1.18v.13a.89.89,0,0,0,.3.69A1.13,1.13,0,0,0,1548.6,244.88Z"/><path class="cls-4" d="M1553.82,242.16a4.92,4.92,0,0,1,.93-3.13,3,3,0,0,1,2.49-1.19,2.66,2.66,0,0,1,2.17.95l.09-.8h2v8.18a3.59,3.59,0,0,1-.51,1.93,3.27,3.27,0,0,1-1.42,1.25,5.07,5.07,0,0,1-2.14.43,4.59,4.59,0,0,1-1.81-.38,3.1,3.1,0,0,1-1.33-1l1-1.38a2.64,2.64,0,0,0,2,1,1.93,1.93,0,0,0,1.4-.48,1.83,1.83,0,0,0,.5-1.37v-.45a2.61,2.61,0,0,1-2,.88,3,3,0,0,1-2.47-1.19,4.93,4.93,0,0,1-.94-3.16Zm2.26.17a3.08,3.08,0,0,0,.46,1.8,1.45,1.45,0,0,0,1.26.65,1.56,1.56,0,0,0,1.48-.77v-3.56a1.56,1.56,0,0,0-1.46-.78,1.49,1.49,0,0,0-1.28.67A3.48,3.48,0,0,0,1556.08,242.33Z"/><path class="cls-4" d="M1567.17,246.6a4.16,4.16,0,0,1-3-1.14,4.08,4.08,0,0,1-1.16-3v-.21a5.09,5.09,0,0,1,.49-2.28,3.62,3.62,0,0,1,1.39-1.55,3.93,3.93,0,0,1,2.06-.54,3.49,3.49,0,0,1,2.73,1.09,4.41,4.41,0,0,1,1,3.1V243h-5.39a2.1,2.1,0,0,0,.67,1.32,2,2,0,0,0,1.39.5,2.44,2.44,0,0,0,2-.94l1.11,1.24a3.41,3.41,0,0,1-1.38,1.12A4.49,4.49,0,0,1,1567.17,246.6Zm-.26-6.94a1.43,1.43,0,0,0-1.09.45,2.46,2.46,0,0,0-.53,1.31h3.14v-.18a1.67,1.67,0,0,0-.41-1.17A1.47,1.47,0,0,0,1566.91,239.66Z"/><path class="cls-7" d="M1452.7,292.33a11.87,11.87,0,0,1,.48-3.39,9.57,9.57,0,0,1,1.41-2.95,6,6,0,0,1,1.94-1.88l.3.95a6.22,6.22,0,0,0-1.87,2.68,11.33,11.33,0,0,0-.8,4v.66a11.73,11.73,0,0,0,1.1,5.24,6.28,6.28,0,0,0,1.58,2.08l-.3.88a6.23,6.23,0,0,1-2-1.94A10.86,10.86,0,0,1,1452.7,292.33Z"/><path class="cls-7" d="M1467.2,291.63a7,7,0,0,1-.56,2.92,4.28,4.28,0,0,1-1.59,1.9,4.46,4.46,0,0,1-2.41.65,4.26,4.26,0,0,1-4-2.54,6.77,6.77,0,0,1-.59-2.83v-.82a6.79,6.79,0,0,1,.58-2.9,4.18,4.18,0,0,1,4-2.59,4.42,4.42,0,0,1,2.41.66,4.21,4.21,0,0,1,1.6,1.91,7,7,0,0,1,.56,2.92Zm-1.49-.74a5.09,5.09,0,0,0-.81-3.1,2.68,2.68,0,0,0-2.27-1.08,2.65,2.65,0,0,0-2.24,1.08,4.91,4.91,0,0,0-.84,3v.84a5.12,5.12,0,0,0,.82,3.08,2.89,2.89,0,0,0,4.52.06,5,5,0,0,0,.82-3Z"/><path class="cls-7" d="M1473.31,289.79a4,4,0,0,0-.71-.05,1.9,1.9,0,0,0-1.93,1.21v6h-1.44v-8.46h1.4l0,1a2.24,2.24,0,0,1,2-1.13,1.36,1.36,0,0,1,.64.11Z"/><path class="cls-7" d="M1485.74,292.81a5,5,0,0,1-.88,3.11,2.83,2.83,0,0,1-2.39,1.18,3.08,3.08,0,0,1-2.42-1v4.07h-1.45V288.49h1.32l.07.94a3,3,0,0,1,2.46-1.09,2.89,2.89,0,0,1,2.41,1.15,5.11,5.11,0,0,1,.88,3.19Zm-1.44-.16a3.79,3.79,0,0,0-.61-2.26,2,2,0,0,0-1.67-.83,2.11,2.11,0,0,0-2,1.17v4a2.12,2.12,0,0,0,2,1.15,2,2,0,0,0,1.65-.82A4.08,4.08,0,0,0,1484.3,292.65Z"/><path class="cls-7" d="M1491.66,289.79a3.89,3.89,0,0,0-.71-.05A1.91,1.91,0,0,0,1489,291v6h-1.44v-8.46h1.4l0,1a2.24,2.24,0,0,1,2-1.13,1.36,1.36,0,0,1,.64.11Z"/><path class="cls-7" d="M1496.5,297.1a3.67,3.67,0,0,1-2.8-1.13,4.15,4.15,0,0,1-1.07-3v-.27a5.09,5.09,0,0,1,.48-2.25,3.67,3.67,0,0,1,1.34-1.54,3.31,3.31,0,0,1,1.87-.56,3.17,3.17,0,0,1,2.56,1.08,4.71,4.71,0,0,1,.92,3.11v.6h-5.73a3,3,0,0,0,.73,2,2.28,2.28,0,0,0,1.78.77,2.53,2.53,0,0,0,1.3-.31,3.15,3.15,0,0,0,.92-.83l.89.69A3.55,3.55,0,0,1,1496.5,297.1Zm-.18-7.57a2,2,0,0,0-1.47.63,3.13,3.13,0,0,0-.73,1.79h4.23v-.11a2.75,2.75,0,0,0-.59-1.71A1.84,1.84,0,0,0,1496.32,289.53Z"/><path class="cls-7" d="M1506.39,294.71a1.05,1.05,0,0,0-.44-.91,4.12,4.12,0,0,0-1.54-.56,7.37,7.37,0,0,1-1.74-.57,2.37,2.37,0,0,1-1-.78,1.83,1.83,0,0,1-.31-1.08,2.17,2.17,0,0,1,.88-1.75,3.4,3.4,0,0,1,2.24-.72,3.54,3.54,0,0,1,2.33.74,2.36,2.36,0,0,1,.9,1.9h-1.46a1.27,1.27,0,0,0-.5-1,1.86,1.86,0,0,0-1.27-.43,2,2,0,0,0-1.23.34,1.08,1.08,0,0,0-.45.9.88.88,0,0,0,.42.79,5.2,5.2,0,0,0,1.49.5,8.61,8.61,0,0,1,1.76.58,2.65,2.65,0,0,1,1,.81,2,2,0,0,1,.33,1.15,2.18,2.18,0,0,1-.91,1.82,3.77,3.77,0,0,1-2.35.68,4.25,4.25,0,0,1-1.8-.36,2.89,2.89,0,0,1-1.22-1,2.36,2.36,0,0,1-.44-1.39h1.44a1.53,1.53,0,0,0,.58,1.15,2.72,2.72,0,0,0,2.75.09A1,1,0,0,0,1506.39,294.71Z"/><path class="cls-7" d="M1514.64,294.71a1.05,1.05,0,0,0-.44-.91,4.12,4.12,0,0,0-1.54-.56,7.37,7.37,0,0,1-1.74-.57,2.37,2.37,0,0,1-1-.78,1.83,1.83,0,0,1-.31-1.08,2.17,2.17,0,0,1,.88-1.75,3.4,3.4,0,0,1,2.24-.72,3.54,3.54,0,0,1,2.33.74,2.36,2.36,0,0,1,.9,1.9h-1.46a1.27,1.27,0,0,0-.5-1,1.86,1.86,0,0,0-1.27-.43,2,2,0,0,0-1.23.34,1.08,1.08,0,0,0-.45.9.88.88,0,0,0,.42.79,5.2,5.2,0,0,0,1.49.5,8.61,8.61,0,0,1,1.76.58,2.65,2.65,0,0,1,1,.81,2,2,0,0,1,.33,1.15,2.18,2.18,0,0,1-.91,1.82,3.77,3.77,0,0,1-2.35.68,4.25,4.25,0,0,1-1.8-.36,2.89,2.89,0,0,1-1.22-1,2.36,2.36,0,0,1-.44-1.39h1.44a1.53,1.53,0,0,0,.58,1.15,2.72,2.72,0,0,0,2.75.09A1,1,0,0,0,1514.64,294.71Z"/><path class="cls-7" d="M1523,284.8l.82.56a3.76,3.76,0,0,0-.75,2.14v1.06h-1.43v-.9a3.5,3.5,0,0,1,.38-1.58A3.61,3.61,0,0,1,1523,284.8Z"/><path class="cls-7" d="M1528.79,297.1a4.16,4.16,0,0,1-3-1.14,4,4,0,0,1-1.17-3v-.21a5.09,5.09,0,0,1,.5-2.28,3.56,3.56,0,0,1,1.39-1.55,3.93,3.93,0,0,1,2.06-.54,3.49,3.49,0,0,1,2.73,1.09,4.46,4.46,0,0,1,1,3.1v.93h-5.39a2.14,2.14,0,0,0,.66,1.32,2,2,0,0,0,1.4.5,2.44,2.44,0,0,0,2-.94l1.11,1.24a3.41,3.41,0,0,1-1.38,1.12A4.49,4.49,0,0,1,1528.79,297.1Zm-.26-6.94a1.42,1.42,0,0,0-1.09.45,2.32,2.32,0,0,0-.53,1.31h3.14v-.18a1.67,1.67,0,0,0-.41-1.17A1.47,1.47,0,0,0,1528.53,290.16Z"/><path class="cls-7" d="M1538.13,294.61a.74.74,0,0,0-.41-.65,4.93,4.93,0,0,0-1.32-.43c-2-.42-3-1.27-3-2.56a2.31,2.31,0,0,1,.94-1.88,3.76,3.76,0,0,1,2.44-.75,4,4,0,0,1,2.57.76,2.39,2.39,0,0,1,1,2H1538a1.13,1.13,0,0,0-.31-.8,1.34,1.34,0,0,0-1-.31,1.3,1.3,0,0,0-.88.26.81.81,0,0,0-.32.65.71.71,0,0,0,.36.61,4,4,0,0,0,1.2.4,9.59,9.59,0,0,1,1.42.37,2.35,2.35,0,0,1,1.79,2.28,2.21,2.21,0,0,1-1,1.87,4.26,4.26,0,0,1-2.56.71,4.37,4.37,0,0,1-1.89-.38,3.1,3.1,0,0,1-1.29-1,2.38,2.38,0,0,1-.47-1.43h2.14a1.18,1.18,0,0,0,.44.92,1.74,1.74,0,0,0,1.11.32,1.67,1.67,0,0,0,1-.24A.79.79,0,0,0,1538.13,294.61Z"/><path class="cls-7" d="M1545.29,295.28a1.45,1.45,0,0,0,1-.34,1.2,1.2,0,0,0,.41-.91h2.12a2.92,2.92,0,0,1-.47,1.57,3.08,3.08,0,0,1-1.26,1.11,4,4,0,0,1-1.77.39,3.66,3.66,0,0,1-2.86-1.15,4.55,4.55,0,0,1-1-3.18v-.15a4.54,4.54,0,0,1,1-3.12,3.63,3.63,0,0,1,2.85-1.16,3.58,3.58,0,0,1,2.55.9,3.21,3.21,0,0,1,1,2.4h-2.12a1.56,1.56,0,0,0-.41-1.07,1.51,1.51,0,0,0-2.22.16,3.35,3.35,0,0,0-.4,1.87v.23a3.32,3.32,0,0,0,.4,1.88A1.37,1.37,0,0,0,1545.29,295.28Z"/><path class="cls-7" d="M1550.45,288.78l-.82-.57a3.81,3.81,0,0,0,.75-2.14V285h1.42v1a3.58,3.58,0,0,1-.38,1.56A3.66,3.66,0,0,1,1550.45,288.78Z"/><path class="cls-7" d="M1559.86,293l-.91,1v3h-1.44V285H1559v7.26l.78-.93,2.63-2.79h1.76l-3.29,3.54,3.67,4.92h-1.7Z"/><path class="cls-7" d="M1569.12,297.1a3.67,3.67,0,0,1-2.8-1.13,4.16,4.16,0,0,1-1.08-3v-.27a5.09,5.09,0,0,1,.48-2.25,3.69,3.69,0,0,1,1.35-1.54,3.31,3.31,0,0,1,1.87-.56,3.17,3.17,0,0,1,2.56,1.08,4.71,4.71,0,0,1,.91,3.11v.6h-5.72a3,3,0,0,0,.73,2,2.27,2.27,0,0,0,1.78.77,2.47,2.47,0,0,0,1.29-.31,3.06,3.06,0,0,0,.93-.83l.88.69A3.53,3.53,0,0,1,1569.12,297.1Zm-.18-7.57a1.92,1.92,0,0,0-1.47.63,3.13,3.13,0,0,0-.74,1.79H1571v-.11a2.75,2.75,0,0,0-.59-1.71A1.84,1.84,0,0,0,1568.94,289.53Z"/><path class="cls-7" d="M1576.85,294.83l2-6.34h1.55l-3.4,9.76c-.53,1.41-1.36,2.11-2.51,2.11l-.27,0-.54-.1v-1.18l.39,0a1.89,1.89,0,0,0,1.14-.3,2.13,2.13,0,0,0,.68-1.09l.32-.86-3-8.36h1.58Z"/><path class="cls-7" d="M1585,292.41a12.3,12.3,0,0,1-.45,3.34,10.26,10.26,0,0,1-1.4,2.95,6.14,6.14,0,0,1-2,1.92l-.3-.88a6.26,6.26,0,0,0,1.93-2.87,12.29,12.29,0,0,0,.75-4.31v-.25a13.38,13.38,0,0,0-.34-3.05,10.16,10.16,0,0,0-1-2.52,5.88,5.88,0,0,0-1.38-1.75l.3-.88a6.09,6.09,0,0,1,2,1.91,10,10,0,0,1,1.4,2.94A12.4,12.4,0,0,1,1585,292.41Z"/></g><g id="Layer_2" data-name="Layer 2"><rect class="cls-2" x="48" y="88" width="200" height="40"/><rect class="cls-2" x="328" y="88" width="40" height="40"/><rect class="cls-1" x="47.5" y="144.5" width="40" height="16"/><rect class="cls-1" x="103.5" y="144.5" width="120" height="16"/><rect class="cls-1" x="47.5" y="167.5" width="168" height="16"/><rect class="cls-1" x="47.5" y="192.5" width="120" height="15"/><rect class="cls-1" x="48.5" y="248.5" width="288" height="40"/><rect class="cls-1" x="48.5" y="287.5" width="184" height="40"/><rect class="cls-1" x="47.5" y="327.5" width="176" height="17"/><rect class="cls-1" x="48.5" y="376.5" width="304" height="24"/><rect class="cls-1" x="48.5" y="399.5" width="48" height="25"/><rect class="cls-1" x="48.5" y="448.5" width="304" height="24"/><rect class="cls-1" x="48.5" y="471.5" width="312" height="25"/><rect class="cls-1" x="48.5" y="567.5" width="304" height="24"/><rect class="cls-1" x="48.5" y="590.5" width="312" height="25"/><rect class="cls-1" x="48.5" y="615.5" width="312" height="25"/><rect class="cls-1" x="47.5" y="511.5" width="249" height="33"/><rect class="cls-6" x="31.72" y="31.24" width="352" height="49"/><path class="cls-4" d="M169.34,59.74H167V54.87h-4.57v4.87h-2.35V48.37h2.35V53H167V48.37h2.34Z"/><path class="cls-4" d="M171.22,49.1a1.12,1.12,0,0,1,.34-.83,1.29,1.29,0,0,1,.93-.33,1.26,1.26,0,0,1,.92.33,1.09,1.09,0,0,1,.35.83,1.12,1.12,0,0,1-.35.85,1.48,1.48,0,0,1-1.84,0A1.12,1.12,0,0,1,171.22,49.1Zm2.4,10.64h-2.26V51.29h2.26Z"/><path class="cls-4" d="M175.13,55.45a5.09,5.09,0,0,1,.89-3.14,2.86,2.86,0,0,1,2.42-1.18,2.56,2.56,0,0,1,2,.93V47.74h2.27v12h-2l-.11-.9a2.64,2.64,0,0,1-2.17,1.06,2.86,2.86,0,0,1-2.4-1.18A5.25,5.25,0,0,1,175.13,55.45Zm2.26.17a3.42,3.42,0,0,0,.41,1.83,1.36,1.36,0,0,0,1.21.63,1.51,1.51,0,0,0,1.47-.88V53.85A1.49,1.49,0,0,0,179,53C177.93,53,177.39,53.85,177.39,55.62Z"/><path class="cls-4" d="M188.39,59.9a4.16,4.16,0,0,1-3-1.14,4,4,0,0,1-1.17-3V55.5a5.09,5.09,0,0,1,.5-2.28,3.53,3.53,0,0,1,1.39-1.54,3.85,3.85,0,0,1,2.06-.55,3.53,3.53,0,0,1,2.73,1.1,4.46,4.46,0,0,1,1,3.1v.92h-5.38a2.17,2.17,0,0,0,.66,1.33,2,2,0,0,0,1.4.5,2.44,2.44,0,0,0,2-.95l1.11,1.25a3.41,3.41,0,0,1-1.38,1.12A4.49,4.49,0,0,1,188.39,59.9ZM188.13,53a1.43,1.43,0,0,0-1.09.46,2.28,2.28,0,0,0-.53,1.3h3.14v-.18a1.66,1.66,0,0,0-.41-1.16A1.44,1.44,0,0,0,188.13,53Z"/><path class="cls-4" d="M199.83,49.21v2.08h1.45V53h-1.45v4.22a1,1,0,0,0,.18.67.93.93,0,0,0,.69.2,4.23,4.23,0,0,0,.66,0V59.7a4.76,4.76,0,0,1-1.36.2,2.15,2.15,0,0,1-2.42-2.4V53h-1.24V51.29h1.24V49.21Z"/><path class="cls-4" d="M204.74,52.21A2.82,2.82,0,0,1,207,51.13c1.83,0,2.76,1.07,2.79,3.2v5.41h-2.26V54.39a1.61,1.61,0,0,0-.31-1.07,1.36,1.36,0,0,0-1-.35,1.53,1.53,0,0,0-1.44.77v6h-2.26v-12h2.26Z"/><path class="cls-4" d="M211.47,49.1a1.12,1.12,0,0,1,.34-.83,1.29,1.29,0,0,1,.93-.33,1.26,1.26,0,0,1,.92.33,1.09,1.09,0,0,1,.35.83,1.12,1.12,0,0,1-.35.85,1.48,1.48,0,0,1-1.84,0A1.12,1.12,0,0,1,211.47,49.1Zm2.4,10.64h-2.26V51.29h2.26Z"/><path class="cls-4" d="M220.31,57.41a.74.74,0,0,0-.41-.66,4.74,4.74,0,0,0-1.32-.42c-2-.42-3-1.28-3-2.56a2.32,2.32,0,0,1,.93-1.88,3.73,3.73,0,0,1,2.44-.76,4.1,4.1,0,0,1,2.58.76,2.4,2.4,0,0,1,1,2h-2.26a1.09,1.09,0,0,0-.31-.8,1.32,1.32,0,0,0-1-.32,1.39,1.39,0,0,0-.89.26.81.81,0,0,0-.31.66.68.68,0,0,0,.36.6,3.37,3.37,0,0,0,1.19.4,9.65,9.65,0,0,1,1.43.38,2.34,2.34,0,0,1,1.79,2.27,2.21,2.21,0,0,1-1,1.87,4.24,4.24,0,0,1-2.56.72,4.52,4.52,0,0,1-1.89-.38,3.12,3.12,0,0,1-1.29-1,2.42,2.42,0,0,1-.47-1.42h2.14a1.18,1.18,0,0,0,.45.92,1.77,1.77,0,0,0,1.11.32,1.59,1.59,0,0,0,1-.25A.76.76,0,0,0,220.31,57.41Z"/><path class="cls-4" d="M235.55,55.59a5.06,5.06,0,0,1-.88,3.13,2.85,2.85,0,0,1-2.4,1.18A2.66,2.66,0,0,1,230.2,59v4h-2.26V51.29H230l.07.83a2.67,2.67,0,0,1,2.15-1,2.87,2.87,0,0,1,2.43,1.16,5.26,5.26,0,0,1,.86,3.19Zm-2.26-.16a3.41,3.41,0,0,0-.41-1.82,1.37,1.37,0,0,0-1.22-.64,1.48,1.48,0,0,0-1.46.81v3.46a1.51,1.51,0,0,0,1.48.84C232.76,58.08,233.29,57.2,233.29,55.43Z"/><path class="cls-4" d="M241.85,59.74a2.37,2.37,0,0,1-.23-.75,2.75,2.75,0,0,1-2.13.91,3,3,0,0,1-2.06-.72,2.32,2.32,0,0,1-.82-1.81,2.39,2.39,0,0,1,1-2.06,4.9,4.9,0,0,1,2.88-.73h1v-.49a1.37,1.37,0,0,0-.3-.93,1.17,1.17,0,0,0-.95-.35,1.38,1.38,0,0,0-.9.27.94.94,0,0,0-.32.75H236.8a2.23,2.23,0,0,1,.46-1.36,3,3,0,0,1,1.28-1,4.61,4.61,0,0,1,1.86-.36,3.73,3.73,0,0,1,2.48.79,2.75,2.75,0,0,1,.91,2.21v3.66a4.08,4.08,0,0,0,.34,1.82v.13ZM240,58.17a1.9,1.9,0,0,0,.92-.22,1.47,1.47,0,0,0,.63-.6V55.9h-.84c-1.13,0-1.74.39-1.81,1.17v.13a.89.89,0,0,0,.3.7A1.17,1.17,0,0,0,240,58.17Z"/><path class="cls-4" d="M245.2,55.45a4.94,4.94,0,0,1,.93-3.13,3,3,0,0,1,2.49-1.19,2.64,2.64,0,0,1,2.17,1l.09-.8h2.05v8.17a3.59,3.59,0,0,1-.51,1.93A3.18,3.18,0,0,1,251,62.64a5,5,0,0,1-2.15.43,4.58,4.58,0,0,1-1.81-.37,3.2,3.2,0,0,1-1.33-1l1-1.37a2.63,2.63,0,0,0,2,.94,1.93,1.93,0,0,0,1.4-.48,1.8,1.8,0,0,0,.5-1.36V59a2.59,2.59,0,0,1-2,.88,3,3,0,0,1-2.47-1.19,5,5,0,0,1-.94-3.16Zm2.26.17a3.09,3.09,0,0,0,.46,1.81,1.48,1.48,0,0,0,1.27.65,1.57,1.57,0,0,0,1.47-.78V53.74A1.57,1.57,0,0,0,249.2,53a1.49,1.49,0,0,0-1.28.66A3.51,3.51,0,0,0,247.46,55.62Z"/><path class="cls-4" d="M258.55,59.9a4.12,4.12,0,0,1-3-1.14,4,4,0,0,1-1.17-3V55.5a5.09,5.09,0,0,1,.49-2.28,3.59,3.59,0,0,1,1.39-1.54,3.87,3.87,0,0,1,2.06-.55,3.5,3.5,0,0,1,2.73,1.1,4.41,4.41,0,0,1,1,3.1v.92h-5.38a2.07,2.07,0,0,0,.66,1.33,2,2,0,0,0,1.39.5,2.44,2.44,0,0,0,2-.95l1.11,1.25a3.41,3.41,0,0,1-1.38,1.12A4.43,4.43,0,0,1,258.55,59.9ZM258.29,53a1.44,1.44,0,0,0-1.09.46,2.43,2.43,0,0,0-.53,1.3h3.14v-.18a1.66,1.66,0,0,0-.41-1.16A1.44,1.44,0,0,0,258.29,53Z"/></g><g id="fon"><path class="cls-7" d="M384,32V640H32V32H384m0-8H32a8,8,0,0,0-8,8V640a8,8,0,0,0,8,8H384a8,8,0,0,0,8-8V32a8,8,0,0,0-8-8Z"/><path class="cls-7" d="M1664,32V744H504V32H1664m0-8H504a8,8,0,0,0-8,8V744a8,8,0,0,0,8,8H1664a8,8,0,0,0,8-8V32a8,8,0,0,0-8-8Z"/></g></svg>