<svg id="Layer_1" data-name="Layer 1" xmlns="http://www.w3.org/2000/svg" viewBox="0 0 1920 1080"><defs><style>.cls-1{fill:#ebebeb;}.cls-2,.cls-5,.cls-7{fill:#fff;}.cls-3{fill:#d32205;}.cls-4,.cls-5,.cls-7,.cls-8,.cls-9{isolation:isolate;}.cls-5{font-size:22px;}.cls-5,.cls-7,.cls-9{font-family:Roboto-Bold, Roboto;font-weight:700;}.cls-6{fill:none;stroke:#ebebeb;}.cls-7,.cls-8,.cls-9{font-size:17.96px;}.cls-11,.cls-8,.cls-9{fill:#333;}.cls-8{font-family:Roboto-Regular, Roboto;}.cls-10{fill:#0065bd;}.cls-12{fill:#b3b3b3;}.cls-13{fill:#727272;}</style></defs><rect class="cls-1" width="1920" height="1080"/><rect class="cls-2" x="156.71" y="193.56" width="439.65" height="721.69"/><rect class="cls-2" x="701.56" y="193.56" width="1085.23" height="721.69"/><g id="Group_307" data-name="Group 307"><rect id="Rectangle_1221" data-name="Rectangle 1221" class="cls-3" x="158.04" y="193.56" width="439.65" height="61.83"/></g><g id="Hide_this_page" data-name="Hide this page" class="cls-4"><text class="cls-5" transform="translate(306.79 231.53)">Hide this page</text></g><g id="Group_1006" data-name="Group 1006"><g id="Rectangle_4142" data-name="Rectangle 4142"><rect class="cls-2" x="1451.17" y="381.41" width="290.72" height="143.68"/><rect class="cls-6" x="1451.73" y="381.97" width="289.6" height="142.55"/></g><g id="Group_999" data-name="Group 999"><g id="Group_307-2" data-name="Group 307"><rect id="Rectangle_1221-2" data-name="Rectangle 1221" class="cls-3" x="1478.11" y="408.35" width="236.84" height="53.88"/></g><g id="Hide_this_page-2" data-name="Hide this page" class="cls-4"><text class="cls-7" transform="translate(1539.05 442.58)">Hide this page</text></g><g id="_Or_press_esc_key_" data-name=" Or press esc key " class="cls-4"><text class="cls-8" transform="translate(1521.07 499.27)">(Or press ‘</text><text class="cls-9" transform="translate(1602.3 499.27)">esc</text><text class="cls-8" transform="translate(1630.61 499.27)">’ key)</text></g></g></g><path class="cls-10" d="M749.85,227.79h21.56a24.2,24.2,0,0,1,24.2,24.2v0a24.2,24.2,0,0,1-24.2,24.2H749.85a2.64,2.64,0,0,1-2.64-2.64V230.43A2.64,2.64,0,0,1,749.85,227.79Z"/><rect class="cls-11" x="814.29" y="255.39" width="108.82" height="9.11"/><rect class="cls-12" x="747.21" y="374.9" width="633.96" height="28.24"/><rect class="cls-1" x="747.21" y="455.64" width="630.27" height="9.85"/><rect class="cls-1" x="701.56" y="310.68" width="1085.23" height="16.61"/><rect class="cls-1" x="1498.52" y="236.75" width="243.38" height="32.67"/><rect class="cls-1" x="747.21" y="483.14" width="303.36" height="9.85"/><rect class="cls-1" x="747.21" y="548.23" width="630.27" height="9.85"/><rect class="cls-1" x="747.21" y="573" width="630.27" height="9.85"/><rect class="cls-1" x="747.21" y="602.13" width="630.27" height="9.85"/><rect class="cls-1" x="747.21" y="626.9" width="630.27" height="9.85"/><rect class="cls-1" x="747.21" y="690.36" width="630.27" height="9.85"/><rect class="cls-1" x="747.21" y="717.86" width="303.36" height="9.85"/><rect class="cls-1" x="747.21" y="782.94" width="630.27" height="9.85"/><rect class="cls-1" x="747.21" y="807.71" width="630.27" height="9.85"/><rect class="cls-1" x="747.21" y="836.85" width="630.27" height="9.85"/><rect class="cls-1" x="747.21" y="861.62" width="630.27" height="9.85"/><rect class="cls-12" x="193.04" y="404.8" width="369.64" height="28.24"/><rect class="cls-1" x="193.04" y="485.55" width="367.49" height="9.85"/><rect class="cls-1" x="193.04" y="513.05" width="176.88" height="9.85"/><rect class="cls-1" x="193.04" y="578.14" width="367.49" height="9.85"/><rect class="cls-1" x="193.04" y="602.91" width="367.49" height="9.85"/><rect class="cls-1" x="193.04" y="632.04" width="367.49" height="9.85"/><rect class="cls-1" x="193.04" y="656.81" width="367.49" height="9.85"/><rect class="cls-1" x="193.04" y="720.26" width="367.49" height="9.85"/><rect class="cls-1" x="193.04" y="747.76" width="176.88" height="9.85"/><rect class="cls-1" x="193.04" y="812.85" width="367.49" height="9.85"/><rect class="cls-1" x="193.04" y="837.62" width="367.49" height="9.85"/><rect class="cls-1" x="193.04" y="862.39" width="367.49" height="9.85"/><rect class="cls-11" x="814.29" y="239.48" width="83.7" height="9.11"/><path class="cls-10" d="M193,297.08h21.56a24.2,24.2,0,0,1,24.2,24.2v0a24.2,24.2,0,0,1-24.2,24.2H193a2.64,2.64,0,0,1-2.64-2.64V299.72A2.64,2.64,0,0,1,193,297.08Z"/><rect class="cls-11" x="257.47" y="324.68" width="108.82" height="9.11"/><rect class="cls-11" x="257.47" y="308.77" width="83.7" height="9.11"/><rect class="cls-13" x="524.32" y="318.99" width="38.37" height="4.56"/><rect class="cls-13" x="524.32" y="308.78" width="38.37" height="4.56"/><rect class="cls-13" x="524.32" y="329.22" width="38.37" height="4.56"/><rect class="cls-10" x="1708.66" y="236.75" width="32.67" height="32.67"/></svg>