<?xml version="1.0" encoding="utf-8"?>
<!-- Generator: Adobe Illustrator 27.2.0, SVG Export Plug-In . SVG Version: 6.00 Build 0)  -->
<svg version="1.1" id="Layer_1" xmlns="http://www.w3.org/2000/svg" xmlns:xlink="http://www.w3.org/1999/xlink" x="0px" y="0px"
	 viewBox="0 0 24 24" style="enable-background:new 0 0 24 24;" xml:space="preserve">
<style type="text/css">
	.st0{clip-path:url(#SVGID_00000078022938438277415750000007813811961978142137_);}
	.st1{fill:#0065BD;}
</style>
<g>
	<defs>
		<rect id="SVGID_1_" x="1" y="1" width="22" height="22"/>
	</defs>
	<clipPath id="SVGID_00000172413975807049935560000013531993072622077846_">
		<use xlink:href="#SVGID_1_"  style="overflow:visible;"/>
	</clipPath>
	<g style="clip-path:url(#SVGID_00000172413975807049935560000013531993072622077846_);">
		<path class="st1" d="M7.4,1.1c-1.2,0.1-2,0.2-2.7,0.5C4.1,1.9,3.4,2.3,2.8,2.9c-0.6,0.6-1,1.2-1.3,2C1.3,5.5,1.1,6.3,1.1,7.5
			C1,8.7,1,9,1,12c0,3,0,3.4,0.1,4.5c0.1,1.2,0.2,2,0.5,2.7c0.3,0.7,0.7,1.3,1.3,1.9c0.6,0.6,1.2,1,2,1.3c0.7,0.3,1.5,0.5,2.7,0.5
			C8.7,23,9,23,12,23c3,0,3.4,0,4.5-0.1c1.2-0.1,2-0.2,2.7-0.5c0.7-0.3,1.3-0.7,1.9-1.3c0.6-0.6,1-1.2,1.3-2
			c0.3-0.7,0.5-1.5,0.5-2.7C23,15.3,23,15,23,12c0-3,0-3.4-0.1-4.5c-0.1-1.2-0.2-2-0.5-2.7c-0.3-0.7-0.7-1.3-1.3-1.9
			c-0.6-0.6-1.2-1-2-1.3c-0.7-0.3-1.5-0.5-2.7-0.5C15.3,1,15,1,12,1C9,1,8.6,1,7.4,1.1L7.4,1.1z M7.6,21c-1.1,0-1.7-0.2-2-0.4
			c-0.5-0.2-0.9-0.4-1.3-0.8c-0.4-0.4-0.6-0.8-0.8-1.3c-0.2-0.4-0.3-1-0.4-2C3,15.3,3,15,3,12C3,9.1,3,8.7,3,7.6
			c0-1.1,0.2-1.7,0.4-2C3.6,5,3.9,4.6,4.2,4.3C4.6,3.9,5,3.6,5.5,3.4c0.4-0.2,1-0.3,2-0.4C8.7,3,9,3,12,3c2.9,0,3.3,0,4.4,0.1
			c1.1,0,1.7,0.2,2,0.4c0.5,0.2,0.9,0.4,1.3,0.8c0.4,0.4,0.6,0.7,0.8,1.3c0.2,0.4,0.3,1,0.4,2C21,8.7,21,9,21,12
			c0,2.9,0,3.3-0.1,4.4c0,1.1-0.2,1.7-0.4,2c-0.2,0.5-0.4,0.9-0.8,1.3c-0.4,0.4-0.7,0.6-1.3,0.8c-0.4,0.2-1,0.3-2,0.4
			C15.3,21,15,21,12,21C9.1,21,8.7,21,7.6,21L7.6,21z M16.5,6.1c0,0.7,0.6,1.3,1.3,1.3c0.7,0,1.3-0.6,1.3-1.3c0-0.7-0.6-1.3-1.3-1.3
			C17.1,4.8,16.5,5.4,16.5,6.1L16.5,6.1z M6.4,12c0,3.1,2.5,5.6,5.7,5.6c3.1,0,5.6-2.5,5.6-5.7c0-3.1-2.5-5.6-5.7-5.6
			C8.9,6.4,6.3,8.9,6.4,12z M8.3,12c0-2,1.6-3.7,3.7-3.7c2,0,3.7,1.6,3.7,3.7c0,2-1.6,3.7-3.7,3.7C10,15.7,8.3,14,8.3,12"/>
	</g>
</g>
</svg>
