<svg width="24" height="24" viewBox="0 0 24 24" fill="none" xmlns="http://www.w3.org/2000/svg">
<g clip-path="url(#clip0_1773_1571)">
<path d="M20.7477 7.51193C20.7611 7.70588 20.7611 7.89982 20.7611 8.09556C20.7611 14.0596 16.2208 20.9381 7.91863 20.9381V20.9345C5.46614 20.9381 3.06459 20.2356 1 18.911C1.35661 18.9539 1.71501 18.9753 2.0743 18.9762C4.10672 18.978 6.08105 18.2961 7.67999 17.0403C5.74857 17.0037 4.05489 15.7444 3.46321 13.9059C4.13979 14.0364 4.83693 14.0096 5.501 13.8282C3.39529 13.4027 1.88036 11.5526 1.88036 9.40403V9.34683C2.50778 9.69629 3.21028 9.89024 3.92886 9.91169C1.9456 8.58624 1.33427 5.94784 2.53191 3.88504C4.82352 6.70486 8.20463 8.4191 11.8342 8.60054C11.4704 7.03287 11.9674 5.39014 13.14 4.28812C14.9579 2.57925 17.8171 2.66684 19.5259 4.48386C20.5368 4.28455 21.5056 3.91364 22.3922 3.3881C22.0553 4.43291 21.3501 5.32042 20.4081 5.88439C21.3027 5.77892 22.1768 5.53939 23 5.17384C22.394 6.08191 21.6308 6.87289 20.7477 7.51193Z" fill="#0065BD"/>
</g>
<defs>
<clipPath id="clip0_1773_1571">
<rect width="22" height="17.8762" fill="white" transform="translate(1 3.06189)"/>
</clipPath>
</defs>
</svg>
