<?xml version="1.0" encoding="utf-8"?>
<!-- Generator: Adobe Illustrator 27.2.0, SVG Export Plug-In . SVG Version: 6.00 Build 0)  -->
<svg version="1.1" id="Layer_1" xmlns="http://www.w3.org/2000/svg" xmlns:xlink="http://www.w3.org/1999/xlink" x="0px" y="0px"
	 viewBox="0 0 24 24" style="enable-background:new 0 0 24 24;" xml:space="preserve">
<style type="text/css">
	.st0{fill:#0065BD;}
</style>
<path class="st0" d="M22.5,6.7c-0.1-0.5-0.4-0.9-0.7-1.2c-0.3-0.3-0.8-0.6-1.2-0.7C18.9,4.2,12,4.2,12,4.2c-2.9,0-5.7,0.1-8.6,0.5
	C2.9,4.8,2.5,5.1,2.2,5.4C1.8,5.8,1.6,6.2,1.4,6.7C1.1,8.4,1,10.2,1,12c0,1.8,0.1,3.6,0.4,5.3c0.1,0.5,0.4,0.9,0.7,1.2
	c0.3,0.3,0.8,0.6,1.2,0.7c1.7,0.5,8.6,0.5,8.6,0.5c2.9,0,5.8-0.1,8.6-0.5c0.5-0.1,0.9-0.4,1.2-0.7c0.3-0.3,0.6-0.8,0.7-1.2
	c0.3-1.8,0.5-3.6,0.5-5.3C23,10.2,22.9,8.4,22.5,6.7L22.5,6.7z M9.8,15.3V8.7l5.7,3.3L9.8,15.3z"/>
</svg>
