<svg viewBox="0 0 852.16 345.09" xmlns="http://www.w3.org/2000/svg"><g fill="#333"><path d="m743.3 251.79v-251.59l-89.4 57v284h198.26v-89.41z"/><path d="m599.62 312.56a83.12 83.12 0 1 1 15.26-107.08l75.36-48a172.35 172.35 0 0 0 -295.59 7.84 172.61 172.61 0 0 0 -150.16-87.73c-95.14 0-172.49 77.41-172.49 172.55s77.4 172.54 172.54 172.54a172.6 172.6 0 0 0 150.11-87.68 172.29 172.29 0 0 0 263.9 44.78l34.25 39.07h5.33v-154.85h-141.13zm-355.13 20.72a83.14 83.14 0 1 1 83.14-83.14 83.24 83.24 0 0 1 -83.14 83.14z" transform="translate(-71.95 -77.59)"/></g></svg>
