<svg xmlns="http://www.w3.org/2000/svg" xml:space="preserve" id="sg-logo" x="0" y="0" version="1.1" viewBox="0 0 165 30">
  <defs>
    <style>
      .text{fill:#333}
    </style>
  </defs>
  <switch>
    <g>
      <path d="M57 0h1v30h-1z" class="text"/>
      <path fill="#fff" d="M0 0v30h51V0z"/>
      <path fill="#0065bd" d="m6.5 0 19 11.1L44.5 0h-38zm0 30 19-11.1 19 11.1h-38zM0 3.2v23l18.9-11.5L0 3.2zm51 0v23L32.1 14.7 51 3.2z"/>
      <path d="M70 25.2c3.2 0 7-1.3 7-6.1V7h-3v1.3A5.5 5.5 0 0 0 69.5 6c-3.4 0-6 2.5-6 6.8s2.7 7 6.1 7a5.6 5.6 0 0 0 4.4-2.3V19c0 2.8-2.2 3.7-4.1 3.7a5.5 5.5 0 0 1-4.4-1.7l-1.3 2.1a7.8 7.8 0 0 0 5.7 2Zm.4-8c-2.3 0-3.9-1.7-3.9-4.3s1.6-4.2 4-4.2a5.3 5.3 0 0 1 3.5 1.7v5a5.4 5.4 0 0 1-3.6 1.8Zm15.9 3a6.7 6.7 0 0 0 6.9-7 6.9 6.9 0 1 0-13.8 0 6.7 6.7 0 0 0 6.9 7Zm0-2.7c-2.5 0-3.9-2-3.9-4.4s1.4-4.5 3.9-4.5 3.8 2.1 3.8 4.5-1.3 4.4-3.8 4.4Zm16 2.5 5.5-13h-3.1l-4 10L97 7h-3.2l5.5 13Zm7.4 0a2 2 0 0 0 2-2 2 2 0 0 0-4 0 2 2 0 0 0 2 2Zm10 0c3.7 0 5.7-1.7 5.7-4 0-5.4-8.1-3.6-8.1-6 0-1 1-1.7 2.4-1.7a5.5 5.5 0 0 1 4 1.7l1.3-2a7.6 7.6 0 0 0-5.2-2c-3.4 0-5.3 2-5.3 4 0 5.2 8.1 3.3 8.1 6 0 1-.9 1.7-2.6 1.7a6.9 6.9 0 0 1-4.6-1.8l-1.3 2.1a8.1 8.1 0 0 0 5.7 2.1Zm14.5 0a6 6 0 0 0 5.1-2.3l-1.9-1.8a3.6 3.6 0 0 1-3 1.6c-2.5 0-4-1.8-4-4.4s1.6-4.5 4-4.5a3.5 3.5 0 0 1 3 1.6l2-1.8a6 6 0 0 0-5.2-2.4 6.7 6.7 0 0 0-7 7 6.7 6.7 0 0 0 7 7Zm13.3 0a6.7 6.7 0 0 0 6.8-7 6.9 6.9 0 1 0-13.7 0 6.7 6.7 0 0 0 6.9 7Zm0-2.5c-2.5 0-3.9-2-3.9-4.5s1.4-4.4 3.9-4.4 3.8 2.1 3.8 4.4-1.3 4.5-3.8 4.5Zm13.8 2.6a3.8 3.8 0 0 0 2.7-.9l-.7-2.2a1.5 1.5 0 0 1-1.2.5c-.8 0-1-.7-1-1.6V9h3V7h-3V3h-3v4h-2v2h2v7.7c0 2.2 1 3.4 3.3 3.4Z" class="text"/>
    </g>
  </switch>
</svg>
